<svg width="161" height="49" viewBox="0 0 161 49" fill="none" xmlns="http://www.w3.org/2000/svg">
<path fill-rule="evenodd" clip-rule="evenodd" d="M37.7339 17.9594C37.3108 15.4563 35.0192 13.7816 32.6263 14.2243C30.8592 14.5514 29.5259 15.9434 29.1188 17.6554L29.1161 17.6669C29.101 17.7292 29.0877 17.7932 29.0752 17.8563L29.0708 17.8785C29.0592 17.9407 29.0486 18.0029 29.0397 18.0652L29.0361 18.0892C29.0259 18.1592 29.0173 18.2294 29.0103 18.2998L29.0086 18.314C28.9952 18.4484 28.9884 18.5834 28.9881 18.7185L28.9863 18.778L28.9881 18.8305L28.9899 18.9105C28.997 19.1283 29.0174 19.3469 29.0548 19.5674C29.2966 20.9958 30.5997 21.9478 31.965 21.6954C32.4441 21.606 32.8858 21.3764 33.2343 21.0358C33.373 20.9019 33.5483 20.8121 33.7381 20.7779C33.9278 20.7437 34.1234 20.7667 34.3001 20.8438C34.7402 21.0361 35.2279 21.0918 35.7001 21.0038C37.0103 20.7603 37.9019 19.4945 37.757 18.13C37.7513 18.0729 37.743 18.016 37.7339 17.9594ZM48.2921 14.8189C43.4583 14.8189 40.4557 16.5265 40.4557 19.2749C40.4557 22.4794 43.5312 26.8527 48.2921 26.8527C52.9792 26.8527 56.1294 22.4296 56.1294 19.2749C56.1294 16.4847 53.1997 14.8189 48.2921 14.8189ZM67.5917 18.5665C67.5917 18.5452 67.5899 18.5247 67.589 18.5034C67.5855 18.4402 67.5808 18.3771 67.5748 18.314L67.573 18.2998C67.5662 18.2294 67.5579 18.1592 67.5481 18.0892L67.5437 18.0652C67.5243 17.9314 67.499 17.7985 67.4681 17.6669L67.4654 17.6563C67.0566 15.9434 65.7232 14.5514 63.9579 14.2243C61.565 13.7807 59.2734 15.4563 58.8494 17.9594C58.8406 18.0163 58.8317 18.0732 58.8263 18.13C58.6814 19.4954 59.573 20.7612 60.8841 21.0029C61.3739 21.0945 61.8557 21.0296 62.2841 20.8429C62.4608 20.7657 62.6566 20.7427 62.8464 20.7771C63.0362 20.8114 63.2115 20.9015 63.3499 21.0358C63.6912 21.3674 64.125 21.6047 64.6183 21.6954C65.9837 21.9478 67.2868 20.9958 67.5286 19.5674C67.5659 19.3469 67.5872 19.1283 67.5934 18.9114L67.5961 18.8305V18.778V18.7185C67.5952 18.6678 67.5943 18.6163 67.5917 18.5665ZM55.2406 29.3798C53.9721 28.8092 52.2654 29.7843 50.8246 30.0198C49.9757 30.1656 49.1348 30.242 48.2921 30.25C47.4432 30.241 46.5964 30.1643 45.7597 30.0207C44.3188 29.7843 42.613 28.8092 41.3437 29.3807C40.7001 29.6723 40.5019 30.3843 40.7632 31.234C40.9536 31.822 41.2861 32.3538 41.7312 32.7825C42.6468 33.6847 43.8201 34.3674 44.8992 34.7994C45.9979 35.242 47.1437 35.4785 48.2921 35.4865C49.4565 35.4733 50.608 35.2401 51.6859 34.7994C52.765 34.3683 53.9374 33.6838 54.8539 32.7825C55.2988 32.3537 55.6313 31.8219 55.8219 31.234C56.0832 30.3843 55.8841 29.6714 55.2406 29.3798ZM126.018 19.9069C124.115 19.9069 122.644 20.5994 121.577 22.1852V20.8083C121.576 20.6534 121.514 20.505 121.405 20.3955C121.295 20.2861 121.147 20.2245 120.992 20.2243H117.201C117.046 20.2247 116.897 20.2864 116.788 20.3958C116.678 20.5052 116.616 20.6534 116.616 20.8083V34.5807C116.616 34.7355 116.678 34.8838 116.788 34.9932C116.897 35.1026 117.046 35.1642 117.201 35.1647H120.992C121.068 35.1649 121.145 35.15 121.216 35.1208C121.287 35.0915 121.351 35.0485 121.405 34.9942C121.46 34.94 121.503 34.8755 121.532 34.8045C121.562 34.7336 121.577 34.6575 121.577 34.5807V27.0892C121.577 25.3869 122.182 23.8874 123.97 23.8874C125.787 23.8874 126.336 25.6474 126.336 27.0892V34.5798C126.336 34.7349 126.398 34.8835 126.507 34.9931C126.617 35.1028 126.765 35.1645 126.921 35.1647H130.713C130.867 35.1645 131.016 35.1029 131.126 34.9935C131.235 34.884 131.297 34.7356 131.297 34.5807V26.8003C131.297 23.5407 130.374 19.9069 126.018 19.9069ZM96.6539 31.562L95.8708 31.5603C95.2494 31.5389 94.9757 31.0669 94.9757 30.4287V30.138H94.9774V15.1887C94.9774 15.0336 94.9158 14.8848 94.8061 14.7751C94.6964 14.6654 94.5477 14.6038 94.3926 14.6038H90.7019C90.5468 14.6041 90.3982 14.6658 90.2886 14.7754C90.1789 14.885 90.1172 15.0337 90.117 15.1887V30.1727C90.117 34.4625 92.8726 35.4572 95.4583 35.4572C95.8139 35.4572 96.1552 35.434 96.7001 35.3887C96.8465 35.3767 96.9829 35.31 97.0824 35.202C97.1819 35.0939 97.237 34.9524 97.237 34.8056V32.1469C97.2371 32.0702 97.2221 31.9943 97.1929 31.9234C97.1636 31.8525 97.1207 31.788 97.0666 31.7337C97.0124 31.6794 96.9481 31.6363 96.8773 31.6068C96.8065 31.5774 96.7306 31.5622 96.6539 31.562ZM106.096 31.5887C103.99 31.5887 102.691 29.858 102.691 27.666C102.691 25.5594 103.932 23.8296 106.038 23.8296C108.143 23.8296 109.556 25.4163 109.556 27.81C109.556 30.1745 108.057 31.5878 106.096 31.5878V31.5887ZM113.817 20.2243H110.025C109.91 20.2246 109.797 20.2591 109.701 20.3233C109.605 20.3875 109.53 20.4786 109.486 20.5852C109.457 20.6559 109.442 20.7317 109.441 20.8083V22.2145C108.518 20.8305 106.846 19.9069 104.884 19.9069C100.501 19.9069 97.7028 23.3398 97.7028 27.666C97.7028 32.0785 100.615 35.482 104.913 35.482C107.018 35.482 108.489 34.5878 109.441 33.1176V34.5798C109.441 34.7349 109.502 34.8835 109.612 34.9931C109.722 35.1028 109.87 35.1645 110.025 35.1647H113.817C113.894 35.1649 113.97 35.15 114.041 35.1208C114.112 35.0915 114.177 35.0485 114.231 34.9942C114.286 34.94 114.329 34.8755 114.358 34.8045C114.387 34.7336 114.402 34.6575 114.402 34.5807V20.8083C114.403 20.7314 114.388 20.6553 114.358 20.5843C114.329 20.5133 114.286 20.4488 114.231 20.3945C114.177 20.3402 114.113 20.2972 114.041 20.268C113.97 20.2388 113.894 20.2239 113.817 20.2243ZM79.5952 31.5887C77.4903 31.5887 76.1917 29.858 76.1917 27.666C76.1917 25.5594 77.4326 23.8296 79.5383 23.8296C81.6432 23.8296 83.0566 25.4163 83.0566 27.81C83.0566 30.1745 81.557 31.5878 79.5952 31.5878V31.5887ZM87.3179 20.2243H83.5259C83.4491 20.224 83.373 20.239 83.302 20.2682C83.231 20.2975 83.1665 20.3405 83.1121 20.3947C83.0578 20.449 83.0147 20.5135 82.9853 20.5844C82.9559 20.6554 82.9409 20.7315 82.941 20.8083V22.2145C82.0183 20.8305 80.3454 19.9069 78.3845 19.9069C74.0005 19.9069 71.2023 23.3398 71.2023 27.666C71.2023 32.0785 74.1152 35.482 78.413 35.482C80.5188 35.482 81.9899 34.5878 82.941 33.1176V34.5798C82.9409 34.6566 82.9559 34.7326 82.9852 34.8036C83.0145 34.8745 83.0575 34.939 83.1117 34.9933C83.166 35.0477 83.2304 35.0908 83.3013 35.1202C83.3722 35.1496 83.4482 35.1647 83.525 35.1647H87.3179C87.4727 35.1645 87.6211 35.1029 87.7306 34.9934C87.84 34.8839 87.9016 34.7355 87.9019 34.5807V20.8083C87.9016 20.6534 87.84 20.505 87.7306 20.3956C87.6211 20.2861 87.4727 20.2245 87.3179 20.2243Z" fill="#EEEFFC"/>
</svg>
