<svg width="161" height="51" viewBox="0 0 161 51" fill="none" xmlns="http://www.w3.org/2000/svg">
<path d="M119.734 29.0504C119.622 29.0496 119.512 29.0719 119.409 29.1157C119.306 29.1596 119.213 29.2241 119.136 29.3053C118.328 30.1387 117.272 30.6468 116.041 30.6468C115.35 30.6479 114.67 30.4815 114.057 30.1618C112.445 29.3204 111.403 27.4832 111.693 25.4364C112.009 23.1896 113.974 21.5177 116.176 21.5825C117.351 21.6181 118.359 22.1191 119.139 22.9231C119.215 23.0042 119.308 23.0687 119.411 23.1124C119.514 23.1561 119.624 23.1782 119.736 23.1772C120.228 23.1772 120.65 22.7419 120.65 22.271C120.65 22.0516 120.581 21.8002 120.403 21.6181C119.4 20.5692 118.049 19.9204 116.603 19.7924C113.125 19.4833 109.995 22.3155 109.887 25.9099C109.778 29.5221 112.562 32.4609 116.041 32.4609C117.765 32.4609 119.277 31.7706 120.403 30.6122C120.579 30.4309 120.65 30.1769 120.65 29.9601C120.649 29.4866 120.226 29.0504 119.734 29.0504ZM104.241 26.7876C105.381 26.1347 106.138 24.922 106.102 23.4384C106.053 21.3729 104.329 19.7649 102.325 19.7649H96.7807C96.2955 19.7649 95.9018 20.1709 95.9018 20.671V31.2278C95.9018 31.6889 96.2199 32.1118 96.6625 32.1624C97.2099 32.2246 97.6605 31.8461 97.6605 31.2971V28.9953C97.6605 28.8176 97.7769 28.6648 97.9422 28.6222L101.058 27.8271L102.344 27.4895C102.429 27.4677 102.519 27.477 102.598 27.5158C102.677 27.5546 102.739 27.6202 102.774 27.7009L104.515 31.6454C104.657 31.9696 104.965 32.1606 105.29 32.1606C105.497 32.159 105.697 32.082 105.851 31.9439C106.145 31.688 106.206 31.2438 106.047 30.884L104.241 26.7885V26.7876ZM97.6605 26.4145V21.8899C97.6605 21.6767 97.8275 21.507 98.0319 21.507H102.268C103.498 21.507 104.343 22.3777 104.343 23.5397C104.343 24.7008 103.651 25.5394 102.237 25.8513L98.111 26.7894C98.0559 26.8009 97.9988 26.7999 97.9441 26.7862C97.8894 26.7726 97.8385 26.7468 97.7952 26.7108C97.7518 26.6747 97.7172 26.6294 97.6939 26.5781C97.6706 26.5268 97.6591 26.4708 97.6605 26.4145ZM86.7831 20.4552C86.5965 20.051 86.2011 19.8093 85.7238 19.8093C85.2466 19.8093 84.8503 20.051 84.6645 20.4534L79.8106 30.8849C79.7475 31.0137 79.7129 31.1736 79.7129 31.3184C79.7129 31.8133 80.0879 32.1855 80.5882 32.1855C80.7563 32.1905 80.922 32.1449 81.0638 32.0546C81.2056 31.9643 81.317 31.8335 81.3836 31.6791L82.2873 29.7495C82.693 29.8974 83.11 30.0121 83.5342 30.0925C84.238 30.2266 84.9471 30.2728 85.6465 30.2648C86.3486 30.2586 87.04 30.1724 87.7216 30.056C88.0619 29.9974 88.397 29.9112 88.7355 29.8402L89.1497 29.722L90.0597 31.6658C90.1255 31.8233 90.2373 31.9572 90.3805 32.0503C90.5236 32.1433 90.6915 32.191 90.8621 32.1873C91.4291 32.1873 91.7348 31.7413 91.7348 31.3211C91.7348 31.1736 91.6984 31.0155 91.6415 30.8938L86.7831 20.4552ZM87.4559 28.4862C86.8462 28.5902 86.2295 28.6684 85.6199 28.6728C85.0093 28.6781 84.4024 28.6408 83.8159 28.5271C83.526 28.4728 83.2404 28.3983 82.961 28.3041L83.6897 26.745H83.687L85.387 23.1159C85.4161 23.0515 85.4631 22.9969 85.5225 22.9585C85.5818 22.9202 85.651 22.8998 85.7216 22.8998C85.7923 22.8998 85.8614 22.9202 85.9208 22.9585C85.9801 22.9969 86.0272 23.0515 86.0562 23.1159L87.6212 26.4563L87.6994 26.6233L87.7562 26.745L88.4645 28.2615L88.3667 28.289C88.0646 28.3548 87.7625 28.4338 87.4559 28.4862ZM69.1386 21.6456C69.327 20.7057 69.1777 19.7533 68.7227 18.9636C68.1966 18.0547 67.3559 17.4409 66.3517 17.2347C66.1155 17.1862 65.8748 17.1623 65.6336 17.1637C63.9274 17.1637 62.4913 18.3959 62.1403 20.1584C61.9476 21.1054 61.5919 22.0117 61.089 22.837C61.0799 22.8523 61.0669 22.8648 61.0512 22.8733C61.0356 22.8818 61.0179 22.8858 61.0001 22.8849C60.981 22.8842 60.9625 22.8781 60.9467 22.8672C60.931 22.8564 60.9187 22.8412 60.9112 22.8236L57.5654 15.5655C57.1024 14.5625 56.2777 13.818 55.3028 13.5239C53.6357 13.0184 51.8175 13.858 51.071 15.4757L47.6078 22.9818C47.6045 22.9891 47.5991 22.9953 47.5923 22.9997C47.5856 23.0041 47.5777 23.0065 47.5696 23.0066C47.5447 23.0066 47.5403 22.9924 47.5367 22.9818C46.9875 21.5825 45.6883 20.6782 44.2229 20.6782C43.7492 20.6782 43.2862 20.775 42.8454 20.9642C41.9639 21.3427 41.2849 22.0658 40.9277 23.0004C40.5744 23.9213 40.5846 24.942 40.9561 25.8557C41.6111 27.4708 42.7068 29.0299 44.1251 30.3634C44.1598 30.3954 44.1696 30.4434 44.1491 30.486L43.0312 32.9131C42.1869 34.7459 42.897 36.9606 44.613 37.8526C45.1099 38.1137 45.6628 38.2503 46.2242 38.2506C47.5954 38.2506 48.8635 37.4253 49.4527 36.1486L50.4178 34.0556C50.4276 34.0333 50.4452 34.0154 50.4673 34.0053C50.4895 33.9951 50.5145 33.9934 50.5378 34.0005C51.7008 34.335 52.9045 34.5078 54.1147 34.514C55.4104 34.514 56.7292 34.3159 58.0284 33.9277C58.0517 33.9201 58.0769 33.9214 58.0993 33.9314C58.1216 33.9415 58.1394 33.9594 58.1493 33.9818L59.1037 36.0545C59.7169 37.3817 60.9912 38.2435 62.3562 38.2523H62.3767C62.9378 38.2533 63.4906 38.1169 63.9869 37.8552C65.7021 36.9624 66.4112 34.7414 65.5617 32.9024L64.3557 30.2959C64.3466 30.2756 64.3441 30.2529 64.3486 30.231C64.3531 30.2092 64.3643 30.1893 64.3806 30.1742C66.8174 27.8493 68.5067 24.8207 69.1386 21.6456ZM48.8466 33.535L47.9757 35.4237C47.8226 35.7616 47.576 36.0487 47.265 36.2511C46.9541 36.4535 46.5917 36.5628 46.2206 36.5662C45.9202 36.5662 45.6305 36.4969 45.3586 36.3583C44.4166 35.8759 44.0327 34.6561 44.5019 33.6354L45.4306 31.6205C45.4391 31.602 45.4526 31.5864 45.4695 31.5752C45.4865 31.5641 45.5063 31.5579 45.5266 31.5574C45.5426 31.5574 45.563 31.5619 45.5817 31.5761C46.5766 32.3042 47.6533 32.9137 48.7898 33.3919C48.8253 33.4062 48.8431 33.4364 48.8484 33.4524C48.8544 33.4654 48.8573 33.4796 48.857 33.4939C48.8567 33.5082 48.8531 33.5222 48.8466 33.535ZM57.3468 32.3401C57.3411 32.3532 57.3326 32.3648 57.3218 32.3742C57.311 32.3836 57.2983 32.3904 57.2846 32.3943C56.2271 32.683 55.1598 32.8296 54.1111 32.8296C49.2545 32.8296 44.1225 29.4386 42.4251 25.1112C42.0252 24.0896 42.5051 22.9213 43.4968 22.5074C43.7288 22.4096 43.9741 22.3599 44.2229 22.3599C45.0191 22.3599 45.7247 22.8503 46.0224 23.6116C47.1306 26.4394 50.8364 28.8292 54.1111 28.8292C54.6043 28.8292 55.1109 28.7803 55.6165 28.6835C55.6636 28.6746 55.7107 28.6959 55.7294 28.7403L57.3468 32.2468C57.353 32.2616 57.3562 32.2774 57.3562 32.2935C57.3562 32.3095 57.353 32.3253 57.3468 32.3401ZM53.3762 26.8472L54.0276 25.4337C54.0466 25.3902 54.0779 25.3532 54.1177 25.3273C54.1575 25.3014 54.204 25.2877 54.2515 25.288C54.299 25.2883 54.3454 25.3022 54.3853 25.328C54.4251 25.3539 54.4567 25.3905 54.4764 25.4337L55.1127 26.8134C55.1297 26.8497 55.138 26.8895 55.1369 26.9296C55.1358 26.9697 55.1254 27.009 55.1064 27.0444C55.0891 27.0792 55.0635 27.1093 55.0319 27.1321C55.0003 27.1548 54.9637 27.1695 54.9252 27.175C54.4787 27.2428 54.0255 27.2548 53.5761 27.2105C53.5366 27.2061 53.4987 27.1922 53.4657 27.1699C53.4327 27.1476 53.4057 27.1177 53.3869 27.0826C53.3666 27.047 53.3551 27.0071 53.3532 26.9661C53.3514 26.9252 53.3593 26.8845 53.3762 26.8472ZM63.2316 36.3583C62.9653 36.4954 62.67 36.5667 62.3704 36.5662C61.9998 36.5625 61.6379 36.4531 61.3274 36.2507C61.0169 36.0482 60.7708 35.7613 60.618 35.4237L54.7723 22.7463C54.7318 22.6539 54.6653 22.5753 54.5809 22.5201C54.4965 22.4649 54.3978 22.4355 54.2969 22.4355C54.196 22.4355 54.0973 22.4649 54.0128 22.5201C53.9284 22.5753 53.8619 22.6539 53.8214 22.7463L52.0085 26.6784C51.9985 26.701 51.9807 26.7192 51.9583 26.7296C51.9359 26.7401 51.9105 26.7421 51.8868 26.7352C50.6773 26.3061 49.5425 25.5848 48.6911 24.7079C48.6772 24.6925 48.6683 24.6732 48.6654 24.6526C48.6625 24.632 48.6659 24.6111 48.6751 24.5924L52.5924 16.0976C52.7239 15.8133 52.9114 15.5841 53.1336 15.4349C53.6597 15.0795 54.2578 14.9738 54.8212 15.1355C55.0905 15.2147 55.3397 15.351 55.5516 15.5351C55.7635 15.7192 55.9333 15.9468 56.0493 16.2024L64.0891 33.638C64.5601 34.6561 64.1744 35.8768 63.2316 36.3583ZM63.699 28.5342C63.687 28.5466 63.6721 28.556 63.6558 28.5615C63.6394 28.5671 63.6219 28.5687 63.6048 28.5662C63.5886 28.5632 63.5735 28.5562 63.5607 28.5458C63.548 28.5354 63.5381 28.5219 63.5319 28.5067L61.8177 24.7879C61.8096 24.7702 61.8065 24.7508 61.8087 24.7315C61.8109 24.7122 61.8183 24.694 61.8301 24.6786C62.7988 23.3966 63.4626 21.937 63.7497 20.4543C63.9318 19.5215 64.7299 18.8445 65.6496 18.8445H65.6514C65.8087 18.8445 65.9678 18.8658 66.1251 18.9058C67.1417 19.1661 67.7602 20.2437 67.5327 21.3578C66.988 24.0238 65.6639 26.5042 63.699 28.5342Z" fill="#EEEFFC"/>
</svg>
