<svg width="161" height="49" viewBox="0 0 161 49" fill="none" xmlns="http://www.w3.org/2000/svg">
<path d="M69.8956 21.2415C69.7957 21.3019 69.6769 21.3229 69.5623 21.3004C69.4478 21.2778 69.3457 21.2134 69.2761 21.1197C68.9346 20.6299 68.4765 20.2329 67.9431 19.9646C67.4097 19.6962 66.8178 19.565 66.221 19.5828C63.893 19.5828 62.4645 21.4219 62.4645 24.0468C62.4645 26.6726 63.9188 28.5464 66.2468 28.5464C66.8514 28.5606 67.4498 28.4206 67.9854 28.1396C68.521 27.8586 68.9762 27.4458 69.3081 26.9402C69.3742 26.8449 69.4736 26.778 69.5867 26.7526C69.6998 26.7273 69.8183 26.7454 69.9187 26.8033L71.0245 27.4433C71.0849 27.4737 71.1379 27.5168 71.1801 27.5696C71.2222 27.6224 71.2525 27.6837 71.2688 27.7492C71.2851 27.8148 71.287 27.8831 71.2745 27.9495C71.2619 28.0159 71.2352 28.0788 71.1961 28.1339C70.6553 28.9434 69.9177 29.6022 69.0527 30.0487C68.1877 30.4953 67.2234 30.7148 66.2503 30.6868C62.5285 30.6868 60.0059 27.9917 60.0059 24.0619C60.0059 20.1322 62.5285 17.4717 66.1943 17.4717C67.1512 17.4453 68.1 17.6533 68.9582 18.0775C69.8163 18.5017 70.5577 19.1292 71.1179 19.9055C71.1563 19.9578 71.1837 20.0174 71.1981 20.0807C71.2125 20.144 71.2138 20.2095 71.2018 20.2733C71.1898 20.3371 71.1648 20.3978 71.1283 20.4515C71.0918 20.5052 71.0447 20.5508 70.9899 20.5855L69.8956 21.2415ZM78.0316 29.9739V29.4406C77.4494 30.189 76.6379 30.6539 75.3312 30.6539C73.3987 30.6539 72.0574 29.5997 72.0574 27.7499C72.0574 25.4468 74.1152 25.0513 75.3836 24.8744C76.7454 24.677 77.9063 24.5837 77.9063 23.6948C77.9063 22.9082 76.9952 22.6957 76.2245 22.6957C75.3395 22.7103 74.4699 22.93 73.6841 23.3375C73.6296 23.367 73.5697 23.3853 73.5079 23.3912C73.4462 23.3971 73.3839 23.3905 73.3248 23.3719C73.2656 23.3532 73.2109 23.3229 73.1637 23.2826C73.1166 23.2423 73.078 23.193 73.0503 23.1375L72.6512 22.3064C72.5982 22.1988 72.5886 22.075 72.6243 21.9605C72.66 21.846 72.7384 21.7496 72.8432 21.6913C73.9436 21.1063 75.1703 20.7991 76.4165 20.7962C78.6334 20.7962 80.1988 21.7055 80.1988 23.9046V29.9739C80.1989 30.035 80.1869 30.0955 80.1636 30.152C80.1403 30.2084 80.106 30.2597 80.0628 30.3029C80.0197 30.3461 79.9684 30.3804 79.9119 30.4037C79.8555 30.427 79.7949 30.4389 79.7339 30.4388H78.517C78.4543 30.4415 78.3916 30.4314 78.3329 30.4092C78.2742 30.3871 78.2206 30.3532 78.1752 30.3098C78.1299 30.2664 78.0938 30.2143 78.0691 30.1565C78.0445 30.0988 78.0317 30.0367 78.0316 29.9739ZM77.9063 25.7775C77.4788 26.1002 76.6903 26.2077 75.8494 26.3579C75.0076 26.509 74.3099 26.733 74.3099 27.645C74.3099 28.4842 74.9179 28.8762 75.797 28.8762C76.8876 28.8762 77.9063 28.269 77.9063 26.8584V25.7775ZM82.1979 28.0344C82.2765 27.943 82.3874 27.8856 82.5074 27.8744C82.6275 27.8631 82.7472 27.8988 82.8414 27.9739C83.6197 28.5603 84.573 28.8672 85.5472 28.845C86.5516 28.845 87.293 28.5233 87.293 27.7393C87.293 27.0246 86.6121 26.8824 84.965 26.5944C83.2192 26.3037 81.549 25.7233 81.549 23.7366C81.549 21.6655 83.3392 20.7917 85.3783 20.7917C86.657 20.7729 87.9053 21.1818 88.925 21.9535C88.9749 21.9921 89.0165 22.0406 89.0469 22.096C89.0774 22.1513 89.0963 22.2123 89.1023 22.2752C89.1083 22.3381 89.1013 22.4015 89.0818 22.4616C89.0623 22.5217 89.0307 22.5772 88.989 22.6246L88.4076 23.3064C88.3305 23.3981 88.2212 23.4567 88.1022 23.4703C87.9831 23.4838 87.8634 23.4513 87.7676 23.3793C87.0501 22.8554 86.1822 22.5781 85.2939 22.589C84.4361 22.589 83.685 22.8388 83.685 23.5162C83.685 24.2682 84.7383 24.4104 85.7943 24.5908C88.0494 24.9819 89.4814 25.6246 89.4814 27.4948C89.4814 29.4584 87.9072 30.6726 85.4076 30.6726C84.0417 30.7142 82.704 30.2786 81.6245 29.4406C81.5764 29.401 81.5366 29.3522 81.5075 29.297C81.4784 29.2419 81.4605 29.1815 81.4549 29.1195C81.4492 29.0574 81.456 28.9948 81.4747 28.9353C81.4935 28.8758 81.5239 28.8207 81.5641 28.773L82.1979 28.0353V28.0344ZM90.8636 29.9757V18.1544C90.8636 18.0933 90.8757 18.0327 90.8991 17.9763C90.9225 17.9198 90.9569 17.8685 91.0001 17.8253C91.0434 17.7822 91.0947 17.7479 91.1512 17.7246C91.2077 17.7013 91.2683 17.6894 91.3294 17.6895H92.6708C92.7319 17.6894 92.7924 17.7013 92.8489 17.7246C92.9054 17.7479 92.9568 17.7822 93 17.8253C93.0433 17.8685 93.0776 17.9198 93.1011 17.9763C93.1245 18.0327 93.1365 18.0933 93.1365 18.1544V22.1917C93.4712 21.747 93.9072 21.3885 94.4083 21.1461C94.9093 20.9037 95.461 20.7843 96.0174 20.7979C98.0014 20.7979 99.165 22.2086 99.165 24.2246V29.9757C99.1647 30.0989 99.1157 30.2169 99.0285 30.3039C98.9413 30.3909 98.8232 30.4397 98.7001 30.4397H97.3588C97.2355 30.4397 97.1173 30.3909 97.03 30.3039C96.9427 30.217 96.8934 30.0989 96.893 29.9757V24.7473C96.893 23.7455 96.5694 22.8362 95.2832 22.8362C94.0645 22.8362 93.1365 23.693 93.1365 25.1224V29.9784C93.1363 30.1018 93.0871 30.22 92.9998 30.3072C92.9125 30.3943 92.7941 30.4433 92.6708 30.4433H91.3294C91.268 30.4437 91.207 30.432 91.1502 30.4086C91.0934 30.3853 91.0417 30.3508 90.9984 30.3073C90.955 30.2637 90.9207 30.212 90.8976 30.1551C90.8745 30.0981 90.8629 30.0372 90.8636 29.9757ZM113.926 30.1277L112.961 27.2815H108.077L107.109 30.1277C107.077 30.2192 107.018 30.2986 106.939 30.3548C106.86 30.411 106.766 30.4413 106.669 30.4415H105.095C104.982 30.4408 104.873 30.3994 104.788 30.325C104.704 30.2505 104.649 30.148 104.633 30.0362C104.624 29.962 104.633 29.8866 104.659 29.8166L109.055 17.9935C109.091 17.9071 109.151 17.8333 109.229 17.7816C109.307 17.7298 109.399 17.7024 109.492 17.7028H111.642C111.738 17.7032 111.831 17.7325 111.909 17.787C111.988 17.8414 112.048 17.9184 112.081 18.0077L116.461 29.8282C116.501 29.9344 116.5 30.0517 116.459 30.1573C116.417 30.263 116.338 30.3497 116.237 30.4006C116.17 30.4352 116.096 30.4532 116.021 30.453H114.36C114.262 30.4508 114.168 30.4182 114.091 30.3598C114.013 30.3015 113.955 30.2204 113.926 30.1277ZM110.545 19.7624L108.665 25.2975H112.352L110.545 19.7624ZM119.833 21.4762V22.2086C120.164 21.752 120.603 21.3843 121.111 21.1381C121.618 20.8918 122.179 20.7747 122.743 20.797C125.318 20.797 126.982 22.9233 126.982 25.7082C126.982 28.4939 125.318 30.6459 122.743 30.6459C122.177 30.6673 121.615 30.5479 121.107 30.2984C120.599 30.049 120.161 29.6772 119.833 29.2166V33.0708C119.833 33.1319 119.821 33.1923 119.797 33.2487C119.774 33.3051 119.74 33.3564 119.696 33.3995C119.653 33.4427 119.602 33.477 119.546 33.5003C119.489 33.5237 119.429 33.5357 119.368 33.5357H118.026C117.965 33.5358 117.905 33.5239 117.848 33.5006C117.792 33.4773 117.74 33.443 117.697 33.3999C117.654 33.3567 117.619 33.3054 117.596 33.2489C117.573 33.1925 117.561 33.1319 117.561 33.0708V21.453C117.561 21.3919 117.573 21.3314 117.596 21.2749C117.619 21.2185 117.654 21.1672 117.697 21.124C117.74 21.0808 117.792 21.0466 117.848 21.0233C117.905 21 117.965 20.988 118.026 20.9882H119.368C119.463 20.9877 119.556 21.0165 119.634 21.0707C119.712 21.125 119.771 21.202 119.804 21.2913C119.826 21.3505 119.836 21.4129 119.833 21.4762ZM122.265 28.6735C123.84 28.6735 124.593 27.3313 124.593 25.7082C124.593 24.085 123.825 22.7775 122.265 22.7775C120.706 22.7775 119.833 24.0815 119.833 25.7082C119.833 27.3348 120.663 28.6735 122.265 28.6735ZM130.657 21.4762V22.2086C130.988 21.7516 131.427 21.3835 131.935 21.1372C132.443 20.8909 133.004 20.7741 133.568 20.797C136.145 20.797 137.809 22.9224 137.809 25.7082C137.809 28.4939 136.145 30.6459 133.568 30.6459C133.002 30.6668 132.44 30.5472 131.933 30.2978C131.425 30.0483 130.987 29.6769 130.657 29.2166V33.0708C130.658 33.1319 130.646 33.1924 130.622 33.2489C130.599 33.3053 130.565 33.3566 130.522 33.3998C130.478 33.443 130.427 33.4772 130.371 33.5006C130.314 33.5239 130.254 33.5358 130.193 33.5357H128.851C128.79 33.5358 128.73 33.5239 128.673 33.5006C128.617 33.4773 128.565 33.443 128.522 33.3999C128.479 33.3567 128.444 33.3054 128.421 33.2489C128.397 33.1925 128.385 33.1319 128.385 33.0708V21.453C128.385 21.3919 128.397 21.3314 128.421 21.2749C128.444 21.2185 128.479 21.1672 128.522 21.124C128.565 21.0808 128.617 21.0466 128.673 21.0233C128.73 21 128.79 20.988 128.851 20.9882H130.193C130.256 20.9877 130.318 21.0002 130.377 21.0249C130.435 21.0496 130.487 21.086 130.531 21.1319C130.575 21.1777 130.608 21.232 130.63 21.2913C130.652 21.3507 130.661 21.413 130.657 21.4762ZM133.093 28.6735C134.667 28.6735 135.421 27.3313 135.421 25.7082C135.421 24.085 134.652 22.7775 133.093 22.7775C131.534 22.7775 130.657 24.0815 130.657 25.7082C130.657 27.3348 131.498 28.6735 133.093 28.6735Z" fill="#EEEFFC"/>
<path fill-rule="evenodd" clip-rule="evenodd" d="M30.728 11.6255C27.5538 11.6255 24.9805 14.1944 24.9805 17.3624V30.7775C24.9805 33.9464 27.5538 36.5144 30.728 36.5144H44.0347C47.208 36.5144 49.7814 33.9455 49.7814 30.7775V17.3624C49.7814 14.1935 47.2089 11.6255 44.0347 11.6255H30.728ZM41.4107 20.8824C40.4633 20.0826 39.2639 19.6431 38.024 19.6415C37.0018 19.6415 35.9805 19.9793 35.9805 20.917C35.9805 21.773 36.8907 22.1082 38.0107 22.5197L38.3422 22.6424C40.5582 23.389 42.3831 24.3037 42.3831 26.4717C42.3831 28.8264 40.552 30.4344 37.5565 30.6184L37.2854 31.8806C37.2603 31.995 37.1968 32.0973 37.1054 32.1704C37.0139 32.2435 36.9002 32.283 36.7831 32.2824H34.9005C34.8246 32.2803 34.75 32.2616 34.6821 32.2276C34.6142 32.1937 34.5545 32.1453 34.5072 32.0858C34.46 32.0264 34.4263 31.9573 34.4086 31.8835C34.3908 31.8096 34.3894 31.7328 34.4045 31.6584L34.696 30.3268C33.5655 30.0393 32.526 29.4709 31.6738 28.6744C31.6251 28.6274 31.5863 28.571 31.5599 28.5087C31.5334 28.4464 31.5198 28.3794 31.5198 28.3117C31.5198 28.244 31.5334 28.177 31.5599 28.1147C31.5863 28.0524 31.6251 27.9961 31.6738 27.949L32.7191 26.9295C32.8142 26.836 32.9422 26.7836 33.0756 26.7836C33.2089 26.7836 33.3369 26.836 33.432 26.9295C34.39 27.8414 35.6678 28.3407 36.9902 28.3197C38.3538 28.3197 39.2791 27.7419 39.2791 26.8273C39.2791 26.0006 38.5209 25.7233 37.0809 25.197C36.928 25.141 36.7671 25.0833 36.5991 25.0202C34.7485 24.3624 32.9965 23.4202 32.9965 21.2326C32.9965 18.6993 35.1165 17.4637 37.6151 17.3419L37.8782 16.0566C37.9037 15.9432 37.9671 15.8418 38.0579 15.7693C38.1487 15.6967 38.2616 15.6573 38.3778 15.6575H40.2542C40.3296 15.6573 40.4041 15.6739 40.4723 15.7061C40.5405 15.7382 40.6006 15.7852 40.6485 15.8434C40.6963 15.9017 40.7305 15.9699 40.7487 16.043C40.767 16.1162 40.7687 16.1925 40.7538 16.2664L40.4622 17.7028C41.4174 18.0149 42.3026 18.5101 43.0685 19.1606C43.1207 19.2053 43.1631 19.2604 43.193 19.3224C43.2229 19.3843 43.2396 19.4518 43.2421 19.5205C43.2446 19.5893 43.2329 19.6578 43.2076 19.7217C43.1823 19.7857 43.144 19.8437 43.0951 19.8922L42.12 20.8682C42.0259 20.9605 41.9 21.0134 41.7682 21.016C41.6363 21.0187 41.5085 20.9709 41.4107 20.8824Z" fill="#EEEFFC"/>
</svg>
