<svg width="1439" height="671" viewBox="0 0 1439 671" fill="none" xmlns="http://www.w3.org/2000/svg">
<mask id="mask0_36_833" style="mask-type:luminance" maskUnits="userSpaceOnUse" x="0" y="0" width="1440" height="671">
<path d="M1440 0H0V671H1440V0Z" fill="white"/>
</mask>
<g mask="url(#mask0_36_833)">
<g opacity="0.5">
<mask id="mask1_36_833" style="mask-type:luminance" maskUnits="userSpaceOnUse" x="878" y="0" width="562" height="671">
<path d="M878 0H1440V671H878V0Z" fill="white"/>
</mask>
<g mask="url(#mask1_36_833)">
<path opacity="0.5" fill-rule="evenodd" clip-rule="evenodd" d="M1440.01 36.4405C1440.24 36.8817 1440.24 36.8828 1440.24 36.8828V36.8858L1440.21 36.8972L1440.13 36.9415C1440.06 36.9806 1439.94 37.0386 1439.8 37.1149C1439.5 37.2674 1439.05 37.4932 1438.45 37.7874C1437.26 38.3757 1435.47 39.2373 1433.05 40.3333C1428.22 42.5252 1420.91 45.6543 1411 49.4081C1391.17 56.9157 1360.9 66.9219 1319.12 76.9267C1235.58 96.9365 1106.04 116.94 922.009 116.94V115.94C1105.97 115.94 1235.43 95.9445 1318.89 75.9543C1360.62 65.9591 1390.85 55.9653 1410.64 48.4729C1420.54 44.7267 1427.83 41.6058 1432.64 39.4227C1435.04 38.3311 1436.83 37.4741 1438.01 36.8905C1438.6 36.5987 1439.05 36.3753 1439.34 36.2251C1439.48 36.15 1439.59 36.0933 1439.67 36.0554L1439.75 36.013L1439.77 36.0025V36C1439.77 36 1439.77 35.9993 1440.01 36.4405ZM1440.01 76.4402C1440.22 76.891 1440.22 76.892 1440.22 76.892V76.8947L1440.2 76.9049L1440.11 76.9448C1440.04 76.9799 1439.92 77.0321 1439.78 77.1007C1439.48 77.238 1439.03 77.4412 1438.44 77.7058C1437.24 78.2352 1435.45 79.0106 1433.03 79.9969C1428.2 81.9694 1420.9 84.7853 1410.98 88.1635C1391.15 94.9199 1360.88 103.925 1319.11 112.929C1235.58 130.937 1106.04 143.94 922.009 143.94V142.94C1105.98 142.94 1235.44 129.943 1318.9 111.951C1360.63 102.955 1390.87 93.9606 1410.66 87.2169C1420.56 83.8451 1427.84 81.0361 1432.65 79.0711C1435.06 78.0886 1436.85 77.3171 1438.03 76.7918C1438.62 76.5291 1439.06 76.328 1439.36 76.1928C1439.5 76.1252 1439.61 76.0741 1439.68 76.04L1439.77 76.0018L1439.79 75.9923V75.9901C1439.79 75.9901 1439.79 75.9895 1440.01 76.4402ZM1440.01 339.439C1440.02 339.439 1440.02 339.439 1440.02 338.939C1440.02 338.439 1440.02 338.439 1440.01 338.439H922.017V339.439H1440.01ZM1440.02 373.939C1440.02 374.439 1440.02 374.439 1440.01 374.439H922.017V373.439H1440.01C1440.02 373.439 1440.02 373.439 1440.02 373.939ZM1440.02 406.939C1440.02 407.439 1440.02 407.439 1440.01 407.439H922.017V406.439H1440.01C1440.02 406.439 1440.02 406.439 1440.02 406.939ZM1440.16 120.917C1440.16 120.917 1440.16 120.917 1440.01 120.441C1439.86 119.964 1439.86 119.965 1439.86 119.965L1439.85 119.966L1439.83 119.973L1439.75 119.998C1439.68 120.021 1439.57 120.055 1439.42 120.1C1439.13 120.191 1438.69 120.325 1438.09 120.5C1436.91 120.851 1435.12 121.365 1432.71 122.021C1427.9 123.331 1420.61 125.205 1410.71 127.453C1390.91 131.95 1360.68 137.948 1318.94 143.946C1235.46 155.942 1105.99 167.941 922.01 167.941V168.941C1106.03 168.941 1235.55 156.939 1319.08 144.936C1360.84 138.934 1391.11 132.931 1410.93 128.428C1420.85 126.177 1428.15 124.3 1432.98 122.986C1435.39 122.328 1437.18 121.812 1438.38 121.459C1438.97 121.283 1439.42 121.148 1439.71 121.056C1439.86 121.01 1439.97 120.976 1440.05 120.952L1440.13 120.926L1440.15 120.919L1440.16 120.917ZM1440.01 160.44C1440.11 160.929 1440.11 160.929 1440.11 160.929L1440.09 160.935L1440 160.952C1439.93 160.968 1439.82 160.991 1439.67 161.021C1439.37 161.082 1438.93 161.172 1438.33 161.29C1437.14 161.525 1435.35 161.869 1432.94 162.307C1428.11 163.183 1420.81 164.433 1410.9 165.934C1391.08 168.936 1360.82 172.937 1319.06 176.938C1235.54 184.939 1106.02 192.94 922.011 192.94V191.94C1106 191.94 1235.48 183.94 1318.96 175.942C1360.7 171.943 1390.94 167.944 1410.75 164.945C1420.65 163.446 1427.94 162.197 1432.76 161.323C1435.16 160.886 1436.95 160.543 1438.14 160.309C1438.73 160.192 1439.17 160.102 1439.47 160.042C1439.61 160.012 1439.72 159.989 1439.8 159.974L1439.88 159.956L1439.9 159.951C1439.91 159.951 1439.91 159.951 1440.01 160.44ZM1440.07 197.936C1440.07 197.936 1440.07 197.936 1440.01 197.44C1439.95 196.943 1439.95 196.943 1439.95 196.943L1439.84 196.956C1439.77 196.965 1439.66 196.978 1439.51 196.995C1439.22 197.028 1438.78 197.079 1438.18 197.145C1437 197.276 1435.21 197.47 1432.8 197.716C1427.98 198.208 1420.69 198.91 1410.78 199.754C1390.97 201.441 1360.73 203.691 1318.98 205.94C1235.49 210.44 1106 214.94 922.013 214.94V215.94C1106.02 215.94 1235.53 211.439 1319.04 206.939C1360.79 204.689 1391.05 202.438 1410.87 200.75C1420.78 199.906 1428.08 199.203 1432.9 198.71C1435.31 198.464 1437.1 198.271 1438.29 198.139C1438.89 198.073 1439.33 198.022 1439.63 197.988C1439.78 197.971 1439.89 197.958 1439.96 197.949L1440.07 197.936ZM1440.01 233.439C1440.06 233.938 1440.05 233.938 1440.05 233.938L1439.94 233.947C1439.87 233.953 1439.76 233.963 1439.61 233.975C1439.32 234 1438.87 234.036 1438.28 234.084C1437.09 234.179 1435.3 234.319 1432.89 234.497C1428.06 234.852 1420.76 235.36 1410.86 235.97C1391.04 237.189 1360.79 238.814 1319.03 240.439C1235.52 243.689 1106.02 246.939 922.013 246.939V245.939C1106.01 245.939 1235.5 242.689 1318.99 239.44C1360.74 237.815 1390.99 236.19 1410.79 234.972C1420.7 234.362 1427.99 233.855 1432.81 233.499C1435.22 233.322 1437.01 233.182 1438.2 233.087C1438.79 233.039 1439.23 233.003 1439.53 232.978L1439.86 232.951L1439.97 232.941C1439.97 232.941 1439.97 232.941 1440.01 233.439ZM1440.02 270.941C1440.02 270.941 1440.02 270.941 1440.01 270.441C1440 269.941 1440 269.941 1440 269.941L1439.56 269.953C1439.26 269.96 1438.82 269.972 1438.22 269.986C1437.04 270.016 1435.25 270.058 1432.84 270.113C1428.02 270.223 1420.72 270.379 1410.81 270.566C1391 270.941 1360.75 271.441 1319 271.941C1235.51 272.941 1106.01 273.941 922.012 273.941V274.941C1106.01 274.941 1235.51 273.941 1319.02 272.941C1360.77 272.441 1391.02 271.941 1410.83 271.566C1420.74 271.379 1428.04 271.222 1432.86 271.113C1435.27 271.058 1437.06 271.015 1438.25 270.986C1438.84 270.971 1439.29 270.96 1439.58 270.952L1440.02 270.941ZM1440.01 306.441C1440.01 306.441 1440.01 306.441 1440.01 305.941C1440.01 305.441 1440.01 305.441 1440.01 305.441H922.008V306.441H1440.01ZM1440.23 637.986C1440.23 637.986 1440.23 637.987 1440.02 638.438C1439.8 638.889 1439.8 638.888 1439.8 638.888L1439.79 638.886L1439.77 638.877L1439.69 638.838C1439.62 638.804 1439.51 638.753 1439.36 638.686C1439.07 638.55 1438.63 638.349 1438.04 638.087C1436.85 637.561 1435.07 636.79 1432.66 635.807C1427.85 633.842 1420.56 631.033 1410.67 627.662C1390.87 620.918 1360.64 611.923 1318.91 602.927C1235.45 584.935 1105.98 566.938 922.017 566.938V565.938C1106.05 565.938 1235.58 583.941 1319.12 601.949C1360.89 610.953 1391.16 619.959 1410.99 626.715C1420.91 630.093 1428.21 632.909 1433.04 634.882C1435.46 635.868 1437.25 636.643 1438.44 637.173C1439.04 637.437 1439.49 637.641 1439.78 637.778C1439.93 637.846 1440.04 637.899 1440.12 637.934L1440.2 637.974L1440.22 637.984L1440.23 637.986ZM1440.02 594.438C1440.17 593.962 1440.17 593.961 1440.17 593.961L1440.16 593.959L1440.14 593.953L1440.06 593.926C1439.98 593.903 1439.87 593.868 1439.72 593.822C1439.43 593.731 1438.98 593.596 1438.38 593.419C1437.19 593.067 1435.4 592.55 1432.98 591.893C1428.16 590.579 1420.85 588.702 1410.94 586.45C1391.11 581.947 1360.85 575.945 1319.09 569.943C1235.56 557.939 1106.04 545.938 922.018 545.938V546.938C1106 546.938 1235.47 558.937 1318.95 570.933C1360.68 576.931 1390.92 582.929 1410.72 587.426C1420.62 589.674 1427.91 591.547 1432.72 592.858C1435.13 593.513 1436.92 594.028 1438.1 594.378C1438.69 594.554 1439.14 594.688 1439.43 594.778C1439.58 594.823 1439.68 594.857 1439.76 594.88L1439.84 594.906L1439.86 594.912V594.914C1439.86 594.914 1439.87 594.914 1440.02 594.438ZM1440.12 553.949C1440.12 553.949 1440.12 553.95 1440.02 554.439C1439.91 554.928 1439.91 554.927 1439.91 554.927L1439.89 554.922L1439.81 554.905C1439.73 554.89 1439.62 554.867 1439.48 554.837C1439.18 554.776 1438.74 554.687 1438.15 554.57C1436.96 554.336 1435.17 553.993 1432.77 553.556C1427.95 552.682 1420.66 551.432 1410.76 549.933C1390.95 546.935 1360.71 542.936 1318.97 538.937C1235.49 530.938 1106 522.939 922.02 522.939V521.939C1106.03 521.939 1235.55 529.939 1319.07 537.941C1360.82 541.942 1391.08 545.943 1410.91 548.944C1420.82 550.445 1428.12 551.696 1432.94 552.572C1435.36 553.01 1437.15 553.354 1438.34 553.589C1438.94 553.706 1439.38 553.796 1439.68 553.857C1439.83 553.888 1439.94 553.911 1440.01 553.926L1440.09 553.944L1440.12 553.949ZM1440.02 517.439C1440.08 516.943 1440.08 516.943 1440.07 516.943L1439.96 516.93C1439.89 516.921 1439.78 516.908 1439.63 516.891C1439.34 516.857 1438.89 516.806 1438.3 516.74C1437.11 516.608 1435.31 516.415 1432.9 516.168C1428.08 515.676 1420.78 514.972 1410.87 514.128C1391.05 512.441 1360.8 510.19 1319.04 507.94C1235.53 503.439 1106.02 498.939 922.017 498.939V499.939C1106.01 499.939 1235.5 504.439 1318.99 508.938C1360.73 511.188 1390.98 513.438 1410.79 515.125C1420.69 515.968 1427.98 516.671 1432.8 517.163C1435.21 517.409 1437 517.602 1438.19 517.734C1438.78 517.8 1439.22 517.85 1439.52 517.884C1439.66 517.901 1439.77 517.914 1439.85 517.923L1439.96 517.935C1439.96 517.935 1439.96 517.936 1440.02 517.439ZM1440.06 480.941C1440.06 480.941 1440.06 480.941 1440.02 481.439C1439.97 481.938 1439.97 481.937 1439.97 481.937L1439.86 481.928C1439.79 481.922 1439.68 481.913 1439.53 481.9C1439.24 481.876 1438.8 481.839 1438.2 481.792C1437.02 481.697 1435.23 481.557 1432.82 481.379C1428 481.024 1420.7 480.516 1410.8 479.907C1390.99 478.689 1360.74 477.064 1319 475.439C1235.5 472.189 1106.01 468.939 922.018 468.939V467.939C1106.02 467.939 1235.53 471.189 1319.04 474.44C1360.79 476.065 1391.04 477.69 1410.86 478.909C1420.77 479.519 1428.07 480.027 1432.89 480.382C1435.3 480.56 1437.09 480.7 1438.28 480.795C1438.88 480.843 1439.32 480.879 1439.62 480.904C1439.76 480.916 1439.88 480.925 1439.95 480.932L1440.06 480.941ZM1440.02 444.44C1440.03 443.94 1440.03 443.94 1440.03 443.94L1439.59 443.928C1439.3 443.921 1438.85 443.909 1438.26 443.895C1437.07 443.865 1435.28 443.823 1432.87 443.768C1428.05 443.658 1420.75 443.502 1410.84 443.315C1391.03 442.94 1360.78 442.44 1319.03 441.94C1235.52 440.94 1106.02 439.94 922.02 439.94V440.94C1106.02 440.94 1235.52 441.94 1319.01 442.94C1360.76 443.44 1391.01 443.939 1410.82 444.314C1420.73 444.502 1428.02 444.658 1432.84 444.768C1435.25 444.822 1437.04 444.865 1438.23 444.894C1438.83 444.909 1439.27 444.92 1439.56 444.928L1440 444.939C1440.01 444.939 1440.01 444.939 1440.02 444.44Z" fill="url(#paint0_linear_36_833)"/>
</g>
<path opacity="0.5" fill-rule="evenodd" clip-rule="evenodd" d="M0.240952 35.4405C0.00565772 35.8817 0.0078132 35.8828 0.0078132 35.8828L0.0134066 35.8858L0.0349139 35.8972L0.119301 35.9415C0.19398 35.9806 0.305542 36.0386 0.454247 36.1149C0.751657 36.2674 1.19764 36.4932 1.79427 36.7874C2.98753 37.3757 4.78337 38.2373 7.19839 39.3333C12.0284 41.5252 19.3352 44.6543 29.2514 48.4081C49.0839 55.9157 79.3542 65.9219 121.124 75.9267C204.665 95.9365 334.204 115.94 518.241 115.94V114.94C334.277 114.94 204.817 94.9445 121.357 74.9543C79.6277 64.9591 49.3979 54.9653 29.6054 47.4729C19.7092 43.7267 12.4222 40.6058 7.61164 38.4227C5.20635 37.3311 3.42016 36.4741 2.23646 35.8905C1.64462 35.5987 1.20339 35.3753 0.910713 35.2251C0.764374 35.15 0.655172 35.0933 0.582848 35.0554L0.501986 35.013L0.482238 35.0025L0.477524 35C0.477524 35 0.476246 34.9993 0.240952 35.4405ZM0.241375 75.4402C0.0250093 75.891 0.0271478 75.892 0.0271478 75.892L0.0327228 75.8947L0.0541943 75.9049L0.138508 75.9448C0.213138 75.9799 0.324649 76.0321 0.473302 76.1007C0.770609 76.238 1.21648 76.4412 1.813 76.7058C3.00603 77.2352 4.80163 78.0106 7.21639 78.9969C12.0459 80.9694 19.352 83.7853 29.2676 87.1635C49.0988 93.9199 79.3674 102.925 121.136 111.929C204.673 129.937 334.209 142.94 518.241 142.94V141.94C334.274 141.94 204.809 128.943 121.347 110.951C79.6152 101.955 49.3839 92.9606 29.5901 86.2169C19.6932 82.8451 12.4056 80.0361 7.59449 78.0711C5.18894 77.0886 3.4025 76.3171 2.21858 75.7918C1.62662 75.5291 1.18529 75.328 0.892504 75.1928C0.746113 75.1252 0.63686 75.0741 0.564486 75.04L0.483552 75.0018L0.463768 74.9923L0.459036 74.9901C0.459036 74.9901 0.45774 74.9895 0.241375 75.4402ZM0.237226 338.439C0.237226 338.439 0.235508 338.439 0.235508 337.939C0.235508 337.439 0.237226 337.439 0.237226 337.439H518.235V338.439H0.237226ZM0.235508 372.939C0.235508 373.439 0.237226 373.439 0.237226 373.439H518.235V372.439H0.237226C0.237226 372.439 0.235508 372.439 0.235508 372.939ZM0.235508 405.939C0.235508 406.439 0.237226 406.439 0.237226 406.439H518.235V405.439H0.237226C0.237226 405.439 0.235508 405.439 0.235508 405.939ZM0.0898758 119.917C0.0898758 119.917 0.0878275 119.917 0.240215 119.441C0.392603 118.964 0.393989 118.965 0.393989 118.965L0.398811 118.966L0.418777 118.973L0.500079 118.998C0.572699 119.021 0.6822 119.055 0.828842 119.1C1.12213 119.191 1.56397 119.325 2.15646 119.5C3.34143 119.851 5.12896 120.365 7.53564 121.021C12.349 122.331 19.639 124.205 29.5384 126.453C49.3373 130.95 79.5741 136.948 121.311 142.946C204.786 154.942 334.262 166.941 518.24 166.941V167.941C334.218 167.941 204.695 155.939 121.169 143.936C79.4063 137.934 49.143 131.931 29.3169 127.428C19.4039 125.177 12.1001 123.3 7.27292 121.986C4.85929 121.328 3.06478 120.812 1.8728 120.459C1.27681 120.283 0.831449 120.148 0.534645 120.056C0.386243 120.01 0.27498 119.976 0.200597 119.952L0.11665 119.926L0.0953602 119.919L0.0898758 119.917ZM0.239144 159.44C0.134824 159.929 0.13678 159.929 0.13678 159.929L0.163278 159.935L0.246855 159.952C0.320991 159.968 0.432006 159.991 0.58016 160.021C0.876467 160.082 1.32133 160.172 1.91682 160.29C3.1078 160.525 4.90129 160.869 7.3139 161.307C12.1391 162.183 19.4408 163.433 29.3518 164.934C49.1737 167.936 79.4328 171.937 121.191 175.938C204.709 183.939 334.225 191.94 518.239 191.94V190.94C334.253 190.94 204.769 182.94 121.287 174.942C79.5455 170.943 49.3045 166.944 29.5015 163.945C19.5999 162.446 12.3079 161.197 7.49251 160.323C5.08481 159.886 3.29627 159.543 2.1103 159.309C1.51731 159.192 1.07497 159.102 0.781184 159.042C0.634293 159.012 0.524544 158.989 0.451677 158.974L0.370006 158.956L0.344941 158.951C0.344941 158.951 0.343463 158.951 0.239144 159.44ZM0.179805 196.936C0.179805 196.936 0.177947 196.936 0.23752 196.44C0.297092 195.943 0.298669 195.943 0.298669 195.943L0.406093 195.956C0.479222 195.965 0.589232 195.978 0.736384 195.995C1.03069 196.028 1.47355 196.079 2.06706 196.145C3.25407 196.276 5.04364 196.47 7.45237 196.716C12.2698 197.208 19.5639 197.91 29.4674 198.754C49.2745 200.441 79.5193 202.691 121.264 204.94C204.754 209.44 334.246 213.94 518.237 213.94V214.94C334.229 214.94 204.72 210.439 121.21 205.939C79.4557 203.689 49.2005 201.438 29.3826 199.75C19.4736 198.906 12.1739 198.203 7.35079 197.71C4.93921 197.464 3.14675 197.271 1.95681 197.139C1.36184 197.073 0.917498 197.022 0.621713 196.988C0.47382 196.971 0.363066 196.958 0.289192 196.949L0.179805 196.936ZM0.236821 232.439C0.19365 232.938 0.19547 232.938 0.19547 232.938L0.304591 232.947C0.378365 232.953 0.489018 232.963 0.63681 232.975C0.932394 233 1.37654 233.036 1.97131 233.084C3.16085 233.179 4.95292 233.319 7.36411 233.497C12.1865 233.852 19.4854 234.36 29.3936 234.97C49.21 236.189 79.4638 237.814 121.217 239.439C204.724 242.689 334.231 245.939 518.237 245.939V244.939C334.243 244.939 204.749 241.689 121.256 238.44C79.5098 236.815 49.2636 235.19 29.455 233.972C19.5507 233.362 12.2559 232.855 7.43766 232.499C5.02854 232.322 3.23858 232.182 2.05117 232.087C1.45746 232.039 1.01439 232.003 0.71989 231.978L0.389297 231.951L0.281607 231.941C0.281607 231.941 0.279993 231.941 0.236821 232.439ZM0.226921 269.941C0.226921 269.941 0.225172 269.941 0.2385 269.441C0.251829 268.941 0.253514 268.941 0.253514 268.941L0.69285 268.953C0.987726 268.96 1.43116 268.972 2.02524 268.986C3.21338 269.016 5.00407 269.058 7.41391 269.113C12.2335 269.223 19.5298 269.379 29.4354 269.566C49.2467 269.941 79.4956 270.441 121.244 270.941C204.742 271.941 334.24 272.941 518.238 272.941V273.941C334.237 273.941 204.735 272.941 121.232 271.941C79.4814 271.441 49.2302 270.941 29.4165 270.566C19.5097 270.379 12.2121 270.222 7.39122 270.113C4.98074 270.058 3.1894 270.015 2.00059 269.986C1.40619 269.971 0.962419 269.96 0.667207 269.952L0.226921 269.941ZM0.243708 305.441C0.243708 305.441 0.241991 305.441 0.241991 304.941C0.241991 304.441 0.243708 304.441 0.243708 304.441H518.242V305.441H0.243708ZM0.0208996 636.986C0.0208996 636.986 0.0187612 636.987 0.235127 637.438C0.451492 637.889 0.452788 637.888 0.452788 637.888L0.45752 637.886L0.477304 637.877L0.558238 637.838C0.630612 637.804 0.739865 637.753 0.886255 637.686C1.17904 637.55 1.62037 637.349 2.21233 637.087C3.39625 636.561 5.18269 635.79 7.58824 634.807C12.3993 632.842 19.6869 630.033 29.5838 626.662C49.3777 619.918 79.609 610.923 121.34 601.927C204.803 583.935 334.268 565.938 518.235 565.938V564.938C334.202 564.938 204.667 582.941 121.13 600.949C79.3612 609.953 49.0925 618.959 29.2614 625.715C19.3458 629.093 12.0396 631.909 7.21014 633.882C4.79538 634.868 2.99978 635.643 1.80675 636.173C1.21024 636.437 0.764361 636.641 0.467054 636.778C0.318401 636.846 0.206889 636.899 0.13226 636.934L0.0479461 636.974L0.0264746 636.984L0.0208996 636.986ZM0.233733 593.438C0.0813451 592.962 0.0833934 592.961 0.0833934 592.961L0.0888778 592.959L0.110167 592.953L0.194115 592.926C0.268498 592.903 0.379761 592.868 0.528163 592.822C0.824967 592.731 1.27033 592.596 1.86632 592.419C3.0583 592.067 4.85281 591.55 7.26644 590.893C12.0937 589.579 19.3974 587.702 29.3105 585.45C49.1365 580.947 79.3998 574.945 121.162 568.943C204.688 556.939 334.212 544.938 518.234 544.938V545.938C334.255 545.938 204.779 557.937 121.305 569.933C79.5676 575.931 49.3309 581.929 29.5319 586.426C19.6325 588.674 12.3425 590.547 7.52916 591.858C5.12247 592.513 3.33495 593.028 2.14998 593.378C1.55749 593.554 1.11564 593.688 0.82236 593.778C0.675718 593.823 0.566216 593.857 0.493596 593.88L0.412295 593.906L0.392329 593.912L0.387507 593.914C0.387507 593.914 0.386121 593.914 0.233733 593.438ZM0.130329 552.949C0.130329 552.949 0.128373 552.95 0.232692 553.439C0.337011 553.928 0.338489 553.927 0.338489 553.927L0.363554 553.922L0.445226 553.905C0.518093 553.89 0.627842 553.867 0.774732 553.837C1.06851 553.776 1.51086 553.687 2.10385 553.57C3.28982 553.336 5.07836 552.993 7.48606 552.556C12.3014 551.682 19.5935 550.432 29.495 548.933C49.2981 545.935 79.539 541.936 121.28 537.937C204.763 529.938 334.247 521.939 518.233 521.939V520.939C334.218 520.939 204.702 528.939 121.185 536.941C79.4263 540.942 49.1672 544.943 29.3453 547.944C19.4343 549.445 12.1326 550.696 7.30745 551.572C4.89484 552.01 3.10135 552.354 1.91037 552.589C1.31488 552.706 0.870016 552.796 0.573708 552.857C0.425555 552.888 0.31454 552.911 0.240403 552.926L0.156826 552.944L0.130329 552.949ZM0.234974 516.439C0.175402 515.943 0.17726 515.943 0.17726 515.943L0.286647 515.93C0.360521 515.921 0.471275 515.908 0.619167 515.891C0.914952 515.857 1.35929 515.806 1.95426 515.74C3.1442 515.608 4.93666 515.415 7.34825 515.168C12.1714 514.676 19.471 513.972 29.38 513.128C49.1979 511.441 79.4531 509.19 121.208 506.94C204.718 502.439 334.227 497.939 518.235 497.939V498.939C334.243 498.939 204.752 503.439 121.262 507.938C79.5168 510.188 49.272 512.438 29.4649 514.125C19.5613 514.968 12.2673 515.671 7.44983 516.163C5.0411 516.409 3.25153 516.602 2.06452 516.734C1.47101 516.8 1.02814 516.85 0.733838 516.884C0.586687 516.901 0.476676 516.914 0.403548 516.923L0.296124 516.935C0.296124 516.935 0.294547 516.936 0.234974 516.439ZM0.192925 479.941C0.192925 479.941 0.191105 479.941 0.234276 480.439C0.277448 480.938 0.279062 480.937 0.279062 480.937L0.386752 480.928C0.459982 480.922 0.570093 480.913 0.717344 480.9C1.01185 480.876 1.45492 480.839 2.04862 480.792C3.23603 480.697 5.02599 480.557 7.43511 480.379C12.2533 480.024 19.5482 479.516 29.4524 478.907C49.261 477.689 79.5072 476.064 121.254 474.439C204.746 471.189 334.24 467.939 518.234 467.939V466.939C334.228 466.939 204.722 470.189 121.215 473.44C79.4612 475.065 49.2075 476.69 29.391 477.909C19.4828 478.519 12.1839 479.027 7.36157 479.382C4.95037 479.56 3.1583 479.7 1.96876 479.795C1.37399 479.843 0.929849 479.879 0.634265 479.904C0.486473 479.916 0.37582 479.925 0.302046 479.932L0.192925 479.941ZM0.232049 443.44C0.21872 442.94 0.220469 442.94 0.220469 442.94L0.660756 442.928C0.955967 442.921 1.39974 442.909 1.99414 442.895C3.18295 442.865 4.97429 442.823 7.38477 442.768C12.2057 442.658 19.5032 442.502 29.4101 442.315C49.2238 441.94 79.4749 441.44 121.226 440.94C204.728 439.94 334.23 438.94 518.232 438.94V439.94C334.234 439.94 204.736 440.94 121.238 441.94C79.4891 442.44 49.2403 442.939 29.429 443.314C19.5233 443.502 12.2271 443.658 7.40745 443.768C4.99762 443.822 3.20693 443.865 2.01879 443.894C1.42471 443.909 0.981275 443.92 0.686399 443.928L0.247063 443.939C0.247063 443.939 0.245377 443.939 0.232049 443.44Z" fill="url(#paint1_linear_36_833)"/>
</g>
</g>
<defs>
<linearGradient id="paint0_linear_36_833" x1="1607.5" y1="61" x2="950.001" y2="357.5" gradientUnits="userSpaceOnUse">
<stop stop-color="#3C5DC7"/>
<stop offset="0.119641" stop-color="#5B21FF"/>
<stop offset="0.288809" stop-color="#AA3FFF"/>
<stop offset="0.531073" stop-color="#E54190"/>
<stop offset="0.639675" stop-color="#F8522E"/>
<stop offset="0.921468" stop-color="#0D0E12"/>
</linearGradient>
<linearGradient id="paint1_linear_36_833" x1="9.50127" y1="225.5" x2="518.001" y2="362.5" gradientUnits="userSpaceOnUse">
<stop stop-color="#0742FE"/>
<stop offset="0.119641" stop-color="#5B21FF"/>
<stop offset="0.288809" stop-color="#AA3FFF"/>
<stop offset="0.453092" stop-color="#E54190"/>
<stop offset="0.639675" stop-color="#F8522E"/>
<stop offset="0.826875" stop-color="#0D0E12"/>
</linearGradient>
</defs>
</svg>
