<svg width="32" height="33" viewBox="0 0 32 33" fill="none" xmlns="http://www.w3.org/2000/svg">
<path d="M4.08824 30.2018C5.79383 30.2018 7.17648 28.8192 7.17648 27.1136C7.17648 25.408 5.79383 24.0253 4.08824 24.0253C2.38265 24.0253 1 25.408 1 27.1136C1 28.8192 2.38265 30.2018 4.08824 30.2018Z" stroke="white" stroke-width="1.5"/>
<path d="M27.9125 30.2018C29.618 30.2018 31.0007 28.8192 31.0007 27.1136C31.0007 25.408 29.618 24.0253 27.9125 24.0253C26.2069 24.0253 24.8242 25.408 24.8242 27.1136C24.8242 28.8192 26.2069 30.2018 27.9125 30.2018Z" stroke="white" stroke-width="1.5"/>
<path d="M16.0003 8.13937C17.7059 8.13937 19.0885 6.75672 19.0885 5.05113C19.0885 3.34554 17.7059 1.96289 16.0003 1.96289C14.2947 1.96289 12.912 3.34554 12.912 5.05113C12.912 6.75672 14.2947 8.13937 16.0003 8.13937Z" stroke="white" stroke-width="1.5"/>
<path d="M14.0242 8.57617L5.62305 23.5782" stroke="white" stroke-width="1.5"/>
<path d="M17.9766 8.57617L26.3777 23.5782" stroke="white" stroke-width="1.5"/>
<path d="M8.05859 27.1074H23.9409" stroke="white" stroke-width="1.5"/>
</svg>
