<svg width="32" height="32" viewBox="0 0 32 32" fill="none" xmlns="http://www.w3.org/2000/svg">
<path fill-rule="evenodd" clip-rule="evenodd" d="M12.0984 9.21289L22.435 19.2993C22.5683 19.0469 22.6886 18.7839 22.7964 18.5112C23.1574 17.5948 23.3379 16.6224 23.3379 15.5955C23.3379 14.5677 23.1574 13.5958 22.7964 12.6794C22.435 11.7625 21.9345 10.9671 21.2944 10.292C20.6543 9.61731 19.8851 9.08366 18.9872 8.69066C18.089 8.29806 17.1033 8.10156 16.03 8.10156C14.9562 8.10156 13.9652 8.30296 13.0573 8.70615C12.7197 8.85577 12.4001 9.02455 12.0984 9.21289ZM13.01 22.5574C13.9083 22.9504 14.8939 23.1465 15.9673 23.1465C17.041 23.1465 18.0321 22.9451 18.9404 22.5423C19.2776 22.3923 19.5972 22.2235 19.8984 22.0348L9.5623 11.9492C9.429 12.2012 9.3086 12.4637 9.2008 12.7369C8.8399 13.6533 8.6594 14.6256 8.6594 15.653C8.6594 16.6803 8.8399 17.6522 9.2008 18.5691C9.5623 19.4856 10.0628 20.2809 10.7029 20.9556C11.343 21.6304 12.1117 22.1644 13.01 22.5574ZM11.448 25.6861C10.0646 25.1019 8.8672 24.3114 7.8556 23.3138C6.8441 22.317 6.0599 21.1535 5.5025 19.8241C4.9448 18.4946 4.6661 17.0845 4.6661 15.594C4.6661 14.1031 4.9448 12.693 5.5025 11.3631C5.833 10.5747 6.24 9.84655 6.723 9.17836L0 2.61841L2.6715 0.0117188L9.4149 6.59164C10.0203 6.18886 10.6775 5.8407 11.3861 5.54676C12.7695 4.97275 14.297 4.68534 15.9691 4.68534C17.6416 4.68534 19.1691 4.97765 20.5524 5.56185C21.9358 6.14605 23.1333 6.93654 24.1448 7.93372C25.1563 8.9309 25.9409 10.0944 26.4983 11.4239C27.0557 12.7533 27.3343 14.1634 27.3343 15.6543C27.3343 17.1448 27.0557 18.5546 26.4983 19.8844C26.1674 20.6733 25.7604 21.4014 25.2775 22.07L32 28.6291L29.3285 31.2358L22.5855 24.6563C21.9801 25.0591 21.3229 25.4072 20.6143 25.7011C19.2309 26.2752 17.7034 26.5622 16.0313 26.5622C14.3588 26.5622 12.8313 26.2699 11.448 25.6861Z" fill="white"/>
</svg>
