<svg width="161" height="50" viewBox="0 0 161 50" fill="none" xmlns="http://www.w3.org/2000/svg">
<path fill-rule="evenodd" clip-rule="evenodd" d="M73.5232 24.9211C73.8058 23.5965 74.7185 22.9222 75.9191 22.9222C77.1081 22.9222 77.9781 23.6267 78.2563 24.9211H73.5232ZM75.9839 20.6283C72.9287 20.6283 71.0278 22.9861 71.0278 25.8707C71.0278 28.8584 73.0584 31.0741 76.0773 31.0741C78.1585 31.0741 79.4213 30.1439 80.2025 28.973L78.2607 27.7746C77.772 28.4195 76.9899 28.7607 76.1528 28.7607C74.7816 28.7607 73.8636 28.1406 73.5508 26.9004H78.6802L78.6784 26.9057L80.5482 26.9164C80.6193 26.5895 80.661 26.2528 80.661 25.8716C80.661 23.3593 79.0587 20.6292 75.9848 20.6292L75.9839 20.6283ZM64.2055 28.7172C62.5179 28.7172 61.5039 27.5081 61.5039 26.0164C61.5039 24.5239 62.5375 23.3148 64.2055 23.3148C65.8726 23.3148 66.9071 24.5239 66.9071 26.0156C66.9071 27.5081 65.8922 28.7172 64.2055 28.7172ZM66.9071 22.3332C66.1837 21.4803 65.1573 20.9579 63.8838 20.9579C61.0356 20.9579 58.9872 23.2233 58.9872 26.0164C58.9872 28.8096 61.0169 31.0741 63.8838 31.0741C65.1573 31.0741 66.1837 30.5517 66.9062 29.6988V30.8253H69.4229V17.4141H66.9062L66.9071 22.3332ZM88.1943 25.6424C88.8972 26.1222 89.3433 26.8444 89.3433 27.7959C89.3433 29.7202 88.0192 31.0545 85.5416 31.0545C83.2106 31.0545 81.9603 29.8854 81.4626 28.7047L83.6025 27.4823C83.6025 27.4823 83.8904 28.758 85.5034 28.758C86.5014 28.758 86.8088 28.3263 86.8088 27.9451C86.8088 27.7675 86.7511 27.4432 86.041 27.1678C84.6138 26.6161 81.8554 26.3682 81.8554 23.8505C81.8554 21.7895 83.5057 20.6905 85.5416 20.6905C87.4451 20.6905 88.6679 21.8499 89.1318 22.7516L87.039 23.9492C87.039 23.9492 86.6364 22.9479 85.5612 22.9479C84.4859 22.9479 84.3899 23.5565 84.3899 23.7333C84.3899 24.2485 84.9266 24.46 86.0793 24.7931C86.7617 24.9904 87.4629 25.1698 88.1961 25.6398L88.1943 25.6424ZM130.426 23.3984H128.256V27.4814C128.256 28.7571 129.523 28.4826 130.426 28.4826V30.7791C130.426 30.7791 129.95 30.8573 129.12 30.8573C127.277 30.8573 125.779 30.3074 125.779 27.4814V23.3984H124.108V20.9642H125.779V18.2164H128.256V20.9642H130.426V23.3984ZM95.5009 28.5803C96.5291 28.5803 97.3192 28.0793 97.7191 27.2566L99.8661 28.5155C99.0245 30.024 97.4569 31.0732 95.5009 31.0732C92.5346 31.0732 90.4613 28.7536 90.4613 25.8912C90.4613 23.0297 92.5541 20.7092 95.5009 20.7092C97.4285 20.7092 98.9899 21.7415 99.8403 23.2296L97.6977 24.5177C97.2907 23.7057 96.5069 23.2029 95.5009 23.2029C94.0026 23.2029 92.938 24.4058 92.938 25.8912C92.938 27.3766 93.9929 28.5803 95.5009 28.5803ZM118.171 29.0157C116.545 29.0157 115.566 27.7746 115.566 26.243C115.566 24.7114 116.563 23.4712 118.171 23.4712C119.779 23.4712 120.776 24.7114 120.776 26.243C120.776 27.7746 119.798 29.0157 118.171 29.0157ZM118.481 21.0512C121.227 21.0512 123.202 23.3761 123.202 26.243C123.202 29.1098 121.246 31.4339 118.481 31.4339C117.253 31.4339 116.264 30.8982 115.566 30.0231V35.0914H113.14V21.3266H115.566V22.4629C116.264 21.5878 117.253 21.0512 118.481 21.0512ZM108.476 31.1789V21.3471H110.903V31.1789H108.476ZM103.956 23.0261C104.424 21.8348 105.378 21.1534 106.814 21.1498V23.982C105.13 23.815 103.913 24.691 103.958 26.7591L103.956 26.7547V31.1789H101.53V21.3471H103.956V23.0261ZM108.476 20.0349V17.4141H110.982V20.0349H108.476ZM30.8945 35.341C30.8945 36.6523 31.7317 37.5025 33.022 37.5025H39.2374C42.9449 37.5025 45.9788 36.2276 48.0406 33.996H30.8945V35.341ZM39.2374 13.5159H33.022C31.7317 13.5159 30.8945 14.3661 30.8945 15.6773V17.0224H48.0406C45.9788 14.7907 42.9449 13.5159 39.2374 13.5159ZM44.6618 28.9268C44.6618 29.9876 45.3417 30.6761 46.3903 30.6761H50.1138C50.5368 29.6109 50.8203 28.4409 50.9518 27.1785H46.3903C45.3417 27.1785 44.6618 27.8661 44.6618 28.9268ZM39.4986 22.1004C39.4986 23.1612 40.1794 23.8488 41.228 23.8488H50.9518C50.8341 22.6501 50.5524 21.4733 50.1147 20.3512H41.228C40.1794 20.3512 39.4986 21.0397 39.4986 22.1004ZM41.2262 28.9268C41.2262 27.8661 40.5464 27.1785 39.4978 27.1785H30.8945V30.6761H39.4978C40.5464 30.6761 41.2262 29.9876 41.2262 28.9268ZM36.0639 22.1004C36.0639 21.0397 35.3841 20.3512 34.3355 20.3512H30.8945V23.8488H34.3355C35.3841 23.8488 36.0639 23.1612 36.0639 22.1004Z" fill="#EEEFFC"/>
</svg>
