<svg width="678" height="356" viewBox="0 0 678 356" fill="none" xmlns="http://www.w3.org/2000/svg">
<rect x="0.52892" y="0.52892" width="676.282" height="354.082" rx="19.4711" fill="url(#paint0_linear_36_627)" fill-opacity="0.13"/>
<path d="M36.1364 45H32.9325V35.5455H36.201C37.1397 35.5455 37.946 35.7347 38.62 36.1133C39.2971 36.4888 39.8172 37.0289 40.1804 37.7337C40.5436 38.4384 40.7251 39.2817 40.7251 40.2635C40.7251 41.2483 40.542 42.0947 40.1758 42.8026C39.8126 43.5104 39.2879 44.0536 38.6016 44.4322C37.9183 44.8107 37.0966 45 36.1364 45ZM34.6452 43.5181H36.0533C36.7119 43.5181 37.2612 43.3981 37.7013 43.158C38.1415 42.9149 38.4723 42.5533 38.6939 42.0732C38.9155 41.59 39.0263 40.9867 39.0263 40.2635C39.0263 39.5402 38.9155 38.9401 38.6939 38.4631C38.4723 37.983 38.1445 37.6244 37.7106 37.3874C37.2797 37.1474 36.7442 37.0273 36.104 37.0273H34.6452V43.5181ZM43.3925 45V35.5455H49.5416V36.9812H45.1052V39.5479H49.2231V40.9837H45.1052V43.5643H49.5785V45H43.3925ZM60.4216 38.7354H58.6951C58.6458 38.4523 58.555 38.2015 58.4227 37.983C58.2903 37.7614 58.1257 37.5736 57.9287 37.4197C57.7318 37.2659 57.5071 37.1504 57.2547 37.0735C57.0054 36.9935 56.7361 36.9535 56.4468 36.9535C55.9329 36.9535 55.4774 37.0827 55.0804 37.3413C54.6833 37.5967 54.3725 37.9722 54.1478 38.4677C53.9232 38.9601 53.8108 39.5618 53.8108 40.2727C53.8108 40.996 53.9232 41.6054 54.1478 42.1009C54.3756 42.5933 54.6864 42.9657 55.0804 43.218C55.4774 43.4673 55.9313 43.592 56.4422 43.592C56.7254 43.592 56.99 43.555 57.2362 43.4812C57.4855 43.4042 57.7087 43.2919 57.9056 43.1442C58.1057 42.9964 58.2734 42.8149 58.4088 42.5994C58.5473 42.384 58.6427 42.1378 58.6951 41.8608L60.4216 41.87C60.357 42.3194 60.217 42.741 60.0015 43.1349C59.7892 43.5289 59.5106 43.8767 59.1659 44.1783C58.8212 44.4768 58.4181 44.7107 57.9564 44.88C57.4948 45.0462 56.9823 45.1293 56.4191 45.1293C55.5882 45.1293 54.8465 44.9369 54.194 44.5522C53.5415 44.1675 53.0276 43.612 52.6521 42.8857C52.2766 42.1593 52.0889 41.2884 52.0889 40.2727C52.0889 39.254 52.2782 38.383 52.6567 37.6598C53.0353 36.9335 53.5508 36.378 54.2032 35.9933C54.8557 35.6085 55.5943 35.4162 56.4191 35.4162C56.9454 35.4162 57.4348 35.4901 57.8872 35.6378C58.3396 35.7855 58.7428 36.0025 59.0967 36.2887C59.4506 36.5719 59.7415 36.9196 59.9692 37.332C60.2 37.7414 60.3508 38.2092 60.4216 38.7354ZM63.0301 45V35.5455H69.1792V36.9812H64.7428V39.5479H68.8607V40.9837H64.7428V43.5643H69.2161V45H63.0301ZM79.7361 35.5455V45H78.2126L73.7577 38.56H73.6793V45H71.9666V35.5455H73.4992L77.9495 41.9901H78.0326V35.5455H79.7361ZM82.2268 36.9812V35.5455H89.7701V36.9812H86.8479V45H85.149V36.9812H82.2268ZM92.2643 45V35.5455H95.8098C96.5361 35.5455 97.1455 35.6716 97.6379 35.924C98.1334 36.1764 98.5073 36.5303 98.7597 36.9858C99.0152 37.4382 99.1429 37.966 99.1429 38.5692C99.1429 39.1755 99.0136 39.7018 98.7551 40.1481C98.4996 40.5913 98.1226 40.9344 97.6241 41.1776C97.1255 41.4176 96.513 41.5376 95.7867 41.5376H93.2615V40.1158H95.5559C95.9806 40.1158 96.3284 40.0573 96.5992 39.9403C96.87 39.8203 97.0701 39.6464 97.1993 39.4187C97.3317 39.1879 97.3978 38.9047 97.3978 38.5692C97.3978 38.2338 97.3317 37.9476 97.1993 37.7106C97.067 37.4705 96.8654 37.2889 96.5946 37.1658C96.3237 37.0397 95.9744 36.9766 95.5466 36.9766H93.977V45H92.2643ZM97.1486 40.7159L99.4891 45H97.5779L95.2789 40.7159H97.1486ZM102.974 45H101.145L104.474 35.5455H106.588L109.921 45H108.093L105.568 37.4844H105.494L102.974 45ZM103.034 41.293H108.019V42.6687H103.034V41.293ZM112.207 45V35.5455H113.919V43.5643H118.083V45H112.207ZM122.323 35.5455V45H120.61V35.5455H122.323ZM125.042 45V43.9336L129.889 36.9812H125.014V35.5455H132.013V36.6119L127.17 43.5643H132.04V45H125.042ZM134.738 45V35.5455H140.887V36.9812H136.45V39.5479H140.568V40.9837H136.45V43.5643H140.924V45H134.738ZM146.878 45H143.674V35.5455H146.943C147.881 35.5455 148.688 35.7347 149.362 36.1133C150.039 36.4888 150.559 37.0289 150.922 37.7337C151.285 38.4384 151.467 39.2817 151.467 40.2635C151.467 41.2483 151.284 42.0947 150.917 42.8026C150.554 43.5104 150.03 44.0536 149.343 44.4322C148.66 44.8107 147.838 45 146.878 45ZM145.387 43.5181H146.795C147.454 43.5181 148.003 43.3981 148.443 43.158C148.883 42.9149 149.214 42.5533 149.436 42.0732C149.657 41.59 149.768 40.9867 149.768 40.2635C149.768 39.5402 149.657 38.9401 149.436 38.4631C149.214 37.983 148.886 37.6244 148.452 37.3874C148.021 37.1474 147.486 37.0273 146.846 37.0273H145.387V43.5181ZM158.399 45V35.5455H164.548V36.9812H160.111V39.5479H164.229V40.9837H160.111V43.5643H164.585V45H158.399ZM168.766 35.5455L170.848 39.0078H170.922L173.014 35.5455H174.966L172.053 40.2727L175.012 45H173.027L170.922 41.5607H170.848L168.743 45H166.767L169.754 40.2727L166.804 35.5455H168.766ZM185.101 38.7354H183.374C183.325 38.4523 183.234 38.2015 183.102 37.983C182.969 37.7614 182.805 37.5736 182.608 37.4197C182.411 37.2659 182.186 37.1504 181.934 37.0735C181.685 36.9935 181.415 36.9535 181.126 36.9535C180.612 36.9535 180.157 37.0827 179.759 37.3413C179.362 37.5967 179.052 37.9722 178.827 38.4677C178.602 38.9601 178.49 39.5618 178.49 40.2727C178.49 40.996 178.602 41.6054 178.827 42.1009C179.055 42.5933 179.366 42.9657 179.759 43.218C180.157 43.4673 180.61 43.592 181.121 43.592C181.405 43.592 181.669 43.555 181.915 43.4812C182.165 43.4042 182.388 43.2919 182.585 43.1442C182.785 42.9964 182.953 42.8149 183.088 42.5994C183.226 42.384 183.322 42.1378 183.374 41.8608L185.101 41.87C185.036 42.3194 184.896 42.741 184.681 43.1349C184.468 43.5289 184.19 43.8767 183.845 44.1783C183.5 44.4768 183.097 44.7107 182.636 44.88C182.174 45.0462 181.661 45.1293 181.098 45.1293C180.267 45.1293 179.526 44.9369 178.873 44.5522C178.221 44.1675 177.707 43.612 177.331 42.8857C176.956 42.1593 176.768 41.2884 176.768 40.2727C176.768 39.254 176.957 38.383 177.336 37.6598C177.714 36.9335 178.23 36.378 178.882 35.9933C179.535 35.6085 180.273 35.4162 181.098 35.4162C181.625 35.4162 182.114 35.4901 182.566 35.6378C183.019 35.7855 183.422 36.0025 183.776 36.2887C184.13 36.5719 184.421 36.9196 184.648 37.332C184.879 37.7414 185.03 38.2092 185.101 38.7354ZM187.709 45V35.5455H189.422V39.5479H193.803V35.5455H195.52V45H193.803V40.9837H189.422V45H187.709ZM199.637 45H197.809L201.138 35.5455H203.252L206.585 45H204.757L202.232 37.4844H202.158L199.637 45ZM199.697 41.293H204.683V42.6687H199.697V41.293ZM216.64 35.5455V45H215.116L210.661 38.56H210.583V45H208.87V35.5455H210.403L214.853 41.9901H214.936V35.5455H216.64ZM225.88 38.5646C225.803 38.3153 225.697 38.0922 225.561 37.8952C225.429 37.6952 225.269 37.5244 225.081 37.3828C224.897 37.2412 224.684 37.1351 224.444 37.0643C224.204 36.9904 223.942 36.9535 223.659 36.9535C223.151 36.9535 222.699 37.0812 222.302 37.3366C221.905 37.5921 221.593 37.9676 221.365 38.4631C221.14 38.9555 221.028 39.5556 221.028 40.2635C221.028 40.9775 221.14 41.5823 221.365 42.0778C221.59 42.5733 221.902 42.9503 222.302 43.2088C222.702 43.4643 223.167 43.592 223.696 43.592C224.176 43.592 224.592 43.4996 224.943 43.315C225.297 43.1303 225.569 42.8687 225.76 42.5302C225.951 42.1886 226.046 41.7885 226.046 41.3299L226.434 41.3899H223.867V40.0511H227.703V41.1868C227.703 41.9962 227.531 42.6964 227.186 43.2873C226.842 43.8782 226.368 44.3337 225.764 44.6538C225.161 44.9708 224.469 45.1293 223.687 45.1293C222.816 45.1293 222.051 44.9338 221.393 44.543C220.737 44.149 220.225 43.5904 219.855 42.8672C219.489 42.1409 219.306 41.2791 219.306 40.282C219.306 39.5187 219.414 38.837 219.629 38.2369C219.848 37.6367 220.152 37.1274 220.543 36.7088C220.934 36.2872 221.393 35.9671 221.919 35.7486C222.445 35.527 223.018 35.4162 223.636 35.4162C224.159 35.4162 224.647 35.4931 225.1 35.647C225.552 35.7978 225.954 36.0133 226.305 36.2933C226.658 36.5734 226.949 36.9058 227.177 37.2905C227.405 37.6752 227.554 38.0999 227.625 38.5646H225.88ZM230.399 45V35.5455H236.549V36.9812H232.112V39.5479H236.23V40.9837H232.112V43.5643H236.586V45H230.399Z" fill="white" fill-opacity="0.5"/>
<path d="M42.6591 280.19H41.5909C41.5114 279.792 41.3674 279.425 41.1591 279.088C40.9545 278.747 40.697 278.449 40.3864 278.196C40.0758 277.942 39.7235 277.745 39.3295 277.605C38.9356 277.465 38.5095 277.394 38.0511 277.394C37.3163 277.394 36.6458 277.586 36.0398 277.968C35.4375 278.351 34.9545 278.913 34.5909 279.656C34.2311 280.394 34.0511 281.3 34.0511 282.372C34.0511 283.451 34.2311 284.36 34.5909 285.099C34.9545 285.838 35.4375 286.398 36.0398 286.781C36.6458 287.16 37.3163 287.349 38.0511 287.349C38.5095 287.349 38.9356 287.279 39.3295 287.139C39.7235 286.999 40.0758 286.804 40.3864 286.554C40.697 286.3 40.9545 286.002 41.1591 285.662C41.3674 285.321 41.5114 284.951 41.5909 284.554H42.6591C42.5644 285.088 42.3864 285.586 42.125 286.048C41.8674 286.506 41.5379 286.908 41.1364 287.252C40.7386 287.597 40.2803 287.866 39.7614 288.059C39.2424 288.252 38.6723 288.349 38.0511 288.349C37.0739 288.349 36.2064 288.105 35.4489 287.616C34.6913 287.124 34.0966 286.43 33.6648 285.537C33.2367 284.643 33.0227 283.588 33.0227 282.372C33.0227 281.156 33.2367 280.101 33.6648 279.207C34.0966 278.313 34.6913 277.622 35.4489 277.133C36.2064 276.641 37.0739 276.394 38.0511 276.394C38.6723 276.394 39.2424 276.491 39.7614 276.684C40.2803 276.874 40.7386 277.143 41.1364 277.491C41.5379 277.836 41.8674 278.237 42.125 278.696C42.3864 279.154 42.5644 279.652 42.6591 280.19ZM48.3366 288.372C47.5829 288.372 46.9162 288.18 46.3366 287.798C45.7609 287.415 45.3101 286.887 44.9844 286.213C44.6586 285.535 44.4957 284.752 44.4957 283.866C44.4957 282.972 44.6586 282.186 44.9844 281.508C45.3101 280.826 45.7609 280.296 46.3366 279.917C46.9162 279.535 47.5829 279.343 48.3366 279.343C49.0904 279.343 49.7552 279.535 50.331 279.917C50.9067 280.3 51.3575 280.83 51.6832 281.508C52.0128 282.186 52.1776 282.972 52.1776 283.866C52.1776 284.752 52.0147 285.535 51.6889 286.213C51.3632 286.887 50.9105 287.415 50.331 287.798C49.7552 288.18 49.0904 288.372 48.3366 288.372ZM48.3366 287.446C48.9427 287.446 49.456 287.283 49.8764 286.957C50.2969 286.631 50.6151 286.198 50.831 285.656C51.0507 285.114 51.1605 284.518 51.1605 283.866C51.1605 283.215 51.0507 282.616 50.831 282.071C50.6151 281.525 50.2969 281.088 49.8764 280.758C49.456 280.429 48.9427 280.264 48.3366 280.264C47.7344 280.264 47.2211 280.429 46.7969 280.758C46.3764 281.088 46.0563 281.525 45.8366 282.071C45.6207 282.616 45.5128 283.215 45.5128 283.866C45.5128 284.518 45.6207 285.114 45.8366 285.656C46.0563 286.198 46.3764 286.631 46.7969 286.957C47.2173 287.283 47.7306 287.446 48.3366 287.446ZM54.3977 288.19V279.463H55.3807V280.804H55.4716C55.6458 280.353 55.9356 279.999 56.3409 279.741C56.75 279.48 57.2405 279.349 57.8125 279.349C58.4148 279.349 58.9091 279.491 59.2955 279.775C59.6856 280.055 59.9773 280.442 60.1705 280.934H60.2443C60.4413 280.449 60.7614 280.065 61.2045 279.781C61.6515 279.493 62.1932 279.349 62.8295 279.349C63.6402 279.349 64.2803 279.605 64.75 280.116C65.2197 280.624 65.4545 281.366 65.4545 282.343V288.19H64.4432V282.343C64.4432 281.654 64.267 281.137 63.9148 280.792C63.5625 280.448 63.0985 280.275 62.5227 280.275C61.8561 280.275 61.3428 280.48 60.983 280.889C60.6231 281.298 60.4432 281.817 60.4432 282.446V288.19H59.4091V282.252C59.4091 281.662 59.2443 281.184 58.9148 280.821C58.5852 280.457 58.1212 280.275 57.5227 280.275C57.1212 280.275 56.7595 280.374 56.4375 280.571C56.1193 280.768 55.8674 281.042 55.6818 281.394C55.5 281.743 55.4091 282.144 55.4091 282.599V288.19H54.3977ZM68.1435 288.19V279.463H69.1605V288.19H68.1435ZM68.6605 277.963C68.4522 277.963 68.2741 277.893 68.1264 277.752C67.9787 277.609 67.9048 277.436 67.9048 277.235C67.9048 277.035 67.9787 276.864 68.1264 276.724C68.2741 276.58 68.4522 276.508 68.6605 276.508C68.8688 276.508 69.0469 276.58 69.1946 276.724C69.3423 276.864 69.4162 277.035 69.4162 277.235C69.4162 277.436 69.3423 277.609 69.1946 277.752C69.0469 277.893 68.8688 277.963 68.6605 277.963ZM72.8466 282.735V288.19H71.8352V279.463H72.8182V280.832H72.9091C73.1136 280.385 73.4318 280.027 73.8636 279.758C74.2992 279.485 74.8371 279.349 75.4773 279.349C76.0644 279.349 76.5795 279.472 77.0227 279.718C77.4697 279.961 77.8163 280.319 78.0625 280.792C78.3125 281.266 78.4375 281.847 78.4375 282.537V288.19H77.4261V282.599C77.4261 281.883 77.2254 281.317 76.8239 280.9C76.4261 280.484 75.892 280.275 75.2216 280.275C74.7633 280.275 74.3561 280.374 74 280.571C73.6439 280.768 73.3617 281.052 73.1534 281.423C72.9489 281.79 72.8466 282.228 72.8466 282.735ZM84.4304 291.644C83.8357 291.644 83.3149 291.567 82.8679 291.412C82.4209 291.26 82.044 291.052 81.7372 290.787C81.4304 290.521 81.1918 290.224 81.0213 289.894L81.8509 289.349C81.9759 289.569 82.1425 289.785 82.3509 289.997C82.563 290.209 82.8376 290.385 83.1747 290.525C83.5156 290.665 83.9342 290.735 84.4304 290.735C85.2031 290.735 85.8262 290.542 86.2997 290.156C86.777 289.769 87.0156 289.169 87.0156 288.355V286.389H86.9247C86.8073 286.654 86.6387 286.919 86.419 287.184C86.1993 287.446 85.9115 287.663 85.5554 287.838C85.2031 288.012 84.7656 288.099 84.2429 288.099C83.5459 288.099 82.9266 287.927 82.3849 287.582C81.8471 287.237 81.4228 286.745 81.1122 286.105C80.8054 285.461 80.652 284.694 80.652 283.804C80.652 282.921 80.8016 282.144 81.1009 281.474C81.4039 280.804 81.8262 280.281 82.3679 279.906C82.9096 279.531 83.5402 279.343 84.2599 279.343C84.794 279.343 85.2372 279.438 85.5895 279.627C85.9418 279.813 86.224 280.044 86.4361 280.321C86.652 280.597 86.8205 280.866 86.9418 281.127H87.044V279.463H88.0327V288.417C88.0327 289.156 87.8755 289.764 87.5611 290.241C87.2467 290.718 86.8187 291.071 86.277 291.298C85.7353 291.529 85.1198 291.644 84.4304 291.644ZM84.3622 287.173C84.9228 287.173 85.402 287.038 85.7997 286.769C86.1974 286.497 86.5024 286.107 86.7145 285.599C86.9266 285.091 87.0327 284.487 87.0327 283.787C87.0327 283.105 86.9285 282.501 86.7202 281.974C86.5118 281.444 86.2088 281.027 85.8111 280.724C85.4171 280.417 84.9342 280.264 84.3622 280.264C83.7789 280.264 83.2865 280.421 82.8849 280.735C82.4834 281.05 82.1804 281.474 81.9759 282.008C81.7713 282.538 81.669 283.131 81.669 283.787C81.669 284.453 81.7732 285.042 81.9815 285.554C82.1899 286.061 82.4948 286.459 82.8963 286.747C83.2978 287.031 83.7865 287.173 84.3622 287.173ZM101.074 281.377L100.148 281.639C100.057 281.377 99.928 281.141 99.7614 280.929C99.5947 280.716 99.3769 280.548 99.108 280.423C98.8428 280.298 98.5133 280.235 98.1193 280.235C97.5284 280.235 97.0436 280.376 96.6648 280.656C96.286 280.936 96.0966 281.298 96.0966 281.741C96.0966 282.116 96.2254 282.421 96.483 282.656C96.7443 282.887 97.1458 283.071 97.6875 283.207L99.0057 283.531C99.7367 283.709 100.284 283.991 100.648 284.377C101.015 284.764 101.199 285.249 101.199 285.832C101.199 286.324 101.063 286.762 100.79 287.144C100.517 287.527 100.136 287.828 99.6477 288.048C99.1629 288.264 98.6004 288.372 97.9602 288.372C97.108 288.372 96.4053 288.18 95.8523 287.798C95.2992 287.412 94.9451 286.855 94.7898 286.127L95.7614 285.889C95.8864 286.408 96.1307 286.8 96.4943 287.065C96.8617 287.33 97.3447 287.463 97.9432 287.463C98.6136 287.463 99.1496 287.313 99.5511 287.014C99.9527 286.711 100.153 286.332 100.153 285.877C100.153 285.525 100.036 285.23 99.8011 284.991C99.5663 284.749 99.2102 284.571 98.733 284.457L97.3068 284.116C96.5492 283.934 95.9886 283.646 95.625 283.252C95.2614 282.859 95.0795 282.37 95.0795 281.787C95.0795 281.305 95.2102 280.883 95.4716 280.519C95.733 280.152 96.0928 279.864 96.5511 279.656C97.0095 279.448 97.5322 279.343 98.1193 279.343C98.9186 279.343 99.5568 279.525 100.034 279.889C100.515 280.249 100.862 280.745 101.074 281.377ZM106.805 288.372C106.052 288.372 105.385 288.18 104.805 287.798C104.23 287.415 103.779 286.887 103.453 286.213C103.127 285.535 102.964 284.752 102.964 283.866C102.964 282.972 103.127 282.186 103.453 281.508C103.779 280.826 104.23 280.296 104.805 279.917C105.385 279.535 106.052 279.343 106.805 279.343C107.559 279.343 108.224 279.535 108.8 279.917C109.375 280.3 109.826 280.83 110.152 281.508C110.482 282.186 110.646 282.972 110.646 283.866C110.646 284.752 110.483 285.535 110.158 286.213C109.832 286.887 109.379 287.415 108.8 287.798C108.224 288.18 107.559 288.372 106.805 288.372ZM106.805 287.446C107.411 287.446 107.925 287.283 108.345 286.957C108.766 286.631 109.084 286.198 109.3 285.656C109.519 285.114 109.629 284.518 109.629 283.866C109.629 283.215 109.519 282.616 109.3 282.071C109.084 281.525 108.766 281.088 108.345 280.758C107.925 280.429 107.411 280.264 106.805 280.264C106.203 280.264 105.69 280.429 105.266 280.758C104.845 281.088 104.525 281.525 104.305 282.071C104.089 282.616 103.982 283.215 103.982 283.866C103.982 284.518 104.089 285.114 104.305 285.656C104.525 286.198 104.845 286.631 105.266 286.957C105.686 287.283 106.199 287.446 106.805 287.446ZM116.259 288.372C115.505 288.372 114.838 288.18 114.259 287.798C113.683 287.415 113.232 286.887 112.906 286.213C112.58 285.535 112.418 284.752 112.418 283.866C112.418 282.972 112.58 282.186 112.906 281.508C113.232 280.826 113.683 280.296 114.259 279.917C114.838 279.535 115.505 279.343 116.259 279.343C117.012 279.343 117.677 279.535 118.253 279.917C118.829 280.3 119.279 280.83 119.605 281.508C119.935 282.186 120.099 282.972 120.099 283.866C120.099 284.752 119.937 285.535 119.611 286.213C119.285 286.887 118.832 287.415 118.253 287.798C117.677 288.18 117.012 288.372 116.259 288.372ZM116.259 287.446C116.865 287.446 117.378 287.283 117.798 286.957C118.219 286.631 118.537 286.198 118.753 285.656C118.973 285.114 119.082 284.518 119.082 283.866C119.082 283.215 118.973 282.616 118.753 282.071C118.537 281.525 118.219 281.088 117.798 280.758C117.378 280.429 116.865 280.264 116.259 280.264C115.656 280.264 115.143 280.429 114.719 280.758C114.298 281.088 113.978 281.525 113.759 282.071C113.543 282.616 113.435 283.215 113.435 283.866C113.435 284.518 113.543 285.114 113.759 285.656C113.978 286.198 114.298 286.631 114.719 286.957C115.139 287.283 115.652 287.446 116.259 287.446ZM123.331 282.735V288.19H122.32V279.463H123.303V280.832H123.393C123.598 280.385 123.916 280.027 124.348 279.758C124.784 279.485 125.321 279.349 125.962 279.349C126.549 279.349 127.064 279.472 127.507 279.718C127.954 279.961 128.301 280.319 128.547 280.792C128.797 281.266 128.922 281.847 128.922 282.537V288.19H127.911V282.599C127.911 281.883 127.71 281.317 127.308 280.9C126.911 280.484 126.376 280.275 125.706 280.275C125.248 280.275 124.84 280.374 124.484 280.571C124.128 280.768 123.846 281.052 123.638 281.423C123.433 281.79 123.331 282.228 123.331 282.735Z" fill="white" fill-opacity="0.5"/>
<path d="M48.5387 130.657C48.4513 129.696 48.0625 128.949 47.3723 128.416C46.6908 127.875 45.7167 127.604 44.4499 127.604C43.6111 127.604 42.9122 127.713 42.353 127.931C41.7939 128.15 41.3745 128.451 41.0949 128.836C40.8154 129.211 40.6712 129.644 40.6625 130.133C40.645 130.535 40.7236 130.889 40.8984 131.195C41.0818 131.5 41.3439 131.771 41.6847 132.007C42.0341 132.234 42.4535 132.435 42.9428 132.61C43.432 132.785 43.9824 132.938 44.594 133.069L46.9005 133.593C48.2285 133.881 49.3992 134.265 50.4127 134.746C51.4349 135.227 52.2911 135.799 52.9813 136.463C53.6802 137.127 54.2088 137.891 54.567 138.756C54.9252 139.621 55.1087 140.591 55.1174 141.666C55.1087 143.36 54.6806 144.815 53.8331 146.03C52.9857 147.244 51.7669 148.174 50.1768 148.821C48.5954 149.467 46.6865 149.791 44.4499 149.791C42.2045 149.791 40.2475 149.454 38.5788 148.782C36.91 148.109 35.6126 147.087 34.6865 145.715C33.7605 144.343 33.2843 142.609 33.2581 140.512H39.4699C39.5223 141.377 39.7539 142.098 40.1645 142.675C40.5751 143.251 41.1386 143.688 41.855 143.985C42.5802 144.282 43.4189 144.431 44.3712 144.431C45.2449 144.431 45.9875 144.313 46.5991 144.077C47.2194 143.841 47.6956 143.513 48.0276 143.094C48.3596 142.675 48.5299 142.194 48.5387 141.652C48.5299 141.146 48.3727 140.713 48.0669 140.355C47.7611 139.988 47.2893 139.674 46.6515 139.411C46.0225 139.141 45.2187 138.892 44.2402 138.664L41.4357 138.009C39.1117 137.476 37.2814 136.616 35.9446 135.427C34.6079 134.231 33.9439 132.614 33.9527 130.579C33.9439 128.919 34.3895 127.464 35.2894 126.215C36.1893 124.965 37.4343 123.991 39.0243 123.292C40.6144 122.593 42.4273 122.244 44.463 122.244C46.5423 122.244 48.3464 122.598 49.8754 123.305C51.413 124.004 52.6056 124.987 53.4531 126.254C54.3005 127.521 54.733 128.988 54.7505 130.657H48.5387ZM60.738 149.45L55.496 129.32H61.9306L64.6433 142.216H64.8137L67.723 129.32H74.0004L76.9884 142.124H77.1587L79.7929 129.32H86.2275L80.9723 149.45H74.1183L70.9731 137.721H70.7503L67.6051 149.45H60.738ZM93.057 149.791C91.7727 149.791 90.6326 149.577 89.6366 149.149C88.6493 148.712 87.8674 148.056 87.2908 147.183C86.7229 146.3 86.4389 145.195 86.4389 143.867C86.4389 142.749 86.6355 141.805 87.0287 141.036C87.4218 140.268 87.9635 139.643 88.6537 139.162C89.3439 138.682 90.1389 138.319 91.0388 138.075C91.9387 137.821 92.8997 137.651 93.9219 137.564C95.0665 137.459 95.9882 137.35 96.6871 137.236C97.3861 137.114 97.8928 136.943 98.2073 136.725C98.5306 136.498 98.6922 136.179 98.6922 135.768V135.703C98.6922 135.03 98.4607 134.51 97.9976 134.143C97.5346 133.776 96.9099 133.593 96.1236 133.593C95.2761 133.593 94.5947 133.776 94.0792 134.143C93.5637 134.51 93.2361 135.017 93.0963 135.663L87.1859 135.454C87.3606 134.231 87.8106 133.138 88.5357 132.177C89.2696 131.208 90.2744 130.448 91.5499 129.897C92.8342 129.338 94.3763 129.058 96.176 129.058C97.4603 129.058 98.6442 129.211 99.7275 129.517C100.811 129.814 101.754 130.251 102.558 130.828C103.362 131.395 103.982 132.094 104.419 132.924C104.865 133.754 105.087 134.702 105.087 135.768V149.45H99.0591V146.645H98.9019C98.5437 147.327 98.085 147.904 97.5258 148.375C96.9754 148.847 96.3245 149.201 95.5732 149.437C94.8306 149.673 93.9918 149.791 93.057 149.791ZM95.0359 145.597C95.7261 145.597 96.3464 145.457 96.8968 145.178C97.456 144.898 97.9015 144.514 98.2335 144.024C98.5655 143.526 98.7315 142.95 98.7315 142.295V140.381C98.548 140.477 98.3253 140.565 98.0632 140.643C97.8098 140.722 97.5302 140.796 97.2244 140.866C96.9186 140.936 96.6041 140.997 96.2809 141.05C95.9576 141.102 95.6474 141.15 95.3504 141.194C94.7476 141.29 94.2321 141.438 93.804 141.639C93.3846 141.84 93.0614 142.102 92.8342 142.426C92.6158 142.74 92.5066 143.116 92.5066 143.553C92.5066 144.217 92.7425 144.723 93.2143 145.073C93.6948 145.422 94.302 145.597 95.0359 145.597ZM107.589 156.998V129.32H113.932V132.767H114.129C114.391 132.156 114.762 131.566 115.242 130.998C115.732 130.43 116.352 129.967 117.103 129.609C117.863 129.242 118.772 129.058 119.829 129.058C121.227 129.058 122.533 129.425 123.748 130.159C124.971 130.893 125.958 132.025 126.709 133.553C127.461 135.082 127.836 137.031 127.836 139.398C127.836 141.679 127.474 143.588 126.749 145.125C126.032 146.663 125.063 147.816 123.839 148.585C122.625 149.354 121.275 149.738 119.79 149.738C118.776 149.738 117.898 149.572 117.156 149.24C116.413 148.908 115.789 148.471 115.282 147.93C114.784 147.388 114.399 146.807 114.129 146.187H113.997V156.998H107.589ZM113.866 139.385C113.866 140.469 114.011 141.412 114.299 142.216C114.596 143.02 115.02 143.644 115.57 144.09C116.129 144.527 116.798 144.745 117.575 144.745C118.361 144.745 119.03 144.527 119.58 144.09C120.131 143.644 120.546 143.02 120.825 142.216C121.114 141.412 121.258 140.469 121.258 139.385C121.258 138.302 121.114 137.363 120.825 136.568C120.546 135.773 120.131 135.157 119.58 134.72C119.039 134.283 118.37 134.065 117.575 134.065C116.789 134.065 116.121 134.279 115.57 134.707C115.02 135.135 114.596 135.746 114.299 136.541C114.011 137.336 113.866 138.284 113.866 139.385ZM147.652 129.32V134.038H134.953V129.32H147.652ZM137.613 124.498H144.022V143.12C144.022 143.513 144.083 143.832 144.205 144.077C144.336 144.313 144.524 144.483 144.769 144.588C145.013 144.684 145.306 144.732 145.647 144.732C145.891 144.732 146.149 144.71 146.42 144.667C146.699 144.614 146.909 144.57 147.049 144.536L148.019 149.162C147.713 149.249 147.28 149.358 146.721 149.489C146.171 149.62 145.511 149.703 144.742 149.738C143.24 149.808 141.951 149.633 140.876 149.214C139.81 148.786 138.994 148.122 138.426 147.222C137.867 146.322 137.596 145.191 137.613 143.828V124.498ZM158.685 149.83C156.57 149.83 154.753 149.398 153.233 148.533C151.722 147.659 150.555 146.445 149.734 144.889C148.921 143.325 148.515 141.513 148.515 139.451C148.515 137.38 148.921 135.567 149.734 134.012C150.555 132.448 151.722 131.234 153.233 130.369C154.753 129.495 156.57 129.058 158.685 129.058C160.799 129.058 162.612 129.495 164.123 130.369C165.644 131.234 166.81 132.448 167.622 134.012C168.444 135.567 168.854 137.38 168.854 139.451C168.854 141.513 168.444 143.325 167.622 144.889C166.81 146.445 165.644 147.659 164.123 148.533C162.612 149.398 160.799 149.83 158.685 149.83ZM158.724 144.994C159.493 144.994 160.144 144.758 160.677 144.287C161.21 143.815 161.616 143.159 161.895 142.321C162.184 141.482 162.328 140.512 162.328 139.411C162.328 138.293 162.184 137.315 161.895 136.476C161.616 135.637 161.21 134.982 160.677 134.51C160.144 134.038 159.493 133.802 158.724 133.802C157.929 133.802 157.256 134.038 156.706 134.51C156.164 134.982 155.749 135.637 155.461 136.476C155.181 137.315 155.041 138.293 155.041 139.411C155.041 140.512 155.181 141.482 155.461 142.321C155.749 143.159 156.164 143.815 156.706 144.287C157.256 144.758 157.929 144.994 158.724 144.994ZM176.5 144.169L176.526 136.528H177.417L183.078 129.32H190.339L181.925 139.647H180.235L176.5 144.169ZM170.72 149.45V122.611H177.129V149.45H170.72ZM183.223 149.45L177.954 141.089L182.174 136.541L190.627 149.45H183.223ZM199.796 149.83C197.69 149.83 195.873 149.415 194.344 148.585C192.824 147.746 191.653 146.554 190.832 145.007C190.019 143.452 189.613 141.604 189.613 139.464C189.613 137.385 190.024 135.567 190.845 134.012C191.666 132.448 192.824 131.234 194.318 130.369C195.812 129.495 197.572 129.058 199.599 129.058C201.032 129.058 202.342 129.281 203.531 129.727C204.719 130.172 205.745 130.832 206.61 131.706C207.475 132.579 208.148 133.658 208.629 134.943C209.109 136.218 209.349 137.682 209.349 139.333V140.932H191.854V137.21H203.387C203.378 136.528 203.216 135.921 202.902 135.388C202.587 134.855 202.155 134.44 201.604 134.143C201.063 133.837 200.438 133.684 199.73 133.684C199.014 133.684 198.372 133.846 197.804 134.169C197.236 134.484 196.786 134.916 196.454 135.467C196.122 136.008 195.947 136.624 195.93 137.315V141.102C195.93 141.923 196.091 142.644 196.415 143.264C196.738 143.876 197.197 144.352 197.791 144.693C198.385 145.034 199.092 145.204 199.914 145.204C200.482 145.204 200.997 145.125 201.46 144.968C201.923 144.811 202.321 144.579 202.653 144.273C202.985 143.968 203.234 143.592 203.4 143.146L209.284 143.317C209.039 144.636 208.502 145.785 207.672 146.763C206.851 147.733 205.772 148.489 204.435 149.031C203.098 149.564 201.552 149.83 199.796 149.83ZM217.614 137.97V149.45H211.206V129.32H217.299V133.016H217.522C217.968 131.784 218.728 130.819 219.802 130.12C220.877 129.412 222.157 129.058 223.642 129.058C225.058 129.058 226.285 129.377 227.325 130.015C228.373 130.644 229.186 131.527 229.762 132.662C230.348 133.789 230.636 135.109 230.627 136.62V149.45H224.219V137.878C224.228 136.76 223.944 135.886 223.367 135.257C222.799 134.628 222.008 134.314 220.995 134.314C220.322 134.314 219.728 134.462 219.213 134.759C218.706 135.047 218.313 135.462 218.033 136.004C217.762 136.546 217.623 137.201 217.614 137.97ZM250.752 135.467L244.868 135.624C244.807 135.205 244.641 134.833 244.37 134.51C244.099 134.178 243.745 133.92 243.308 133.737C242.88 133.545 242.382 133.449 241.814 133.449C241.072 133.449 240.438 133.597 239.914 133.894C239.399 134.191 239.145 134.593 239.154 135.1C239.145 135.493 239.302 135.834 239.626 136.122C239.958 136.41 240.547 136.642 241.395 136.817L245.274 137.551C247.283 137.935 248.777 138.573 249.756 139.464C250.743 140.355 251.241 141.534 251.25 143.002C251.241 144.383 250.831 145.584 250.018 146.606C249.214 147.628 248.113 148.423 246.716 148.991C245.318 149.55 243.719 149.83 241.919 149.83C239.045 149.83 236.778 149.24 235.118 148.061C233.466 146.873 232.523 145.283 232.287 143.291L238.617 143.133C238.756 143.867 239.119 144.426 239.704 144.811C240.29 145.195 241.037 145.387 241.945 145.387C242.767 145.387 243.435 145.234 243.95 144.929C244.466 144.623 244.728 144.217 244.737 143.71C244.728 143.256 244.527 142.893 244.134 142.622C243.741 142.343 243.125 142.124 242.286 141.967L238.774 141.299C236.756 140.932 235.253 140.255 234.266 139.267C233.278 138.271 232.789 137.004 232.798 135.467C232.789 134.121 233.147 132.972 233.873 132.02C234.598 131.059 235.629 130.325 236.965 129.818C238.302 129.312 239.879 129.058 241.696 129.058C244.422 129.058 246.571 129.631 248.144 130.775C249.717 131.911 250.586 133.475 250.752 135.467ZM267.94 149.856C266.052 149.856 264.423 149.52 263.051 148.847C261.688 148.174 260.64 147.27 259.906 146.134C259.172 144.99 258.805 143.719 258.805 142.321C258.805 141.29 259.006 140.381 259.408 139.595C259.819 138.8 260.382 138.07 261.099 137.406C261.824 136.734 262.667 136.074 263.628 135.427L269.263 131.824C269.901 131.422 270.351 130.998 270.613 130.552C270.884 130.107 271.019 129.661 271.019 129.216C271.019 128.735 270.831 128.298 270.456 127.905C270.089 127.512 269.543 127.32 268.818 127.329C268.355 127.329 267.953 127.425 267.612 127.617C267.271 127.809 267.005 128.067 266.813 128.39C266.629 128.713 266.537 129.08 266.537 129.491C266.537 130.024 266.69 130.57 266.996 131.129C267.302 131.688 267.712 132.282 268.228 132.911C268.752 133.54 269.333 134.235 269.971 134.995L282.827 149.45H276.301L265.541 137.773C264.93 137.092 264.288 136.327 263.615 135.48C262.942 134.632 262.374 133.706 261.911 132.702C261.448 131.688 261.217 130.587 261.217 129.399C261.217 128.062 261.531 126.852 262.16 125.769C262.789 124.686 263.672 123.825 264.807 123.187C265.952 122.541 267.284 122.218 268.805 122.218C270.272 122.218 271.539 122.519 272.605 123.122C273.671 123.725 274.492 124.524 275.069 125.52C275.645 126.516 275.934 127.608 275.934 128.796C275.934 130.054 275.624 131.212 275.003 132.269C274.383 133.318 273.505 134.248 272.369 135.061L266.852 139.005C266.267 139.425 265.808 139.874 265.476 140.355C265.144 140.827 264.978 141.342 264.978 141.901C264.978 142.478 265.113 142.98 265.384 143.408C265.664 143.837 266.057 144.173 266.564 144.418C267.07 144.662 267.664 144.785 268.346 144.785C269.254 144.785 270.163 144.57 271.072 144.142C271.98 143.706 272.81 143.094 273.562 142.308C274.313 141.513 274.916 140.573 275.37 139.49C275.825 138.398 276.052 137.201 276.052 135.899H281.215C281.215 137.507 281.045 139.001 280.704 140.381C280.363 141.753 279.852 142.985 279.171 144.077C278.498 145.16 277.664 146.06 276.668 146.777C276.353 146.951 276.047 147.117 275.75 147.275C275.453 147.432 275.147 147.598 274.833 147.772C273.802 148.515 272.684 149.048 271.478 149.371C270.281 149.695 269.102 149.856 267.94 149.856ZM43.4277 196.83C41.3046 196.83 39.483 196.393 37.9628 195.519C36.4514 194.646 35.2894 193.431 34.4769 191.876C33.6643 190.312 33.2581 188.504 33.2581 186.451C33.2581 184.389 33.6643 182.58 34.4769 181.025C35.2981 179.461 36.4645 178.243 37.9759 177.369C39.4961 176.495 41.309 176.058 43.4146 176.058C45.2755 176.058 46.8961 176.395 48.2766 177.067C49.6657 177.74 50.749 178.693 51.5266 179.924C52.3129 181.148 52.7279 182.585 52.7716 184.236H46.7826C46.6603 183.205 46.3108 182.397 45.7342 181.812C45.1663 181.226 44.4236 180.933 43.5063 180.933C42.7637 180.933 42.1128 181.143 41.5536 181.563C40.9945 181.973 40.5576 182.585 40.2431 183.397C39.9373 184.201 39.7844 185.197 39.7844 186.385C39.7844 187.573 39.9373 188.578 40.2431 189.399C40.5576 190.212 40.9945 190.828 41.5536 191.247C42.1128 191.658 42.7637 191.863 43.5063 191.863C44.1004 191.863 44.6246 191.736 45.0789 191.483C45.542 191.23 45.922 190.858 46.219 190.369C46.5161 189.871 46.7039 189.268 46.7826 188.561H52.7716C52.7104 190.221 52.2955 191.671 51.5266 192.912C50.7665 194.152 49.6963 195.118 48.3159 195.808C46.9442 196.489 45.3148 196.83 43.4277 196.83ZM64.0307 196.83C61.9164 196.83 60.0991 196.398 58.5789 195.533C57.0675 194.659 55.9011 193.445 55.0799 191.889C54.2674 190.325 53.8611 188.513 53.8611 186.451C53.8611 184.38 54.2674 182.567 55.0799 181.012C55.9011 179.448 57.0675 178.234 58.5789 177.369C60.0991 176.495 61.9164 176.058 64.0307 176.058C66.145 176.058 67.9578 176.495 69.4693 177.369C70.9895 178.234 72.1558 179.448 72.9684 181.012C73.7896 182.567 74.2002 184.38 74.2002 186.451C74.2002 188.513 73.7896 190.325 72.9684 191.889C72.1558 193.445 70.9895 194.659 69.4693 195.533C67.9578 196.398 66.145 196.83 64.0307 196.83ZM64.07 191.994C64.8388 191.994 65.4897 191.758 66.0227 191.287C66.5556 190.815 66.9619 190.159 67.2414 189.321C67.5297 188.482 67.6739 187.512 67.6739 186.411C67.6739 185.293 67.5297 184.315 67.2414 183.476C66.9619 182.637 66.5556 181.982 66.0227 181.51C65.4897 181.038 64.8388 180.802 64.07 180.802C63.2749 180.802 62.6022 181.038 62.0518 181.51C61.5101 181.982 61.0951 182.637 60.8068 183.476C60.5272 184.315 60.3875 185.293 60.3875 186.411C60.3875 187.512 60.5272 188.482 60.8068 189.321C61.0951 190.159 61.5101 190.815 62.0518 191.287C62.6022 191.758 63.2749 191.994 64.07 191.994ZM82.4746 169.611V196.45H76.0662V169.611H82.4746ZM91.5451 169.611V196.45H85.1367V169.611H91.5451ZM103.617 196.83C101.511 196.83 99.6939 196.415 98.165 195.585C96.6448 194.746 95.4741 193.554 94.6528 192.007C93.8403 190.452 93.4341 188.604 93.4341 186.464C93.4341 184.385 93.8447 182.567 94.6659 181.012C95.4872 179.448 96.6448 178.234 98.1388 177.369C99.6328 176.495 101.393 176.058 103.42 176.058C104.853 176.058 106.163 176.281 107.352 176.727C108.54 177.172 109.566 177.832 110.431 178.706C111.296 179.579 111.969 180.658 112.45 181.943C112.93 183.218 113.17 184.682 113.17 186.333V187.932H95.675V184.21H107.208C107.199 183.528 107.037 182.921 106.723 182.388C106.408 181.855 105.976 181.44 105.425 181.143C104.884 180.837 104.259 180.684 103.551 180.684C102.835 180.684 102.193 180.846 101.625 181.169C101.057 181.484 100.607 181.916 100.275 182.467C99.9429 183.008 99.7682 183.624 99.7507 184.315V188.102C99.7507 188.923 99.9123 189.644 100.236 190.264C100.559 190.876 101.018 191.352 101.612 191.693C102.206 192.034 102.913 192.204 103.735 192.204C104.303 192.204 104.818 192.125 105.281 191.968C105.744 191.811 106.142 191.579 106.474 191.273C106.806 190.968 107.055 190.592 107.221 190.146L113.105 190.317C112.86 191.636 112.323 192.785 111.493 193.763C110.672 194.733 109.593 195.489 108.256 196.031C106.919 196.564 105.373 196.83 103.617 196.83ZM124.423 196.83C122.3 196.83 120.478 196.393 118.958 195.519C117.447 194.646 116.285 193.431 115.472 191.876C114.66 190.312 114.253 188.504 114.253 186.451C114.253 184.389 114.66 182.58 115.472 181.025C116.293 179.461 117.46 178.243 118.971 177.369C120.491 176.495 122.304 176.058 124.41 176.058C126.271 176.058 127.891 176.395 129.272 177.067C130.661 177.74 131.744 178.693 132.522 179.924C133.308 181.148 133.723 182.585 133.767 184.236H127.778C127.655 183.205 127.306 182.397 126.729 181.812C126.161 181.226 125.419 180.933 124.502 180.933C123.759 180.933 123.108 181.143 122.549 181.563C121.99 181.973 121.553 182.585 121.238 183.397C120.933 184.201 120.78 185.197 120.78 186.385C120.78 187.573 120.933 188.578 121.238 189.399C121.553 190.212 121.99 190.828 122.549 191.247C123.108 191.658 123.759 191.863 124.502 191.863C125.096 191.863 125.62 191.736 126.074 191.483C126.537 191.23 126.917 190.858 127.214 190.369C127.511 189.871 127.699 189.268 127.778 188.561H133.767C133.706 190.221 133.291 191.671 132.522 192.912C131.762 194.152 130.691 195.118 129.311 195.808C127.939 196.489 126.31 196.83 124.423 196.83ZM146.992 176.32V181.038H134.293V176.32H146.992ZM136.953 171.498H143.362V190.12C143.362 190.513 143.423 190.832 143.545 191.077C143.676 191.313 143.864 191.483 144.109 191.588C144.353 191.684 144.646 191.732 144.987 191.732C145.231 191.732 145.489 191.71 145.76 191.667C146.039 191.614 146.249 191.57 146.389 191.536L147.359 196.162C147.053 196.249 146.62 196.358 146.061 196.489C145.511 196.62 144.851 196.703 144.082 196.738C142.58 196.808 141.291 196.633 140.216 196.214C139.15 195.786 138.334 195.122 137.766 194.222C137.207 193.322 136.936 192.191 136.953 190.828V171.498ZM148.845 196.45V176.32H155.253V196.45H148.845ZM152.055 173.975C151.155 173.975 150.382 173.678 149.736 173.084C149.089 172.481 148.766 171.756 148.766 170.908C148.766 170.069 149.089 169.353 149.736 168.759C150.382 168.156 151.155 167.855 152.055 167.855C152.964 167.855 153.737 168.156 154.375 168.759C155.021 169.353 155.345 170.069 155.345 170.908C155.345 171.756 155.021 172.481 154.375 173.084C153.737 173.678 152.964 173.975 152.055 173.975ZM157.915 196.45V169.611H164.323V179.767H164.455C164.717 179.156 165.088 178.566 165.568 177.998C166.058 177.43 166.678 176.967 167.429 176.609C168.189 176.242 169.098 176.058 170.155 176.058C171.553 176.058 172.859 176.425 174.074 177.159C175.297 177.893 176.284 179.025 177.035 180.553C177.787 182.082 178.162 184.031 178.162 186.398C178.162 188.679 177.8 190.588 177.075 192.125C176.358 193.663 175.389 194.816 174.165 195.585C172.951 196.354 171.601 196.738 170.116 196.738C169.102 196.738 168.224 196.572 167.482 196.24C166.739 195.908 166.114 195.471 165.608 194.93C165.11 194.388 164.725 193.807 164.455 193.187H164.258V196.45H157.915ZM164.192 186.385C164.192 187.469 164.337 188.412 164.625 189.216C164.922 190.02 165.346 190.644 165.896 191.09C166.455 191.527 167.124 191.745 167.901 191.745C168.687 191.745 169.356 191.527 169.906 191.09C170.457 190.644 170.872 190.02 171.151 189.216C171.44 188.412 171.584 187.469 171.584 186.385C171.584 185.302 171.44 184.363 171.151 183.568C170.872 182.773 170.457 182.157 169.906 181.72C169.365 181.283 168.696 181.065 167.901 181.065C167.115 181.065 166.446 181.279 165.896 181.707C165.346 182.135 164.922 182.746 164.625 183.541C164.337 184.336 164.192 185.284 164.192 186.385ZM186.512 169.611V196.45H180.104V169.611H186.512ZM198.584 196.83C196.478 196.83 194.661 196.415 193.132 195.585C191.612 194.746 190.441 193.554 189.62 192.007C188.807 190.452 188.401 188.604 188.401 186.464C188.401 184.385 188.812 182.567 189.633 181.012C190.454 179.448 191.612 178.234 193.106 177.369C194.6 176.495 196.36 176.058 198.387 176.058C199.82 176.058 201.131 176.281 202.319 176.727C203.507 177.172 204.533 177.832 205.398 178.706C206.263 179.579 206.936 180.658 207.417 181.943C207.897 183.218 208.137 184.682 208.137 186.333V187.932H190.642V184.21H202.175C202.166 183.528 202.004 182.921 201.69 182.388C201.375 181.855 200.943 181.44 200.392 181.143C199.851 180.837 199.226 180.684 198.518 180.684C197.802 180.684 197.16 180.846 196.592 181.169C196.024 181.484 195.574 181.916 195.242 182.467C194.91 183.008 194.735 183.624 194.718 184.315V188.102C194.718 188.923 194.879 189.644 195.203 190.264C195.526 190.876 195.985 191.352 196.579 191.693C197.173 192.034 197.88 192.204 198.702 192.204C199.27 192.204 199.785 192.125 200.248 191.968C200.711 191.811 201.109 191.579 201.441 191.273C201.773 190.968 202.022 190.592 202.188 190.146L208.072 190.317C207.827 191.636 207.29 192.785 206.46 193.763C205.639 194.733 204.56 195.489 203.223 196.031C201.886 196.564 200.34 196.83 198.584 196.83ZM227.568 182.467L221.683 182.624C221.622 182.205 221.456 181.833 221.185 181.51C220.914 181.178 220.561 180.92 220.124 180.737C219.696 180.545 219.198 180.449 218.63 180.449C217.887 180.449 217.254 180.597 216.73 180.894C216.214 181.191 215.961 181.593 215.969 182.1C215.961 182.493 216.118 182.834 216.441 183.122C216.773 183.41 217.363 183.642 218.21 183.817L222.09 184.551C224.099 184.935 225.593 185.573 226.572 186.464C227.559 187.355 228.057 188.534 228.066 190.002C228.057 191.383 227.646 192.584 226.834 193.606C226.03 194.628 224.929 195.423 223.531 195.991C222.133 196.55 220.534 196.83 218.735 196.83C215.86 196.83 213.593 196.24 211.933 195.061C210.282 193.873 209.338 192.283 209.102 190.291L215.432 190.133C215.572 190.867 215.935 191.426 216.52 191.811C217.105 192.195 217.852 192.387 218.761 192.387C219.582 192.387 220.25 192.234 220.766 191.929C221.281 191.623 221.544 191.217 221.552 190.71C221.544 190.256 221.343 189.893 220.949 189.622C220.556 189.343 219.94 189.124 219.102 188.967L215.589 188.299C213.571 187.932 212.069 187.255 211.081 186.267C210.094 185.271 209.605 184.004 209.614 182.467C209.605 181.121 209.963 179.972 210.688 179.02C211.413 178.059 212.444 177.325 213.781 176.818C215.118 176.312 216.695 176.058 218.512 176.058C221.238 176.058 223.387 176.631 224.96 177.775C226.532 178.911 227.402 180.475 227.568 182.467ZM233.408 196.83C232.464 196.83 231.656 196.498 230.983 195.834C230.319 195.17 229.992 194.366 230 193.423C229.992 192.497 230.319 191.706 230.983 191.051C231.656 190.387 232.464 190.055 233.408 190.055C234.299 190.055 235.085 190.387 235.767 191.051C236.457 191.706 236.806 192.497 236.815 193.423C236.806 194.052 236.64 194.624 236.317 195.139C236.002 195.655 235.587 196.066 235.072 196.371C234.565 196.677 234.01 196.83 233.408 196.83Z" fill="white"/>
<rect x="0.52892" y="0.52892" width="676.282" height="354.082" rx="19.4711" stroke="url(#paint1_linear_36_627)" stroke-width="1.05784"/>
<defs>
<linearGradient id="paint0_linear_36_627" x1="653.873" y1="6.77568" x2="50.4416" y2="407.4" gradientUnits="userSpaceOnUse">
<stop stop-color="white"/>
<stop offset="1" stop-color="white" stop-opacity="0.38"/>
</linearGradient>
<linearGradient id="paint1_linear_36_627" x1="6.66673" y1="352.336" x2="683.348" y2="-102.024" gradientUnits="userSpaceOnUse">
<stop stop-color="white"/>
<stop offset="1" stop-color="white" stop-opacity="0"/>
</linearGradient>
</defs>
</svg>
