<svg width="444" height="335" viewBox="0 0 444 335" fill="none" xmlns="http://www.w3.org/2000/svg">
<path fill-rule="evenodd" clip-rule="evenodd" d="M268.276 331.249C268.31 332.955 269.706 334.328 271.421 334.323C272.984 334.32 274.278 333.172 274.51 331.674L363.54 320.129C364.139 321.885 365.804 323.147 367.764 323.142C370.22 323.136 372.205 321.139 372.199 318.682C372.198 318.073 372.074 317.493 371.852 316.965L430.627 276.847C431.099 277.206 431.688 277.419 432.325 277.417C433.868 277.413 435.115 276.16 435.112 274.619C435.111 274.193 435.014 273.788 434.843 273.428L484.005 226.323C484.727 226.825 485.604 227.119 486.551 227.116C489.007 227.11 490.993 225.113 490.987 222.657C490.983 221.269 490.344 220.03 489.346 219.218L532.137 137.533C532.339 137.574 532.549 137.595 532.763 137.595C534.495 137.59 535.895 136.183 535.891 134.452C535.888 133.168 535.114 132.066 534.009 131.584L539.473 88.6671C541.781 88.4995 543.599 86.5705 543.593 84.2199C543.587 81.9849 541.932 80.1372 539.783 79.8287L533.621 -29.1246C535.321 -29.7549 536.529 -31.3916 536.525 -33.3078C536.519 -35.7641 534.523 -37.7514 532.067 -37.7453C531.376 -37.7435 530.724 -37.585 530.142 -37.3027L436.578 -160.177C437.269 -160.963 437.686 -161.993 437.683 -163.121C437.677 -165.577 435.679 -167.564 433.223 -167.558C431.52 -167.553 430.041 -166.591 429.298 -165.182L323.806 -196.03L320.858 -197.896C320.945 -198.186 320.992 -198.494 320.991 -198.812C320.987 -200.544 319.579 -201.944 317.848 -201.94C316.37 -201.936 315.133 -200.911 314.805 -199.534L312.131 -199.444L277.139 -209.676C277.149 -209.804 277.155 -209.933 277.155 -210.063C277.149 -212.519 275.152 -214.506 272.695 -214.5C270.298 -214.494 268.349 -212.593 268.262 -210.218L176.982 -195.274C176.474 -196.328 175.396 -197.053 174.148 -197.05C172.417 -197.046 171.017 -195.639 171.021 -193.907C171.022 -193.58 171.072 -193.266 171.165 -192.97L114.547 -154.883C113.742 -155.679 112.634 -156.168 111.413 -156.165C108.956 -156.159 106.97 -154.163 106.976 -151.706C106.978 -150.916 107.186 -150.174 107.549 -149.532L57.3672 -106.1C56.8763 -106.417 56.2914 -106.599 55.6639 -106.598C53.932 -106.594 52.5316 -105.186 52.5359 -103.454C52.5381 -102.558 52.9161 -101.751 53.5204 -101.181L10.7868 -17.0567C10.4047 -17.1631 10.0019 -17.2199 9.58597 -17.2189C7.12956 -17.2128 5.1432 -15.2157 5.14931 -12.7593C5.15422 -10.782 6.44872 -9.11022 8.23477 -8.53484L2.77468 40.008C1.29826 40.266 0.177574 41.5556 0.181425 43.1051C0.185123 44.5934 1.22405 45.8364 2.61457 46.1551L8.93515 151.735C7.02687 152.238 5.62226 153.98 5.62739 156.046C5.6335 158.503 7.62977 160.488 10.0862 160.482C10.7815 160.48 11.4392 160.318 12.0247 160.033L107.208 284.494C106.521 285.281 106.106 286.307 106.109 287.432C106.115 289.889 108.111 291.876 110.567 291.87C112.302 291.865 113.802 290.869 114.532 289.418L220.208 318.191C220.202 318.292 220.199 318.394 220.199 318.497C220.205 320.953 222.201 322.939 224.657 322.933C226.393 322.928 227.894 321.93 228.624 320.48L268.276 331.249ZM271.98 328.103C271.794 328.068 271.602 328.051 271.406 328.051C270.656 328.053 269.967 328.319 269.43 328.758L255.777 319.413L276.36 319.442L271.98 328.103ZM273.557 328.9L278.335 319.446L302.053 319.479L273.958 329.355C273.838 329.19 273.704 329.038 273.557 328.9ZM228.932 317.292C228.961 317.396 228.987 317.502 229.008 317.609L250.062 317.64L240.749 311.265L228.932 317.292ZM224.576 314.039C224.595 314.037 224.615 314.037 224.635 314.037C226.051 314.034 227.313 314.691 228.13 315.72L239.091 310.129L232.452 305.585C233.796 305.804 235.143 306.013 236.491 306.211L240.881 309.216L352.674 252.199C352.524 251.717 352.443 251.205 352.442 250.673C352.442 250.48 352.453 250.289 352.472 250.099L204.47 207.636C203.915 208.786 202.946 209.7 201.758 210.183L224.576 314.039ZM221.399 315.446C221.806 315.011 222.299 314.659 222.852 314.415L200.032 210.561C199.958 210.565 199.885 210.566 199.811 210.567C197.822 210.572 196.091 209.458 195.217 207.818L100.872 238.964C100.892 239.134 100.902 239.306 100.903 239.481C100.904 240.024 100.808 240.545 100.631 241.028L221.399 315.446ZM99.7037 242.53L218.976 316.025L114.995 287.714C115.001 287.615 115.004 287.513 115.004 287.41C115.003 287.152 114.981 286.9 114.938 286.654L146.184 274.427C145.54 274.048 144.897 273.668 144.257 273.285L114.294 285.01C113.5 283.781 112.117 282.971 110.545 282.974C110.42 282.975 110.296 282.98 110.173 282.99L98.5336 243.425C98.9724 243.193 99.3674 242.889 99.7037 242.53ZM96.8398 243.923L106.335 276.199L84.6213 229.285L92.7068 237.096C92.2622 237.791 92.0052 238.618 92.0074 239.503C92.0135 241.959 94.0097 243.945 96.4662 243.939C96.592 243.939 96.7166 243.933 96.8398 243.923ZM93.9338 235.828L82.566 224.845L78.7719 216.646C77.1754 214.686 75.6068 212.697 74.067 210.684L79.047 221.444L13.8251 158.428C13.8776 158.345 13.9275 158.261 13.9746 158.175L48.1489 168.701C47.7976 167.982 47.4496 167.258 47.1048 166.533L14.4998 156.49C14.5154 156.336 14.5232 156.181 14.5228 156.024C14.5207 155.18 14.2836 154.391 13.8735 153.72L61.1681 110.686C62.0513 111.374 63.163 111.783 64.3699 111.78C64.4804 111.78 64.5901 111.776 64.6988 111.769L94.5743 235.459C94.3501 235.566 94.136 235.689 93.9338 235.828ZM96.2908 235.047L66.4152 111.357C66.9954 111.106 67.5207 110.751 67.9681 110.317L195.145 203.077C194.8 203.773 194.606 204.56 194.608 205.391C194.608 205.645 194.627 205.896 194.664 206.141L100.319 237.287C99.5506 235.944 98.1021 235.039 96.4441 235.044C96.3927 235.044 96.3417 235.045 96.2908 235.047ZM196.188 201.65L69.0093 108.892C69.3547 108.194 69.5482 107.409 69.5461 106.578C69.5448 106.075 69.4718 105.587 69.3367 105.127L193.809 43.9785C194.727 45.3027 196.173 46.2357 197.84 46.4727L198.88 200.269C197.843 200.455 196.913 200.948 196.188 201.65ZM200.644 200.258L199.606 46.4617C200.926 46.2553 202.1 45.6147 202.98 44.6908L316.789 124.487C316.39 125.287 316.166 126.19 316.168 127.146C316.17 128.002 316.353 128.814 316.681 129.547L203.628 201.878C202.86 201.038 201.818 200.45 200.644 200.258ZM204.58 203.364L317.633 131.034C318.723 132.28 320.328 133.066 322.113 133.062C322.369 133.061 322.622 133.044 322.87 133.012L355.369 245.99C354.32 246.499 353.468 247.352 352.959 248.403L204.957 205.938C204.976 205.75 204.987 205.558 204.987 205.365C204.985 204.655 204.841 203.98 204.58 203.364ZM357.066 245.503L324.567 132.525C326.552 131.615 327.946 129.643 328.025 127.338L451.135 113.201C451.382 114.043 451.836 114.796 452.439 115.403L359.869 245.979C359.188 245.652 358.424 245.47 357.618 245.472C357.433 245.473 357.248 245.483 357.066 245.503ZM361.309 247.001L453.879 116.425C454.56 116.75 455.324 116.934 456.13 116.932C456.289 116.931 456.445 116.923 456.601 116.909L480.64 205.784L465.964 226.234L362.443 248.713C362.18 248.067 361.792 247.487 361.309 247.001ZM362.815 250.438L464.429 228.374L445.563 254.659L434.557 263.556L436.516 247.49C435.857 248.063 435.196 248.634 434.53 249.203L432.584 265.151L424.563 271.635L409.898 267.697C409.237 268.132 408.574 268.563 407.909 268.992L422.865 273.007L414.09 280.101L365.449 297.198L359.259 255.591C361.332 254.907 362.827 252.95 362.821 250.648C362.821 250.578 362.819 250.509 362.815 250.438ZM357.511 255.849L363.753 297.794L307.056 317.721L279.228 317.681L283.837 308.564C283.163 308.596 282.489 308.624 281.815 308.65L277.251 317.679L253.194 317.643L242.541 310.352L353.477 253.772C354.402 255.005 355.861 255.812 357.511 255.849ZM461.249 110.97C461.286 111.218 461.305 111.471 461.306 111.728C461.311 113.818 460.081 115.62 458.304 116.449L481.969 203.934L504.239 172.904L516.463 140.99L507.398 144.075C507.656 143.369 507.908 142.662 508.159 141.952L517.283 138.846L524.753 119.346L518.047 105.247C518.233 104.259 518.414 103.269 518.59 102.278L525.624 117.069L531.82 100.897L531.8 87.5959L461.249 110.97ZM457.927 106.877C459.116 107.32 460.101 108.186 460.693 109.295L531.797 85.7375L531.771 68.4126L486.94 -41.9759C486.575 -41.866 486.193 -41.7973 485.799 -41.7699L457.927 106.877ZM453.778 107.109C454.478 106.755 455.267 106.555 456.104 106.553C456.134 106.553 456.162 106.553 456.192 106.553L484.037 -41.9538C482.538 -42.378 481.314 -43.4586 480.698 -44.8661L364.841 -18.4899C364.847 -18.404 364.849 -18.3148 364.849 -18.2273C364.852 -16.8331 364.305 -15.568 363.414 -14.6325L453.778 107.109ZM450.936 111.447C451.007 110.175 451.536 109.025 452.362 108.161L361.998 -13.58C361.298 -13.2281 360.509 -13.0279 359.673 -13.0258C359.524 -13.0254 359.377 -13.0317 359.232 -13.0429L324.419 121.673C326.078 122.379 327.348 123.818 327.825 125.584L450.936 111.447ZM317.803 123.042C318.879 121.911 320.399 121.205 322.084 121.201C322.295 121.201 322.503 121.212 322.71 121.233L357.523 -13.4846C356.529 -13.9348 355.703 -14.6877 355.162 -15.6262L204.538 39.6486C204.587 39.9541 204.614 40.2679 204.615 40.5867C204.618 41.5432 204.393 42.4457 203.994 43.2462L317.803 123.042ZM201.24 35.2496C202.434 35.8215 203.41 36.7805 203.997 37.9667L354.555 -17.2832C354.5 -17.5804 354.471 -17.8876 354.47 -18.2015C354.468 -19.0621 354.676 -19.872 355.044 -20.5882L231.255 -113.935C230.33 -113.066 229.086 -112.533 227.716 -112.529C227.702 -112.529 227.685 -112.529 227.67 -112.529L201.24 35.2496ZM194.706 36.2041C195.756 35.255 197.144 34.675 198.67 34.6712C198.964 34.6705 199.255 34.6912 199.539 34.7335L225.933 -112.839C225.055 -113.158 224.287 -113.707 223.703 -114.414L101.693 -44.5817C101.893 -44.0305 102.003 -43.4377 102.005 -42.8183C102.007 -41.8833 101.762 -41.0056 101.332 -40.2479L194.706 36.2041ZM193.03 42.3946C192.852 41.8334 192.756 41.2357 192.755 40.6162C192.752 39.5028 193.056 38.4597 193.588 37.568L100.213 -38.8823C99.3057 -38.0954 98.123 -37.6184 96.8284 -37.6152C96.7487 -37.615 96.6694 -37.6181 96.5906 -37.6212L66.3045 101.781C67.2108 102.147 67.9899 102.763 68.557 103.543L193.03 42.3946ZM63.0262 101.575C63.4468 101.463 63.8885 101.404 64.3441 101.403C64.4229 101.403 64.5012 101.404 64.579 101.407L94.8653 -37.9952C93.7567 -38.4451 92.8387 -39.2671 92.2666 -40.3063L25.8791 -17.4444L18.2387 3.9451L63.0262 101.575ZM59.9798 109.379C59.468 108.577 59.1705 107.627 59.1679 106.604C59.1635 104.823 60.0571 103.25 61.4218 102.312L17.3884 6.32428L10.59 25.3561L10.6294 39.2963L24.0125 34.0778C23.9464 34.7337 23.8831 35.3897 23.8223 36.0473L10.6348 41.1894L10.6837 58.4746L25.147 93.1664C25.4849 95.5922 25.8595 98.0212 26.2709 100.448L10.6967 63.0933L10.9472 151.672C11.5816 151.798 12.1674 152.059 12.6735 152.424L59.9798 109.379ZM91.6923 -41.9766L26.6397 -19.5723L37.0643 -48.7557L60.3747 -80.5644L61.7677 -74.8813C62.2027 -75.5665 62.6413 -76.2497 63.0829 -76.9309L61.7369 -82.4231L79.9117 -107.224L87.4817 -108.679C88.1428 -109.41 88.8084 -110.137 89.4783 -110.86L81.4451 -109.317L102.595 -138.177L109.415 -143.384L96.6187 -47.9902C93.8383 -47.8858 91.6196 -45.5957 91.6265 -42.7925C91.6272 -42.515 91.6497 -42.2425 91.6923 -41.9766ZM98.3688 -47.7567L111.4 -144.899L116.995 -149.17L222.548 -118.307C222.525 -118.11 222.514 -117.909 222.515 -117.705C222.516 -117.087 222.625 -116.495 222.825 -115.946L100.814 -46.1125C100.182 -46.8757 99.3363 -47.4551 98.3688 -47.7567ZM223.043 -120.002L118.737 -150.5L126.017 -156.058L175.775 -174.054L176.115 -171.357C176.678 -171.592 177.242 -171.825 177.807 -172.056L177.476 -174.67L233.802 -195.041L264.921 -196.089L229.15 -122.703C228.687 -122.837 228.198 -122.909 227.691 -122.907C225.649 -122.902 223.886 -121.719 223.043 -120.002ZM230.736 -121.93L266.918 -196.156L289.884 -196.929L299.541 -190.155L298.2 -189.452C299.125 -189.356 300.052 -189.255 300.976 -189.149L365.092 -144.183C364.777 -143.515 364.599 -142.767 364.597 -141.979L232.597 -119.451C232.241 -120.455 231.585 -121.317 230.736 -121.93ZM232.892 -117.71L364.892 -140.239C365.463 -138.623 366.812 -137.375 368.489 -136.943L359.193 -23.382C358.004 -23.2766 356.93 -22.7684 356.107 -21.9966L232.318 -115.344C232.685 -116.053 232.891 -116.858 232.892 -117.71ZM360.953 -23.241L370.248 -136.8C371.366 -136.899 372.383 -137.352 373.184 -138.047L481.074 -49.7351C480.559 -48.9277 480.261 -47.9656 480.263 -46.9348C480.264 -46.8159 480.267 -46.6986 480.276 -46.5813L364.451 -20.2118C363.829 -21.6986 362.538 -22.8336 360.953 -23.241ZM482.265 -51.0431L374.304 -139.413C374.733 -140.171 374.977 -141.048 374.975 -141.981C374.974 -142.242 374.955 -142.498 374.917 -142.749L429.378 -160.894C430.147 -159.557 431.592 -158.658 433.245 -158.662C433.326 -158.662 433.407 -158.665 433.486 -158.669L442.592 -123.932C443.405 -123.179 444.211 -122.42 445.014 -121.655L436.729 -153.262L482.866 -51.4476C482.656 -51.3265 482.455 -51.1906 482.265 -51.0431ZM484.527 -52.0551L437.26 -156.369L523.037 -43.7175L465.729 -99.3575C468.428 -96.0705 471.046 -92.7074 473.584 -89.2707L528.506 -35.9474C528.373 -35.7687 528.253 -35.5784 528.148 -35.3799L490.619 -46.4683C490.635 -46.6302 490.641 -46.7954 490.641 -46.9606C490.633 -49.8266 488.305 -52.1442 485.439 -52.1371C485.129 -52.1363 484.823 -52.1082 484.527 -52.0551ZM490.16 -44.7624L527.646 -33.6871C527.635 -33.555 527.629 -33.4211 527.629 -33.2857C527.631 -32.3871 527.901 -31.5502 528.362 -30.8526L510.898 -15.5837C511.091 -14.9697 511.281 -14.354 511.468 -13.7367L529.609 -29.597C530.197 -29.2036 530.884 -28.9476 531.625 -28.8718L531.764 63.7047L488.523 -42.7662C489.224 -43.28 489.791 -43.9669 490.16 -44.7624ZM428.82 -162.569L374.359 -144.424C373.481 -146.055 371.755 -147.162 369.773 -147.157C368.339 -147.154 367.044 -146.57 366.106 -145.628L302.928 -189.937L315.617 -196.585L315.65 -196.575C316.166 -196.065 316.858 -195.732 317.628 -195.677L319.696 -186.273C320.327 -186.152 320.957 -186.028 321.585 -185.901L319.483 -195.454L323.072 -194.405L346.594 -179.513C348.882 -178.8 351.16 -178.055 353.425 -177.278L329.205 -192.612L428.803 -163.487C428.792 -163.359 428.787 -163.229 428.787 -163.099C428.788 -162.92 428.798 -162.743 428.82 -162.569ZM6.44121 42.8236C6.44878 42.9111 6.45275 43.0003 6.45298 43.0895C6.45543 44.0773 6.0013 44.9589 5.28949 45.5356L8.90615 54.2105L8.87127 41.876L6.44121 42.8236ZM5.159 40.5587C5.40043 40.7349 5.61588 40.9441 5.79844 41.1799L8.86591 39.9846L8.8384 30.26L5.159 40.5587ZM10.6151 -8.44C10.5751 -8.42998 10.5349 -8.42163 10.4945 -8.41327L10.5753 20.1494L16.3344 4.02747L10.6151 -8.44ZM14.0067 -13.3545C14.0313 -13.1679 14.0443 -12.9764 14.0448 -12.7814C14.0484 -11.3014 13.3289 -9.98961 12.2191 -9.17743L17.1847 1.64663L23.7414 -16.7073L14.0067 -13.3545ZM12.887 -15.7635C13.093 -15.5377 13.2759 -15.2904 13.4322 -15.0248L24.5019 -18.8368L33.4067 -43.7645L12.887 -15.7635ZM55.5299 -100.329C55.5161 -100.33 55.5024 -100.331 55.4885 -100.332L39.1459 -54.5829L59.8262 -82.8025L55.5299 -100.329ZM58.7937 -103.166C58.6969 -102.133 58.099 -101.245 57.2449 -100.749L61.1882 -84.6613L77.3642 -106.735L58.7937 -103.166ZM109.969 -147.513C109.829 -147.562 109.692 -147.617 109.558 -147.679L106.29 -143.219L109.747 -145.858L109.969 -147.513ZM115.824 -152.371C115.855 -152.161 115.871 -151.947 115.871 -151.728C115.872 -151.598 115.866 -151.47 115.856 -151.342L116.633 -151.115L120.488 -154.058L115.824 -152.371ZM173.657 -190.819C173.153 -190.899 172.69 -191.099 172.297 -191.389L130.69 -159.625L175.547 -175.849L173.657 -190.819ZM177.194 -193.136C176.954 -192.193 176.285 -191.421 175.407 -191.038L177.249 -176.465L228.078 -194.849L177.194 -193.136ZM270.004 -206.519C269.569 -206.853 269.195 -207.267 268.908 -207.738L239.187 -196.989L265.797 -197.885L270.004 -206.519ZM275.77 -206.827C274.974 -206.072 273.902 -205.607 272.717 -205.604C272.329 -205.603 271.953 -205.652 271.592 -205.745L267.794 -197.952L287.48 -198.614L275.77 -206.827ZM534.728 84.7655C534.708 84.5938 534.698 84.4187 534.697 84.242C534.694 82.6909 535.486 81.3211 536.689 80.5236L533.542 72.7757L533.562 85.1517L534.728 84.7655ZM536.763 87.9883C536.154 87.6016 535.644 87.0693 535.284 86.4408L533.565 87.0117L533.578 96.3052L536.763 87.9883ZM529.624 134.646C529.621 134.586 529.619 134.527 529.619 134.467C529.616 133.479 530.07 132.598 530.782 132.021L525.8 121.547L519.457 138.107L529.624 134.646ZM530.369 136.494C530.317 136.434 530.268 136.372 530.221 136.307L518.636 140.251L508.292 167.256L530.369 136.494ZM485.847 218.274C486.07 218.239 486.298 218.222 486.529 218.221C486.646 218.221 486.762 218.224 486.876 218.233L501.75 179.397L482.564 206.132L485.847 218.274ZM482.093 222.732C482.091 222.714 482.091 222.697 482.091 222.679C482.087 221.083 482.925 219.682 484.187 218.894L481.236 207.984L468.538 225.674L482.093 222.732ZM482.595 224.724C482.549 224.637 482.506 224.548 482.466 224.457L467.002 227.814L450.74 250.476L482.595 224.724ZM429.985 273.09C430.387 272.481 431.022 272.039 431.761 271.888L432.276 267.67L426.671 272.202L429.985 273.09ZM367.986 314.252C368.972 314.303 369.873 314.676 370.587 315.267L409.993 283.413L365.713 298.976L367.986 314.252ZM363.393 317.804C363.704 316.275 364.798 315.03 366.239 314.51L364.016 299.572L312.359 317.729L363.393 317.804ZM385.272 305.668L426.245 277.7L414.963 281.666L385.272 305.668ZM279.643 329.228L307.356 319.488L354.234 319.556L279.643 329.228ZM266.606 328.965L252.647 319.409L231.304 319.378L266.606 328.965ZM531.827 105.813L526.672 119.27L531.863 130.185L531.827 105.813ZM533.536 68.0679L533.433 -1.20883L537.967 78.9775L533.536 68.0679ZM533.614 120.702L533.585 101.221L537.343 91.4079L533.614 120.702ZM505.805 173.749L525.681 146.053L491.206 211.864L505.805 173.749ZM470.804 236.527L446.86 255.882L438.617 267.365L470.804 236.527ZM433.61 271.314L441.683 260.066L434.25 266.076L433.61 271.314ZM429.334 274.744L424.975 273.573L419.058 278.356L429.334 274.744ZM301.302 -191.077L313.175 -197.299L311.905 -197.67L292.818 -197.028L301.302 -191.077ZM290.415 -198.713L306.49 -199.254L277.595 -207.703L290.415 -198.713ZM78.8976 -108.827L97.6266 -134.384L59.1879 -105.04L78.8976 -108.827ZM9.10647 125.053L8.91919 58.8292L4.50868 48.2499L9.10647 125.053ZM8.82368 25.0532L5.04309 35.6364L8.76016 2.58769L8.82368 25.0532ZM50.1651 -90.6775L35.4883 -49.5909L15.299 -22.0417L50.1651 -90.6775ZM101.321 -139.426L77.9918 -121.616L106.093 -145.937L101.321 -139.426ZM150.183 -176.728L125.161 -157.626L117.863 -154.986L150.183 -176.728ZM233.464 -196.796L187.824 -195.26L263.45 -207.641L233.464 -196.796ZM17.9279 164.847L106.389 280.518L81.1022 225.884L17.9279 164.847Z" fill="url(#paint0_radial_36_667)"/>
<defs>
<radialGradient id="paint0_radial_36_667" cx="0" cy="0" r="1" gradientUnits="userSpaceOnUse" gradientTransform="translate(368.326 322.855) rotate(-108.646) scale(301.887 505.457)">
<stop stop-color="#03D19F"/>
<stop offset="0.520536" stop-color="#696969"/>
<stop offset="1" stop-color="#171717"/>
</radialGradient>
</defs>
</svg>
