<svg width="161" height="50" viewBox="0 0 161 50" fill="none" xmlns="http://www.w3.org/2000/svg">
<path d="M65.4687 23.8568H58.282L64.5054 20.3378L63.2719 18.243L57.0476 21.7619L60.6397 15.6676L58.5015 14.4593L54.9086 20.5519V13.5159H52.4381V20.5519L48.8461 14.4593L46.7071 15.6676L50.2991 21.7602L44.0766 18.243L42.8413 20.3378L49.0647 23.8559H41.8789V26.275H49.0647L42.8422 29.793L44.0757 31.8869L50.3 28.3689L46.7071 34.4633L48.8452 35.6715L52.439 29.578V36.6141H54.9095V29.427L58.5682 35.6333L60.573 34.4997L56.9134 28.2925L63.2701 31.8869L64.5054 29.7921L58.2829 26.2741H65.4678L65.4687 23.8568ZM53.6734 28.352C53.2326 28.352 52.7962 28.2676 52.3892 28.1033C51.983 27.9387 51.6129 27.6964 51.2997 27.3899C50.9886 27.086 50.7409 26.7233 50.571 26.3229C50.4025 25.9248 50.3156 25.4969 50.3156 25.0645C50.3156 24.6322 50.4025 24.2043 50.571 23.8061C50.7398 23.4063 50.9878 23.0448 51.2997 22.7401C51.6107 22.4336 51.9813 22.1919 52.3883 22.0267C52.7953 21.8614 53.2326 21.7761 53.6734 21.7761C54.5638 21.7761 55.4169 22.1226 56.047 22.7383C56.3578 23.041 56.6049 23.4028 56.7738 23.8023C56.9428 24.2019 57.0301 24.6312 57.0308 25.065C57.0308 25.9365 56.6771 26.7734 56.0479 27.3899C55.4129 28.0092 54.5605 28.3552 53.6734 28.3538V28.352ZM71.8351 33.5136V16.6164H75.0015V33.5136H71.8351ZM102.203 22.0311H105.226V23.4321C105.869 22.3118 107.37 21.7042 108.655 21.7042C110.251 21.7042 111.536 22.382 112.131 23.6178C113.059 22.2159 114.298 21.7042 115.845 21.7042C118.011 21.7042 120.082 22.9879 120.082 26.068V33.5127H117.012V26.6987C117.012 25.4612 116.392 24.5275 114.939 24.5275C113.582 24.5275 112.773 25.5554 112.773 26.7929V33.5145H109.631V26.6987C109.631 25.4612 108.989 24.5275 107.559 24.5275C106.178 24.5275 105.368 25.5323 105.368 26.7929V33.5145H102.203V22.0311ZM82.157 33.8467C78.5899 33.8467 76.0074 31.2535 76.0074 27.7719C76.0074 24.3454 78.5819 21.6926 82.157 21.6926C85.7491 21.6926 88.3067 24.3703 88.3067 27.7719C88.3067 31.2286 85.7224 33.8467 82.157 33.8467ZM82.157 24.5026C81.2719 24.5044 80.4241 24.8491 79.7985 25.4621C79.4901 25.7629 79.2447 26.1222 79.0769 26.519C78.909 26.9158 78.822 27.342 78.821 27.7728C78.821 28.6399 79.1729 29.4705 79.7985 30.0835C80.4291 30.6988 81.2754 31.0432 82.1566 31.0432C83.0378 31.0432 83.8841 30.6988 84.5147 30.0835C84.823 29.7828 85.0683 29.4236 85.2362 29.027C85.404 28.6304 85.4911 28.2043 85.4922 27.7737C85.4922 26.9066 85.1403 26.0751 84.5147 25.4621C83.8841 24.847 83.0381 24.5027 82.157 24.5026ZM95.0694 33.8458C91.5023 33.8458 88.9198 31.2535 88.9198 27.7719C88.9198 24.3454 91.4943 21.6926 95.0694 21.6926C98.6615 21.6926 101.22 24.3703 101.22 27.7719C101.22 31.2286 98.6339 33.8458 95.0694 33.8458ZM95.0694 24.4644C94.1782 24.4643 93.3222 24.8124 92.6843 25.4345C92.3723 25.7387 92.1241 26.102 91.9543 26.5032C91.7845 26.9044 91.6964 27.3354 91.6952 27.771C91.6963 28.2068 91.7844 28.638 91.9542 29.0393C92.124 29.4406 92.3722 29.8041 92.6843 30.1084C93.3222 30.7307 94.1781 31.079 95.0694 31.079C95.9607 31.079 96.8167 30.7307 97.4546 30.1084C97.7666 29.8042 98.0147 29.4409 98.1845 29.0397C98.3544 28.6385 98.4425 28.2075 98.4437 27.7719C98.4426 27.3361 98.3546 26.9049 98.1848 26.5036C98.0149 26.1023 97.7667 25.7388 97.4546 25.4345C96.8168 24.8121 95.9608 24.4645 95.0694 24.4644Z" fill="#EEEFFC"/>
</svg>
