<svg width="161" height="51" viewBox="0 0 161 51" fill="none" xmlns="http://www.w3.org/2000/svg">
<path d="M32.8514 33.5458C32.9553 32.9344 32.9009 32.3066 32.6933 31.7222C32.4858 31.1378 32.1321 30.6163 31.6659 30.2072C30.978 29.5768 30.0788 29.2269 29.1456 29.2264C28.5955 29.2264 28.0659 29.102 27.5789 28.8506C26.949 28.5149 26.4333 27.9994 26.0975 27.3697C26.2877 26.8899 26.373 26.3676 26.373 25.8043C26.373 27.3279 27.6002 28.5583 29.1252 28.5583H29.1883C29.9112 28.5467 30.6005 28.2514 31.1076 27.7362C31.6147 27.2209 31.8988 26.5271 31.8987 25.8043C31.8987 25.2624 32.0045 24.74 32.1742 24.2399C32.5064 23.3701 33.1049 22.6275 33.8843 22.1179C34.6638 21.6084 35.5843 21.3579 36.5145 21.4023C35.7889 20.1828 34.7698 19.164 33.5499 18.4387V18.6474C33.5466 19.6034 33.235 20.5327 32.6612 21.2975C32.4912 21.1534 32.3065 21.0274 32.1102 20.9217C32.6185 20.275 32.8727 19.4825 32.8727 18.6687C32.8727 18.189 32.7874 17.7093 32.5972 17.2491C32.321 16.5784 31.8558 16.0025 31.2581 15.5913C30.6605 15.1801 29.9562 14.9514 29.2309 14.9331H29.0194C28.0872 14.9331 27.1772 15.0583 26.2877 15.3088C24.4454 15.8023 22.7653 16.7715 21.4162 18.1193C20.0671 19.467 19.0964 21.1458 18.6015 22.9872C17.967 23.7601 17.5858 24.6983 17.5645 25.7004C17.6284 19.4194 22.7099 14.3289 29.0194 14.2659H29.3154C35.5823 14.3698 40.6433 19.4194 40.7063 25.6995V25.9509C40.6867 26.9483 40.3199 27.9077 39.6693 28.6641C39.0693 29.3833 38.2519 29.8883 37.3401 30.1032C37.0006 30.186 36.6524 30.228 36.303 30.2285C35.3496 30.2265 34.4219 29.9195 33.6556 29.3526C33.3801 29.7283 33.0424 30.0411 32.6816 30.3333C33.3012 31.1531 33.6089 32.1664 33.5499 33.1922C34.7698 32.4668 35.7889 31.448 36.5145 30.2285C36.79 30.2081 37.0655 30.1654 37.3401 30.1032C36.5566 31.5972 35.3787 32.8489 33.9342 33.7207C32.4897 34.5924 30.8338 35.0518 29.1465 35.0489C28.4889 35.0489 27.8757 34.7362 27.4945 34.2352C27.2207 33.8671 27.0724 33.4208 27.0715 32.9621C27.0715 32.3367 27.3674 31.7521 27.8126 31.3763C28.2356 31.4811 28.7013 31.5433 29.1669 31.5433C28.7858 31.5457 28.421 31.698 28.1515 31.9674C27.8821 32.2368 27.7296 32.6016 27.7273 32.9825C27.7273 33.7759 28.3627 34.4226 29.1669 34.4226H29.1883C29.5694 34.4203 29.9342 34.2679 30.2037 33.9985C30.4732 33.7291 30.6256 33.3644 30.6279 32.9834C30.6279 32.1901 29.9925 31.5433 29.1883 31.5433C28.1356 31.541 27.1034 31.2523 26.2023 30.7082C26.0122 30.5839 25.822 30.4586 25.6523 30.3333C25.285 30.0445 24.9511 29.7155 24.6569 29.3526C24.8267 29.2273 24.9964 29.0816 25.1653 28.9146C25.6378 29.5324 26.2467 30.0328 26.9446 30.3766C27.6424 30.7204 28.4103 30.8984 29.1883 30.8966C29.7422 30.8984 30.273 31.1186 30.6655 31.5093C31.0579 31.9 31.2804 32.4297 31.2847 32.9834C31.2847 33.4418 31.1362 33.8807 30.8608 34.2556C31.5601 34.1099 32.2373 33.9011 32.8727 33.5884L32.8514 33.5458ZM37.5729 24.1555C37.4434 23.4524 37.2154 22.7711 36.8957 22.1317C36.3959 22.0517 35.8851 22.0733 35.3939 22.1952C34.9027 22.3172 34.4411 22.537 34.0369 22.8415C33.5769 23.1915 33.2039 23.6428 32.9468 24.1604C32.6897 24.6779 32.5555 25.2478 32.5546 25.8256C32.5546 26.3889 32.4275 26.9095 32.1742 27.3901C31.8465 28.019 31.3375 28.5352 30.7132 28.8719C31.2847 29.0807 31.793 29.4139 32.2373 29.8314C32.7648 29.4311 33.2043 28.9267 33.5285 28.3496C33.9729 27.5775 34.2066 26.7229 34.2066 25.8256C34.2066 25.3033 34.3968 24.8449 34.7149 24.4691C35.0634 24.0652 35.552 23.8084 36.0823 23.7504C36.6127 23.6923 37.1453 23.8365 37.5729 24.1555ZM37.7213 25.7634C37.7 25.0119 37.0646 24.4069 36.2817 24.3856C35.9026 24.3832 35.5382 24.5313 35.2683 24.7972C34.9984 25.0632 34.8451 25.4254 34.842 25.8043V25.8461C34.8624 26.619 35.4978 27.2231 36.2817 27.2231C36.6607 27.2254 37.0251 27.0774 37.295 26.8114C37.5649 26.5454 37.7182 26.1832 37.7213 25.8043V25.7634ZM34.7149 27.1813C34.5665 27.7446 34.355 28.3087 34.0369 28.8089C34.4387 29.1179 34.9001 29.3404 35.3921 29.4626C35.884 29.5848 36.396 29.6039 36.8957 29.5187C37.1712 29.4769 37.4458 29.3934 37.7213 29.2886C38.3931 29.0145 38.9708 28.5512 39.3841 27.9551C39.7975 27.3589 40.0287 26.6555 40.0496 25.9305V25.7421C40.0496 24.8235 39.9234 23.9058 39.6693 23.0085C38.674 19.2951 35.7307 16.3527 32.0045 15.3302C32.7138 15.9335 33.2171 16.7432 33.4441 17.6462V17.6666C35.3823 18.6841 36.8975 20.3546 37.7213 22.3822C38.1656 23.4465 38.3985 24.6148 38.3985 25.847C38.3985 26.5133 38.0812 27.1191 37.5729 27.4949C37.2079 27.7746 36.7619 27.9283 36.3021 27.9329C36.0002 27.9229 35.7035 27.8511 35.4305 27.7218C35.1575 27.5925 34.9139 27.4085 34.7149 27.1813ZM28.9768 37.3641C22.7099 37.2593 17.6489 32.1892 17.5858 25.9305V25.6791C17.6057 24.682 17.9724 23.7229 18.6229 22.9668C19.2288 22.2544 20.0437 21.7508 20.9521 21.5276C21.2907 21.4432 21.6506 21.4014 21.99 21.4014C22.9427 21.4014 23.874 21.715 24.6365 22.2783C24.912 21.9025 25.2497 21.5898 25.6105 21.2975C24.9939 20.4752 24.6797 19.4655 24.7209 18.4387C23.5011 19.1638 22.4821 20.1823 21.7563 21.4014C21.4808 21.4228 21.2062 21.4636 20.9307 21.5267C21.7142 20.0327 22.8921 18.7819 24.3366 17.9102C25.7811 17.0384 27.437 16.579 29.1243 16.5819C29.7819 16.5819 30.3951 16.8946 30.7763 17.3957C31.0518 17.751 31.2002 18.1881 31.2002 18.6687C31.2001 18.9711 31.1336 19.2698 31.0056 19.5438C30.8775 19.8178 30.691 20.0604 30.4591 20.2545C30.0147 20.1497 29.5695 20.0875 29.1039 20.0875C29.485 20.0852 29.8498 19.9328 30.1193 19.6634C30.3887 19.394 30.5412 19.0293 30.5435 18.6483C30.5435 17.855 29.9081 17.2073 29.1039 17.2073H29.0825C28.7013 17.2097 28.3363 17.3622 28.0668 17.6318C27.7973 17.9013 27.645 18.2663 27.6429 18.6474C27.6429 19.4408 28.2783 20.0866 29.0825 20.0866C30.1409 20.0866 31.1576 20.3798 32.0685 20.9217C32.2586 21.047 32.4488 21.1722 32.6185 21.2975C32.9785 21.5898 33.317 21.9238 33.6139 22.2783C33.4441 22.4027 33.2744 22.5492 33.1055 22.7163C32.633 22.0984 32.0241 21.598 31.3262 21.2542C30.6284 20.9104 29.8605 20.7325 29.0825 20.7343C28.5868 20.727 28.1085 20.5502 27.7273 20.2332C27.4968 20.0379 27.3112 19.795 27.1833 19.5213C27.0554 19.2476 26.9881 18.9495 26.9861 18.6474C26.9861 18.1677 27.155 17.7297 27.41 17.3744C26.7115 17.5209 26.0122 17.7501 25.3777 18.0424C25.2738 18.6538 25.3282 19.2816 25.5357 19.866C25.7432 20.4504 26.0969 20.9719 26.5631 21.381C27.2508 22.0112 28.1496 22.3611 29.0825 22.3618C29.6335 22.3618 30.1623 22.4862 30.6493 22.7376C31.2795 23.0731 31.7955 23.5887 32.1316 24.2185C31.9344 24.7162 31.8406 25.2488 31.8561 25.7839C31.8561 24.2603 30.6279 23.0299 29.1039 23.0299H29.0825C28.3596 23.0415 27.6703 23.3368 27.1632 23.852C26.6561 24.3673 26.372 25.0611 26.3721 25.7839C26.3721 26.3258 26.2663 26.8482 26.0966 27.3483C25.7643 28.218 25.1657 28.9606 24.3863 29.4701C23.6069 29.9796 22.6865 30.2301 21.7563 30.1859C22.4821 31.405 23.5011 32.4235 24.7209 33.1487C24.6723 32.1308 24.9792 31.1276 25.5892 30.3111C25.758 30.4577 25.9491 30.583 26.1401 30.6869C25.6398 31.3312 25.3712 32.1252 25.3777 32.9408C25.3777 33.4205 25.4621 33.9002 25.6531 34.3595C25.9294 35.0302 26.3946 35.6061 26.9922 36.0173C27.5899 36.4285 28.2942 36.6572 29.0194 36.6756H29.2096C30.1409 36.6756 31.0518 36.5503 31.9405 36.2998C33.783 35.8066 35.4633 34.8374 36.8125 33.4897C38.1618 32.1419 39.1326 30.4629 39.6275 28.6214C40.262 27.8485 40.6433 26.9104 40.6637 25.9091C40.6006 32.1901 35.5183 37.2806 29.2096 37.3428H28.9554C29.0194 37.3641 28.9768 37.3641 28.9768 37.3641ZM26.2877 36.3202C25.5783 35.7168 25.0751 34.9072 24.848 34.0042V33.9837C22.9098 32.9663 21.3946 31.2958 20.5708 29.2682C20.1252 28.1676 19.8953 26.9916 19.8937 25.8043C19.8937 25.1371 20.2109 24.5312 20.7192 24.1563C21.0824 23.8731 21.5295 23.7187 21.99 23.7175C22.6245 23.7175 23.1969 24.0107 23.5772 24.4486C23.7256 23.8641 23.9371 23.3213 24.2553 22.8211C23.8535 22.512 23.3921 22.2893 22.9002 22.167C22.4082 22.0447 21.8962 22.0254 21.3964 22.1104C20.5346 22.2475 19.7478 22.6811 19.1718 23.3364C18.5958 23.9917 18.2668 24.8275 18.2416 25.6995V25.9091C18.2416 26.8269 18.3687 27.7446 18.6237 28.6418C19.6395 32.3766 22.5606 35.319 26.2877 36.3202ZM21.3964 29.5187C21.8962 29.5988 22.407 29.5772 22.8982 29.4552C23.3895 29.3333 23.851 29.1134 24.2553 28.8089C24.7151 28.459 25.088 28.0078 25.3451 27.4904C25.6022 26.973 25.7365 26.4033 25.7376 25.8256C25.7376 25.2624 25.8646 24.74 26.1179 24.2603C26.4457 23.6314 26.9546 23.1152 27.5789 22.7785H27.5585C26.9903 22.5654 26.4714 22.2389 26.0335 21.819C25.5061 22.2193 25.0666 22.7237 24.7423 23.3008C24.2971 24.0678 24.0632 24.9389 24.0642 25.8256C24.0642 26.3471 23.874 26.8064 23.5568 27.1813C23.3597 27.4095 23.1159 27.5927 22.842 27.7187C22.568 27.8447 22.2702 27.9104 21.9687 27.9116C21.5082 27.9105 21.0612 27.7565 20.6979 27.4736C20.8668 28.1834 21.1005 28.8719 21.3964 29.5187ZM20.5708 25.8878C20.6135 26.6394 21.2276 27.2648 22.0105 27.2648C22.3895 27.2672 22.7539 27.1191 23.0239 26.8531C23.2938 26.5871 23.4471 26.225 23.4501 25.8461V25.8043C23.4381 25.4321 23.2806 25.0795 23.0114 24.8221C22.7423 24.5647 22.3829 24.4229 22.0105 24.4273C21.2062 24.4273 20.5708 25.0741 20.5708 25.8665V25.8878ZM50.001 19.7739H53.1771L56.1417 27.7446H56.1843L59.1054 19.7739H62.2815V30.9996H60.2704V21.986H60.2491L56.7975 30.9996H55.3792L51.9703 21.986H51.9489V30.9996H50.0223L50.001 19.7739ZM67.8286 19.7739H75.3663V21.5267H69.8628V24.3856H75.0926V26.0548H69.8405V29.2264H75.6427V30.9996H67.8091L67.8286 19.7739ZM84.3437 24.6156C84.6405 24.6156 84.916 24.5943 85.2119 24.5526C85.4874 24.5108 85.7415 24.4273 85.9957 24.3234C86.2285 24.1981 86.4187 24.0302 86.5671 23.8223C86.7155 23.6135 86.8 23.3213 86.8 22.9872C86.8 22.6745 86.7369 22.424 86.5885 22.2365C86.44 22.0482 86.2703 21.8812 86.0588 21.7772C85.8313 21.6481 85.5784 21.5699 85.3176 21.548C85.0517 21.5058 84.7827 21.485 84.5134 21.4858H82.6712V24.6361C82.6925 24.6148 84.3437 24.6156 84.3437 24.6156ZM80.6601 19.7739H84.6192C85.1488 19.7739 85.6776 19.8361 86.1859 19.9409C86.6591 20.0432 87.1108 20.2272 87.5207 20.4846C87.9019 20.7351 88.2405 21.0896 88.452 21.4858C88.6857 21.9034 88.8119 22.4044 88.8119 22.9881C88.8119 23.8019 88.5791 24.4699 88.1134 24.971C87.6478 25.4925 87.0123 25.8265 86.2081 26.014L89.2358 30.9801H86.8008L84.1757 26.2227H82.6934V30.9801H80.6601V19.7739ZM102.023 22.4035C101.729 22.0035 101.324 21.6986 100.859 21.5267C100.409 21.3428 99.9265 21.2506 99.4404 21.2557C98.8895 21.2557 98.3394 21.3597 97.831 21.5685C97.3618 21.7772 96.9374 22.075 96.5816 22.4453C96.2246 22.8144 95.9504 23.2554 95.7773 23.7388C95.5871 24.2603 95.4805 24.8031 95.5018 25.345C95.5018 25.95 95.5871 26.5141 95.7773 27.0152C95.9675 27.5154 96.2216 27.9533 96.5611 28.33C96.8997 28.6836 97.3014 28.9759 97.7679 29.1846C98.2336 29.3934 98.7624 29.4769 99.3551 29.4769C99.9692 29.4769 100.499 29.3517 100.986 29.1216C101.43 28.8924 101.833 28.5797 102.13 28.1834L103.759 29.3099C103.269 29.9298 102.637 30.4234 101.917 30.7491C101.197 31.0831 100.329 31.2715 99.3551 31.2715C98.4664 31.2715 97.6409 31.1249 96.8997 30.8326C96.1835 30.5612 95.5285 30.1499 94.9731 29.6226C94.4273 29.0929 94.0013 28.4525 93.7236 27.7446C93.4268 27.0143 93.2793 26.2219 93.2793 25.3459C93.2793 24.4486 93.4268 23.634 93.7449 22.9046C94.0384 22.2069 94.4788 21.5805 95.0362 21.0683C95.5992 20.5502 96.262 20.1524 96.9841 19.8992C98.1292 19.4843 99.3631 19.3765 100.563 19.5865C100.964 19.6486 101.346 19.7535 101.706 19.8992C102.066 20.0458 102.404 20.2128 102.744 20.4207C103.061 20.6294 103.336 20.88 103.569 21.1722C103.569 21.214 102.023 22.4035 102.023 22.4035ZM117.098 26.8686C117.104 27.4987 116.981 28.1234 116.738 28.7049C116.523 29.2323 116.19 29.7034 115.764 30.0819C115.341 30.4577 114.854 30.7704 114.325 30.9579C113.74 31.1666 113.124 31.2727 112.504 31.2715C111.884 31.2708 111.268 31.1648 110.683 30.9579C110.145 30.7609 109.649 30.4636 109.222 30.0819C108.808 29.6933 108.476 29.2249 108.248 28.7049C108.015 28.163 107.909 27.5571 107.909 26.8686V19.7739H109.942V26.7851C109.942 27.1191 109.985 27.4319 110.069 27.7659C110.154 28.0757 110.298 28.3663 110.493 28.6214C110.683 28.8719 110.958 29.0807 111.276 29.2468C111.594 29.4139 112.017 29.4769 112.483 29.4769C112.97 29.4769 113.372 29.3934 113.689 29.2468C114.008 29.1011 114.262 28.8924 114.473 28.6214C114.663 28.3709 114.812 28.0795 114.896 27.7659C114.981 27.4532 115.023 27.1191 115.023 26.7851V19.7739H117.057C117.098 19.7739 117.098 26.8686 117.098 26.8686ZM126.224 24.6148C126.52 24.6148 126.796 24.5943 127.092 24.5526C127.388 24.5108 127.642 24.4273 127.875 24.3234C128.108 24.1981 128.299 24.0302 128.448 23.8223C128.595 23.6135 128.68 23.3213 128.68 22.9872C128.68 22.6745 128.616 22.424 128.468 22.2365C128.333 22.0412 128.152 21.8832 127.939 21.7772C127.712 21.6481 127.459 21.5699 127.198 21.548C126.932 21.5058 126.663 21.485 126.394 21.4858H124.552V24.6361C124.573 24.6148 126.224 24.6148 126.224 24.6148ZM122.54 19.7739H126.5C127.028 19.7739 127.558 19.8361 128.066 19.9409C128.539 20.043 128.99 20.2267 129.4 20.4837C129.781 20.7343 130.099 21.0683 130.332 21.4849C130.564 21.9025 130.691 22.4035 130.691 22.9872C130.691 23.801 130.459 24.4691 129.993 24.9701C129.527 25.4916 128.892 25.8256 128.088 26.0131L131.115 30.9792H128.68L126.054 26.2219H124.573V30.9792H122.54V19.7739ZM138.335 26.1384L134.058 19.7952H136.535L139.393 24.5108L142.294 19.7952H144.644L140.367 26.1384V30.9996H138.335V26.1384Z" fill="#EEEFFC"/>
</svg>
