<svg width="428" height="215" viewBox="0 0 428 215" fill="none" xmlns="http://www.w3.org/2000/svg">
<g opacity="0.5">
<mask id="mask0_1_3230" style="mask-type:luminance" maskUnits="userSpaceOnUse" x="271" y="0" width="180" height="215">
<path d="M271.065 0.207275H450.33V214.24H271.065V0.207275Z" fill="white"/>
</mask>
<g mask="url(#mask0_1_3230)">
<path opacity="0.5" fill-rule="evenodd" clip-rule="evenodd" d="M450.332 11.8309C450.406 11.9717 450.406 11.972 450.406 11.972V11.973L450.396 11.9766L450.371 11.9907C450.348 12.0032 450.31 12.0217 450.265 12.0461C450.17 12.0947 450.026 12.1667 449.835 12.2606C449.455 12.4482 448.884 12.7231 448.112 13.0727C446.572 13.7718 444.24 14.7699 441.079 15.9673C434.754 18.362 425.098 21.5538 411.771 24.7451C385.124 31.1277 343.804 37.5084 285.102 37.5084V37.1894C343.781 37.1894 385.076 30.8113 411.698 24.4349C425.009 21.2467 434.651 18.0589 440.964 15.669C444.122 14.474 446.447 13.4785 447.981 12.7822C448.747 12.434 449.318 12.1606 449.694 11.9745C449.883 11.8814 450.026 11.8101 450.119 11.7622C450.163 11.7383 450.198 11.7202 450.224 11.7081L450.249 11.6946L450.256 11.6912V11.6904C450.256 11.6904 450.256 11.6902 450.332 11.8309ZM450.332 24.5899C450.399 24.7337 450.399 24.734 450.399 24.734V24.7349L450.393 24.7381L450.364 24.7509C450.342 24.7621 450.304 24.7787 450.259 24.8006C450.163 24.8444 450.02 24.9092 449.832 24.9936C449.449 25.1625 448.878 25.4098 448.106 25.7244C446.565 26.3536 444.237 27.2518 441.072 28.3294C434.747 30.4845 425.092 33.3569 411.768 36.229C385.124 41.9731 343.804 46.1207 285.102 46.1207V45.8018C343.785 45.8018 385.079 41.656 411.701 35.917C425.012 33.0475 434.658 30.1785 440.97 28.0274C444.128 26.9519 446.45 26.0559 447.985 25.4291C448.753 25.1157 449.324 24.8696 449.701 24.7021C449.889 24.6183 450.029 24.5541 450.125 24.511C450.17 24.4894 450.205 24.4731 450.227 24.4622L450.256 24.4501L450.262 24.447V24.4463C450.262 24.4463 450.262 24.4461 450.332 24.5899ZM450.332 108.48C450.336 108.48 450.336 108.48 450.336 108.321C450.336 108.161 450.336 108.161 450.332 108.161H285.104V108.48H450.332ZM450.336 119.485C450.336 119.645 450.336 119.645 450.332 119.645H285.104V119.326H450.332C450.336 119.326 450.336 119.326 450.336 119.485ZM450.336 130.011C450.336 130.171 450.336 130.171 450.332 130.171H285.104V129.852H450.332C450.336 129.852 450.336 129.852 450.336 130.011ZM450.38 38.777C450.38 38.777 450.38 38.777 450.332 38.6251C450.284 38.473 450.284 38.4733 450.284 38.4733L450.281 38.4736L450.275 38.4758L450.249 38.4838C450.227 38.4912 450.192 38.502 450.144 38.5163C450.052 38.5454 449.911 38.5881 449.72 38.6439C449.343 38.7559 448.773 38.9199 448.004 39.1291C446.47 39.547 444.144 40.1447 440.986 40.8618C434.671 42.2962 425.028 44.2094 411.714 46.1227C385.086 49.9491 343.788 53.7765 285.102 53.7765V54.0955C343.801 54.0955 385.114 50.2671 411.758 46.4385C425.079 44.524 434.734 42.6091 441.057 41.1728C444.221 40.4548 446.549 39.8561 448.09 39.4369C448.859 39.227 449.43 39.0624 449.812 38.9498C450.001 38.8937 450.144 38.8506 450.237 38.8213C450.284 38.8066 450.32 38.7958 450.345 38.7881L450.371 38.7798L450.377 38.7776L450.38 38.777ZM450.332 51.3839C450.364 51.5398 450.364 51.5398 450.364 51.5398L450.358 51.5418L450.329 51.5472C450.307 51.5523 450.272 51.5596 450.224 51.5692C450.128 51.5886 449.988 51.6173 449.796 51.655C449.417 51.7299 448.846 51.8397 448.077 51.9794C446.536 52.2588 444.208 52.6575 441.047 53.1363C434.725 54.0939 425.073 55.3701 411.752 56.6463C385.111 59.1985 343.797 61.7506 285.103 61.7506V61.4316C343.791 61.4316 385.092 58.8798 411.72 56.3286C425.034 55.053 434.68 53.7775 440.999 52.8209C444.157 52.3427 446.482 51.9443 448.02 51.6655C448.785 51.5261 449.356 51.4167 449.736 51.3421C449.924 51.3048 450.064 51.276 450.16 51.2569C450.205 51.2473 450.24 51.24 450.265 51.2352L450.291 51.2295L450.297 51.2279C450.3 51.2279 450.3 51.2279 450.332 51.3839ZM450.351 63.3442C450.351 63.3442 450.351 63.3442 450.332 63.186C450.313 63.0275 450.313 63.0275 450.313 63.0275L450.278 63.0316C450.256 63.0345 450.221 63.0386 450.173 63.044C450.08 63.0546 449.94 63.0708 449.749 63.0919C449.372 63.1337 448.801 63.1956 448.033 63.274C446.495 63.431 444.17 63.6549 441.009 63.9241C434.69 64.4622 425.044 65.1799 411.727 65.8973C385.095 67.3327 343.791 68.7681 285.103 68.7681V69.0871C343.797 69.0871 385.108 67.6513 411.746 66.2159C425.063 65.4982 434.715 64.7802 441.037 64.2418C444.198 63.9726 446.527 63.7483 448.064 63.5911C448.833 63.5126 449.404 63.4511 449.784 63.409C449.975 63.3879 450.115 63.3716 450.211 63.3608C450.259 63.3554 450.294 63.3512 450.316 63.3484L450.351 63.3442ZM450.332 74.6688C450.348 74.828 450.345 74.828 450.345 74.828L450.31 74.8309C450.288 74.8328 450.253 74.836 450.205 74.8398C450.112 74.8478 449.969 74.8593 449.781 74.8746C449.401 74.9049 448.83 74.9495 448.061 75.0063C446.521 75.1195 444.192 75.2816 441.034 75.4762C434.712 75.865 425.063 76.3833 411.743 76.9017C385.105 77.9383 343.797 78.975 285.103 78.975V78.656C343.794 78.656 385.098 77.6194 411.73 76.583C425.047 76.0647 434.696 75.5463 441.012 75.1578C444.173 74.9632 446.498 74.8015 448.036 74.688C448.804 74.6315 449.375 74.5868 449.755 74.5565C449.943 74.5412 450.084 74.5297 450.179 74.5218L450.284 74.5132L450.32 74.51C450.32 74.51 450.32 74.51 450.332 74.6688ZM450.336 86.6311C450.336 86.6311 450.336 86.6311 450.332 86.4716C450.329 86.3121 450.329 86.3121 450.329 86.3121L450.189 86.3159C450.093 86.3182 449.953 86.322 449.761 86.3265C449.385 86.336 448.814 86.3494 448.045 86.367C446.508 86.4021 444.179 86.4518 441.018 86.5115C434.699 86.6311 425.05 86.7906 411.733 86.9501C385.102 87.269 343.794 87.588 285.103 87.588V87.907C343.794 87.907 385.102 87.588 411.739 87.269C425.057 87.1095 434.706 86.9501 441.025 86.8304C444.186 86.7708 446.514 86.7207 448.052 86.6859C448.82 86.6684 449.391 86.6547 449.771 86.6454C449.959 86.6406 450.103 86.6371 450.195 86.6346L450.336 86.6311ZM450.332 97.9547C450.332 97.9547 450.332 97.9547 450.332 97.7953C450.332 97.6358 450.332 97.6358 450.332 97.6358H285.102V97.9547H450.332ZM450.402 203.71C450.402 203.71 450.403 203.71 450.336 203.854C450.265 203.998 450.265 203.998 450.265 203.998L450.262 203.997L450.256 203.994L450.23 203.982C450.208 203.971 450.173 203.954 450.125 203.933C450.032 203.89 449.892 203.826 449.704 203.742C449.324 203.574 448.757 203.328 447.988 203.015C446.454 202.388 444.128 201.492 440.974 200.417C434.658 198.265 425.015 195.396 411.704 192.527C385.083 186.788 343.785 181.047 285.104 181.047V180.728C343.807 180.728 385.124 186.471 411.771 192.215C425.095 195.087 434.75 197.96 441.076 200.115C444.24 201.192 446.568 202.09 448.109 202.72C448.881 203.034 449.452 203.281 449.832 203.45C450.023 203.535 450.166 203.6 450.259 203.643C450.307 203.665 450.342 203.682 450.367 203.693L450.393 203.706L450.399 203.709L450.402 203.71ZM450.336 189.819C450.383 189.667 450.383 189.667 450.383 189.667L450.38 189.666L450.374 189.664L450.348 189.656C450.323 189.648 450.288 189.637 450.24 189.623C450.147 189.593 450.004 189.55 449.812 189.494C449.433 189.382 448.862 189.217 448.09 189.007C446.552 188.588 444.221 187.989 441.06 187.271C434.734 185.835 425.082 183.92 411.762 182.006C385.118 178.177 343.804 174.349 285.105 174.349V174.668C343.791 174.668 385.089 178.495 411.717 182.321C425.028 184.235 434.674 186.148 440.989 187.582C444.147 188.299 446.473 188.897 448.007 189.315C448.776 189.524 449.347 189.688 449.723 189.8C449.911 189.856 450.055 189.899 450.147 189.927C450.195 189.942 450.227 189.953 450.253 189.96L450.278 189.968L450.284 189.97V189.971C450.284 189.971 450.288 189.971 450.336 189.819ZM450.367 176.904C450.367 176.904 450.367 176.904 450.336 177.06C450.3 177.216 450.3 177.216 450.3 177.216L450.294 177.214L450.269 177.209C450.243 177.204 450.208 177.197 450.163 177.187C450.068 177.168 449.927 177.139 449.739 177.102C449.359 177.027 448.788 176.918 448.023 176.779C446.485 176.5 444.16 176.101 441.002 175.623C434.683 174.667 425.037 173.391 411.723 172.115C385.095 169.564 343.791 167.013 285.105 167.013V166.694C343.801 166.694 385.114 169.245 411.755 171.798C425.073 173.074 434.725 174.35 441.05 175.307C444.211 175.786 446.54 176.185 448.077 176.465C448.849 176.604 449.42 176.714 449.8 176.789C449.991 176.826 450.131 176.855 450.227 176.875C450.275 176.885 450.31 176.892 450.332 176.897L450.358 176.902L450.367 176.904ZM450.336 165.258C450.355 165.1 450.355 165.1 450.351 165.1L450.316 165.096C450.294 165.093 450.259 165.089 450.211 165.083C450.119 165.072 449.975 165.056 449.787 165.035C449.407 164.993 448.833 164.932 448.064 164.853C446.527 164.696 444.198 164.471 441.037 164.202C434.715 163.664 425.066 162.946 411.746 162.228C385.108 160.792 343.797 159.357 285.104 159.357V159.676C343.794 159.676 385.098 161.111 411.73 162.547C425.044 163.264 434.693 163.982 441.012 164.52C444.17 164.789 446.495 165.013 448.033 165.17C448.801 165.249 449.372 165.31 449.752 165.352C449.94 165.373 450.08 165.389 450.176 165.4C450.221 165.405 450.256 165.41 450.281 165.413L450.316 165.416C450.316 165.416 450.316 165.417 450.336 165.258ZM450.348 153.616C450.348 153.616 450.348 153.616 450.336 153.775C450.32 153.934 450.32 153.934 450.32 153.934L450.284 153.931C450.262 153.929 450.227 153.926 450.179 153.922C450.087 153.914 449.946 153.903 449.755 153.888C449.379 153.857 448.808 153.813 448.039 153.756C446.501 153.643 444.173 153.481 441.015 153.286C434.696 152.898 425.047 152.379 411.733 151.861C385.098 150.824 343.794 149.788 285.105 149.788V149.469C343.797 149.469 385.108 150.505 411.746 151.542C425.063 152.061 434.712 152.579 441.034 152.968C444.195 153.163 446.524 153.325 448.061 153.438C448.83 153.495 449.401 153.539 449.781 153.57C449.972 153.585 450.112 153.596 450.208 153.604C450.253 153.608 450.291 153.611 450.313 153.613L450.348 153.616ZM450.336 141.973C450.339 141.814 450.339 141.814 450.339 141.814L450.198 141.81C450.106 141.808 449.962 141.804 449.774 141.799C449.395 141.79 448.824 141.776 448.055 141.759C446.517 141.724 444.189 141.674 441.028 141.614C434.709 141.495 425.06 141.335 411.743 141.176C385.105 140.857 343.797 140.538 285.105 140.538V140.857C343.797 140.857 385.105 141.176 411.736 141.495C425.053 141.654 434.702 141.813 441.021 141.933C444.182 141.993 446.508 142.043 448.045 142.078C448.814 142.095 449.385 142.109 449.765 142.118C449.956 142.123 450.096 142.126 450.189 142.129L450.329 142.132C450.332 142.132 450.332 142.132 450.336 141.973Z" fill="url(#paint0_linear_1_3230)"/>
</g>
<path opacity="0.5" fill-rule="evenodd" clip-rule="evenodd" d="M-8.92173 11.5118C-8.99678 11.6526 -8.99609 11.6529 -8.99609 11.6529L-8.99431 11.6539L-8.98745 11.6575L-8.96053 11.6717C-8.93671 11.6841 -8.90113 11.7026 -8.85369 11.727C-8.75882 11.7756 -8.61657 11.8476 -8.42626 11.9415C-8.04563 12.1291 -7.4728 12.404 -6.70247 12.7536C-5.1618 13.4527 -2.8311 14.4508 0.331931 15.6482C6.65803 18.043 16.3135 21.2347 29.6372 24.426C56.2848 30.8086 97.6047 37.1893 156.308 37.1893V36.8703C97.6279 36.8703 56.3333 30.4922 29.7115 24.1158C16.4008 20.9276 6.75819 17.7398 0.444849 15.3499C-2.71181 14.1549 -5.03619 13.1595 -6.57065 12.4631C-7.33788 12.1149 -7.90764 11.8415 -8.28521 11.6554C-8.47399 11.5623 -8.61473 11.4911 -8.70809 11.4431C-8.75477 11.4192 -8.7896 11.4011 -8.81267 11.389L-8.83846 11.3755L-8.84476 11.3721L-8.84627 11.3713C-8.84627 11.3713 -8.84667 11.3711 -8.92173 11.5118ZM-8.92159 24.2708C-8.99061 24.4146 -8.98993 24.4149 -8.98993 24.4149L-8.98815 24.4158L-8.9813 24.419L-8.9544 24.4318C-8.9306 24.443 -8.89503 24.4596 -8.84761 24.4815C-8.75278 24.5253 -8.61056 24.5901 -8.42028 24.6745C-8.03973 24.8434 -7.46698 25.0907 -6.69673 25.4053C-5.15622 26.0345 -2.82574 26.9327 0.337099 28.0103C6.66279 30.1654 16.3178 33.0378 29.641 35.9099C56.2873 41.654 97.6062 45.8017 156.308 45.8017V45.4827C97.627 45.4827 56.3307 41.3369 29.7083 35.5979C16.3968 32.7284 6.75373 29.8594 0.439969 27.7083C-2.71691 26.6328 -5.04148 25.7368 -6.57612 25.11C-7.34344 24.7966 -7.91327 24.5505 -8.29091 24.383C-8.47973 24.2992 -8.62051 24.235 -8.7139 24.1919C-8.76059 24.1703 -8.79544 24.154 -8.81853 24.1432L-8.84434 24.131L-8.85065 24.1279L-8.85216 24.1272C-8.85216 24.1272 -8.85258 24.127 -8.92159 24.2708ZM-8.92292 108.161C-8.92292 108.161 -8.92346 108.161 -8.92346 108.002C-8.92346 107.842 -8.92292 107.842 -8.92292 107.842H156.306V108.161H-8.92292ZM-8.92346 119.166C-8.92346 119.325 -8.92292 119.325 -8.92292 119.325H156.306V119.006H-8.92292C-8.92292 119.006 -8.92346 119.006 -8.92346 119.166ZM-8.92346 129.692C-8.92346 129.852 -8.92292 129.852 -8.92292 129.852H156.306V129.533H-8.92292C-8.92292 129.533 -8.92346 129.533 -8.92346 129.692ZM-8.96992 38.4579C-8.96992 38.4579 -8.97057 38.4579 -8.92196 38.306C-8.87335 38.1539 -8.87291 38.1542 -8.87291 38.1542L-8.87137 38.1545L-8.86501 38.1567L-8.83907 38.1647C-8.81591 38.1721 -8.78098 38.1829 -8.7342 38.1973C-8.64065 38.2263 -8.49972 38.269 -8.31073 38.3248C-7.93275 38.4368 -7.36257 38.6008 -6.59489 38.81C-5.05954 39.2279 -2.7342 39.8256 0.423478 40.5427C6.73886 41.9771 16.3837 43.8903 29.6968 45.8036C56.3234 49.63 97.6232 53.4574 156.308 53.4574V53.7764C97.6091 53.7764 56.2943 49.948 29.6515 46.1194C16.3302 44.2049 6.67688 42.29 0.352824 40.8537C-2.80919 40.1357 -5.13893 39.537 -6.6787 39.1178C-7.44859 38.9079 -8.02099 38.7433 -8.40121 38.6307C-8.59131 38.5746 -8.73337 38.5315 -8.82805 38.5022C-8.87538 38.4875 -8.91087 38.4767 -8.9346 38.469L-8.96138 38.4607L-8.96817 38.4585L-8.96992 38.4579ZM-8.9223 51.0648C-8.95558 51.2207 -8.95496 51.2207 -8.95496 51.2207L-8.9465 51.2227L-8.91984 51.2281C-8.8962 51.2332 -8.86079 51.2405 -8.81353 51.2501C-8.71901 51.2696 -8.57711 51.2983 -8.38717 51.3359C-8.00727 51.4109 -7.43519 51.5206 -6.66562 51.6603C-5.12649 51.9397 -2.79742 52.3384 0.363957 52.8172C6.68668 53.7748 16.3386 55.051 29.6585 56.3272C56.2988 58.8794 97.6113 61.4315 156.307 61.4315V61.1125C97.6203 61.1125 56.3179 58.5607 29.6892 56.0095C16.3746 54.734 6.7284 53.4584 0.411708 52.5018C-2.74667 52.0236 -5.07265 51.6252 -6.60865 51.3464C-7.37665 51.207 -7.94715 51.0976 -8.32545 51.023C-8.5146 50.9857 -8.6557 50.957 -8.74941 50.9378C-8.79626 50.9282 -8.83127 50.9209 -8.85451 50.9161L-8.88056 50.9104L-8.88856 50.9088C-8.88856 50.9088 -8.88903 50.9088 -8.9223 51.0648ZM-8.94123 63.0251C-8.94123 63.0251 -8.94182 63.0251 -8.92282 62.8669C-8.90382 62.7084 -8.90332 62.7084 -8.90332 62.7084L-8.86905 62.7125C-8.84573 62.7154 -8.81063 62.7195 -8.7637 62.725C-8.66982 62.7355 -8.52856 62.7517 -8.33924 62.7728C-7.96061 62.8146 -7.38978 62.8765 -6.62146 62.9549C-5.0848 63.1119 -2.75815 63.3358 0.40083 63.605C6.71883 64.1431 16.3662 64.8608 29.6818 65.5782C56.3132 67.0136 97.6181 68.449 156.307 68.449V68.768C97.6126 68.768 56.3023 67.3322 29.6646 65.8969C16.3459 65.1792 6.69522 64.4611 0.373781 63.9227C-2.78696 63.6535 -5.11539 63.4293 -6.65386 63.272C-7.42309 63.1935 -7.99485 63.132 -8.37441 63.0899C-8.56419 63.0688 -8.70593 63.0525 -8.80027 63.0417C-8.84745 63.0363 -8.88278 63.0321 -8.90634 63.0293L-8.94123 63.0251ZM-8.92305 74.3497C-8.93682 74.5089 -8.93624 74.5089 -8.93624 74.5089L-8.90143 74.5118C-8.8779 74.5137 -8.8426 74.5169 -8.79546 74.5207C-8.70117 74.5287 -8.5595 74.5402 -8.36978 74.5555C-7.99035 74.5858 -7.41872 74.6304 -6.64961 74.6872C-5.11137 74.8004 -2.78319 74.9625 0.37729 75.1571C6.69826 75.5459 16.3485 76.0642 29.6668 76.5826C56.3036 77.6192 97.6133 78.6559 156.307 78.6559V78.3369C97.6171 78.3369 56.3116 77.3003 29.6793 76.2639C16.3632 75.7456 6.71535 75.2272 0.396875 74.8387C-2.76236 74.6441 -5.08923 74.4824 -6.62615 74.3689C-7.3946 74.3124 -7.96556 74.2678 -8.34431 74.2375C-8.53369 74.2221 -8.67502 74.2107 -8.76896 74.2027L-8.87441 74.1941L-8.90876 74.1909C-8.90876 74.1909 -8.90927 74.1909 -8.92305 74.3497ZM-8.9262 86.312C-8.9262 86.312 -8.92676 86.312 -8.92251 86.1525C-8.91826 85.993 -8.91772 85.993 -8.91772 85.993L-8.77758 85.9968C-8.68352 85.9991 -8.54208 86.0029 -8.35258 86.0074C-7.97359 86.0169 -7.40241 86.0303 -6.63372 86.0479C-5.09638 86.083 -2.76903 86.1327 0.390623 86.1924C6.70996 86.312 16.3586 86.4715 29.6754 86.631C56.3093 86.9499 97.6161 87.2689 156.307 87.2689V87.5879C97.6152 87.5879 56.3071 87.2689 29.6716 86.9499C16.3541 86.7905 6.7047 86.631 0.384594 86.5114C-2.77544 86.4517 -5.1032 86.4016 -6.64096 86.3669C-7.40985 86.3493 -7.98124 86.3356 -8.36044 86.3263C-8.55004 86.3216 -8.6916 86.318 -8.78576 86.3155L-8.9262 86.312ZM-8.92085 97.6357C-8.92085 97.6357 -8.9214 97.6357 -8.9214 97.4762C-8.9214 97.3167 -8.92085 97.3167 -8.92085 97.3167H156.308V97.6357H-8.92085ZM-8.99192 203.391C-8.99192 203.391 -8.9926 203.391 -8.92359 203.535C-8.85457 203.679 -8.85416 203.678 -8.85416 203.678L-8.85265 203.678L-8.84634 203.675L-8.82052 203.662C-8.79744 203.652 -8.76259 203.635 -8.71589 203.614C-8.6225 203.571 -8.48173 203.506 -8.2929 203.423C-7.91526 203.255 -7.34543 203.009 -6.57812 202.696C-5.04349 202.069 -2.71892 201.173 0.43796 200.098C6.75175 197.946 16.3948 195.077 29.7061 192.208C56.3288 186.469 97.6251 180.728 156.306 180.728V180.409C97.604 180.409 56.2854 186.152 29.6391 191.896C16.3158 194.768 6.66078 197.641 0.335121 199.796C-2.82772 200.873 -5.15823 201.771 -6.69872 202.401C-7.46897 202.715 -8.04173 202.962 -8.42228 203.131C-8.61255 203.216 -8.75477 203.281 -8.84961 203.324C-8.89702 203.346 -8.93259 203.363 -8.9564 203.374L-8.98329 203.387L-8.99014 203.39L-8.99192 203.391ZM-8.92403 189.5C-8.97264 189.348 -8.97199 189.348 -8.97199 189.348L-8.97024 189.347L-8.96345 189.345L-8.93667 189.337C-8.91294 189.329 -8.87745 189.318 -8.83011 189.303C-8.73544 189.274 -8.59338 189.231 -8.40327 189.175C-8.02306 189.063 -7.45065 188.898 -6.68076 188.688C-5.14097 188.269 -2.81126 187.67 0.350783 186.952C6.67481 185.516 16.3281 183.601 29.6493 181.687C56.2921 177.858 97.6072 174.03 156.306 174.03V174.349C97.6209 174.349 56.3211 178.176 29.6949 182.002C16.3816 183.916 6.73682 185.829 0.421404 187.263C-2.73627 187.98 -5.06161 188.578 -6.59696 188.996C-7.36464 189.205 -7.93482 189.369 -8.31279 189.481C-8.50178 189.537 -8.64272 189.58 -8.73627 189.608C-8.78305 189.623 -8.81798 189.634 -8.84114 189.641L-8.86707 189.649L-8.87344 189.651L-8.87498 189.652C-8.87498 189.652 -8.87542 189.652 -8.92403 189.5ZM-8.95701 176.585C-8.95701 176.585 -8.95764 176.585 -8.92436 176.741C-8.89109 176.897 -8.89062 176.897 -8.89062 176.897L-8.88262 176.895L-8.85657 176.89C-8.83333 176.885 -8.79832 176.878 -8.75146 176.868C-8.65776 176.849 -8.51666 176.82 -8.32751 176.783C-7.94921 176.708 -7.37871 176.599 -6.61071 176.46C-5.07472 176.181 -2.74871 175.782 0.409634 175.304C6.72636 174.348 16.3725 173.072 29.6869 171.796C56.316 169.245 97.6184 166.693 156.306 166.693V166.374C97.6091 166.374 56.2966 168.926 29.6566 171.479C16.3365 172.755 6.6846 174.031 0.361884 174.988C-2.79949 175.467 -5.12856 175.866 -6.66768 176.146C-7.43725 176.285 -8.00933 176.395 -8.38922 176.47C-8.57917 176.507 -8.72107 176.536 -8.81559 176.556C-8.86284 176.565 -8.89825 176.573 -8.9219 176.578L-8.94856 176.583L-8.95701 176.585ZM-8.92363 164.939C-8.94264 164.781 -8.94204 164.781 -8.94204 164.781L-8.90715 164.777C-8.88359 164.774 -8.84826 164.77 -8.80109 164.764C-8.70674 164.753 -8.565 164.737 -8.37522 164.716C-7.99566 164.674 -7.42391 164.612 -6.65467 164.534C-5.11619 164.377 -2.78779 164.152 0.372952 163.883C6.6944 163.345 16.3451 162.627 29.664 161.909C56.3017 160.473 97.612 159.038 156.306 159.038V159.357C97.6171 159.357 56.3125 160.792 29.6812 162.227C16.3654 162.945 6.71803 163.663 0.400033 164.201C-2.75898 164.47 -5.0856 164.694 -6.62227 164.851C-7.39059 164.929 -7.96142 164.991 -8.34005 165.033C-8.52937 165.054 -8.67063 165.07 -8.76451 165.081C-8.81145 165.086 -8.84654 165.091 -8.86986 165.093L-8.90413 165.097C-8.90413 165.097 -8.90463 165.098 -8.92363 164.939ZM-8.93705 153.297C-8.93705 153.297 -8.93763 153.297 -8.92386 153.456C-8.91009 153.615 -8.90957 153.615 -8.90957 153.615L-8.87522 153.612C-8.85186 153.61 -8.81674 153.607 -8.76977 153.603C-8.67583 153.595 -8.5345 153.583 -8.34512 153.568C-7.96637 153.538 -7.39541 153.494 -6.62696 153.437C-5.09006 153.324 -2.76316 153.161 0.396046 152.967C6.71452 152.579 16.3623 152.06 29.6786 151.542C56.3106 150.505 97.6161 149.469 156.306 149.469V149.15C97.6123 149.15 56.303 150.186 29.6662 151.223C16.3477 151.742 6.69746 152.26 0.376461 152.649C-2.78402 152.843 -5.1122 153.005 -6.65042 153.119C-7.41953 153.176 -7.99116 153.22 -8.3706 153.25C-8.56032 153.266 -8.70199 153.277 -8.79627 153.285C-8.84341 153.289 -8.87871 153.292 -8.90224 153.294L-8.93705 153.297ZM-8.92457 141.654C-8.92882 141.495 -8.92826 141.495 -8.92826 141.495L-8.78782 141.491C-8.69365 141.489 -8.5521 141.485 -8.3625 141.48C-7.9833 141.471 -7.4119 141.457 -6.64302 141.44C-5.10525 141.405 -2.77751 141.355 0.382553 141.295C6.70266 141.176 16.352 141.016 29.6697 140.857C56.3049 140.538 97.613 140.219 156.305 140.219V140.538C97.6142 140.538 56.3074 140.857 29.6735 141.176C16.3566 141.335 6.70792 141.494 0.388582 141.614C-2.7711 141.674 -5.09842 141.724 -6.63578 141.759C-7.40446 141.776 -7.97565 141.79 -8.35464 141.799C-8.54414 141.804 -8.68558 141.807 -8.77964 141.81L-8.91978 141.813C-8.91978 141.813 -8.92032 141.813 -8.92457 141.654Z" fill="url(#paint1_linear_1_3230)"/>
</g>
<defs>
<linearGradient id="paint0_linear_1_3230" x1="503.758" y1="19.6648" x2="294.031" y2="114.241" gradientUnits="userSpaceOnUse">
<stop stop-color="#3C5DC7"/>
<stop offset="0.119641" stop-color="#5B21FF"/>
<stop offset="0.288809" stop-color="#AA3FFF"/>
<stop offset="0.531073" stop-color="#E54190"/>
<stop offset="0.639675" stop-color="#F8522E"/>
<stop offset="0.921468" stop-color="#0D0E12"/>
</linearGradient>
<linearGradient id="paint1_linear_1_3230" x1="-5.9679" y1="72.1363" x2="156.232" y2="115.836" gradientUnits="userSpaceOnUse">
<stop stop-color="#0742FE"/>
<stop offset="0.119641" stop-color="#5B21FF"/>
<stop offset="0.288809" stop-color="#AA3FFF"/>
<stop offset="0.453092" stop-color="#E54190"/>
<stop offset="0.639675" stop-color="#F8522E"/>
<stop offset="0.826875" stop-color="#0D0E12"/>
</linearGradient>
</defs>
</svg>
