<svg width="24" height="24" viewBox="0 0 24 24" fill="none" xmlns="http://www.w3.org/2000/svg">
<path d="M24 22.2943C24 23.2371 23.4648 24 22.806 24H13.194C12.8773 24 12.5736 23.8203 12.3497 23.5004C12.1258 23.1805 12 22.7467 12 22.2943C12 21.8419 12.1258 21.408 12.3497 21.0882C12.5736 20.7683 12.8773 20.5886 13.194 20.5886H22.806C23.466 20.5886 24 21.3514 24 22.2943V22.2943ZM24 12C24 12.9429 23.4648 13.7057 22.806 13.7057H1.194C0.877331 13.7057 0.573633 13.526 0.349715 13.2061C0.125796 12.8862 0 12.4524 0 12C0 11.5476 0.125796 11.1138 0.349715 10.7939C0.573633 10.474 0.877331 10.2943 1.194 10.2943H22.806C23.466 10.2943 24 11.0589 24 12V12ZM22.806 3.41143C23.1227 3.41143 23.4264 3.23172 23.6503 2.91184C23.8742 2.59195 24 2.1581 24 1.70571C24 1.25333 23.8742 0.819475 23.6503 0.499592C23.4264 0.179708 23.1227 1.34821e-08 22.806 0H8.394C8.2372 -6.67565e-09 8.08194 0.0441196 7.93708 0.12984C7.79221 0.21556 7.66059 0.341202 7.54971 0.499592C7.43884 0.657982 7.35089 0.846019 7.29089 1.05297C7.23088 1.25991 7.2 1.48172 7.2 1.70571C7.2 1.92971 7.23088 2.15152 7.29089 2.35846C7.35089 2.56541 7.43884 2.75345 7.54971 2.91184C7.66059 3.07023 7.79221 3.19587 7.93708 3.28159C8.08194 3.36731 8.2372 3.41143 8.394 3.41143H22.806Z" fill="#E1E3E7"/>
</svg>
