<svg width="614" height="159" viewBox="0 0 614 159" fill="none" xmlns="http://www.w3.org/2000/svg">
<path d="M-7.4127e-06 74.2086L7.44555 81.9175L14.891 74.2086L25.3146 74.2086L40.7018 81.9175L54.1036 79.9905L61.549 74.2087L77.9291 68.4269L90.8344 58.7901L112.674 27.9534L126.076 27.9534L135.507 43.3717L144.938 27.9534L160.325 36.6262L175.216 19.2805L189.611 36.6262L201.523 79.9905L207.48 92.5178L223.363 102.154L230.808 102.154L248.181 81.9177L255.74 64.5644L261.583 43.3717L275.977 36.6262L289.379 14.4629L314.197 14.4629L329.585 27.9534L341.497 36.6262L349.439 58.7901L358.87 102.154L372.272 113.718L382.199 124.318L390.637 130.101L402.55 130.101L421.412 141.664L436.799 122.391L448.215 102.154L468.07 79.9906L480.975 50.1173L489.413 50.1173L502.815 50.1173L523.166 36.6263L536.071 36.6263L546.495 36.6263L555.926 36.6263L569.327 30.8459L585.707 33.7368L610.412 56.8592L614 113.718L606.825 8.50197e-06L-1.0207e-05 6.15523e-05L-7.4127e-06 74.2086Z" fill="black"/>
</svg>
