<svg width="619" height="83" viewBox="0 0 619 83" fill="none" xmlns="http://www.w3.org/2000/svg">
<path d="M0.385982 39.004L7.88611 43.0039L15.3861 39.004L25.8861 39.004L41.3861 43.0039L54.8861 42.004L62.3861 39.004L78.8862 36.0041L91.8861 31.004L113.886 15.0039L127.386 15.0039L136.886 23.0039L146.386 15.004L161.886 19.5039L176.886 10.5039L191.386 19.5039L203.386 42.004L209.386 48.5039L225.386 53.504L232.886 53.504L250.386 43.0039L258 34L263.886 23.0039L278.386 19.5039L291.886 8.00426L316.886 8.00426L332.386 15.0039L344.386 19.5039L352.386 31.004L361.886 53.504L375.386 59.504L385.386 65.004L393.886 68.0042L405.886 68.0042L424.886 74.0042L440.386 64.0042L451.886 53.504L471.886 42.004L484.886 26.5039L493.386 26.5039L506.886 26.5039L527.386 19.504L540.386 19.504L550.886 19.504L560.386 19.504L573.886 16.5047L590.386 18.0047L615.272 30.002L618.886 59.5039L611.658 0.5L0.385983 0.500053L0.385982 39.004Z" fill="black"/>
</svg>
