<svg width="161" height="49" viewBox="0 0 161 49" fill="none" xmlns="http://www.w3.org/2000/svg">
<path fill-rule="evenodd" clip-rule="evenodd" d="M35.6629 38.1532C43.0345 38.1532 49.0113 32.1835 49.0113 24.8199C49.0113 17.4563 43.0362 11.4866 35.6629 11.4866C28.2913 11.4866 22.3145 17.4563 22.3145 24.8199C22.3145 32.1835 28.2913 38.1532 35.6629 38.1532ZM44.3785 27.1355V26.2759C44.3785 26.2573 44.3742 26.239 44.3659 26.2224C44.3576 26.2057 44.3456 26.1912 44.3308 26.18C44.316 26.1688 44.2988 26.1612 44.2805 26.1578C44.2622 26.1544 44.2434 26.1553 44.2256 26.1603L40.1651 27.3337C40.1436 27.3393 40.1241 27.351 40.1091 27.3675C39.6736 27.8475 39.3047 28.1701 39.2069 28.2555L39.1998 28.2608C38.9473 28.4741 38.6345 28.5915 38.3056 28.5915H36.8353V27.0937H38.0033C38.0334 27.094 38.0625 27.0832 38.0851 27.0635L38.2362 26.9257C38.3002 26.8661 38.3767 26.795 38.4682 26.7035L38.4922 26.6804C38.5402 26.6315 38.5918 26.5808 38.6433 26.5239C38.7029 26.4652 38.7625 26.3995 38.8167 26.3355C38.9091 26.2368 38.9971 26.1337 39.0887 26.0252C39.1545 25.9541 39.2149 25.8741 39.2736 25.7923C39.3403 25.713 39.4041 25.6311 39.4647 25.547C39.4869 25.5141 39.5109 25.4812 39.5358 25.4475L39.6051 25.347C39.6496 25.2812 39.694 25.2119 39.7296 25.1461C39.892 24.8926 40.0238 24.6208 40.1225 24.3363L40.134 24.3052C40.2456 23.9949 40.2863 23.6636 40.2531 23.3355C40.2497 23.2658 40.2405 23.1965 40.2256 23.1284V23.1168C40.2193 23.0673 40.2086 23.0186 40.1936 22.971C40.1447 22.7488 40.0673 22.5266 39.9705 22.3088C39.9371 22.2282 39.9009 22.1487 39.862 22.0706C39.7746 21.9051 39.6797 21.7438 39.5776 21.587C39.5571 21.5541 39.534 21.5204 39.5109 21.4866L39.4585 21.4092C39.3927 21.307 39.3189 21.2092 39.2469 21.1141L39.198 21.0501C39.1539 20.9931 39.1086 20.9371 39.062 20.8821L38.9856 20.7897C38.9145 20.7035 38.8442 20.6208 38.7731 20.5408C38.5319 20.2722 38.278 20.0153 38.0122 19.771C37.7713 19.5422 37.5204 19.3242 37.2602 19.1177L37.1909 19.0599C37.136 19.0193 37.0815 18.9781 37.0273 18.9364C37.0165 18.9286 37.0045 18.9226 36.9918 18.9186L36.8353 18.8741V17.5817C36.8357 17.3801 36.7565 17.1865 36.6149 17.043C36.5454 16.9722 36.4623 16.9159 36.3708 16.8776C36.2792 16.8393 36.1808 16.8197 36.0816 16.8199C35.9819 16.8203 35.8833 16.8402 35.7914 16.8787C35.6995 16.9172 35.6161 16.9734 35.5459 17.0442C35.4757 17.1149 35.4202 17.1988 35.3824 17.291C35.3447 17.3833 35.3255 17.482 35.326 17.5817V18.4528L35.2487 18.4306L35.0353 18.3701L34.8425 18.3168H34.8407L34.8371 18.3159H34.8327L33.366 17.9186C33.3515 17.9145 33.336 17.9149 33.3217 17.9196C33.3073 17.9243 33.2947 17.9332 33.2854 17.9451C33.2761 17.9569 33.2705 17.9713 33.2693 17.9864C33.2682 18.0015 33.2715 18.0165 33.2789 18.0297L33.5136 18.4626C33.5269 18.4955 33.5438 18.5292 33.5616 18.563L33.5945 18.6306C33.6327 18.7079 33.6718 18.7888 33.7082 18.8688C33.7411 18.9399 33.774 19.011 33.8122 19.0866L33.8611 19.1959C34.1791 19.8924 34.4407 20.6132 34.6433 21.3515L34.6727 21.4572L34.6878 21.523C34.7322 21.6964 34.7696 21.8697 34.7971 22.043C34.8193 22.1621 34.8398 22.2759 34.8505 22.3915C34.8673 22.5212 34.8833 22.6519 34.8896 22.7817C34.9002 22.9008 34.9056 23.0252 34.9056 23.1444C34.9082 23.4473 34.8751 23.7496 34.8069 24.0448L34.8016 24.0635C34.7838 24.131 34.7651 24.2012 34.742 24.2679C34.7225 24.339 34.6958 24.4119 34.6682 24.4866L34.6398 24.5666L34.6345 24.5808C34.614 24.635 34.5936 24.6901 34.5678 24.7444C34.4283 25.0725 34.2686 25.3916 34.0896 25.6999C33.8345 26.1506 33.5785 26.5461 33.398 26.8012L33.366 26.8483C33.3536 26.8661 33.3411 26.8839 33.3305 26.9017C33.3177 26.9198 33.3101 26.9411 33.3085 26.9632C33.3069 26.9853 33.3114 27.0074 33.3214 27.0272C33.3315 27.0469 33.3467 27.0636 33.3656 27.0753C33.3844 27.087 33.4061 27.0934 33.4282 27.0937H35.3269V28.5915H33.4069C32.8913 28.5915 32.414 28.2999 32.1829 27.8323C32.0654 27.6031 32.0175 27.3445 32.0451 27.0884C32.0513 27.0128 31.9953 26.9417 31.9189 26.9417H28.0389C28.0073 26.9417 27.977 26.9542 27.9547 26.9766C27.9323 26.9989 27.9198 27.0292 27.9198 27.0608V27.1408C27.9191 27.7277 28.034 28.3089 28.258 28.8514C28.4819 29.3939 28.8106 29.8869 29.2251 30.3023C29.6396 30.7178 30.1319 31.0475 30.6739 31.2726C31.2159 31.4978 31.7969 31.614 32.3838 31.6146H39.3411C40.6451 31.6146 41.3856 30.4279 42.1145 29.2608C42.3171 28.9355 42.5189 28.6119 42.7313 28.3159C43.1136 27.7844 44.0345 27.3621 44.3029 27.2475C44.3248 27.238 44.3436 27.2224 44.3568 27.2025C44.3701 27.1826 44.3782 27.1593 44.3785 27.1355ZM28.958 25.1772L28.9002 25.2679C28.8886 25.2859 28.8822 25.3067 28.8815 25.3281C28.8808 25.3495 28.8859 25.3707 28.8963 25.3894C28.9067 25.4081 28.922 25.4236 28.9405 25.4343C28.9591 25.445 28.9802 25.4505 29.0016 25.4501H32.5731C32.5925 25.4501 32.6115 25.4452 32.6285 25.4361C32.6456 25.4269 32.6601 25.4138 32.6709 25.3977C32.718 25.3266 32.7625 25.2528 32.8016 25.1772C33.11 24.6599 33.3847 24.099 33.4851 23.6857C33.7198 22.6804 33.2185 21.0652 32.6389 19.7657C32.63 19.7462 32.616 19.7295 32.5983 19.7173C32.5807 19.7051 32.5601 19.6979 32.5387 19.6964C32.5173 19.695 32.4959 19.6993 32.4768 19.709C32.4577 19.7187 32.4415 19.7334 32.43 19.7515L28.958 25.1772Z" fill="#EEEFFC"/>
<path d="M62.018 31.219C60.8109 31.219 59.7015 30.9488 58.69 30.4083C57.706 29.8826 56.8795 29.1046 56.2953 28.1541C55.7104 27.179 55.418 26.0866 55.418 24.8777C55.418 23.6679 55.7104 22.5817 56.2953 21.6181C56.8795 20.6677 57.706 19.8897 58.69 19.3639C59.7015 18.8234 60.8109 18.5532 62.018 18.5532C63.2242 18.5532 64.3273 18.8234 65.3273 19.3639C66.3136 19.8799 67.1367 20.6605 67.7042 21.6181C68.2891 22.5817 68.5815 23.6679 68.5815 24.8777C68.5815 26.0866 68.2891 27.1799 67.7042 28.1541C67.1301 29.1064 66.3087 29.8854 65.3273 30.4083C64.3273 30.9488 63.2242 31.219 62.018 31.219ZM62.018 28.4706C63.042 28.4706 63.858 28.1417 64.4677 27.4839C65.09 26.8261 65.4011 25.9577 65.4011 24.8777C65.4011 23.7843 65.09 22.9159 64.4677 22.2706C63.858 21.6128 63.042 21.2839 62.018 21.2839C60.9815 21.2839 60.1531 21.6066 59.5317 22.2528C58.922 22.8981 58.6171 23.7728 58.6171 24.8777C58.6171 25.9692 58.922 26.8448 59.5317 27.5017C60.1531 28.1479 60.9815 28.4706 62.018 28.4706ZM73.4473 22.6572C73.7522 22.1994 74.1726 21.8306 74.7095 21.5479C75.2455 21.2661 75.874 21.1248 76.5922 21.1248C77.4331 21.1248 78.1957 21.331 78.8784 21.7417C79.5602 22.1523 80.0962 22.7399 80.4873 23.5034C80.8891 24.267 81.09 25.1532 81.09 26.163C81.09 27.1737 80.8891 28.0652 80.4864 28.8412C80.0971 29.6039 79.5602 30.1977 78.8775 30.6199C78.1957 31.0314 77.4331 31.2368 76.5931 31.2368C75.8855 31.2368 75.258 31.0954 74.7086 30.8137C74.1726 30.5319 73.7522 30.1674 73.4482 29.7212V34.0199H70.3211V21.2661H73.4473V22.6581V22.6572ZM77.9095 26.163C77.9095 25.4119 77.6891 24.8243 77.2509 24.4012C76.8242 23.9674 76.2935 23.7497 75.6597 23.7497C75.0384 23.7497 74.5077 23.9674 74.0686 24.4012C73.642 24.8368 73.4286 25.4297 73.4286 26.1808C73.4286 26.9328 73.642 27.5257 74.0686 27.9603C74.2757 28.1712 74.5236 28.3378 74.7972 28.4498C75.0707 28.5618 75.3642 28.617 75.6597 28.6119C76.282 28.6119 76.8117 28.395 77.2509 27.9603C77.6891 27.5141 77.9095 26.915 77.9095 26.163ZM92.3477 26.0226C92.3477 26.3043 92.3291 26.5977 92.2926 26.9026H85.2171C85.266 27.5141 85.4669 27.9834 85.8206 28.3123C86.186 28.6297 86.6313 28.7879 87.1549 28.7879C87.9353 28.7879 88.4775 28.4706 88.7824 27.8368H92.1095C91.9394 28.4831 91.6201 29.0804 91.1771 29.5808C90.7237 30.1085 90.1545 30.5243 89.514 30.7959C88.8429 31.0892 88.0935 31.2368 87.2651 31.2368C86.2651 31.2368 85.3753 31.0314 84.5957 30.6199C83.8289 30.2215 83.1938 29.6096 82.7673 28.8581C82.3282 28.0954 82.1095 27.2021 82.1095 26.1808C82.1095 25.1586 82.3229 24.267 82.7495 23.5034C83.1757 22.752 83.8105 22.14 84.5771 21.7417C85.3575 21.331 86.2535 21.1248 87.2651 21.1248C88.2517 21.1248 89.13 21.3248 89.8971 21.7239C90.6481 22.1066 91.271 22.7004 91.6891 23.4323C92.1282 24.1728 92.3477 25.0359 92.3477 26.0226ZM89.1478 25.2297C89.1478 24.7132 88.9655 24.3017 88.5993 23.9968C88.234 23.691 87.7771 23.5381 87.2286 23.5381C86.7042 23.5381 86.2597 23.6857 85.8935 23.979C85.5397 24.2723 85.3202 24.6901 85.2357 25.2297H89.1478ZM100.214 21.1603C101.408 21.1603 102.358 21.5363 103.066 22.2874C103.785 23.0279 104.144 24.0492 104.144 25.3532V31.0954H101.036V25.7577C101.036 25.0999 100.86 24.5897 100.506 24.2252C100.152 23.8608 99.6775 23.6794 99.0802 23.6794C98.4829 23.6794 98.0073 23.8617 97.6535 24.2252C97.3006 24.5897 97.1237 25.1008 97.1237 25.7577V31.0954H93.9975V21.2661H97.1237V22.5692C97.4402 22.1354 97.8669 21.7941 98.4037 21.5479C98.9397 21.2901 99.5433 21.1603 100.214 21.1603ZM110.961 31.219C110.022 31.219 109.182 31.0723 108.438 30.779C107.694 30.4857 107.097 30.0501 106.646 29.475C106.207 28.8999 105.975 28.2066 105.951 27.3959H109.279C109.327 27.8546 109.492 28.2066 109.773 28.4537C110.054 28.6883 110.419 28.8057 110.87 28.8057C111.333 28.8057 111.699 28.7061 111.966 28.5061C112.235 28.2946 112.369 28.0074 112.369 27.643C112.369 27.3381 112.26 27.0848 112.04 26.8857C111.812 26.6725 111.545 26.5051 111.254 26.3923C110.823 26.2207 110.384 26.0738 109.937 25.9523C109.109 25.7052 108.432 25.459 107.908 25.2119C107.377 24.9599 106.913 24.5855 106.555 24.1194C106.177 23.6386 105.988 23.0101 105.988 22.235C105.988 21.0839 106.421 20.1861 107.286 19.5399C108.151 18.8821 109.279 18.5532 110.669 18.5532C112.083 18.5532 113.222 18.8821 114.087 19.5399C114.953 20.1861 115.416 21.0901 115.478 22.2528H112.094C112.07 21.8528 111.918 21.5417 111.638 21.3194C111.358 21.0839 110.998 20.9666 110.558 20.9666C110.181 20.9666 109.877 21.0661 109.645 21.2661C109.414 21.4537 109.297 21.7301 109.297 22.0937C109.297 22.4937 109.492 22.8048 109.883 23.027C110.272 23.251 110.882 23.4919 111.71 23.7497C112.54 24.0199 113.21 24.2786 113.722 24.5248C114.246 24.7719 114.697 25.1292 115.075 25.6003C115.453 26.0697 115.642 26.6741 115.642 27.4137C115.642 28.1186 115.453 28.7586 115.075 29.3337C114.71 29.9097 114.173 30.3674 113.466 30.7079C112.759 31.0483 111.924 31.219 110.961 31.219ZM127.183 26.0226C127.183 26.3043 127.165 26.5977 127.128 26.9026H120.053C120.102 27.5141 120.302 27.9834 120.655 28.3123C121.022 28.6297 121.466 28.7879 121.99 28.7879C122.771 28.7879 123.313 28.4706 123.618 27.8368H126.945C126.775 28.4829 126.455 29.0802 126.013 29.5808C125.559 30.1086 124.99 30.5245 124.349 30.7959C123.678 31.0892 122.929 31.2368 122.101 31.2368C121.101 31.2368 120.211 31.0314 119.43 30.6199C118.664 30.2214 118.029 29.6095 117.602 28.8581C117.164 28.0954 116.944 27.2021 116.944 26.1808C116.944 25.1586 117.158 24.267 117.584 23.5034C118.01 22.7517 118.646 22.1397 119.413 21.7417C120.192 21.331 121.088 21.1248 122.101 21.1248C123.087 21.1248 123.965 21.3248 124.733 21.7239C125.484 22.1068 126.106 22.7006 126.525 23.4323C126.964 24.1728 127.183 25.0359 127.183 26.0226ZM123.983 25.2297C123.983 24.7132 123.8 24.3017 123.435 23.9968C123.069 23.691 122.612 23.5381 122.063 23.5381C121.54 23.5381 121.094 23.6857 120.729 23.979C120.375 24.2723 120.156 24.6901 120.07 25.2297H123.983ZM128.211 26.163C128.211 25.1532 128.406 24.267 128.796 23.5034C129.198 22.7399 129.741 22.1523 130.423 21.7417C131.106 21.331 131.868 21.1248 132.709 21.1248C133.428 21.1248 134.055 21.2661 134.592 21.5479C135.14 21.8297 135.561 22.1994 135.854 22.6572V21.2661H138.98V31.0954H135.854V29.7043C135.549 30.1621 135.122 30.5319 134.574 30.8137C134.037 31.0954 133.409 31.2368 132.69 31.2368C131.892 31.2449 131.107 31.0314 130.423 30.6199C129.741 30.1977 129.198 29.6039 128.796 28.8412C128.406 28.0661 128.211 27.1728 128.211 26.163ZM135.854 26.1808C135.854 25.4297 135.634 24.8359 135.195 24.4012C134.992 24.1897 134.748 24.0226 134.477 23.9105C134.206 23.7983 133.915 23.7436 133.622 23.7497C133.001 23.7497 132.47 23.9674 132.032 24.4012C131.606 24.8243 131.392 25.4119 131.392 26.163C131.392 26.915 131.606 27.5141 132.032 27.9603C132.47 28.3941 133.001 28.6119 133.622 28.6119C134.245 28.6119 134.768 28.395 135.195 27.9603C135.634 27.5248 135.854 26.9328 135.854 26.1808Z" fill="#EEEFFC"/>
</svg>
