<svg width="161" height="51" viewBox="0 0 161 51" fill="none" xmlns="http://www.w3.org/2000/svg">
<path d="M91.2021 31.2893C90.7236 31.9931 90.0313 32.5242 89.2274 32.804C88.4276 33.0812 87.5621 33.0892 86.7569 32.828C85.9485 32.5635 85.2467 32.0458 84.7556 31.3515C84.259 30.6501 83.996 29.8103 84.0038 28.951C84.01 28.0893 84.2882 27.2533 84.7947 26.5639C85.2971 25.8778 86.0073 25.3719 86.82 25.1212C87.628 24.8732 88.4949 24.896 89.2887 25.186C90.088 25.4793 90.7716 26.0219 91.2385 26.7336L94.1604 24.9737C93.3178 23.6109 92.0541 22.5597 90.5604 21.9789C89.0768 21.4047 87.4447 21.3375 85.9189 21.7879C84.385 22.2435 83.042 23.1874 82.0941 24.4762C81.1354 25.7785 80.6177 27.3528 80.6162 28.9697C80.6114 30.5865 81.1229 32.1626 82.0763 33.4685C83.0192 34.7615 84.3589 35.7111 85.8914 36.1728C87.4152 36.629 89.0473 36.5681 90.5329 35.9995C92.0288 35.4249 93.2969 34.379 94.1453 33.0199L91.2021 31.2893ZM99.2525 15.1543H95.8631V35.8983H99.2508V28.9839C99.2493 27.9186 99.6649 26.895 100.409 26.1322C100.773 25.7591 101.207 25.4624 101.687 25.2595C102.167 25.0566 102.683 24.9516 103.204 24.9506C104.253 24.9506 105.259 25.3753 106 26.1322C106.745 26.8947 107.161 27.9184 107.159 28.9839V35.8992H110.548V28.3114C110.548 26.98 110.164 25.6768 109.442 24.5579C108.728 23.4491 107.702 22.575 106.494 22.0447C105.295 21.5197 103.965 21.3656 102.677 21.6023C101.385 21.8418 100.193 22.4595 99.2516 23.3773L99.2525 15.1543ZM75.5312 15.1543H72.1418V31.2875C72.1418 32.2834 72.4227 33.258 72.9505 34.0948C73.4746 34.9287 74.2285 35.5935 75.1215 36.0093C76.0102 36.4215 76.9966 36.5637 77.9617 36.4198C78.9309 36.2738 79.8364 35.8483 80.5673 35.1956L78.9295 32.3616C78.7713 32.5659 78.5696 32.7303 78.3394 32.844C78.1101 32.9574 77.8577 33.0164 77.6018 33.0163H77.225C76.7754 33.0163 76.3452 32.8333 76.0271 32.5099C75.7083 32.1829 75.5303 31.7441 75.5312 31.2875V25.5254H78.9188V22.0678H75.5312V15.1543ZM68.1908 15.1543C67.6914 15.1543 67.2133 15.356 66.8596 15.7166C66.5068 16.0764 66.3086 16.5651 66.3086 17.075C66.3086 17.5841 66.5068 18.0727 66.8596 18.4334C67.2124 18.7932 67.6914 18.9957 68.1908 18.9957C68.6902 18.9957 69.1683 18.7932 69.522 18.4325C69.8748 18.0727 70.073 17.5841 70.073 17.075C70.073 16.5651 69.8748 16.0773 69.522 15.7166C69.3488 15.539 69.1418 15.3978 68.9132 15.3012C68.6846 15.2046 68.439 15.1547 68.1908 15.1543ZM69.8846 35.8983V22.0695H66.497V35.9H69.8846V35.8983Z" fill="#EEEFFC"/>
<path fill-rule="evenodd" clip-rule="evenodd" d="M50.1152 35.8983H53.5037V31.865H56.6105C57.6858 31.865 58.7505 31.6491 59.744 31.2289C60.7409 30.8068 61.644 30.1911 62.4011 29.4174C63.1638 28.6385 63.767 27.718 64.1767 26.7078C65.0094 24.657 65.0094 22.3623 64.1767 20.3114C63.767 19.3012 63.1639 18.3808 62.4011 17.6018C61.6441 16.8278 60.741 16.2118 59.744 15.7895C58.7528 15.3705 57.6876 15.1545 56.6114 15.1543H50.1152V35.8983ZM53.5037 18.6101H56.6105C57.8831 18.6101 59.1041 19.1263 60.0053 20.0449C60.9088 20.9714 61.4135 22.2148 61.4111 23.5087C61.4111 24.8076 60.9046 26.0531 60.0053 26.9717C59.5635 27.4248 59.0357 27.7851 58.4527 28.0315C57.8698 28.2779 57.2434 28.4054 56.6105 28.4065H53.5046L53.5037 18.6101Z" fill="#EEEFFC"/>
</svg>
