<svg width="161" height="50" viewBox="0 0 161 50" fill="none" xmlns="http://www.w3.org/2000/svg">
<path d="M40.8912 21.0352C38.6704 21.0352 37.5809 22.9959 37.5809 25.614V32.1747H34.4492V18.33H37.5258V21.9218H37.5791C38.2367 19.7133 39.5457 17.9285 41.5648 17.9285C42.9858 17.9285 43.5848 18.426 43.5848 18.426L42.1718 21.2777C42.1718 21.2777 41.7212 21.0352 40.8912 21.0352ZM78.745 22.9364V32.1721H75.6951V24.0611C75.6951 21.7317 74.9664 20.4986 73.1038 20.4986C71.1753 20.4986 70.2422 22.0586 70.2422 25.0507V32.1721H67.219V24.0602C67.219 21.8214 66.4992 20.4977 64.6552 20.4977C62.5508 20.4977 61.7403 22.3456 61.7403 25.0498V32.1721H58.6637V18.33H61.7403V21.4652H61.7679C62.2477 19.2948 63.555 17.956 65.7624 17.956C67.9512 17.956 69.3776 19.1349 69.9188 21.2244C70.4342 19.2131 71.8054 17.9551 73.9133 17.9551C76.8548 17.9551 78.7459 19.803 78.7459 22.9355L78.745 22.9364ZM49.7388 17.9285C46.9084 17.9285 45.0555 19.2611 44.2113 21.6651L46.8169 22.6148C47.2923 21.164 48.2832 20.3378 49.7939 20.3378C51.4948 20.3378 52.4937 21.0885 52.4937 22.239C52.4937 23.417 51.6983 23.6631 49.9023 23.9536C47.9046 24.276 43.1529 24.3818 43.1529 28.3982C43.1529 30.7507 45.1168 32.5212 48.0663 32.5212C50.2836 32.5212 51.7934 31.6133 52.4919 29.9236H52.5195V32.1721H55.5703V23.6577C55.5685 19.9327 53.6978 17.9285 49.7388 17.9285ZM52.5737 25.6575C52.5737 28.5599 51.1394 30.4246 48.8484 30.4246C47.2283 30.4246 46.257 29.5131 46.257 28.2001C46.257 26.9688 47.2559 26.1132 49.1718 25.7614C51.1322 25.4008 52.1196 24.9548 52.5728 23.8869V25.6566L52.5737 25.6575ZM89.5966 17.9551C87.263 17.9551 85.722 19.2406 85.0617 21.1711V18.33H81.8216V37.5024H85.0342V29.3328H85.0608C85.7762 31.4241 87.2647 32.5745 89.5966 32.5745C93.2935 32.5745 95.94 29.522 95.94 25.2098C95.9382 20.9277 93.2935 17.9551 89.5966 17.9551ZM88.7995 30.0044C86.2383 30.0044 84.8182 28.1432 84.8182 25.2515C84.8182 22.3598 86.4072 20.4986 88.7995 20.4986C91.19 20.4986 92.7807 22.4504 92.7807 25.2515C92.7807 28.0544 91.1918 30.0044 88.7995 30.0044ZM127.76 32.1099V32.197L115.222 32.2014V32.1108C117.031 31.0874 118.278 30.0453 119.401 28.957H124.549L127.76 32.1099ZM124.653 15.751L121.475 12.6274H121.383C121.383 12.6274 121.437 18.4482 116.101 23.7412C110.88 28.9223 104.74 28.9348 104.74 28.9348V29.0254L107.978 32.2032C107.978 32.2032 114.028 32.2627 119.372 27.0096C124.698 21.7752 124.653 15.751 124.653 15.751Z" fill="#EEEFFC"/>
</svg>
