<svg width="161" height="50" viewBox="0 0 161 50" fill="none" xmlns="http://www.w3.org/2000/svg">
<path fill-rule="evenodd" clip-rule="evenodd" d="M30.8239 29.7796V32.8383L23.4551 25.5091L24.9934 23.9784L30.8239 29.7796ZM33.8987 32.8383H30.8239L38.1919 40.1676L39.7311 38.6369L33.8987 32.8383ZM51.3878 27.0398L52.9252 25.5091L38.1893 10.8506L36.6545 12.3848L42.4842 18.1834H38.9615L34.8914 14.1439L33.354 15.6746L35.884 18.1914H34.1156V29.569H45.5537V27.81L48.0846 30.3277L49.6238 28.797L45.5537 24.7495V21.2448L51.3878 27.0398ZM31.5909 17.4211L30.049 18.9527L31.7002 20.5945L33.2385 19.0638L31.5918 17.422L31.5909 17.4211ZM44.6774 30.4379L43.14 31.9686L44.7894 33.6103L46.3286 32.0796L44.6774 30.4379ZM28.2912 20.7029L26.752 22.2336L30.8222 26.2811V23.2206L28.2912 20.7029ZM40.4971 32.8445H37.4223L41.4916 36.892L43.0298 35.3613L40.4971 32.8445Z" fill="#EEEFFC"/>
<path d="M135.197 32.8207C134.205 32.8207 133.428 32.5533 132.875 32.0158C132.32 31.4784 132.043 30.7312 132.043 29.786V23.9226H130.263V21.7274H132.053L132.372 18.7957H134.468V21.7274H137.205V23.9261H134.468V29.467C134.462 29.7705 134.576 30.0641 134.784 30.2844C134.891 30.3972 135.021 30.4858 135.165 30.544C135.309 30.6023 135.464 30.6288 135.62 30.6219H137.205V32.8207H135.197ZM124.489 33.0277C123.166 33.0277 122.102 32.7141 121.296 32.086C120.497 31.465 119.948 30.5769 119.75 29.5843H122.381C122.496 29.9654 122.752 30.2888 123.096 30.4905C123.519 30.7336 124.002 30.8524 124.489 30.8334C125.892 30.8334 126.598 30.4425 126.598 29.6874C126.598 29.3116 126.377 29.0237 125.936 28.8256C125.423 28.607 124.886 28.4478 124.336 28.3512C123.7 28.2283 123.069 28.0741 122.448 27.8893C121.815 27.7038 121.253 27.3324 120.834 26.8232C120.396 26.3017 120.175 25.6159 120.174 24.7666C120.167 24.3197 120.265 23.8774 120.458 23.4742C120.651 23.0711 120.934 22.718 121.286 22.4425C122.03 21.8251 123.062 21.5168 124.382 21.5186C125.7 21.5186 126.748 21.8118 127.525 22.3981C128.297 22.9773 128.828 23.8205 129.017 24.7666H126.381C126.1 24.0727 125.438 23.7182 124.389 23.7174C123.263 23.7174 122.701 24.0665 122.701 24.7657C122.703 24.9263 122.748 25.0835 122.832 25.2209C122.915 25.3584 123.033 25.4711 123.175 25.5474C123.536 25.7646 123.937 25.9071 124.354 25.9668C124.876 26.0556 125.392 26.1738 125.9 26.3221C126.427 26.4723 126.944 26.6562 127.447 26.8729C127.937 27.0931 128.351 27.452 128.639 27.9052C128.972 28.4365 129.139 29.0554 129.116 29.682C129.127 30.1485 129.026 30.6107 128.82 31.0297C128.615 31.4496 128.313 31.8145 127.938 32.094C127.154 32.7159 126.005 33.0268 124.489 33.0277ZM116.643 22.6282C115.833 21.9024 114.697 21.5399 113.236 21.5399C112.072 21.5399 111.095 21.8508 110.306 22.4754C109.528 23.0828 108.979 23.9349 108.746 24.8936H111.234C111.36 24.5311 111.602 24.2184 111.922 24.0043C112.31 23.7452 112.771 23.6158 113.238 23.6347C113.922 23.6347 114.46 23.8106 114.855 24.1589C115.055 24.344 115.211 24.5711 115.313 24.8237C115.415 25.0763 115.46 25.3484 115.444 25.6203V26.1498H112.595C111.285 26.1498 110.256 26.4785 109.508 27.1368C109.151 27.4402 108.866 27.8187 108.674 28.2453C108.481 28.6719 108.385 29.1358 108.393 29.6039C108.379 30.0667 108.465 30.527 108.644 30.9538C108.824 31.3806 109.093 31.764 109.433 32.078C110.126 32.7292 111.043 33.0553 112.185 33.0553C112.892 33.0714 113.592 32.9095 114.221 32.5844C114.725 32.3393 115.151 31.96 115.454 31.4881H115.556L115.763 32.8563H117.868V25.6247C117.863 24.3552 117.455 23.3567 116.643 22.6282ZM115.447 28.5538C115.461 28.8831 115.402 29.2115 115.274 29.5156C115.147 29.8196 114.954 30.0918 114.709 30.3128C114.221 30.7445 113.554 30.9613 112.709 30.9613C112.094 30.9613 111.623 30.8209 111.299 30.5473C111.142 30.4201 111.016 30.2587 110.931 30.0755C110.845 29.8923 110.803 29.6921 110.807 29.4901C110.807 28.5129 111.45 28.0278 112.709 28.0278H115.447V28.5538ZM102.079 33.0517C100.483 33.0517 99.2064 32.5418 98.2511 31.5237C97.2966 30.5038 96.8185 29.0939 96.8168 27.2931C96.8168 25.4968 97.2931 24.0878 98.2458 23.0679C99.1975 22.0481 100.475 21.5381 102.079 21.5399C103.381 21.5399 104.46 21.8846 105.317 22.5758C106.157 23.2413 106.756 24.1628 107.023 25.2001H104.61C104.371 24.7407 104.007 24.359 103.559 24.0999C103.111 23.8408 102.598 23.7152 102.081 23.7378C101.689 23.7241 101.298 23.8008 100.94 23.9619C100.581 24.123 100.265 24.3643 100.014 24.6671C99.4899 25.2889 99.2277 26.164 99.2277 27.2931C99.2277 28.4232 99.4899 29.2991 100.014 29.9201C100.264 30.2243 100.58 30.4668 100.938 30.6286C101.297 30.7905 101.688 30.8672 102.081 30.8529C102.598 30.8747 103.111 30.7485 103.559 30.4892C104.007 30.2298 104.371 29.8481 104.61 29.3889H107.023C106.757 30.4273 106.157 31.35 105.317 32.0158C104.462 32.7061 103.382 33.0517 102.079 33.0517ZM87.8438 37.037L89.5279 32.8465L85.0063 21.7531H87.6368L90.6885 29.6039H90.7907L93.8468 21.7531H96.4773L90.3703 37.037H87.8438ZM82.7331 22.6282C81.9217 21.9024 80.786 21.5399 79.325 21.5399C78.1609 21.5399 77.1816 21.8508 76.396 22.4754C75.6177 23.0823 75.0677 23.9345 74.8355 24.8936H77.3238C77.4482 24.5302 77.6899 24.2184 78.0107 24.0043C78.3994 23.7446 78.8606 23.6152 79.3277 23.6347C80.0111 23.6347 80.5505 23.8098 80.9451 24.1589C81.1453 24.3438 81.3019 24.5708 81.4038 24.8235C81.5057 25.0762 81.5503 25.3483 81.5343 25.6203V26.1498H78.6843C77.3744 26.1498 76.3453 26.4785 75.598 27.1368C75.2408 27.4398 74.9554 27.8182 74.7624 28.2449C74.5694 28.6715 74.4735 29.1357 74.4818 29.6039C74.4676 30.0664 74.5528 30.5266 74.7317 30.9534C74.9106 31.3803 75.1791 31.7638 75.5189 32.078C76.2111 32.7292 77.1274 33.0553 78.2702 33.0553C78.9773 33.0714 79.6771 32.9095 80.3052 32.5844C80.8101 32.3396 81.2375 31.9602 81.5405 31.4881H81.6418L81.848 32.8563H83.9488V25.6247C83.9488 24.3552 83.5436 23.3567 82.7331 22.6282ZM81.5325 28.5538C81.5473 28.8833 81.4889 29.2119 81.3613 29.5161C81.2338 29.8203 81.0403 30.0924 80.7949 30.3128C80.3079 30.7454 79.6414 30.9613 78.7954 30.9613C78.1795 30.9613 77.7059 30.8227 77.3842 30.5473C77.2272 30.4201 77.1013 30.2588 77.0161 30.0756C76.931 29.8923 76.8888 29.6921 76.8928 29.4901C76.899 28.5165 77.5326 28.0296 78.7945 28.0278H81.5316L81.5325 28.5538ZM69.0822 27.294C69.4572 27.1945 69.8198 27.0524 70.1628 26.872C70.563 26.654 70.9374 26.3917 71.279 26.0903C71.6913 25.7129 72.0096 25.2444 72.2086 24.7221C72.4476 24.1091 72.5649 23.4562 72.5551 22.7988C72.5551 21.404 72.1081 20.2846 71.2124 19.4451C70.3157 18.6047 69.1506 18.1853 67.7146 18.188H61.6094V32.8465H64.2398V27.4077H66.2367L70.0286 32.8465H72.9764L69.0822 27.294ZM64.2398 25.089V20.496H67.5004C68.2469 20.496 68.8361 20.6977 69.2688 21.1002C69.7007 21.5026 69.9176 22.0667 69.9211 22.7925C69.9211 23.5184 69.7025 24.0843 69.2644 24.4894C68.7824 24.9062 68.1582 25.121 67.5217 25.089H64.2398Z" fill="#EEEFFC"/>
</svg>
