<svg width="161" height="51" viewBox="0 0 161 51" fill="none" xmlns="http://www.w3.org/2000/svg">
<path d="M31.2148 17.1088C31.2148 16.8521 31.2654 16.5979 31.3637 16.3608C31.4619 16.1237 31.6059 15.9082 31.7875 15.7267C31.969 15.5453 32.1845 15.4013 32.4217 15.3031C32.6589 15.2049 32.9132 15.1543 33.1699 15.1543H40.8125C41.0692 15.1543 41.3235 15.2049 41.5607 15.3031C41.7979 15.4013 42.0134 15.5453 42.1949 15.7267C42.3765 15.9082 42.5205 16.1237 42.6188 16.3608C42.717 16.5979 42.7676 16.8521 42.7676 17.1088V18.619C42.7676 18.8782 42.6646 19.1268 42.4813 19.31C42.2979 19.4933 42.0493 19.5963 41.79 19.5963H32.1924C32.064 19.5963 31.9369 19.571 31.8183 19.5219C31.6997 19.4728 31.5919 19.4008 31.5012 19.31C31.4104 19.2193 31.3384 19.1116 31.2893 18.993C31.2401 18.8744 31.2148 18.7474 31.2148 18.619V17.1088ZM31.2148 23.2387C31.2148 23.1103 31.2401 22.9833 31.2893 22.8647C31.3384 22.7461 31.4104 22.6384 31.5012 22.5477C31.5919 22.4569 31.6997 22.3849 31.8183 22.3358C31.9369 22.2867 32.064 22.2614 32.1924 22.2614H50.5879C51.1064 22.2614 51.6037 22.4674 51.9703 22.8339C52.337 23.2004 52.543 23.6975 52.543 24.2159V29.2797C52.543 29.4081 52.5177 29.5352 52.4685 29.6537C52.4194 29.7723 52.3474 29.88 52.2566 29.9708C52.1659 30.0615 52.0581 30.1335 51.9395 30.1826C51.8209 30.2317 51.6938 30.257 51.5654 30.257H33.1699C32.9132 30.257 32.6589 30.2064 32.4217 30.1082C32.1845 30.01 31.969 29.866 31.7875 29.6845C31.6059 29.503 31.4619 29.2876 31.3637 29.0505C31.2654 28.8133 31.2148 28.5592 31.2148 28.3025V23.2387ZM40.9902 33.8994C40.9902 33.6402 41.0932 33.3916 41.2765 33.2084C41.4599 33.0251 41.7085 32.9222 41.9678 32.9222H51.5654C51.8247 32.9222 52.0733 33.0251 52.2566 33.2084C52.44 33.3916 52.543 33.6402 52.543 33.8994V34.5213C52.543 34.7779 52.4924 35.0321 52.3941 35.2692C52.2959 35.5063 52.1519 35.7218 51.9703 35.9033C51.7888 36.0848 51.5733 36.2287 51.3361 36.327C51.0989 36.4252 50.8446 36.4757 50.5879 36.4757H42.9453C42.6886 36.4757 42.4343 36.4252 42.1971 36.327C41.9599 36.2287 41.7444 36.0848 41.5629 35.9033C41.3813 35.7218 41.2373 35.5063 41.1391 35.2692C41.0408 35.0321 40.9902 34.7779 40.9902 34.5213V33.8994ZM64.6253 28.2501H66.6791L70.4941 34.4839H75.165L70.9349 27.8103C73.2819 27.0028 74.6513 25.194 74.6513 22.5777C74.6513 18.9113 72.0831 16.9311 67.9507 16.9311H60.541V34.4839H64.6253V28.2501ZM64.6253 24.9257V20.378H67.7304C69.6623 20.378 70.6408 21.2096 70.6408 22.6523C70.6408 24.0693 69.6632 24.9248 67.7304 24.9248H64.6253V24.9257ZM82.1917 34.7522C84.76 34.7522 87.1069 33.457 88.0614 30.9881L84.784 29.9372C84.4169 31.0619 83.4634 31.6482 82.2406 31.6482C80.7494 31.6482 79.6972 30.6461 79.4288 28.8853H88.1591V27.8592C88.1591 24.2168 86.0308 21.3313 82.1188 21.3313C78.4015 21.3313 75.6626 24.2159 75.6626 28.0298C75.6626 32.0391 78.3038 34.7522 82.1917 34.7522ZM82.0691 24.3634C83.5123 24.3634 84.2703 25.3406 84.2952 26.4902H79.5497C79.9407 25.0723 80.8711 24.3634 82.0691 24.3634ZM90.3764 31.037C90.3764 33.6773 91.7707 34.6065 94.5585 34.6065C95.488 34.6065 96.2212 34.5328 96.9063 34.4351V31.2324C96.4655 31.2813 96.246 31.3062 95.7813 31.3062C94.8028 31.3062 94.2403 31.1107 94.2403 30.0349V24.8271H96.7588V21.6005H94.2403V18.0309H90.3764V21.6005H88.7377V24.8271H90.3764V31.037ZM110.904 28.0538C110.904 24.0453 108.238 21.3313 104.448 21.3313C100.633 21.3313 97.9914 24.0453 97.9914 28.0547C97.9914 32.064 100.633 34.7531 104.448 34.7531C108.238 34.7531 110.904 32.0631 110.904 28.0538ZM101.88 28.0538C101.88 25.8061 102.883 24.5339 104.448 24.5339C106.013 24.5339 107.016 25.8052 107.016 28.0547C107.016 30.3041 106.013 31.5745 104.448 31.5745C102.883 31.5745 101.88 30.3032 101.88 28.0538ZM124.994 28.0538C124.994 24.0453 122.329 21.3313 118.537 21.3313C114.722 21.3313 112.081 24.0453 112.081 28.0547C112.081 32.064 114.722 34.7531 118.537 34.7531C122.329 34.7531 124.994 32.0631 124.994 28.0538ZM115.97 28.0538C115.97 25.8061 116.973 24.5339 118.537 24.5339C120.103 24.5339 121.106 25.8052 121.106 28.0547C121.106 30.3041 120.103 31.5745 118.537 31.5745C116.973 31.5745 115.97 30.3032 115.97 28.0538ZM130.746 16.9311H126.833V34.4839H130.746V16.9311Z" fill="#EEEFFC"/>
</svg>
