<svg width="334" height="442" viewBox="0 0 334 442" fill="none" xmlns="http://www.w3.org/2000/svg">
<g clip-path="url(#clip0_36_1469)">
<rect x="0.958984" y="0.838379" width="332.97" height="440.704" rx="44.0704" fill="url(#paint0_linear_36_1469)"/>
<path d="M66.0848 309.166H60.8969V293.14H66.2492C67.8194 293.14 69.1679 293.461 70.2947 294.103C71.4215 294.739 72.2848 295.655 72.8848 296.849C73.4899 298.039 73.7925 299.466 73.7925 301.13C73.7925 302.799 73.4873 304.234 72.8769 305.433C72.2718 306.633 71.3954 307.557 70.2477 308.203C69.1001 308.845 67.7124 309.166 66.0848 309.166ZM63.3148 307.053H65.9518C67.1725 307.053 68.1872 306.824 68.9957 306.365C69.8043 305.9 70.4095 305.23 70.8111 304.354C71.2128 303.472 71.4137 302.397 71.4137 301.13C71.4137 299.872 71.2128 298.806 70.8111 297.929C70.4147 297.053 69.8226 296.388 69.0349 295.934C68.2472 295.48 67.269 295.253 66.1005 295.253H63.3148V307.053ZM81.5529 309.408C80.3687 309.408 79.3488 309.155 78.4933 308.649C77.643 308.138 76.9857 307.421 76.5214 306.498C76.0623 305.569 75.8328 304.481 75.8328 303.235C75.8328 302.003 76.0623 300.918 76.5214 299.979C76.9857 299.04 77.6325 298.307 78.462 297.781C79.2966 297.254 80.2722 296.99 81.3885 296.99C82.0667 296.99 82.724 297.102 83.3604 297.327C83.9969 297.551 84.5681 297.903 85.0741 298.383C85.5801 298.863 85.9792 299.486 86.2713 300.253C86.5635 301.015 86.7095 301.941 86.7095 303.031V303.861H77.1552V302.108H84.4168C84.4168 301.492 84.2916 300.947 84.0412 300.472C83.7908 299.992 83.4387 299.614 82.9848 299.338C82.5362 299.061 82.0093 298.923 81.4042 298.923C80.7469 298.923 80.173 299.085 79.6827 299.408C79.1975 299.726 78.8219 300.144 78.5559 300.66C78.295 301.171 78.1646 301.727 78.1646 302.327V303.696C78.1646 304.5 78.3055 305.183 78.5872 305.746C78.8741 306.31 79.2732 306.74 79.7844 307.037C80.2956 307.33 80.8929 307.476 81.5763 307.476C82.0197 307.476 82.424 307.413 82.7892 307.288C83.1544 307.157 83.47 306.964 83.736 306.709C84.0021 306.453 84.2055 306.138 84.3464 305.762L86.5609 306.161C86.3835 306.813 86.0653 307.384 85.6062 307.875C85.1524 308.36 84.5811 308.738 83.8925 309.009C83.2091 309.275 82.4293 309.408 81.5529 309.408ZM98.0733 300.081L95.9528 300.457C95.8641 300.185 95.7232 299.927 95.5302 299.682C95.3424 299.437 95.0868 299.236 94.7634 299.079C94.4399 298.923 94.0356 298.845 93.5505 298.845C92.888 298.845 92.335 298.993 91.8916 299.291C91.4482 299.583 91.2265 299.961 91.2265 300.425C91.2265 300.827 91.3751 301.15 91.6725 301.396C91.9698 301.641 92.4498 301.842 93.1123 301.998L95.0216 302.436C96.1275 302.692 96.9517 303.086 97.4943 303.618C98.0368 304.15 98.3081 304.841 98.3081 305.692C98.3081 306.411 98.0994 307.053 97.6821 307.617C97.27 308.175 96.6935 308.613 95.9528 308.931C95.2172 309.249 94.3643 309.408 93.394 309.408C92.0481 309.408 90.95 309.122 90.0997 308.548C89.2493 307.969 88.7277 307.147 88.5347 306.083L90.7961 305.739C90.9369 306.328 91.2265 306.774 91.6647 307.077C92.1029 307.374 92.6741 307.523 93.3783 307.523C94.1452 307.523 94.7581 307.364 95.2172 307.045C95.6763 306.722 95.9058 306.328 95.9058 305.864C95.9058 305.488 95.765 305.173 95.4833 304.917C95.2068 304.661 94.7816 304.468 94.2078 304.338L92.1733 303.892C91.0517 303.636 90.2222 303.229 89.6849 302.671C89.1528 302.113 88.8868 301.406 88.8868 300.551C88.8868 299.841 89.085 299.22 89.4815 298.688C89.8779 298.156 90.4257 297.741 91.1247 297.444C91.8238 297.141 92.6245 296.99 93.527 296.99C94.826 296.99 95.8484 297.272 96.5944 297.835C97.3404 298.393 97.8334 299.142 98.0733 300.081ZM100.642 309.166V297.147H102.982V309.166H100.642ZM101.823 295.292C101.417 295.292 101.067 295.157 100.775 294.885C100.488 294.609 100.344 294.28 100.344 293.899C100.344 293.513 100.488 293.185 100.775 292.913C101.067 292.637 101.417 292.499 101.823 292.499C102.23 292.499 102.577 292.637 102.864 292.913C103.156 293.185 103.302 293.513 103.302 293.899C103.302 294.28 103.156 294.609 102.864 294.885C102.577 295.157 102.23 295.292 101.823 295.292ZM110.93 313.923C109.975 313.923 109.153 313.798 108.465 313.548C107.781 313.297 107.223 312.966 106.79 312.554C106.357 312.142 106.034 311.691 105.82 311.2L107.831 310.371C107.972 310.6 108.16 310.843 108.394 311.099C108.634 311.36 108.958 311.581 109.365 311.764C109.777 311.946 110.306 312.038 110.953 312.038C111.84 312.038 112.573 311.821 113.152 311.388C113.731 310.96 114.021 310.277 114.021 309.338V306.975H113.872C113.731 307.231 113.528 307.515 113.262 307.828C113.001 308.141 112.641 308.412 112.182 308.642C111.723 308.871 111.125 308.986 110.39 308.986C109.44 308.986 108.585 308.764 107.823 308.321C107.067 307.872 106.467 307.212 106.023 306.341C105.585 305.465 105.366 304.387 105.366 303.109C105.366 301.831 105.583 300.736 106.016 299.823C106.454 298.91 107.054 298.211 107.815 297.726C108.577 297.235 109.44 296.99 110.405 296.99C111.151 296.99 111.754 297.115 112.213 297.366C112.672 297.611 113.029 297.898 113.285 298.227C113.546 298.555 113.747 298.845 113.888 299.095H114.06V297.147H116.352V309.432C116.352 310.465 116.112 311.313 115.633 311.975C115.153 312.638 114.503 313.128 113.684 313.446C112.87 313.764 111.952 313.923 110.93 313.923ZM110.906 307.045C111.579 307.045 112.148 306.889 112.612 306.576C113.082 306.258 113.436 305.804 113.676 305.214C113.921 304.62 114.044 303.907 114.044 303.078C114.044 302.269 113.924 301.557 113.684 300.942C113.444 300.326 113.092 299.846 112.628 299.502C112.163 299.153 111.59 298.978 110.906 298.978C110.202 298.978 109.615 299.16 109.146 299.525C108.676 299.885 108.321 300.376 108.081 300.997C107.847 301.617 107.729 302.311 107.729 303.078C107.729 303.866 107.849 304.557 108.089 305.152C108.329 305.746 108.684 306.211 109.153 306.545C109.628 306.878 110.212 307.045 110.906 307.045ZM121.591 302.029V309.166H119.252V297.147H121.497V299.103H121.646C121.922 298.467 122.355 297.955 122.945 297.569C123.54 297.183 124.288 296.99 125.191 296.99C126.01 296.99 126.727 297.162 127.343 297.507C127.958 297.846 128.435 298.352 128.775 299.025C129.114 299.698 129.283 300.53 129.283 301.521V309.166H126.943V301.803C126.943 300.931 126.717 300.251 126.263 299.76C125.809 299.265 125.185 299.017 124.393 299.017C123.85 299.017 123.367 299.134 122.945 299.369C122.528 299.604 122.196 299.948 121.951 300.402C121.711 300.851 121.591 301.393 121.591 302.029ZM137.362 309.408C136.178 309.408 135.158 309.155 134.303 308.649C133.453 308.138 132.795 307.421 132.331 306.498C131.872 305.569 131.642 304.481 131.642 303.235C131.642 302.003 131.872 300.918 132.331 299.979C132.795 299.04 133.442 298.307 134.272 297.781C135.106 297.254 136.082 296.99 137.198 296.99C137.876 296.99 138.534 297.102 139.17 297.327C139.806 297.551 140.378 297.903 140.884 298.383C141.39 298.863 141.789 299.486 142.081 300.253C142.373 301.015 142.519 301.941 142.519 303.031V303.861H132.965V302.108H140.226C140.226 301.492 140.101 300.947 139.851 300.472C139.6 299.992 139.248 299.614 138.794 299.338C138.346 299.061 137.819 298.923 137.214 298.923C136.556 298.923 135.983 299.085 135.492 299.408C135.007 299.726 134.631 300.144 134.365 300.66C134.105 301.171 133.974 301.727 133.974 302.327V303.696C133.974 304.5 134.115 305.183 134.397 305.746C134.684 306.31 135.083 306.74 135.594 307.037C136.105 307.33 136.703 307.476 137.386 307.476C137.829 307.476 138.234 307.413 138.599 307.288C138.964 307.157 139.28 306.964 139.546 306.709C139.812 306.453 140.015 306.138 140.156 305.762L142.37 306.161C142.193 306.813 141.875 307.384 141.416 307.875C140.962 308.36 140.391 308.738 139.702 309.009C139.019 309.275 138.239 309.408 137.362 309.408ZM149.376 309.401C148.405 309.401 147.539 309.153 146.778 308.657C146.021 308.156 145.427 307.444 144.994 306.521C144.566 305.592 144.352 304.479 144.352 303.18C144.352 301.881 144.569 300.77 145.002 299.846C145.44 298.923 146.04 298.216 146.801 297.726C147.563 297.235 148.426 296.99 149.391 296.99C150.137 296.99 150.737 297.115 151.191 297.366C151.65 297.611 152.005 297.898 152.255 298.227C152.511 298.555 152.709 298.845 152.85 299.095H152.991V293.14H155.331V309.166H153.046V307.296H152.85C152.709 307.551 152.506 307.843 152.24 308.172C151.979 308.501 151.619 308.788 151.16 309.033C150.701 309.278 150.106 309.401 149.376 309.401ZM149.892 307.405C150.565 307.405 151.134 307.228 151.598 306.873C152.067 306.513 152.422 306.015 152.662 305.379C152.907 304.742 153.03 304.001 153.03 303.156C153.03 302.322 152.91 301.591 152.67 300.965C152.43 300.339 152.078 299.852 151.614 299.502C151.149 299.153 150.576 298.978 149.892 298.978C149.188 298.978 148.601 299.16 148.132 299.525C147.662 299.891 147.307 300.389 147.067 301.02C146.833 301.651 146.715 302.363 146.715 303.156C146.715 303.96 146.835 304.682 147.075 305.324C147.315 305.965 147.67 306.474 148.139 306.85C148.614 307.22 149.198 307.405 149.892 307.405ZM169.744 297.147V299.025H162.952V297.147H169.744ZM164.814 309.166V295.754C164.814 295.003 164.979 294.379 165.307 293.884C165.636 293.383 166.072 293.01 166.614 292.765C167.157 292.514 167.746 292.389 168.383 292.389C168.852 292.389 169.254 292.428 169.588 292.506C169.921 292.58 170.169 292.647 170.331 292.71L169.783 294.604C169.674 294.572 169.533 294.536 169.361 294.494C169.188 294.447 168.98 294.424 168.735 294.424C168.166 294.424 167.759 294.564 167.514 294.846C167.274 295.128 167.154 295.535 167.154 296.067V309.166H164.814ZM176.509 309.408C175.382 309.408 174.399 309.15 173.559 308.634C172.719 308.117 172.067 307.395 171.602 306.466C171.138 305.538 170.906 304.453 170.906 303.211C170.906 301.964 171.138 300.874 171.602 299.94C172.067 299.006 172.719 298.281 173.559 297.765C174.399 297.248 175.382 296.99 176.509 296.99C177.636 296.99 178.619 297.248 179.459 297.765C180.299 298.281 180.951 299.006 181.415 299.94C181.879 300.874 182.111 301.964 182.111 303.211C182.111 304.453 181.879 305.538 181.415 306.466C180.951 307.395 180.299 308.117 179.459 308.634C178.619 309.15 177.636 309.408 176.509 309.408ZM176.517 307.444C177.247 307.444 177.852 307.251 178.332 306.865C178.812 306.479 179.167 305.965 179.396 305.324C179.631 304.682 179.748 303.975 179.748 303.203C179.748 302.436 179.631 301.732 179.396 301.09C179.167 300.444 178.812 299.925 178.332 299.533C177.852 299.142 177.247 298.946 176.517 298.946C175.781 298.946 175.171 299.142 174.685 299.533C174.206 299.925 173.848 300.444 173.613 301.09C173.384 301.732 173.269 302.436 173.269 303.203C173.269 303.975 173.384 304.682 173.613 305.324C173.848 305.965 174.206 306.479 174.685 306.865C175.171 307.251 175.781 307.444 176.517 307.444ZM184.484 309.166V297.147H186.746V299.056H186.871C187.09 298.409 187.476 297.901 188.029 297.53C188.587 297.155 189.218 296.967 189.923 296.967C190.069 296.967 190.241 296.972 190.439 296.982C190.643 296.993 190.802 297.006 190.916 297.021V299.259C190.823 299.233 190.656 299.205 190.416 299.173C190.176 299.137 189.936 299.119 189.696 299.119C189.143 299.119 188.65 299.236 188.217 299.471C187.789 299.7 187.45 300.021 187.2 300.433C186.949 300.84 186.824 301.304 186.824 301.826V309.166H184.484ZM198.295 309.166V297.147H200.541V299.103H200.69C200.94 298.44 201.35 297.924 201.918 297.554C202.487 297.178 203.168 296.99 203.961 296.99C204.764 296.99 205.437 297.178 205.979 297.554C206.527 297.929 206.932 298.446 207.192 299.103H207.318C207.604 298.461 208.061 297.95 208.687 297.569C209.313 297.183 210.059 296.99 210.925 296.99C212.015 296.99 212.905 297.332 213.593 298.015C214.287 298.699 214.634 299.729 214.634 301.106V309.166H212.294V301.325C212.294 300.511 212.073 299.922 211.629 299.557C211.186 299.192 210.656 299.009 210.041 299.009C209.279 299.009 208.687 299.244 208.264 299.713C207.842 300.178 207.631 300.775 207.631 301.505V309.166H205.299V301.177C205.299 300.524 205.095 300 204.688 299.604C204.281 299.207 203.752 299.009 203.1 299.009C202.656 299.009 202.247 299.126 201.871 299.361C201.501 299.591 201.201 299.912 200.971 300.324C200.747 300.736 200.635 301.213 200.635 301.756V309.166H198.295ZM222.594 309.408C221.467 309.408 220.484 309.15 219.644 308.634C218.804 308.117 218.152 307.395 217.688 306.466C217.223 305.538 216.991 304.453 216.991 303.211C216.991 301.964 217.223 300.874 217.688 299.94C218.152 299.006 218.804 298.281 219.644 297.765C220.484 297.248 221.467 296.99 222.594 296.99C223.721 296.99 224.704 297.248 225.544 297.765C226.384 298.281 227.036 299.006 227.5 299.94C227.964 300.874 228.197 301.964 228.197 303.211C228.197 304.453 227.964 305.538 227.5 306.466C227.036 307.395 226.384 308.117 225.544 308.634C224.704 309.15 223.721 309.408 222.594 309.408ZM222.602 307.444C223.332 307.444 223.937 307.251 224.417 306.865C224.897 306.479 225.252 305.965 225.481 305.324C225.716 304.682 225.833 303.975 225.833 303.203C225.833 302.436 225.716 301.732 225.481 301.09C225.252 300.444 224.897 299.925 224.417 299.533C223.937 299.142 223.332 298.946 222.602 298.946C221.866 298.946 221.256 299.142 220.771 299.533C220.291 299.925 219.933 300.444 219.699 301.09C219.469 301.732 219.354 302.436 219.354 303.203C219.354 303.975 219.469 304.682 219.699 305.324C219.933 305.965 220.291 306.479 220.771 306.865C221.256 307.251 221.866 307.444 222.602 307.444ZM235.069 309.401C234.098 309.401 233.233 309.153 232.471 308.657C231.714 308.156 231.12 307.444 230.687 306.521C230.259 305.592 230.045 304.479 230.045 303.18C230.045 301.881 230.262 300.77 230.695 299.846C231.133 298.923 231.733 298.216 232.494 297.726C233.256 297.235 234.119 296.99 235.084 296.99C235.83 296.99 236.43 297.115 236.884 297.366C237.343 297.611 237.698 297.898 237.948 298.227C238.204 298.555 238.402 298.845 238.543 299.095H238.684V293.14H241.024V309.166H238.739V307.296H238.543C238.402 307.551 238.199 307.843 237.933 308.172C237.672 308.501 237.312 308.788 236.853 309.033C236.394 309.278 235.799 309.401 235.069 309.401ZM235.585 307.405C236.258 307.405 236.827 307.228 237.291 306.873C237.761 306.513 238.115 306.015 238.355 305.379C238.6 304.742 238.723 304.001 238.723 303.156C238.723 302.322 238.603 301.591 238.363 300.965C238.123 300.339 237.771 299.852 237.307 299.502C236.842 299.153 236.269 298.978 235.585 298.978C234.881 298.978 234.294 299.16 233.825 299.525C233.355 299.891 233 300.389 232.76 301.02C232.526 301.651 232.408 302.363 232.408 303.156C232.408 303.96 232.528 304.682 232.768 305.324C233.008 305.965 233.363 306.474 233.832 306.85C234.307 307.22 234.891 307.405 235.585 307.405ZM249.304 309.408C248.12 309.408 247.1 309.155 246.245 308.649C245.394 308.138 244.737 307.421 244.273 306.498C243.814 305.569 243.584 304.481 243.584 303.235C243.584 302.003 243.814 300.918 244.273 299.979C244.737 299.04 245.384 298.307 246.213 297.781C247.048 297.254 248.024 296.99 249.14 296.99C249.818 296.99 250.475 297.102 251.112 297.327C251.748 297.551 252.32 297.903 252.826 298.383C253.332 298.863 253.731 299.486 254.023 300.253C254.315 301.015 254.461 301.941 254.461 303.031V303.861H244.907V302.108H252.168C252.168 301.492 252.043 300.947 251.793 300.472C251.542 299.992 251.19 299.614 250.736 299.338C250.288 299.061 249.761 298.923 249.156 298.923C248.498 298.923 247.925 299.085 247.434 299.408C246.949 299.726 246.573 300.144 246.307 300.66C246.047 301.171 245.916 301.727 245.916 302.327V303.696C245.916 304.5 246.057 305.183 246.339 305.746C246.626 306.31 247.025 306.74 247.536 307.037C248.047 307.33 248.644 307.476 249.328 307.476C249.771 307.476 250.176 307.413 250.541 307.288C250.906 307.157 251.221 306.964 251.488 306.709C251.754 306.453 251.957 306.138 252.098 305.762L254.312 306.161C254.135 306.813 253.817 307.384 253.358 307.875C252.904 308.36 252.333 308.738 251.644 309.009C250.961 309.275 250.181 309.408 249.304 309.408ZM256.818 309.166V297.147H259.08V299.056H259.205C259.424 298.409 259.81 297.901 260.363 297.53C260.921 297.155 261.552 296.967 262.257 296.967C262.403 296.967 262.575 296.972 262.773 296.982C262.977 296.993 263.136 297.006 263.25 297.021V299.259C263.156 299.233 262.99 299.205 262.75 299.173C262.51 299.137 262.27 299.119 262.03 299.119C261.477 299.119 260.984 299.236 260.551 299.471C260.123 299.7 259.784 300.021 259.534 300.433C259.283 300.84 259.158 301.304 259.158 301.826V309.166H256.818ZM267.376 302.029V309.166H265.036V297.147H267.282V299.103H267.431C267.707 298.467 268.14 297.955 268.73 297.569C269.324 297.183 270.073 296.99 270.976 296.99C271.795 296.99 272.512 297.162 273.127 297.507C273.743 297.846 274.22 298.352 274.559 299.025C274.899 299.698 275.068 300.53 275.068 301.521V309.166H272.728V301.803C272.728 300.931 272.501 300.251 272.048 299.76C271.594 299.265 270.97 299.017 270.177 299.017C269.635 299.017 269.152 299.134 268.73 299.369C268.312 299.604 267.981 299.948 267.736 300.402C267.496 300.851 267.376 301.393 267.376 302.029ZM98.1261 329.081L96.0055 329.457C95.9169 329.185 95.776 328.927 95.583 328.682C95.3952 328.437 95.1396 328.236 94.8161 328.079C94.4927 327.923 94.0884 327.845 93.6033 327.845C92.9408 327.845 92.3878 327.993 91.9444 328.291C91.501 328.583 91.2792 328.961 91.2792 329.425C91.2792 329.827 91.4279 330.15 91.7253 330.396C92.0226 330.641 92.5026 330.842 93.1651 330.998L95.0744 331.436C96.1803 331.692 97.0045 332.086 97.5471 332.618C98.0896 333.15 98.3609 333.841 98.3609 334.692C98.3609 335.411 98.1522 336.053 97.7349 336.617C97.3228 337.175 96.7463 337.613 96.0055 337.931C95.27 338.249 94.4171 338.408 93.4468 338.408C92.1009 338.408 91.0028 338.122 90.1524 337.548C89.3021 336.969 88.7805 336.147 88.5874 335.083L90.8489 334.739C90.9897 335.328 91.2792 335.774 91.7174 336.077C92.1556 336.374 92.7269 336.523 93.4311 336.523C94.198 336.523 94.8109 336.364 95.27 336.045C95.7291 335.722 95.9586 335.328 95.9586 334.864C95.9586 334.488 95.8177 334.173 95.536 333.917C95.2596 333.661 94.8344 333.468 94.2606 333.338L92.2261 332.892C91.1045 332.636 90.275 332.229 89.7377 331.671C89.2056 331.113 88.9396 330.406 88.9396 329.551C88.9396 328.841 89.1378 328.22 89.5343 327.688C89.9307 327.156 90.4785 326.741 91.1775 326.444C91.8766 326.141 92.6773 325.99 93.5798 325.99C94.8787 325.99 95.9012 326.272 96.6472 326.835C97.3932 327.393 97.8862 328.142 98.1261 329.081ZM105.757 338.408C104.631 338.408 103.647 338.15 102.807 337.634C101.967 337.117 101.315 336.395 100.851 335.466C100.387 334.538 100.155 333.453 100.155 332.211C100.155 330.964 100.387 329.874 100.851 328.94C101.315 328.006 101.967 327.281 102.807 326.765C103.647 326.248 104.631 325.99 105.757 325.99C106.884 325.99 107.868 326.248 108.707 326.765C109.547 327.281 110.199 328.006 110.664 328.94C111.128 329.874 111.36 330.964 111.36 332.211C111.36 333.453 111.128 334.538 110.664 335.466C110.199 336.395 109.547 337.117 108.707 337.634C107.868 338.15 106.884 338.408 105.757 338.408ZM105.765 336.444C106.496 336.444 107.101 336.251 107.581 335.865C108.061 335.479 108.415 334.965 108.645 334.324C108.88 333.682 108.997 332.975 108.997 332.203C108.997 331.436 108.88 330.732 108.645 330.09C108.415 329.444 108.061 328.925 107.581 328.533C107.101 328.142 106.496 327.946 105.765 327.946C105.03 327.946 104.419 328.142 103.934 328.533C103.454 328.925 103.097 329.444 102.862 330.09C102.633 330.732 102.518 331.436 102.518 332.203C102.518 332.975 102.633 333.682 102.862 334.324C103.097 334.965 103.454 335.479 103.934 335.865C104.419 336.251 105.03 336.444 105.765 336.444ZM119.453 326.147V328.025H112.661V326.147H119.453ZM114.523 338.166V324.754C114.523 324.003 114.688 323.379 115.016 322.884C115.345 322.383 115.781 322.01 116.323 321.765C116.866 321.514 117.455 321.389 118.091 321.389C118.561 321.389 118.963 321.428 119.297 321.506C119.63 321.58 119.878 321.647 120.04 321.71L119.492 323.604C119.383 323.572 119.242 323.536 119.07 323.494C118.897 323.447 118.689 323.424 118.444 323.424C117.875 323.424 117.468 323.564 117.223 323.846C116.983 324.128 116.863 324.535 116.863 325.067V338.166H114.523ZM127.239 326.147V328.025H120.674V326.147H127.239ZM122.434 323.267H124.774V334.637C124.774 335.091 124.842 335.432 124.977 335.662C125.113 335.886 125.288 336.04 125.502 336.124C125.721 336.202 125.958 336.241 126.214 336.241C126.402 336.241 126.566 336.228 126.707 336.202C126.848 336.176 126.957 336.155 127.035 336.139L127.458 338.072C127.322 338.124 127.129 338.176 126.879 338.228C126.629 338.286 126.316 338.317 125.94 338.322C125.324 338.333 124.751 338.223 124.218 337.994C123.686 337.764 123.256 337.409 122.927 336.93C122.599 336.45 122.434 335.847 122.434 335.122V323.267ZM132.194 338.166L128.657 326.147H131.075L133.43 334.973H133.548L135.911 326.147H138.329L140.676 334.934H140.794L143.133 326.147H145.551L142.022 338.166H139.636L137.194 329.488H137.014L134.573 338.166H132.194ZM151.031 338.432C150.269 338.432 149.58 338.291 148.965 338.009C148.349 337.722 147.862 337.308 147.502 336.765C147.147 336.223 146.969 335.558 146.969 334.77C146.969 334.092 147.1 333.533 147.361 333.095C147.622 332.657 147.974 332.31 148.417 332.055C148.861 331.799 149.356 331.606 149.904 331.476C150.452 331.345 151.01 331.246 151.578 331.178C152.298 331.095 152.883 331.027 153.331 330.975C153.78 330.917 154.106 330.826 154.309 330.701C154.513 330.576 154.615 330.372 154.615 330.09V330.036C154.615 329.352 154.421 328.823 154.035 328.447C153.655 328.072 153.086 327.884 152.33 327.884C151.542 327.884 150.921 328.059 150.467 328.408C150.019 328.752 149.708 329.136 149.536 329.558L147.337 329.058C147.598 328.327 147.979 327.738 148.48 327.289C148.986 326.835 149.567 326.507 150.225 326.303C150.882 326.095 151.573 325.99 152.298 325.99C152.778 325.99 153.287 326.048 153.824 326.162C154.367 326.272 154.873 326.475 155.342 326.773C155.817 327.07 156.206 327.495 156.508 328.048C156.811 328.596 156.962 329.308 156.962 330.184V338.166H154.677V336.523H154.583C154.432 336.825 154.205 337.123 153.902 337.415C153.6 337.707 153.211 337.949 152.737 338.142C152.262 338.335 151.693 338.432 151.031 338.432ZM151.539 336.554C152.186 336.554 152.739 336.426 153.198 336.171C153.662 335.915 154.015 335.581 154.255 335.169C154.5 334.752 154.622 334.306 154.622 333.831V332.281C154.539 332.365 154.377 332.443 154.137 332.516C153.902 332.584 153.634 332.644 153.331 332.696C153.029 332.743 152.734 332.788 152.447 332.829C152.16 332.866 151.92 332.897 151.727 332.923C151.273 332.981 150.859 333.077 150.483 333.213C150.113 333.348 149.815 333.544 149.591 333.8C149.372 334.05 149.262 334.384 149.262 334.801C149.262 335.38 149.476 335.818 149.904 336.116C150.332 336.408 150.877 336.554 151.539 336.554ZM159.84 338.166V326.147H162.101V328.056H162.226C162.445 327.409 162.831 326.901 163.384 326.53C163.943 326.155 164.574 325.967 165.278 325.967C165.424 325.967 165.596 325.972 165.794 325.982C165.998 325.993 166.157 326.006 166.272 326.021V328.259C166.178 328.233 166.011 328.205 165.771 328.173C165.531 328.137 165.291 328.119 165.051 328.119C164.498 328.119 164.005 328.236 163.572 328.471C163.144 328.7 162.805 329.021 162.555 329.433C162.304 329.84 162.179 330.304 162.179 330.826V338.166H159.84ZM172.808 338.408C171.623 338.408 170.603 338.155 169.748 337.649C168.898 337.138 168.24 336.421 167.776 335.498C167.317 334.569 167.087 333.481 167.087 332.235C167.087 331.003 167.317 329.918 167.776 328.979C168.24 328.04 168.887 327.307 169.717 326.781C170.551 326.254 171.527 325.99 172.643 325.99C173.321 325.99 173.979 326.102 174.615 326.327C175.252 326.551 175.823 326.903 176.329 327.383C176.835 327.863 177.234 328.486 177.526 329.253C177.818 330.015 177.964 330.941 177.964 332.031V332.861H168.41V331.108H175.671C175.671 330.492 175.546 329.947 175.296 329.472C175.045 328.992 174.693 328.614 174.239 328.338C173.791 328.061 173.264 327.923 172.659 327.923C172.002 327.923 171.428 328.085 170.937 328.408C170.452 328.726 170.077 329.144 169.811 329.66C169.55 330.171 169.419 330.727 169.419 331.327V332.696C169.419 333.5 169.56 334.183 169.842 334.746C170.129 335.31 170.528 335.74 171.039 336.037C171.55 336.33 172.148 336.476 172.831 336.476C173.274 336.476 173.679 336.413 174.044 336.288C174.409 336.157 174.725 335.964 174.991 335.709C175.257 335.453 175.46 335.138 175.601 334.762L177.816 335.161C177.638 335.813 177.32 336.384 176.861 336.875C176.407 337.36 175.836 337.738 175.147 338.009C174.464 338.275 173.684 338.408 172.808 338.408ZM191.525 326.147V328.025H184.96V326.147H191.525ZM186.72 323.267H189.06V334.637C189.06 335.091 189.128 335.432 189.263 335.662C189.399 335.886 189.574 336.04 189.788 336.124C190.007 336.202 190.244 336.241 190.5 336.241C190.688 336.241 190.852 336.228 190.993 336.202C191.134 336.176 191.243 336.155 191.321 336.139L191.744 338.072C191.608 338.124 191.415 338.176 191.165 338.228C190.914 338.286 190.601 338.317 190.226 338.322C189.61 338.333 189.036 338.223 188.504 337.994C187.972 337.764 187.542 337.409 187.213 336.93C186.885 336.45 186.72 335.847 186.72 335.122V323.267ZM198.925 338.408C197.741 338.408 196.721 338.155 195.866 337.649C195.015 337.138 194.358 336.421 193.894 335.498C193.435 334.569 193.205 333.481 193.205 332.235C193.205 331.003 193.435 329.918 193.894 328.979C194.358 328.04 195.005 327.307 195.834 326.781C196.669 326.254 197.645 325.99 198.761 325.99C199.439 325.99 200.096 326.102 200.733 326.327C201.369 326.551 201.94 326.903 202.446 327.383C202.953 327.863 203.352 328.486 203.644 329.253C203.936 330.015 204.082 330.941 204.082 332.031V332.861H194.528V331.108H201.789C201.789 330.492 201.664 329.947 201.414 329.472C201.163 328.992 200.811 328.614 200.357 328.338C199.909 328.061 199.382 327.923 198.777 327.923C198.119 327.923 197.545 328.085 197.055 328.408C196.57 328.726 196.194 329.144 195.928 329.66C195.667 330.171 195.537 330.727 195.537 331.327V332.696C195.537 333.5 195.678 334.183 195.96 334.746C196.246 335.31 196.646 335.74 197.157 336.037C197.668 336.33 198.265 336.476 198.949 336.476C199.392 336.476 199.796 336.413 200.162 336.288C200.527 336.157 200.842 335.964 201.108 335.709C201.374 335.453 201.578 335.138 201.719 334.762L203.933 335.161C203.756 335.813 203.438 336.384 202.979 336.875C202.525 337.36 201.954 337.738 201.265 338.009C200.582 338.275 199.802 338.408 198.925 338.408ZM209.937 338.432C209.175 338.432 208.487 338.291 207.871 338.009C207.256 337.722 206.768 337.308 206.408 336.765C206.053 336.223 205.876 335.558 205.876 334.77C205.876 334.092 206.006 333.533 206.267 333.095C206.528 332.657 206.88 332.31 207.323 332.055C207.767 331.799 208.262 331.606 208.81 331.476C209.358 331.345 209.916 331.246 210.485 331.178C211.205 331.095 211.789 331.027 212.237 330.975C212.686 330.917 213.012 330.826 213.216 330.701C213.419 330.576 213.521 330.372 213.521 330.09V330.036C213.521 329.352 213.328 328.823 212.942 328.447C212.561 328.072 211.992 327.884 211.236 327.884C210.448 327.884 209.827 328.059 209.374 328.408C208.925 328.752 208.615 329.136 208.442 329.558L206.244 329.058C206.504 328.327 206.885 327.738 207.386 327.289C207.892 326.835 208.474 326.507 209.131 326.303C209.788 326.095 210.479 325.99 211.205 325.99C211.685 325.99 212.193 326.048 212.73 326.162C213.273 326.272 213.779 326.475 214.249 326.773C214.723 327.07 215.112 327.495 215.414 328.048C215.717 328.596 215.868 329.308 215.868 330.184V338.166H213.583V336.523H213.489C213.338 336.825 213.111 337.123 212.809 337.415C212.506 337.707 212.117 337.949 211.643 338.142C211.168 338.335 210.599 338.432 209.937 338.432ZM210.446 336.554C211.092 336.554 211.645 336.426 212.104 336.171C212.569 335.915 212.921 335.581 213.161 335.169C213.406 334.752 213.529 334.306 213.529 333.831V332.281C213.445 332.365 213.283 332.443 213.043 332.516C212.809 332.584 212.54 332.644 212.237 332.696C211.935 332.743 211.64 332.788 211.353 332.829C211.066 332.866 210.826 332.897 210.633 332.923C210.18 332.981 209.765 333.077 209.389 333.213C209.019 333.348 208.721 333.544 208.497 333.8C208.278 334.05 208.168 334.384 208.168 334.801C208.168 335.38 208.382 335.818 208.81 336.116C209.238 336.408 209.783 336.554 210.446 336.554ZM218.746 338.166V326.147H220.992V328.103H221.14C221.391 327.44 221.8 326.924 222.369 326.554C222.937 326.178 223.618 325.99 224.411 325.99C225.215 325.99 225.887 326.178 226.43 326.554C226.978 326.929 227.382 327.446 227.643 328.103H227.768C228.055 327.461 228.511 326.95 229.137 326.569C229.763 326.183 230.509 325.99 231.375 325.99C232.466 325.99 233.355 326.332 234.044 327.015C234.738 327.699 235.084 328.729 235.084 330.106V338.166H232.745V330.325C232.745 329.511 232.523 328.922 232.08 328.557C231.636 328.192 231.107 328.009 230.491 328.009C229.73 328.009 229.137 328.244 228.715 328.713C228.292 329.178 228.081 329.775 228.081 330.505V338.166H225.749V330.177C225.749 329.524 225.546 329 225.139 328.604C224.732 328.207 224.202 328.009 223.55 328.009C223.107 328.009 222.697 328.126 222.322 328.361C221.951 328.591 221.652 328.912 221.422 329.324C221.198 329.736 221.086 330.213 221.086 330.756V338.166H218.746ZM246.988 329.081L244.868 329.457C244.779 329.185 244.638 328.927 244.445 328.682C244.257 328.437 244.002 328.236 243.678 328.079C243.355 327.923 242.95 327.845 242.465 327.845C241.803 327.845 241.25 327.993 240.806 328.291C240.363 328.583 240.141 328.961 240.141 329.425C240.141 329.827 240.29 330.15 240.587 330.396C240.885 330.641 241.365 330.842 242.027 330.998L243.936 331.436C245.042 331.692 245.867 332.086 246.409 332.618C246.952 333.15 247.223 333.841 247.223 334.692C247.223 335.411 247.014 336.053 246.597 336.617C246.185 337.175 245.608 337.613 244.868 337.931C244.132 338.249 243.279 338.408 242.309 338.408C240.963 338.408 239.865 338.122 239.015 337.548C238.164 336.969 237.643 336.147 237.45 335.083L239.711 334.739C239.852 335.328 240.141 335.774 240.58 336.077C241.018 336.374 241.589 336.523 242.293 336.523C243.06 336.523 243.673 336.364 244.132 336.045C244.591 335.722 244.821 335.328 244.821 334.864C244.821 334.488 244.68 334.173 244.398 333.917C244.122 333.661 243.696 333.468 243.123 333.338L241.088 332.892C239.967 332.636 239.137 332.229 238.6 331.671C238.068 331.113 237.802 330.406 237.802 329.551C237.802 328.841 238 328.22 238.396 327.688C238.793 327.156 239.341 326.741 240.04 326.444C240.739 326.141 241.539 325.99 242.442 325.99C243.741 325.99 244.763 326.272 245.509 326.835C246.255 327.393 246.748 328.142 246.988 329.081Z" fill="#EEEFFC"/>
<path d="M62.1485 366.171H60.6226C60.5639 365.845 60.4547 365.558 60.2949 365.311C60.1352 365.063 59.9395 364.852 59.7081 364.68C59.4766 364.507 59.2174 364.376 58.9305 364.288C58.6468 364.2 58.3452 364.156 58.0257 364.156C57.4486 364.156 56.9318 364.301 56.4754 364.592C56.0222 364.882 55.6635 365.307 55.3994 365.868C55.1386 366.429 55.0082 367.114 55.0082 367.922C55.0082 368.737 55.1386 369.425 55.3994 369.986C55.6635 370.547 56.0238 370.971 56.4802 371.258C56.9367 371.544 57.4502 371.688 58.0208 371.688C58.3371 371.688 58.637 371.646 58.9207 371.561C59.2076 371.473 59.4668 371.344 59.6983 371.174C59.9298 371.005 60.1254 370.798 60.2852 370.553C60.4482 370.306 60.5607 370.022 60.6226 369.702L62.1485 369.707C62.067 370.2 61.9088 370.653 61.6741 371.067C61.4426 371.478 61.1443 371.833 60.7791 372.133C60.4172 372.43 60.0031 372.66 59.5369 372.823C59.0706 372.986 58.562 373.067 58.011 373.067C57.1437 373.067 56.371 372.862 55.6929 372.451C55.0147 372.037 54.48 371.445 54.0887 370.676C53.7007 369.906 53.5068 368.988 53.5068 367.922C53.5068 366.853 53.7024 365.935 54.0936 365.169C54.4849 364.399 55.0196 363.809 55.6977 363.398C56.3759 362.984 57.147 362.777 58.011 362.777C58.5425 362.777 59.038 362.854 59.4978 363.007C59.9607 363.157 60.3764 363.379 60.7449 363.672C61.1133 363.962 61.4181 364.318 61.6594 364.738C61.9007 365.156 62.0637 365.633 62.1485 366.171ZM67.0036 373.082C66.2994 373.082 65.6848 372.92 65.1599 372.598C64.635 372.275 64.2274 371.823 63.9372 371.243C63.647 370.663 63.502 369.984 63.502 369.208C63.502 368.429 63.647 367.748 63.9372 367.164C64.2274 366.581 64.635 366.127 65.1599 365.805C65.6848 365.482 66.2994 365.32 67.0036 365.32C67.7079 365.32 68.3225 365.482 68.8474 365.805C69.3723 366.127 69.7799 366.581 70.0701 367.164C70.3602 367.748 70.5053 368.429 70.5053 369.208C70.5053 369.984 70.3602 370.663 70.0701 371.243C69.7799 371.823 69.3723 372.275 68.8474 372.598C68.3225 372.92 67.7079 373.082 67.0036 373.082ZM67.0085 371.854C67.465 371.854 67.8432 371.734 68.1432 371.492C68.4431 371.251 68.6648 370.93 68.8083 370.529C68.955 370.128 69.0284 369.686 69.0284 369.204C69.0284 368.724 68.955 368.284 68.8083 367.883C68.6648 367.479 68.4431 367.154 68.1432 366.91C67.8432 366.665 67.465 366.543 67.0085 366.543C66.5488 366.543 66.1674 366.665 65.8641 366.91C65.5642 367.154 65.3408 367.479 65.1941 367.883C65.0507 368.284 64.9789 368.724 64.9789 369.204C64.9789 369.686 65.0507 370.128 65.1941 370.529C65.3408 370.93 65.5642 371.251 65.8641 371.492C66.1674 371.734 66.5488 371.854 67.0085 371.854ZM72.1376 372.93V365.418H73.5412V366.641H73.6341C73.7906 366.227 74.0466 365.904 74.4019 365.672C74.7573 365.438 75.1828 365.32 75.6784 365.32C76.1805 365.32 76.6011 365.438 76.9402 365.672C77.2825 365.907 77.5352 366.23 77.6982 366.641H77.7765C77.9558 366.24 78.2411 365.92 78.6323 365.682C79.0236 365.441 79.4898 365.32 80.031 365.32C80.7125 365.32 81.2684 365.534 81.6987 365.961C82.1324 366.388 82.3492 367.032 82.3492 367.893V372.93H80.8869V368.03C80.8869 367.521 80.7483 367.153 80.4712 366.924C80.1941 366.696 79.8631 366.582 79.4784 366.582C79.0024 366.582 78.6323 366.729 78.3682 367.022C78.1041 367.312 77.9721 367.686 77.9721 368.142V372.93H76.5147V367.937C76.5147 367.529 76.3875 367.202 76.1332 366.954C75.8789 366.706 75.548 366.582 75.1404 366.582C74.8633 366.582 74.6073 366.656 74.3726 366.802C74.1411 366.946 73.9536 367.146 73.8102 367.404C73.67 367.661 73.5999 367.96 73.5999 368.299V372.93H72.1376ZM87.5467 373.082C86.8066 373.082 86.1692 372.924 85.6345 372.607C85.103 372.288 84.6922 371.84 84.402 371.262C84.1151 370.682 83.9717 370.002 83.9717 369.223C83.9717 368.454 84.1151 367.775 84.402 367.189C84.6922 366.602 85.0965 366.144 85.6149 365.814C86.1366 365.485 86.7463 365.32 87.444 365.32C87.8679 365.32 88.2787 365.39 88.6764 365.531C89.0742 365.671 89.4312 365.891 89.7475 366.191C90.0637 366.491 90.3132 366.88 90.4958 367.36C90.6783 367.836 90.7696 368.415 90.7696 369.096V369.614H84.7982V368.519H89.3367C89.3367 368.134 89.2584 367.793 89.1019 367.497C88.9454 367.197 88.7253 366.96 88.4417 366.788C88.1613 366.615 87.832 366.528 87.4538 366.528C87.043 366.528 86.6843 366.629 86.3778 366.832C86.0746 367.03 85.8399 367.291 85.6736 367.614C85.5106 367.934 85.4291 368.281 85.4291 368.656V369.512C85.4291 370.014 85.5171 370.441 85.6932 370.793C85.8725 371.145 86.1219 371.414 86.4414 371.6C86.7609 371.783 87.1343 371.874 87.5614 371.874C87.8385 371.874 88.0912 371.835 88.3194 371.756C88.5477 371.675 88.7449 371.554 88.9112 371.395C89.0775 371.235 89.2046 371.038 89.2927 370.803L90.6767 371.052C90.5659 371.46 90.367 371.817 90.08 372.123C89.7964 372.426 89.4394 372.663 89.009 372.832C88.5819 372.999 88.0945 373.082 87.5467 373.082ZM98.0212 367.252L96.6958 367.487C96.6404 367.317 96.5524 367.156 96.4317 367.003C96.3144 366.85 96.1546 366.724 95.9525 366.626C95.7503 366.528 95.4976 366.479 95.1944 366.479C94.7803 366.479 94.4347 366.572 94.1576 366.758C93.8805 366.941 93.7419 367.177 93.7419 367.467C93.7419 367.718 93.8348 367.921 94.0207 368.074C94.2065 368.227 94.5065 368.353 94.9205 368.45L96.1139 368.724C96.8051 368.884 97.3202 369.13 97.6593 369.463C97.9984 369.795 98.1679 370.227 98.1679 370.759C98.1679 371.209 98.0375 371.61 97.7767 371.962C97.5191 372.311 97.1588 372.585 96.6958 372.783C96.2361 372.982 95.703 373.082 95.0966 373.082C94.2554 373.082 93.5691 372.902 93.0377 372.544C92.5062 372.182 92.1802 371.668 92.0595 371.003L93.4729 370.788C93.561 371.157 93.7419 371.435 94.0158 371.624C94.2897 371.81 94.6467 371.903 95.0868 371.903C95.5661 371.903 95.9492 371.804 96.2361 371.605C96.523 371.403 96.6665 371.157 96.6665 370.866C96.6665 370.632 96.5785 370.434 96.4024 370.275C96.2296 370.115 95.9639 369.994 95.6052 369.913L94.3337 369.634C93.6327 369.474 93.1143 369.22 92.7785 368.871C92.4459 368.522 92.2796 368.08 92.2796 367.546C92.2796 367.102 92.4035 366.714 92.6513 366.382C92.8991 366.049 93.2414 365.79 93.6783 365.604C94.1152 365.415 94.6157 365.32 95.1797 365.32C95.9916 365.32 96.6306 365.496 97.0969 365.849C97.5631 366.197 97.8712 366.665 98.0212 367.252ZM105.049 372.93L102.838 365.418H104.35L105.822 370.935H105.895L107.372 365.418H108.883L110.35 370.91H110.424L111.886 365.418H113.397L111.192 372.93H109.7L108.174 367.506H108.062L106.536 372.93H105.049ZM114.785 372.93V365.418H116.247V372.93H114.785ZM115.524 364.259C115.269 364.259 115.051 364.174 114.868 364.005C114.689 363.832 114.599 363.627 114.599 363.389C114.599 363.147 114.689 362.942 114.868 362.772C115.051 362.6 115.269 362.513 115.524 362.513C115.778 362.513 115.995 362.6 116.174 362.772C116.357 362.942 116.448 363.147 116.448 363.389C116.448 363.627 116.357 363.832 116.174 364.005C115.995 364.174 115.778 364.259 115.524 364.259ZM121.721 365.418V366.592H117.618V365.418H121.721ZM118.718 363.618H120.181V370.725C120.181 371.008 120.223 371.222 120.308 371.365C120.393 371.505 120.502 371.602 120.635 371.654C120.772 371.703 120.921 371.727 121.08 371.727C121.198 371.727 121.301 371.719 121.389 371.703C121.477 371.686 121.545 371.673 121.594 371.664L121.858 372.871C121.773 372.904 121.653 372.937 121.496 372.969C121.34 373.005 121.144 373.025 120.909 373.028C120.525 373.035 120.166 372.966 119.833 372.823C119.501 372.679 119.232 372.457 119.026 372.157C118.821 371.857 118.718 371.481 118.718 371.028V363.618ZM124.962 368.47V372.93H123.5V362.914H124.943V366.641H125.036C125.212 366.237 125.481 365.915 125.843 365.677C126.205 365.439 126.677 365.32 127.261 365.32C127.776 365.32 128.226 365.426 128.611 365.638C128.999 365.85 129.299 366.166 129.511 366.587C129.726 367.004 129.833 367.526 129.833 368.152V372.93H128.371V368.328C128.371 367.777 128.229 367.35 127.946 367.047C127.662 366.74 127.268 366.587 126.762 366.587C126.417 366.587 126.107 366.66 125.833 366.807C125.562 366.954 125.349 367.169 125.192 367.453C125.039 367.733 124.962 368.072 124.962 368.47ZM135.547 372.93V362.914H137.009V366.636H137.097C137.182 366.479 137.304 366.298 137.464 366.093C137.624 365.888 137.846 365.708 138.129 365.555C138.413 365.399 138.788 365.32 139.254 365.32C139.86 365.32 140.402 365.474 140.878 365.78C141.354 366.087 141.727 366.528 141.998 367.105C142.272 367.683 142.408 368.377 142.408 369.189C142.408 370.001 142.273 370.697 142.003 371.277C141.732 371.854 141.36 372.299 140.888 372.612C140.415 372.922 139.875 373.077 139.269 373.077C138.812 373.077 138.439 373 138.149 372.847C137.862 372.694 137.637 372.514 137.474 372.309C137.311 372.104 137.185 371.921 137.097 371.761H136.975V372.93H135.547ZM136.98 369.174C136.98 369.702 137.057 370.165 137.21 370.563C137.363 370.961 137.585 371.272 137.875 371.497C138.165 371.719 138.52 371.83 138.941 371.83C139.378 371.83 139.743 371.714 140.037 371.483C140.33 371.248 140.552 370.93 140.702 370.529C140.855 370.128 140.932 369.676 140.932 369.174C140.932 368.679 140.857 368.234 140.707 367.839C140.56 367.445 140.338 367.133 140.041 366.905C139.748 366.677 139.381 366.563 138.941 366.563C138.517 366.563 138.159 366.672 137.865 366.89C137.575 367.109 137.355 367.414 137.205 367.805C137.055 368.196 136.98 368.653 136.98 369.174ZM148.809 369.815V365.418H150.276V372.93H148.838V371.629H148.76C148.587 372.03 148.31 372.364 147.929 372.632C147.551 372.896 147.079 373.028 146.515 373.028C146.033 373.028 145.606 372.922 145.234 372.71C144.866 372.495 144.575 372.177 144.364 371.756C144.155 371.336 144.051 370.816 144.051 370.196V365.418H145.513V370.02C145.513 370.532 145.655 370.94 145.938 371.243C146.222 371.546 146.59 371.698 147.044 371.698C147.317 371.698 147.59 371.629 147.86 371.492C148.134 371.355 148.361 371.148 148.54 370.871C148.723 370.594 148.812 370.242 148.809 369.815ZM152.241 372.93V365.418H153.703V372.93H152.241ZM152.98 364.259C152.725 364.259 152.507 364.174 152.324 364.005C152.145 363.832 152.055 363.627 152.055 363.389C152.055 363.147 152.145 362.942 152.324 362.772C152.507 362.6 152.725 362.513 152.98 362.513C153.234 362.513 153.451 362.6 153.63 362.772C153.813 362.942 153.904 363.147 153.904 363.389C153.904 363.627 153.813 363.832 153.63 364.005C153.451 364.174 153.234 364.259 152.98 364.259ZM157.133 362.914V372.93H155.671V362.914H157.133ZM162.607 365.418V366.592H158.504V365.418H162.607ZM159.604 363.618H161.066V370.725C161.066 371.008 161.109 371.222 161.193 371.365C161.278 371.505 161.387 371.602 161.521 371.654C161.658 371.703 161.806 371.727 161.966 371.727C162.083 371.727 162.186 371.719 162.274 371.703C162.362 371.686 162.431 371.673 162.48 371.664L162.744 372.871C162.659 372.904 162.538 372.937 162.382 372.969C162.225 373.005 162.03 373.025 161.795 373.028C161.41 373.035 161.052 372.966 160.719 372.823C160.386 372.679 160.117 372.457 159.912 372.157C159.707 371.857 159.604 371.481 159.604 371.028V363.618ZM168.395 368.064V369.331H163.954V368.064H168.395ZM170.344 372.93V365.418H171.806V372.93H170.344ZM171.082 364.259C170.828 364.259 170.609 364.174 170.427 364.005C170.248 363.832 170.158 363.627 170.158 363.389C170.158 363.147 170.248 362.942 170.427 362.772C170.609 362.6 170.828 362.513 171.082 362.513C171.337 362.513 171.553 362.6 171.733 362.772C171.915 362.942 172.007 363.147 172.007 363.389C172.007 363.627 171.915 363.832 171.733 364.005C171.553 364.174 171.337 364.259 171.082 364.259ZM175.236 368.47V372.93H173.773V365.418H175.177V366.641H175.27C175.443 366.243 175.713 365.924 176.082 365.682C176.453 365.441 176.921 365.32 177.485 365.32C177.997 365.32 178.445 365.428 178.83 365.643C179.215 365.855 179.513 366.171 179.725 366.592C179.937 367.013 180.043 367.533 180.043 368.152V372.93H178.581V368.328C178.581 367.784 178.439 367.358 178.155 367.052C177.872 366.742 177.482 366.587 176.986 366.587C176.647 366.587 176.346 366.66 176.082 366.807C175.821 366.954 175.614 367.169 175.461 367.453C175.311 367.733 175.236 368.072 175.236 368.47ZM187.278 372.93L185.067 365.418H186.578L188.05 370.935H188.124L189.601 365.418H191.112L192.579 370.91H192.652L194.115 365.418H195.626L193.42 372.93H191.928L190.403 367.506H190.29L188.764 372.93H187.278ZM199.949 373.082C199.245 373.082 198.63 372.92 198.105 372.598C197.58 372.275 197.173 371.823 196.883 371.243C196.593 370.663 196.447 369.984 196.447 369.208C196.447 368.429 196.593 367.748 196.883 367.164C197.173 366.581 197.58 366.127 198.105 365.805C198.63 365.482 199.245 365.32 199.949 365.32C200.653 365.32 201.268 365.482 201.793 365.805C202.318 366.127 202.725 366.581 203.016 367.164C203.306 367.748 203.451 368.429 203.451 369.208C203.451 369.984 203.306 370.663 203.016 371.243C202.725 371.823 202.318 372.275 201.793 372.598C201.268 372.92 200.653 373.082 199.949 373.082ZM199.954 371.854C200.41 371.854 200.789 371.734 201.089 371.492C201.389 371.251 201.61 370.93 201.754 370.529C201.9 370.128 201.974 369.686 201.974 369.204C201.974 368.724 201.9 368.284 201.754 367.883C201.61 367.479 201.389 367.154 201.089 366.91C200.789 366.665 200.41 366.543 199.954 366.543C199.494 366.543 199.113 366.665 198.81 366.91C198.51 367.154 198.286 367.479 198.14 367.883C197.996 368.284 197.924 368.724 197.924 369.204C197.924 369.686 197.996 370.128 198.14 370.529C198.286 370.93 198.51 371.251 198.81 371.492C199.113 371.734 199.494 371.854 199.954 371.854ZM205.083 372.93V365.418H206.496V366.611H206.575C206.712 366.207 206.953 365.889 207.299 365.658C207.647 365.423 208.042 365.306 208.482 365.306C208.573 365.306 208.681 365.309 208.805 365.315C208.932 365.322 209.031 365.33 209.103 365.34V366.739C209.044 366.722 208.94 366.704 208.79 366.685C208.64 366.662 208.49 366.651 208.34 366.651C207.995 366.651 207.686 366.724 207.416 366.871C207.149 367.014 206.937 367.215 206.78 367.472C206.624 367.727 206.545 368.017 206.545 368.343V372.93H205.083ZM211.714 370.382L211.704 368.597H211.958L214.951 365.418H216.702L213.288 369.037H213.058L211.714 370.382ZM210.369 372.93V362.914H211.831V372.93H210.369ZM215.112 372.93L212.423 369.36L213.43 368.338L216.907 372.93H215.112ZM221.61 365.418V366.592H217.365V365.418H221.61ZM218.529 372.93V364.548C218.529 364.078 218.631 363.689 218.837 363.379C219.042 363.066 219.314 362.833 219.653 362.679C219.993 362.523 220.361 362.445 220.759 362.445C221.052 362.445 221.303 362.469 221.512 362.518C221.721 362.564 221.875 362.606 221.976 362.645L221.634 363.829C221.566 363.809 221.478 363.786 221.37 363.76C221.262 363.731 221.132 363.716 220.979 363.716C220.623 363.716 220.369 363.804 220.216 363.98C220.066 364.156 219.991 364.411 219.991 364.743V372.93H218.529ZM224.581 362.914V372.93H223.118V362.914H224.581ZM229.712 373.082C229.008 373.082 228.393 372.92 227.868 372.598C227.344 372.275 226.936 371.823 226.646 371.243C226.356 370.663 226.211 369.984 226.211 369.208C226.211 368.429 226.356 367.748 226.646 367.164C226.936 366.581 227.344 366.127 227.868 365.805C228.393 365.482 229.008 365.32 229.712 365.32C230.416 365.32 231.031 365.482 231.556 365.805C232.081 366.127 232.488 366.581 232.779 367.164C233.069 367.748 233.214 368.429 233.214 369.208C233.214 369.984 233.069 370.663 232.779 371.243C232.488 371.823 232.081 372.275 231.556 372.598C231.031 372.92 230.416 373.082 229.712 373.082ZM229.717 371.854C230.174 371.854 230.552 371.734 230.852 371.492C231.152 371.251 231.373 370.93 231.517 370.529C231.664 370.128 231.737 369.686 231.737 369.204C231.737 368.724 231.664 368.284 231.517 367.883C231.373 367.479 231.152 367.154 230.852 366.91C230.552 366.665 230.174 366.543 229.717 366.543C229.257 366.543 228.876 366.665 228.573 366.91C228.273 367.154 228.049 367.479 227.903 367.883C227.759 368.284 227.688 368.724 227.688 369.204C227.688 369.686 227.759 370.128 227.903 370.529C228.049 370.93 228.273 371.251 228.573 371.492C228.876 371.734 229.257 371.854 229.717 371.854ZM236.246 372.93L234.036 365.418H235.547L237.019 370.935H237.092L238.569 365.418H240.08L241.548 370.91H241.621L243.083 365.418H244.594L242.389 372.93H240.897L239.371 367.506H239.259L237.733 372.93H236.246ZM251.611 367.252L250.286 367.487C250.23 367.317 250.142 367.156 250.022 367.003C249.904 366.85 249.745 366.724 249.542 366.626C249.34 366.528 249.088 366.479 248.784 366.479C248.37 366.479 248.025 366.572 247.748 366.758C247.47 366.941 247.332 367.177 247.332 367.467C247.332 367.718 247.425 367.921 247.611 368.074C247.797 368.227 248.096 368.353 248.511 368.45L249.704 368.724C250.395 368.884 250.91 369.13 251.249 369.463C251.588 369.795 251.758 370.227 251.758 370.759C251.758 371.209 251.628 371.61 251.367 371.962C251.109 372.311 250.749 372.585 250.286 372.783C249.826 372.982 249.293 373.082 248.687 373.082C247.845 373.082 247.159 372.902 246.628 372.544C246.096 372.182 245.77 371.668 245.65 371.003L247.063 370.788C247.151 371.157 247.332 371.435 247.606 371.624C247.88 371.81 248.237 371.903 248.677 371.903C249.156 371.903 249.539 371.804 249.826 371.605C250.113 371.403 250.257 371.157 250.257 370.866C250.257 370.632 250.168 370.434 249.992 370.275C249.82 370.115 249.554 369.994 249.195 369.913L247.924 369.634C247.223 369.474 246.704 369.22 246.368 368.871C246.036 368.522 245.87 368.08 245.87 367.546C245.87 367.102 245.994 366.714 246.241 366.382C246.489 366.049 246.831 365.79 247.268 365.604C247.705 365.415 248.206 365.32 248.77 365.32C249.582 365.32 250.221 365.496 250.687 365.849C251.153 366.197 251.461 366.665 251.611 367.252ZM260.517 365.418V366.592H256.414V365.418H260.517ZM257.514 363.618H258.976V370.725C258.976 371.008 259.019 371.222 259.104 371.365C259.188 371.505 259.298 371.602 259.431 371.654C259.568 371.703 259.717 371.727 259.876 371.727C259.994 371.727 260.096 371.719 260.184 371.703C260.272 371.686 260.341 371.673 260.39 371.664L260.654 372.871C260.569 372.904 260.449 372.937 260.292 372.969C260.136 373.005 259.94 373.025 259.705 373.028C259.32 373.035 258.962 372.966 258.629 372.823C258.297 372.679 258.028 372.457 257.822 372.157C257.617 371.857 257.514 371.481 257.514 371.028V363.618ZM263.758 368.47V372.93H262.296V362.914H263.739V366.641H263.832C264.008 366.237 264.277 365.915 264.639 365.677C265.001 365.439 265.473 365.32 266.057 365.32C266.572 365.32 267.022 365.426 267.407 365.638C267.795 365.85 268.095 366.166 268.307 366.587C268.522 367.004 268.629 367.526 268.629 368.152V372.93H267.167V368.328C267.167 367.777 267.025 367.35 266.742 367.047C266.458 366.74 266.063 366.587 265.558 366.587C265.212 366.587 264.903 366.66 264.629 366.807C264.358 366.954 264.145 367.169 263.988 367.453C263.835 367.733 263.758 368.072 263.758 368.47ZM272.767 373.096C272.291 373.096 271.86 373.008 271.476 372.832C271.091 372.653 270.786 372.394 270.561 372.055C270.339 371.716 270.229 371.3 270.229 370.808C270.229 370.384 270.31 370.035 270.473 369.761C270.636 369.487 270.856 369.27 271.133 369.111C271.41 368.951 271.72 368.83 272.063 368.749C272.405 368.667 272.754 368.605 273.109 368.563C273.559 368.511 273.924 368.468 274.205 368.436C274.485 368.4 274.689 368.343 274.816 368.265C274.943 368.186 275.007 368.059 275.007 367.883V367.849C275.007 367.422 274.886 367.091 274.645 366.856C274.407 366.621 274.051 366.504 273.579 366.504C273.086 366.504 272.698 366.613 272.415 366.832C272.134 367.047 271.94 367.286 271.833 367.55L270.458 367.237C270.621 366.781 270.859 366.413 271.172 366.132C271.489 365.849 271.852 365.643 272.263 365.516C272.674 365.386 273.106 365.32 273.559 365.32C273.859 365.32 274.177 365.356 274.513 365.428C274.852 365.496 275.168 365.624 275.462 365.809C275.758 365.995 276.001 366.261 276.19 366.607C276.379 366.949 276.474 367.394 276.474 367.942V372.93H275.046V371.903H274.987C274.893 372.092 274.751 372.278 274.562 372.461C274.373 372.643 274.13 372.795 273.833 372.916C273.536 373.036 273.181 373.096 272.767 373.096ZM273.085 371.923C273.489 371.923 273.835 371.843 274.122 371.683C274.412 371.523 274.632 371.315 274.782 371.057C274.935 370.796 275.012 370.517 275.012 370.221V369.252C274.959 369.305 274.858 369.354 274.708 369.399C274.562 369.442 274.394 369.479 274.205 369.512C274.016 369.541 273.831 369.569 273.652 369.595C273.473 369.618 273.323 369.637 273.202 369.653C272.918 369.689 272.659 369.75 272.424 369.834C272.193 369.919 272.007 370.041 271.867 370.201C271.73 370.358 271.662 370.566 271.662 370.827C271.662 371.189 271.795 371.463 272.063 371.649C272.33 371.831 272.671 371.923 273.085 371.923ZM281.928 365.418V366.592H277.825V365.418H281.928ZM278.925 363.618H280.388V370.725C280.388 371.008 280.43 371.222 280.515 371.365C280.6 371.505 280.709 371.602 280.842 371.654C280.979 371.703 281.128 371.727 281.288 371.727C281.405 371.727 281.508 371.719 281.596 371.703C281.684 371.686 281.752 371.673 281.801 371.664L282.065 372.871C281.98 372.904 281.86 372.937 281.703 372.969C281.547 373.005 281.351 373.025 281.116 373.028C280.732 373.035 280.373 372.966 280.04 372.823C279.708 372.679 279.439 372.457 279.233 372.157C279.028 371.857 278.925 371.481 278.925 371.028V363.618ZM89.6656 392.082C88.9385 392.082 88.3125 391.917 87.7876 391.588C87.2659 391.255 86.8649 390.797 86.5845 390.214C86.3041 389.63 86.1639 388.962 86.1639 388.208C86.1639 387.445 86.3073 386.772 86.5943 386.189C86.8812 385.602 87.2855 385.144 87.8071 384.814C88.3288 384.485 88.9434 384.32 89.6509 384.32C90.2215 384.32 90.7301 384.426 91.1768 384.638C91.6234 384.847 91.9837 385.14 92.2576 385.519C92.5347 385.897 92.6994 386.339 92.7515 386.844H91.3284C91.2501 386.492 91.0708 386.189 90.7904 385.934C90.5133 385.68 90.1416 385.553 89.6753 385.553C89.2678 385.553 88.9108 385.66 88.6043 385.876C88.3011 386.088 88.0647 386.391 87.8952 386.785C87.7256 387.176 87.6408 387.639 87.6408 388.174C87.6408 388.722 87.724 389.195 87.8903 389.592C88.0566 389.99 88.2913 390.298 88.5945 390.517C88.901 390.735 89.2613 390.844 89.6753 390.844C89.9525 390.844 90.2035 390.794 90.4285 390.693C90.6567 390.589 90.8475 390.44 91.0007 390.248C91.1572 390.055 91.2664 389.824 91.3284 389.553H92.7515C92.6994 390.039 92.5413 390.473 92.2772 390.854C92.0131 391.236 91.6593 391.536 91.2159 391.754C90.7757 391.973 90.259 392.082 89.6656 392.082ZM94.3153 391.93V384.418H95.7287V385.611H95.807C95.9439 385.207 96.1852 384.889 96.5308 384.658C96.8796 384.423 97.2742 384.306 97.7143 384.306C97.8056 384.306 97.9132 384.309 98.0371 384.315C98.1642 384.322 98.2637 384.33 98.3354 384.34V385.739C98.2767 385.722 98.1724 385.704 98.0224 385.685C97.8724 385.662 97.7225 385.651 97.5725 385.651C97.2269 385.651 96.9188 385.724 96.6482 385.871C96.3808 386.014 96.1689 386.215 96.0124 386.472C95.8559 386.727 95.7776 387.017 95.7776 387.343V391.93H94.3153ZM102.569 392.082C101.829 392.082 101.192 391.924 100.657 391.607C100.126 391.288 99.715 390.84 99.4248 390.262C99.1379 389.682 98.9944 389.002 98.9944 388.223C98.9944 387.454 99.1379 386.775 99.4248 386.189C99.715 385.602 100.119 385.144 100.638 384.814C101.159 384.485 101.769 384.32 102.467 384.32C102.891 384.32 103.301 384.39 103.699 384.531C104.097 384.671 104.454 384.891 104.77 385.191C105.087 385.491 105.336 385.88 105.519 386.36C105.701 386.836 105.792 387.415 105.792 388.096V388.614H99.8209V387.519H104.359C104.359 387.134 104.281 386.793 104.125 386.497C103.968 386.197 103.748 385.96 103.464 385.788C103.184 385.615 102.855 385.528 102.477 385.528C102.066 385.528 101.707 385.629 101.401 385.832C101.097 386.03 100.863 386.291 100.696 386.614C100.533 386.934 100.452 387.281 100.452 387.656V388.512C100.452 389.014 100.54 389.441 100.716 389.793C100.895 390.145 101.145 390.414 101.464 390.6C101.784 390.783 102.157 390.874 102.584 390.874C102.861 390.874 103.114 390.835 103.342 390.756C103.57 390.675 103.768 390.554 103.934 390.395C104.1 390.235 104.227 390.038 104.315 389.803L105.699 390.052C105.589 390.46 105.39 390.817 105.103 391.123C104.819 391.426 104.462 391.663 104.032 391.832C103.605 391.999 103.117 392.082 102.569 392.082ZM109.601 392.096C109.125 392.096 108.695 392.008 108.31 391.832C107.925 391.653 107.62 391.394 107.395 391.055C107.174 390.716 107.063 390.3 107.063 389.808C107.063 389.384 107.144 389.035 107.307 388.761C107.47 388.487 107.69 388.27 107.967 388.111C108.245 387.951 108.554 387.83 108.897 387.749C109.239 387.667 109.588 387.605 109.943 387.563C110.393 387.511 110.758 387.468 111.039 387.436C111.319 387.4 111.523 387.343 111.65 387.265C111.777 387.186 111.841 387.059 111.841 386.883V386.849C111.841 386.422 111.72 386.091 111.479 385.856C111.241 385.621 110.886 385.504 110.413 385.504C109.92 385.504 109.532 385.613 109.249 385.832C108.968 386.047 108.774 386.286 108.667 386.55L107.293 386.237C107.456 385.781 107.694 385.413 108.007 385.132C108.323 384.849 108.686 384.643 109.097 384.516C109.508 384.386 109.94 384.32 110.393 384.32C110.693 384.32 111.011 384.356 111.347 384.428C111.686 384.496 112.002 384.624 112.296 384.809C112.592 384.995 112.835 385.261 113.024 385.607C113.214 385.949 113.308 386.394 113.308 386.942V391.93H111.88V390.903H111.821C111.727 391.092 111.585 391.278 111.396 391.461C111.207 391.643 110.964 391.795 110.667 391.916C110.37 392.036 110.015 392.096 109.601 392.096ZM109.919 390.923C110.323 390.923 110.669 390.843 110.956 390.683C111.246 390.523 111.466 390.315 111.616 390.057C111.769 389.796 111.846 389.517 111.846 389.221V388.252C111.794 388.305 111.693 388.354 111.543 388.399C111.396 388.442 111.228 388.479 111.039 388.512C110.85 388.541 110.665 388.569 110.486 388.595C110.307 388.618 110.157 388.637 110.036 388.653C109.753 388.689 109.493 388.75 109.259 388.834C109.027 388.919 108.841 389.041 108.701 389.201C108.564 389.358 108.496 389.566 108.496 389.827C108.496 390.189 108.629 390.463 108.897 390.649C109.164 390.831 109.505 390.923 109.919 390.923ZM118.762 384.418V385.592H114.659V384.418H118.762ZM115.759 382.618H117.222V389.725C117.222 390.008 117.264 390.222 117.349 390.365C117.434 390.505 117.543 390.602 117.677 390.654C117.814 390.703 117.962 390.727 118.122 390.727C118.239 390.727 118.342 390.719 118.43 390.703C118.518 390.686 118.586 390.673 118.635 390.664L118.899 391.871C118.814 391.904 118.694 391.937 118.537 391.969C118.381 392.005 118.185 392.025 117.95 392.028C117.566 392.035 117.207 391.966 116.875 391.823C116.542 391.679 116.273 391.457 116.068 391.157C115.862 390.857 115.759 390.481 115.759 390.028V382.618ZM123.537 392.082C122.797 392.082 122.159 391.924 121.625 391.607C121.093 391.288 120.682 390.84 120.392 390.262C120.105 389.682 119.962 389.002 119.962 388.223C119.962 387.454 120.105 386.775 120.392 386.189C120.682 385.602 121.087 385.144 121.605 384.814C122.127 384.485 122.736 384.32 123.434 384.32C123.858 384.32 124.269 384.39 124.667 384.531C125.064 384.671 125.421 384.891 125.738 385.191C126.054 385.491 126.303 385.88 126.486 386.36C126.668 386.836 126.76 387.415 126.76 388.096V388.614H120.788V387.519H125.327C125.327 387.134 125.249 386.793 125.092 386.497C124.936 386.197 124.715 385.96 124.432 385.788C124.151 385.615 123.822 385.528 123.444 385.528C123.033 385.528 122.674 385.629 122.368 385.832C122.065 386.03 121.83 386.291 121.664 386.614C121.501 386.934 121.419 387.281 121.419 387.656V388.512C121.419 389.014 121.507 389.441 121.683 389.793C121.863 390.145 122.112 390.414 122.432 390.6C122.751 390.783 123.124 390.874 123.551 390.874C123.829 390.874 124.081 390.835 124.31 390.756C124.538 390.675 124.735 390.554 124.901 390.395C125.068 390.235 125.195 390.038 125.283 389.803L126.667 390.052C126.556 390.46 126.357 390.817 126.07 391.123C125.786 391.426 125.429 391.663 124.999 391.832C124.572 391.999 124.085 392.082 123.537 392.082ZM135.602 384.418V385.592H131.357V384.418H135.602ZM132.521 391.93V383.548C132.521 383.078 132.624 382.689 132.829 382.379C133.034 382.066 133.307 381.833 133.646 381.679C133.985 381.523 134.353 381.445 134.751 381.445C135.044 381.445 135.295 381.469 135.504 381.518C135.713 381.564 135.868 381.606 135.969 381.645L135.626 382.829C135.558 382.809 135.47 382.786 135.362 382.76C135.255 382.731 135.124 382.716 134.971 382.716C134.616 382.716 134.361 382.804 134.208 382.98C134.058 383.156 133.983 383.411 133.983 383.743V391.93H132.521ZM139.979 392.082C139.275 392.082 138.66 391.92 138.135 391.598C137.61 391.275 137.203 390.823 136.913 390.243C136.622 389.663 136.477 388.984 136.477 388.208C136.477 387.429 136.622 386.748 136.913 386.164C137.203 385.581 137.61 385.127 138.135 384.805C138.66 384.482 139.275 384.32 139.979 384.32C140.683 384.32 141.298 384.482 141.823 384.805C142.348 385.127 142.755 385.581 143.045 386.164C143.336 386.748 143.481 387.429 143.481 388.208C143.481 388.984 143.336 389.663 143.045 390.243C142.755 390.823 142.348 391.275 141.823 391.598C141.298 391.92 140.683 392.082 139.979 392.082ZM139.984 390.854C140.44 390.854 140.819 390.734 141.119 390.492C141.419 390.251 141.64 389.93 141.784 389.529C141.93 389.128 142.004 388.686 142.004 388.204C142.004 387.724 141.93 387.284 141.784 386.883C141.64 386.479 141.419 386.154 141.119 385.91C140.819 385.665 140.44 385.543 139.984 385.543C139.524 385.543 139.143 385.665 138.84 385.91C138.54 386.154 138.316 386.479 138.17 386.883C138.026 387.284 137.954 387.724 137.954 388.204C137.954 388.686 138.026 389.128 138.17 389.529C138.316 389.93 138.54 390.251 138.84 390.492C139.143 390.734 139.524 390.854 139.984 390.854ZM148.277 392.082C147.55 392.082 146.924 391.917 146.399 391.588C145.878 391.255 145.477 390.797 145.196 390.214C144.916 389.63 144.776 388.962 144.776 388.208C144.776 387.445 144.919 386.772 145.206 386.189C145.493 385.602 145.897 385.144 146.419 384.814C146.94 384.485 147.555 384.32 148.263 384.32C148.833 384.32 149.342 384.426 149.788 384.638C150.235 384.847 150.595 385.14 150.869 385.519C151.146 385.897 151.311 386.339 151.363 386.844H149.94C149.862 386.492 149.682 386.189 149.402 385.934C149.125 385.68 148.753 385.553 148.287 385.553C147.879 385.553 147.522 385.66 147.216 385.876C146.913 386.088 146.676 386.391 146.507 386.785C146.337 387.176 146.253 387.639 146.253 388.174C146.253 388.722 146.336 389.195 146.502 389.592C146.668 389.99 146.903 390.298 147.206 390.517C147.513 390.735 147.873 390.844 148.287 390.844C148.564 390.844 148.815 390.794 149.04 390.693C149.268 390.589 149.459 390.44 149.612 390.248C149.769 390.055 149.878 389.824 149.94 389.553H151.363C151.311 390.039 151.153 390.473 150.889 390.854C150.625 391.236 150.271 391.536 149.828 391.754C149.387 391.973 148.871 392.082 148.277 392.082ZM157.686 388.815V384.418H159.153V391.93H157.715V390.629H157.637C157.464 391.03 157.187 391.364 156.805 391.632C156.427 391.896 155.956 392.028 155.392 392.028C154.909 392.028 154.482 391.922 154.111 391.71C153.742 391.495 153.452 391.177 153.24 390.756C153.031 390.336 152.927 389.816 152.927 389.196V384.418H154.389V389.02C154.389 389.532 154.531 389.94 154.815 390.243C155.098 390.546 155.467 390.698 155.92 390.698C156.194 390.698 156.466 390.629 156.737 390.492C157.011 390.355 157.237 390.148 157.417 389.871C157.599 389.594 157.689 389.242 157.686 388.815ZM166.747 386.252L165.421 386.487C165.366 386.317 165.278 386.156 165.157 386.003C165.04 385.85 164.88 385.724 164.678 385.626C164.476 385.528 164.223 385.479 163.92 385.479C163.506 385.479 163.16 385.572 162.883 385.758C162.606 385.941 162.467 386.177 162.467 386.467C162.467 386.718 162.56 386.921 162.746 387.074C162.932 387.227 163.232 387.353 163.646 387.45L164.839 387.724C165.531 387.884 166.046 388.13 166.385 388.463C166.724 388.795 166.893 389.227 166.893 389.759C166.893 390.209 166.763 390.61 166.502 390.962C166.245 391.311 165.884 391.585 165.421 391.783C164.962 391.982 164.429 392.082 163.822 392.082C162.981 392.082 162.295 391.902 161.763 391.544C161.232 391.182 160.906 390.668 160.785 390.003L162.198 389.788C162.286 390.157 162.467 390.435 162.741 390.624C163.015 390.81 163.372 390.903 163.812 390.903C164.292 390.903 164.675 390.804 164.962 390.605C165.249 390.403 165.392 390.157 165.392 389.866C165.392 389.632 165.304 389.434 165.128 389.275C164.955 389.115 164.689 388.994 164.331 388.913L163.059 388.634C162.358 388.474 161.84 388.22 161.504 387.871C161.171 387.522 161.005 387.08 161.005 386.546C161.005 386.102 161.129 385.714 161.377 385.382C161.625 385.049 161.967 384.79 162.404 384.604C162.841 384.415 163.341 384.32 163.905 384.32C164.717 384.32 165.356 384.496 165.822 384.849C166.289 385.197 166.597 385.665 166.747 386.252ZM174.332 392.096C173.856 392.096 173.426 392.008 173.041 391.832C172.656 391.653 172.351 391.394 172.126 391.055C171.905 390.716 171.794 390.3 171.794 389.808C171.794 389.384 171.875 389.035 172.038 388.761C172.201 388.487 172.421 388.27 172.699 388.111C172.976 387.951 173.285 387.83 173.628 387.749C173.97 387.667 174.319 387.605 174.674 387.563C175.124 387.511 175.489 387.468 175.77 387.436C176.05 387.4 176.254 387.343 176.381 387.265C176.508 387.186 176.572 387.059 176.572 386.883V386.849C176.572 386.422 176.451 386.091 176.21 385.856C175.972 385.621 175.617 385.504 175.144 385.504C174.652 385.504 174.264 385.613 173.98 385.832C173.7 386.047 173.506 386.286 173.398 386.55L172.024 386.237C172.187 385.781 172.425 385.413 172.738 385.132C173.054 384.849 173.417 384.643 173.828 384.516C174.239 384.386 174.671 384.32 175.124 384.32C175.424 384.32 175.742 384.356 176.078 384.428C176.417 384.496 176.733 384.624 177.027 384.809C177.323 384.995 177.566 385.261 177.755 385.607C177.945 385.949 178.039 386.394 178.039 386.942V391.93H176.611V390.903H176.552C176.458 391.092 176.316 391.278 176.127 391.461C175.938 391.643 175.695 391.795 175.398 391.916C175.101 392.036 174.746 392.096 174.332 392.096ZM174.65 390.923C175.054 390.923 175.4 390.843 175.687 390.683C175.977 390.523 176.197 390.315 176.347 390.057C176.5 389.796 176.577 389.517 176.577 389.221V388.252C176.525 388.305 176.424 388.354 176.274 388.399C176.127 388.442 175.959 388.479 175.77 388.512C175.581 388.541 175.397 388.569 175.217 388.595C175.038 388.618 174.888 388.637 174.767 388.653C174.484 388.689 174.224 388.75 173.99 388.834C173.758 388.919 173.572 389.041 173.432 389.201C173.295 389.358 173.227 389.566 173.227 389.827C173.227 390.189 173.36 390.463 173.628 390.649C173.895 390.831 174.236 390.923 174.65 390.923ZM181.449 387.47V391.93H179.987V384.418H181.39V385.641H181.483C181.656 385.243 181.927 384.924 182.295 384.682C182.667 384.441 183.135 384.32 183.699 384.32C184.211 384.32 184.659 384.428 185.044 384.643C185.428 384.855 185.727 385.171 185.939 385.592C186.151 386.013 186.257 386.533 186.257 387.152V391.93H184.794V387.328C184.794 386.784 184.652 386.358 184.369 386.052C184.085 385.742 183.696 385.587 183.2 385.587C182.861 385.587 182.559 385.66 182.295 385.807C182.034 385.954 181.827 386.169 181.674 386.453C181.524 386.733 181.449 387.072 181.449 387.47ZM191.03 392.077C190.423 392.077 189.882 391.922 189.406 391.612C188.933 391.299 188.562 390.854 188.291 390.277C188.024 389.697 187.89 389.001 187.89 388.189C187.89 387.377 188.025 386.683 188.296 386.105C188.57 385.528 188.945 385.087 189.421 384.78C189.897 384.474 190.436 384.32 191.04 384.32C191.506 384.32 191.881 384.399 192.164 384.555C192.451 384.708 192.673 384.888 192.83 385.093C192.989 385.298 193.113 385.479 193.201 385.636H193.289V381.914H194.752V391.93H193.324V390.761H193.201C193.113 390.921 192.986 391.104 192.82 391.309C192.657 391.514 192.432 391.694 192.145 391.847C191.858 392 191.486 392.077 191.03 392.077ZM191.353 390.83C191.773 390.83 192.129 390.719 192.419 390.497C192.712 390.272 192.934 389.961 193.084 389.563C193.237 389.165 193.314 388.702 193.314 388.174C193.314 387.653 193.239 387.196 193.089 386.805C192.939 386.414 192.719 386.109 192.429 385.89C192.138 385.672 191.78 385.563 191.353 385.563C190.912 385.563 190.546 385.677 190.252 385.905C189.959 386.133 189.737 386.445 189.587 386.839C189.44 387.234 189.367 387.679 189.367 388.174C189.367 388.676 189.442 389.128 189.592 389.529C189.742 389.93 189.964 390.248 190.257 390.483C190.554 390.714 190.919 390.83 191.353 390.83ZM200.483 391.93V384.418H201.897V385.611H201.975C202.112 385.207 202.353 384.889 202.699 384.658C203.048 384.423 203.442 384.306 203.882 384.306C203.974 384.306 204.081 384.309 204.205 384.315C204.332 384.322 204.432 384.33 204.504 384.34V385.739C204.445 385.722 204.34 385.704 204.191 385.685C204.041 385.662 203.891 385.651 203.741 385.651C203.395 385.651 203.087 385.724 202.816 385.871C202.549 386.014 202.337 386.215 202.18 386.472C202.024 386.727 201.946 387.017 201.946 387.343V391.93H200.483ZM208.664 392.082C207.96 392.082 207.345 391.92 206.82 391.598C206.296 391.275 205.888 390.823 205.598 390.243C205.308 389.663 205.163 388.984 205.163 388.208C205.163 387.429 205.308 386.748 205.598 386.164C205.888 385.581 206.296 385.127 206.82 384.805C207.345 384.482 207.96 384.32 208.664 384.32C209.368 384.32 209.983 384.482 210.508 384.805C211.033 385.127 211.44 385.581 211.731 386.164C212.021 386.748 212.166 387.429 212.166 388.208C212.166 388.984 212.021 389.663 211.731 390.243C211.44 390.823 211.033 391.275 210.508 391.598C209.983 391.92 209.368 392.082 208.664 392.082ZM208.669 390.854C209.126 390.854 209.504 390.734 209.804 390.492C210.104 390.251 210.325 389.93 210.469 389.529C210.616 389.128 210.689 388.686 210.689 388.204C210.689 387.724 210.616 387.284 210.469 386.883C210.325 386.479 210.104 386.154 209.804 385.91C209.504 385.665 209.126 385.543 208.669 385.543C208.209 385.543 207.828 385.665 207.525 385.91C207.225 386.154 207.001 386.479 206.855 386.883C206.711 387.284 206.639 387.724 206.639 388.204C206.639 388.686 206.711 389.128 206.855 389.529C207.001 389.93 207.225 390.251 207.525 390.492C207.828 390.734 208.209 390.854 208.669 390.854ZM218.557 388.815V384.418H220.024V391.93H218.586V390.629H218.508C218.335 391.03 218.058 391.364 217.676 391.632C217.298 391.896 216.827 392.028 216.263 392.028C215.78 392.028 215.353 391.922 214.982 391.71C214.613 391.495 214.323 391.177 214.111 390.756C213.902 390.336 213.798 389.816 213.798 389.196V384.418H215.26V389.02C215.26 389.532 215.402 389.94 215.686 390.243C215.97 390.546 216.338 390.698 216.791 390.698C217.065 390.698 217.337 390.629 217.608 390.492C217.882 390.355 218.108 390.148 218.288 389.871C218.47 389.594 218.56 389.242 218.557 388.815ZM225.495 384.418V385.592H221.392V384.418H225.495ZM222.492 382.618H223.955V389.725C223.955 390.008 223.997 390.222 224.082 390.365C224.167 390.505 224.276 390.602 224.41 390.654C224.546 390.703 224.695 390.727 224.855 390.727C224.972 390.727 225.075 390.719 225.163 390.703C225.251 390.686 225.319 390.673 225.368 390.664L225.632 391.871C225.547 391.904 225.427 391.937 225.27 391.969C225.114 392.005 224.918 392.025 224.683 392.028C224.299 392.035 223.94 391.966 223.607 391.823C223.275 391.679 223.006 391.457 222.801 391.157C222.595 390.857 222.492 390.481 222.492 390.028V382.618ZM227.113 391.93V384.418H228.575V391.93H227.113ZM227.851 383.259C227.597 383.259 227.379 383.174 227.196 383.005C227.017 382.832 226.927 382.627 226.927 382.389C226.927 382.147 227.017 381.942 227.196 381.772C227.379 381.6 227.597 381.513 227.851 381.513C228.106 381.513 228.322 381.6 228.502 381.772C228.684 381.942 228.776 382.147 228.776 382.389C228.776 382.627 228.684 382.832 228.502 383.005C228.322 383.174 228.106 383.259 227.851 383.259ZM232.005 387.47V391.93H230.542V384.418H231.946V385.641H232.039C232.212 385.243 232.482 384.924 232.851 384.682C233.222 384.441 233.69 384.32 234.254 384.32C234.766 384.32 235.215 384.428 235.599 384.643C235.984 384.855 236.282 385.171 236.494 385.592C236.706 386.013 236.812 386.533 236.812 387.152V391.93H235.35V387.328C235.35 386.784 235.208 386.358 234.924 386.052C234.641 385.742 234.251 385.587 233.756 385.587C233.416 385.587 233.115 385.66 232.851 385.807C232.59 385.954 232.383 386.169 232.23 386.453C232.08 386.733 232.005 387.072 232.005 387.47ZM242.011 392.082C241.271 392.082 240.633 391.924 240.099 391.607C239.567 391.288 239.156 390.84 238.866 390.262C238.579 389.682 238.436 389.002 238.436 388.223C238.436 387.454 238.579 386.775 238.866 386.189C239.156 385.602 239.561 385.144 240.079 384.814C240.601 384.485 241.21 384.32 241.908 384.32C242.332 384.32 242.743 384.39 243.141 384.531C243.538 384.671 243.895 384.891 244.212 385.191C244.528 385.491 244.777 385.88 244.96 386.36C245.143 386.836 245.234 387.415 245.234 388.096V388.614H239.262V387.519H243.801C243.801 387.134 243.723 386.793 243.566 386.497C243.41 386.197 243.19 385.96 242.906 385.788C242.626 385.615 242.296 385.528 241.918 385.528C241.507 385.528 241.149 385.629 240.842 385.832C240.539 386.03 240.304 386.291 240.138 386.614C239.975 386.934 239.893 387.281 239.893 387.656V388.512C239.893 389.014 239.981 389.441 240.157 389.793C240.337 390.145 240.586 390.414 240.906 390.6C241.225 390.783 241.598 390.874 242.026 390.874C242.303 390.874 242.555 390.835 242.784 390.756C243.012 390.675 243.209 390.554 243.375 390.395C243.542 390.235 243.669 390.038 243.757 389.803L245.141 390.052C245.03 390.46 244.831 390.817 244.544 391.123C244.261 391.426 243.904 391.663 243.473 391.832C243.046 391.999 242.559 392.082 242.011 392.082ZM247.82 392.023C247.552 392.023 247.323 391.929 247.13 391.739C246.938 391.547 246.842 391.316 246.842 391.045C246.842 390.778 246.938 390.549 247.13 390.36C247.323 390.168 247.552 390.072 247.82 390.072C248.087 390.072 248.317 390.168 248.509 390.36C248.702 390.549 248.798 390.778 248.798 391.045C248.798 391.224 248.752 391.389 248.661 391.539C248.573 391.686 248.456 391.803 248.309 391.891C248.162 391.979 247.999 392.023 247.82 392.023Z" fill="#B4BCD0"/>
<mask id="mask0_36_1469" style="mask-type:alpha" maskUnits="userSpaceOnUse" x="0" y="0" width="334" height="442">
<rect x="0.958984" y="0.838379" width="332.97" height="440.704" fill="black"/>
</mask>
<g mask="url(#mask0_36_1469)">
<rect x="1.4446" y="1.324" width="331.999" height="439.733" rx="17.877" fill="url(#paint1_linear_36_1469)" fill-opacity="0.13" stroke="url(#paint2_linear_36_1469)" stroke-width="0.971238"/>
</g>
<path d="M196.171 70.184C190.623 70.1862 185.302 72.3913 181.379 76.3147C177.455 80.238 175.25 85.5585 175.248 91.1068C175.252 94.9002 176.286 98.6212 178.241 101.872C179.905 104.639 181.403 107.802 182.103 111.006C182.805 114.214 182.713 117.495 181.152 120.457L178.982 124.573C176.414 129.447 170.715 131.458 165.373 131.447C157.785 131.447 150.508 134.461 145.143 139.826C139.778 145.191 136.764 152.468 136.764 160.055C136.787 163.764 134.89 167.525 131.294 168.841L124.929 171.171C118.128 173.661 110.75 170.515 104.688 167.019C104.564 166.948 104.439 166.877 104.313 166.808C100.737 164.829 96.7173 163.791 92.6304 163.788C86.2248 163.79 80.082 166.335 75.5518 170.864C71.0215 175.393 68.4744 181.535 68.47 187.94L196.171 70.184ZM196.171 70.184C201.719 70.184 207.041 72.3871 210.966 76.309C214.891 80.2309 217.098 85.5507 217.102 91.0992M196.171 70.184L217.588 91.0988M196.172 112.03C193.501 112.027 190.781 113.341 189.712 115.909L186.348 123.987C183.367 131.145 186.33 139.17 190.112 145.68C190.312 146.024 190.505 146.374 190.691 146.727C192.854 150.837 193.984 155.412 193.984 160.056C193.981 161.52 193.866 162.974 193.643 164.407C192.434 172.173 193.057 181.355 199.357 186.459C204.94 190.982 212.796 190.579 219.378 188.169C223.226 186.759 227.318 186.021 231.476 186.018C240.825 186.019 249.791 189.732 256.402 196.343C263.013 202.954 266.727 211.92 266.727 221.269C266.724 230.617 263.01 239.581 256.399 246.19C249.788 252.799 240.823 256.512 231.476 256.512C226.846 256.513 222.261 255.602 217.983 253.831C213.705 252.06 209.818 249.464 206.544 246.19C203.27 242.917 200.673 239.03 198.901 234.753C197.129 230.476 196.217 225.891 196.217 221.261C196.217 218.483 196.545 215.73 197.185 213.057C198.947 205.702 198.484 197.153 192.868 191.806C187.225 186.433 178.561 186.526 171.158 188.062C169.269 188.454 167.334 188.656 165.382 188.658C160.018 188.655 154.763 187.144 150.217 184.298C149.384 183.777 148.581 183.214 147.81 182.613C141.931 178.031 133.932 174.572 126.89 177.665L121.351 180.098C118.301 181.438 116.782 184.728 116.799 187.941C116.799 194.35 114.254 200.495 109.723 205.027C105.193 209.56 99.0472 212.107 92.6388 212.109C86.2289 212.109 80.0814 209.563 75.5489 205.03C71.0164 200.498 68.47 194.35 68.47 187.94L196.171 112.516M196.172 112.03L196.171 112.516M196.172 112.03C196.171 112.03 196.171 112.03 196.171 112.03V112.516M196.172 112.03C201.723 112.03 207.046 109.825 210.972 105.9C214.897 101.974 217.102 96.6504 217.102 91.0992M196.171 112.516C201.851 112.516 207.299 110.259 211.315 106.243C215.332 102.226 217.588 96.779 217.588 91.0988M217.102 91.0992L217.588 91.0988M217.102 91.0992C217.102 91.0991 217.102 91.0989 217.102 91.0988H217.588" fill="url(#paint3_linear_36_1469)" fill-opacity="0.13" stroke="url(#paint4_linear_36_1469)" stroke-width="0.971238"/>
</g>
<defs>
<linearGradient id="paint0_linear_36_1469" x1="167.444" y1="0.838379" x2="167.444" y2="441.542" gradientUnits="userSpaceOnUse">
<stop stop-color="white" stop-opacity="0"/>
<stop offset="1" stop-color="white" stop-opacity="0.05"/>
</linearGradient>
<linearGradient id="paint1_linear_36_1469" x1="322.393" y1="9.24652" x2="-77.3457" y2="114.379" gradientUnits="userSpaceOnUse">
<stop stop-color="white"/>
<stop offset="1" stop-color="white" stop-opacity="0.38"/>
</linearGradient>
<linearGradient id="paint2_linear_36_1469" x1="4.23625" y1="438.063" x2="454.966" y2="318.173" gradientUnits="userSpaceOnUse">
<stop stop-color="white"/>
<stop offset="1" stop-color="white" stop-opacity="0"/>
</linearGradient>
<linearGradient id="paint3_linear_36_1469" x1="260.31" y1="73.2719" x2="35.42" y2="156.542" gradientUnits="userSpaceOnUse">
<stop stop-color="white"/>
<stop offset="1" stop-color="white" stop-opacity="0.38"/>
</linearGradient>
<linearGradient id="paint4_linear_36_1469" x1="69.9453" y1="255.519" x2="323.2" y2="160.681" gradientUnits="userSpaceOnUse">
<stop stop-color="white"/>
<stop offset="1" stop-color="white" stop-opacity="0"/>
</linearGradient>
<clipPath id="clip0_36_1469">
<rect x="0.958984" y="0.838379" width="332.97" height="440.704" rx="44.0704" fill="white"/>
</clipPath>
</defs>
</svg>
