<svg width="33" height="33" viewBox="0 0 33 33" fill="none" xmlns="http://www.w3.org/2000/svg">
<g clip-path="url(#clip0_36_881)">
<path d="M13.9698 14.8124C12.4022 14.186 11.1024 13.0322 10.2944 11.5499C9.4865 10.0677 9.22113 8.35 9.54408 6.69307C9.86704 5.03613 10.7581 3.54384 12.0636 2.47354C13.369 1.40324 15.007 0.822033 16.6951 0.830162C18.3832 0.838291 20.0156 1.43524 21.3106 2.51807C22.6057 3.60089 23.4823 5.1017 23.7893 6.76166C24.0963 8.42163 23.8144 10.1367 22.9922 11.6111C22.1701 13.0855 20.8592 14.2267 19.2856 14.838" stroke="white" stroke-width="1.5"/>
<path d="M13.5859 14.8301H5.59412L16.6602 30.7652L27.7263 14.8301H18.7345L18.2684 14.9233C16.8767 15.2016 15.4437 15.2016 14.052 14.9233L13.5859 14.8301Z" stroke="white" stroke-width="1.5"/>
</g>
<defs>
<clipPath id="clip0_36_881">
<rect width="32" height="32" fill="white" transform="translate(0.660156 0.0800781)"/>
</clipPath>
</defs>
</svg>
