<svg width="34" height="10" viewBox="0 0 34 10" fill="none" xmlns="http://www.w3.org/2000/svg">
<path d="M3.15455 3.86225C2.37028 3.86225 1.98552 4.55466 1.98552 5.47923V7.79615H0.879578V2.90693H1.96607V4.17535H1.98489C2.21713 3.39541 2.67941 2.76512 3.39243 2.76512C3.89425 2.76512 4.10577 2.94081 4.10577 2.94081L3.60678 3.94789C3.60678 3.94789 3.44767 3.86225 3.15455 3.86225ZM16.5225 4.53364V7.79521H15.4455V4.93082C15.4455 4.10821 15.1881 3.67275 14.5303 3.67275C13.8493 3.67275 13.5198 4.22367 13.5198 5.28032V7.79521H12.4521V4.93051C12.4521 4.1399 12.1979 3.67244 11.5467 3.67244C10.8036 3.67244 10.5174 4.325 10.5174 5.28001V7.79521H9.43088V2.90693H10.5174V4.01409H10.5271C10.6966 3.24764 11.1582 2.77484 11.9378 2.77484C12.7107 2.77484 13.2144 3.19117 13.4056 3.92907C13.5876 3.21878 14.0718 2.77453 14.8162 2.77453C15.855 2.77453 16.5229 3.4271 16.5229 4.53332L16.5225 4.53364ZM6.27906 2.76512C5.27951 2.76512 4.62517 3.23572 4.32703 4.08468L5.24718 4.42006C5.41508 3.90774 5.765 3.61596 6.29852 3.61596C6.89919 3.61596 7.25194 3.88107 7.25194 4.28735C7.25194 4.70337 6.97106 4.79027 6.33681 4.89286C5.63131 5.00675 3.95325 5.04408 3.95325 6.46247C3.95325 7.29324 4.64682 7.91851 5.68843 7.91851C6.47144 7.91851 7.00464 7.59788 7.25132 7.00115H7.26104V7.79521H8.33843V4.78839C8.3378 3.4729 7.67719 2.76512 6.27906 2.76512ZM7.28019 5.4946C7.28019 6.51957 6.77366 7.1781 5.9646 7.1781C5.39249 7.1781 5.04947 6.85621 5.04947 6.39251C5.04947 5.95767 5.40222 5.65555 6.07884 5.53131C6.77115 5.40393 7.11982 5.24644 7.27987 4.86933V5.49429L7.28019 5.4946ZM20.3548 2.77453C19.5306 2.77453 18.9864 3.2285 18.7533 3.91025V2.90693H17.609V9.67762H18.7435V6.79252H18.753C19.0056 7.53105 19.5313 7.93734 20.3548 7.93734C21.6603 7.93734 22.5949 6.85935 22.5949 5.33648C22.5943 3.82428 21.6603 2.77453 20.3548 2.77453ZM20.0732 7.0297C19.1688 7.0297 18.6673 6.37243 18.6673 5.35123C18.6673 4.33002 19.2284 3.67275 20.0732 3.67275C20.9175 3.67275 21.4792 4.36202 21.4792 5.35123C21.4792 6.34106 20.9181 7.0297 20.0732 7.0297ZM33.832 7.77325V7.804L29.4044 7.80557V7.77357C30.0431 7.41215 30.4837 7.04414 30.8801 6.65981H32.6981L33.832 7.77325ZM32.7348 1.99616L31.6125 0.893066H31.5802C31.5802 0.893066 31.5991 2.94865 29.7148 4.81788C27.871 6.64758 25.7028 6.65197 25.7028 6.65197V6.68397L26.8461 7.80619C26.8461 7.80619 28.9826 7.82721 30.87 5.97211C32.7508 4.12359 32.7348 1.99616 32.7348 1.99616Z" fill="#EEEFFC"/>
</svg>
