<svg width="161" height="49" viewBox="0 0 161 49" fill="none" xmlns="http://www.w3.org/2000/svg">
<path d="M79.8996 18.2919C75.9672 18.2919 73.1316 20.8919 73.1316 24.7924C73.1316 28.6919 76.3227 31.2919 80.2552 31.2919C82.6312 31.2919 84.7263 30.339 86.0223 28.7319L83.297 27.1355C82.577 27.9337 81.4836 28.3995 80.2552 28.3995C78.5494 28.3995 77.0996 27.4964 76.5618 26.0528H86.5423C86.6205 25.6475 86.6667 25.2288 86.6667 24.7879C86.6667 20.8919 83.8312 18.2919 79.8996 18.2919ZM76.5298 23.5275C76.9743 22.0875 78.193 21.1808 79.8961 21.1808C81.6018 21.1808 82.8205 22.0875 83.2614 23.5275H76.5298ZM118.253 18.2919C114.32 18.2919 111.485 20.8919 111.485 24.7924C111.485 28.6919 114.677 31.2919 118.609 31.2919C120.984 31.2919 123.078 30.339 124.375 28.7319L121.651 27.1355C120.931 27.9337 119.837 28.3995 118.609 28.3995C116.902 28.3995 115.453 27.4964 114.915 26.0528H124.895C124.973 25.6475 125.02 25.2288 125.02 24.7879C125.02 20.8919 122.185 18.2919 118.253 18.2919ZM114.886 23.5275C115.332 22.0875 116.55 21.1808 118.253 21.1808C119.958 21.1808 121.177 22.0875 121.619 23.5275H114.886ZM100.985 24.7915C100.985 26.9586 102.381 28.403 104.547 28.403C106.014 28.403 107.115 27.7275 107.681 26.6262L110.417 28.2262C109.284 30.1399 107.161 31.2919 104.547 31.2919C100.611 31.2919 97.7796 28.6919 97.7796 24.7915C97.7796 20.8919 100.614 18.2919 104.547 18.2919C107.161 18.2919 109.28 19.4439 110.417 21.3586L107.681 22.9577C107.115 21.8555 106.014 21.1808 104.547 21.1808C102.385 21.1808 100.985 22.6244 100.985 24.7915ZM130.363 14.3204V30.9311H127.157V14.3186H130.363V14.3204ZM42.825 12.5142L55.9858 35.6253H29.6641L42.825 12.5142ZM75.7281 14.3195L65.8587 31.6528L55.9894 14.3195H59.6898L65.8587 25.1533L72.0276 14.3195H75.7281ZM96.7112 18.6528V22.1524C96.3416 22.0385 95.9575 21.9786 95.5707 21.9746C93.5014 21.9746 92.009 23.4199 92.009 25.5862V30.9311H88.8036V18.6528H92.009V21.9755C92.009 20.1408 94.1147 18.6528 96.7112 18.6528Z" fill="#EEEFFC"/>
</svg>
