<svg width="614" height="186" viewBox="0 0 614 186" fill="none" xmlns="http://www.w3.org/2000/svg">
<path d="M-7.49694e-06 114.974L7.44555 120.893L14.891 114.974L25.3146 114.974L40.7018 120.893L54.1036 119.413L61.549 114.974L77.9291 110.535L90.8344 103.137L112.674 79.4614L126.076 79.4614L135.507 91.299L144.938 79.4614L160.325 86.12L175.216 72.8028L189.611 86.12L201.523 119.413L207.48 129.031L223.363 136.43L230.809 136.43L248.181 120.893L255.74 107.57L261.583 91.299L275.977 86.12L293.463 65.3973L314.197 69.104L329.585 79.4614L341.497 86.12L349.439 103.137L358.87 136.43L372.272 145.308L382.199 153.446L390.637 157.886L402.55 157.886L421.412 166.764L436.799 151.967L448.215 136.43L468.07 119.413L480.975 96.4779L489.413 96.4779L502.815 96.4779L523.166 86.1201L536.071 86.1201L546.495 86.1201L555.926 86.1201L569.327 81.6821L585.707 83.9017L610.412 101.654L614 145.308L614 58L-1.11901e-05 58L-7.49694e-06 114.974Z" fill="black"/>
<rect width="614" height="58" fill="black"/>
</svg>
