<svg width="96" height="18" viewBox="0 0 96 18" fill="none" xmlns="http://www.w3.org/2000/svg">
<g clip-path="url(#clip0_36_751)">
<path fill-rule="evenodd" clip-rule="evenodd" d="M10.6667 13.0132L9.3501 11.6798C8.85 12.1465 8.3445 12.5161 7.83318 12.7884C7.32228 13.0604 6.71106 13.1965 6.00006 13.1965C5.44442 13.1965 4.9306 13.0883 4.45838 12.8716C3.98617 12.6548 3.57782 12.3578 3.23333 11.9798C2.88883 11.6021 2.62237 11.1605 2.43326 10.655C2.24437 10.1495 2.15015 9.60762 2.15015 9.03024C2.15015 8.45238 2.24437 7.9134 2.43326 7.4133C2.62237 6.9135 2.88883 6.47748 3.23333 6.10512C3.57782 5.73302 3.98617 5.43869 4.45838 5.22193C4.9306 5.0054 5.44442 4.89702 6.00006 4.89702C6.66654 4.89702 7.26108 5.03036 7.78326 5.29703C8.30562 5.56348 8.80008 5.91357 9.26646 6.34686L10.5832 4.83047C10.3055 4.5638 10.0112 4.31938 9.69996 4.097C9.38898 3.87485 9.0501 3.68306 8.68338 3.52206C8.3166 3.36084 7.91388 3.23605 7.47492 3.14724C7.03602 3.05819 6.54984 3.01367 6.01668 3.01367C5.12781 3.01367 4.31672 3.17219 3.58344 3.48878C2.84993 3.80537 2.21671 4.23866 1.68334 4.78865C1.14995 5.33863 0.736206 5.98013 0.441634 6.71358C0.147061 7.44684 0 8.2302 0 9.06348C0 9.9078 0.149984 10.6966 0.449954 11.4301C0.749922 12.1631 1.1639 12.7992 1.69165 13.3381C2.21941 13.8769 2.84431 14.3018 3.56657 14.6131C4.28884 14.9242 5.07789 15.0796 5.93327 15.0796C6.4779 15.0796 6.97506 15.0324 7.425 14.938C7.875 14.8435 8.28894 14.7048 8.6667 14.5216C9.04452 14.3381 9.39732 14.1213 9.72516 13.8715C10.0528 13.6214 10.3667 13.3352 10.6667 13.0132Z" fill="white" fill-opacity="0.82"/>
<path fill-rule="evenodd" clip-rule="evenodd" d="M37.1122 6.31751C37.1122 5.92942 37.278 5.59964 37.6096 5.32819C37.941 5.0563 38.4053 4.92058 39.002 4.92058C39.5325 4.92058 40.0573 5.02332 40.5766 5.22837C41.0962 5.43341 41.6211 5.72998 42.1513 6.11783L43.2454 4.57151C42.6489 4.0948 42.0106 3.73182 41.331 3.48259C40.6511 3.23313 39.886 3.1084 39.0351 3.1084C38.4606 3.1084 37.9301 3.18871 37.4466 3.34956C36.9604 3.51018 36.5462 3.74013 36.2007 4.03939C35.8554 4.33888 35.5845 4.69624 35.3857 5.11194C35.1896 5.52763 35.0901 5.99043 35.0901 6.50033C35.0901 7.04345 35.1757 7.50359 35.347 7.88045C35.5183 8.25737 35.7697 8.57879 36.0958 8.84489C36.4216 9.11093 36.8278 9.33257 37.3084 9.51005C37.7919 9.68747 38.3418 9.84791 38.9633 9.99215C39.505 10.1252 39.9439 10.2526 40.2839 10.3744C40.6209 10.4965 40.8862 10.6268 41.0823 10.7652C41.2755 10.9039 41.4084 11.0561 41.4802 11.2224C41.5519 11.3888 41.5877 11.5771 41.5877 11.7877C41.5877 12.2425 41.4028 12.6028 41.0326 12.8686C40.6623 13.1348 40.1622 13.2677 39.5325 13.2677C38.8032 13.2677 38.151 13.1373 37.5765 12.8769C37.0017 12.6164 36.4328 12.2425 35.869 11.7545L34.6426 13.2179C35.3388 13.8496 36.0958 14.318 36.9134 14.6229C37.7313 14.9278 38.5876 15.0801 39.4826 15.0801C40.0905 15.0801 40.6486 15.0025 41.157 14.8474C41.6624 14.692 42.099 14.4647 42.4581 14.1655C42.82 13.8662 43.1018 13.5005 43.3062 13.0682C43.5079 12.6359 43.6101 12.1426 43.6101 11.5883C43.6101 11.1006 43.53 10.6766 43.3697 10.3163C43.2093 9.95603 42.9718 9.64037 42.6625 9.36851C42.353 9.09701 41.9608 8.86685 41.4911 8.67845C41.0217 8.49023 40.48 8.31839 39.8722 8.16311C39.3169 8.03009 38.8611 7.90247 38.4993 7.78061C38.1401 7.65881 37.8583 7.52579 37.651 7.38155C37.4466 7.23749 37.3059 7.08227 37.2283 6.91607C37.1511 6.74957 37.1122 6.55013 37.1122 6.31751Z" fill="white" fill-opacity="0.82"/>
<path fill-rule="evenodd" clip-rule="evenodd" d="M59.8028 6.48175V14.7967H61.828V3.20215H59.6531L56.117 8.68477L52.5809 3.20215H50.4062V14.7967H52.4315V6.51481L56.0671 11.9478H56.1337L59.8028 6.48175Z" fill="white" fill-opacity="0.82"/>
<path fill-rule="evenodd" clip-rule="evenodd" d="M78.8458 9.06354C78.8458 9.63012 78.7486 10.1662 78.5548 10.6718C78.3604 11.1773 78.0916 11.616 77.7478 11.9881C77.404 12.3603 76.9907 12.6548 76.5083 12.8716C76.0259 13.0883 75.4967 13.1965 74.9201 13.1965C74.3429 13.1965 73.8107 13.0854 73.3229 12.8633C72.8351 12.6409 72.4163 12.3409 72.0671 11.9634C71.7179 11.5855 71.4461 11.1439 71.2517 10.6384C71.0579 10.1329 70.9607 9.59664 70.9607 9.03024C70.9607 8.46336 71.0579 7.92732 71.2517 7.42188C71.4461 6.9162 71.7149 6.47748 72.0587 6.10518C72.4025 5.73302 72.8153 5.43869 73.2977 5.22194C73.7801 5.00541 74.3099 4.89703 74.8865 4.89703C75.4631 4.89703 75.9959 5.0081 76.4837 5.23048C76.9715 5.45264 77.3903 5.75258 77.7395 6.13032C78.0887 6.50784 78.3604 6.94968 78.5548 7.45518C78.7486 7.96062 78.8458 8.4969 78.8458 9.06354ZM80.9915 9.03024C80.9915 8.20794 80.8421 7.43022 80.5427 6.69672C80.2433 5.96372 79.8275 5.32469 79.2953 4.78032C78.7625 4.23574 78.1252 3.80537 77.3818 3.48878C76.6384 3.17219 75.8183 3.01367 74.9201 3.01367C74.0213 3.01367 73.2011 3.17489 72.4577 3.4971C71.7149 3.81932 71.0717 4.2553 70.5281 4.80528C69.9845 5.35527 69.5633 5.99699 69.2639 6.73026C68.9645 7.46346 68.8145 8.24124 68.8145 9.06348C68.8145 9.88554 68.9645 10.6631 69.2639 11.3966C69.5633 12.13 69.9791 12.7688 70.5113 13.3132C71.0435 13.8575 71.6813 14.2882 72.4247 14.6047C73.1675 14.9213 73.9883 15.0796 74.8865 15.0796C75.7847 15.0796 76.6054 14.9184 77.3482 14.5964C78.0916 14.2742 78.7349 13.8382 79.2785 13.288C79.8221 12.7382 80.2433 12.0965 80.5427 11.3633C80.8421 10.63 80.9915 9.8523 80.9915 9.03024Z" fill="white" fill-opacity="0.82"/>
<path fill-rule="evenodd" clip-rule="evenodd" d="M89.5028 6.31751C89.5028 5.92942 89.6684 5.59964 90.0002 5.32819C90.332 5.0563 90.7958 4.92058 91.3928 4.92058C91.9232 4.92058 92.4482 5.02332 92.9672 5.22837C93.4868 5.43341 94.0118 5.72998 94.5422 6.11783L95.636 4.57151C95.0396 4.0948 94.4012 3.73182 93.7214 3.48259C93.0422 3.23313 92.2766 3.1084 91.4258 3.1084C90.851 3.1084 90.3206 3.18871 89.837 3.34956C89.351 3.51018 88.937 3.74013 88.5914 4.03939C88.2458 4.33888 87.9752 4.69624 87.776 5.11194C87.5804 5.52763 87.4808 5.99043 87.4808 6.50033C87.4808 7.04345 87.5666 7.50359 87.7376 7.88045C87.9092 8.25737 88.1606 8.57879 88.4864 8.84489C88.8122 9.11093 89.2184 9.33257 89.699 9.51005C90.1826 9.68747 90.7322 9.84791 91.3538 9.99215C91.8956 10.1252 92.3348 10.2526 92.6744 10.3744C93.0116 10.4965 93.2768 10.6268 93.473 10.7652C93.6662 10.9039 93.7988 11.0561 93.8708 11.2224C93.9428 11.3888 93.9788 11.5771 93.9788 11.7877C93.9788 12.2425 93.7934 12.6028 93.4232 12.8686C93.053 13.1348 92.5532 13.2677 91.9232 13.2677C91.1936 13.2677 90.5414 13.1373 89.9672 12.8769C89.3924 12.6164 88.8236 12.2425 88.2596 11.7545L87.0332 13.2179C87.7292 13.8496 88.4864 14.318 89.3042 14.6229C90.122 14.9278 90.9782 15.0801 91.8734 15.0801C92.4812 15.0801 93.0392 15.0025 93.5474 14.8474C94.0532 14.692 94.4894 14.4647 94.8488 14.1655C95.2106 13.8662 95.4926 13.5005 95.6966 13.0682C95.8982 12.6359 96.0008 12.1426 96.0008 11.5883C96.0008 11.1006 95.9204 10.6766 95.7602 10.3163C95.6 9.95603 95.3624 9.64037 95.0528 9.36851C94.7438 9.09701 94.3514 8.86685 93.8816 8.67845C93.4124 8.49023 92.8706 8.31839 92.2628 8.16311C91.7078 8.03009 91.2518 7.90247 90.89 7.78061C90.5306 7.65881 90.2492 7.52579 90.0416 7.38155C89.837 7.23749 89.6966 7.08227 89.6192 6.91607C89.5418 6.74957 89.5028 6.55013 89.5028 6.31751Z" fill="white" fill-opacity="0.82"/>
<path fill-rule="evenodd" clip-rule="evenodd" d="M24.5609 5.52355L19.0115 11.0656C18.9399 10.9269 18.8753 10.7824 18.8174 10.6326C18.6236 10.129 18.5267 9.59478 18.5267 9.03054C18.5267 8.46582 18.6236 7.93176 18.8174 7.42824C19.0115 6.92448 19.2802 6.48744 19.6238 6.11646C19.9674 5.74576 20.3804 5.45254 20.8625 5.23661C21.3447 5.0209 21.8739 4.91293 22.4501 4.91293C23.0266 4.91293 23.5587 5.02358 24.0461 5.24512C24.2273 5.32733 24.3989 5.42006 24.5609 5.52355ZM24.0712 12.8573C23.589 13.0733 23.0598 13.181 22.4835 13.181C21.9071 13.181 21.375 13.0704 20.8874 12.8491C20.7063 12.7666 20.5347 12.6739 20.373 12.5702L25.9223 7.02864C25.9938 7.16706 26.0584 7.3113 26.1162 7.46136C26.31 7.96494 26.407 8.49918 26.407 9.06366C26.407 9.62814 26.31 10.1622 26.1162 10.666C25.9223 11.1695 25.6535 11.6065 25.3098 11.9773C24.9662 12.348 24.5535 12.6414 24.0712 12.8573ZM24.9108 14.5757C25.6535 14.2547 26.2964 13.8203 26.8394 13.2722C27.3825 12.7245 27.8035 12.0852 28.1028 11.3548C28.4022 10.6243 28.5518 9.84948 28.5518 9.03054C28.5518 8.21136 28.4022 7.43652 28.1028 6.70584C27.9253 6.27264 27.7068 5.87255 27.4475 5.50541L31.0569 1.90102L29.6227 0.46875L26.0023 4.08413C25.6773 3.86282 25.3244 3.67152 24.944 3.51001C24.2013 3.19462 23.3813 3.0367 22.4835 3.0367C21.5856 3.0367 20.7656 3.19731 20.0229 3.5183C19.2802 3.8393 18.6373 4.27363 18.0942 4.82154C17.5512 5.36945 17.1299 6.00876 16.8307 6.7392C16.5315 7.4697 16.3818 8.24448 16.3818 9.06366C16.3818 9.8826 16.5315 10.6572 16.8307 11.3879C17.0084 11.8214 17.2268 12.2214 17.4861 12.5888L13.877 16.1927L15.3112 17.625L18.9314 14.0098C19.2564 14.2312 19.6092 14.4224 19.9896 14.584C20.7324 14.8994 21.5525 15.0571 22.4501 15.0571C23.348 15.0571 24.1681 14.8964 24.9108 14.5757Z" fill="white" fill-opacity="0.82"/>
</g>
<defs>
<clipPath id="clip0_36_751">
<rect width="96" height="18" fill="white"/>
</clipPath>
</defs>
</svg>
