<svg width="323" height="358" viewBox="0 0 323 358" fill="none" xmlns="http://www.w3.org/2000/svg">
<rect x="0.52892" y="0.52892" width="321.942" height="356.942" rx="19.4711" fill="url(#paint0_linear_36_612)" fill-opacity="0.13"/>
<path d="M42.6591 297.31H41.5909C41.5114 296.912 41.3674 296.545 41.1591 296.208C40.9545 295.867 40.697 295.57 40.3864 295.316C40.0758 295.062 39.7235 294.865 39.3295 294.725C38.9356 294.585 38.5095 294.515 38.0511 294.515C37.3163 294.515 36.6458 294.706 36.0398 295.088C35.4375 295.471 34.9545 296.034 34.5909 296.776C34.2311 297.515 34.0511 298.42 34.0511 299.492C34.0511 300.571 34.2311 301.481 34.5909 302.219C34.9545 302.958 35.4375 303.518 36.0398 303.901C36.6458 304.28 37.3163 304.469 38.0511 304.469C38.5095 304.469 38.9356 304.399 39.3295 304.259C39.7235 304.119 40.0758 303.924 40.3864 303.674C40.697 303.42 40.9545 303.123 41.1591 302.782C41.3674 302.441 41.5114 302.071 41.5909 301.674H42.6591C42.5644 302.208 42.3864 302.706 42.125 303.168C41.8674 303.626 41.5379 304.028 41.1364 304.373C40.7386 304.717 40.2803 304.986 39.7614 305.179C39.2424 305.373 38.6723 305.469 38.0511 305.469C37.0739 305.469 36.2064 305.225 35.4489 304.736C34.6913 304.244 34.0966 303.551 33.6648 302.657C33.2367 301.763 33.0227 300.708 33.0227 299.492C33.0227 298.276 33.2367 297.221 33.6648 296.327C34.0966 295.433 34.6913 294.742 35.4489 294.253C36.2064 293.761 37.0739 293.515 38.0511 293.515C38.6723 293.515 39.2424 293.611 39.7614 293.804C40.2803 293.994 40.7386 294.263 41.1364 294.611C41.5379 294.956 41.8674 295.357 42.125 295.816C42.3864 296.274 42.5644 296.772 42.6591 297.31ZM48.3366 305.492C47.5829 305.492 46.9162 305.301 46.3366 304.918C45.7609 304.535 45.3101 304.007 44.9844 303.333C44.6586 302.655 44.4957 301.873 44.4957 300.986C44.4957 300.092 44.6586 299.306 44.9844 298.628C45.3101 297.946 45.7609 297.416 46.3366 297.037C46.9162 296.655 47.5829 296.463 48.3366 296.463C49.0904 296.463 49.7552 296.655 50.331 297.037C50.9067 297.42 51.3575 297.95 51.6832 298.628C52.0128 299.306 52.1776 300.092 52.1776 300.986C52.1776 301.873 52.0147 302.655 51.6889 303.333C51.3632 304.007 50.9105 304.535 50.331 304.918C49.7552 305.301 49.0904 305.492 48.3366 305.492ZM48.3366 304.566C48.9427 304.566 49.456 304.403 49.8764 304.077C50.2969 303.751 50.6151 303.318 50.831 302.776C51.0507 302.234 51.1605 301.638 51.1605 300.986C51.1605 300.335 51.0507 299.736 50.831 299.191C50.6151 298.645 50.2969 298.208 49.8764 297.878C49.456 297.549 48.9427 297.384 48.3366 297.384C47.7344 297.384 47.2211 297.549 46.7969 297.878C46.3764 298.208 46.0563 298.645 45.8366 299.191C45.6207 299.736 45.5128 300.335 45.5128 300.986C45.5128 301.638 45.6207 302.234 45.8366 302.776C46.0563 303.318 46.3764 303.751 46.7969 304.077C47.2173 304.403 47.7306 304.566 48.3366 304.566ZM54.3977 305.31V296.583H55.3807V297.924H55.4716C55.6458 297.473 55.9356 297.119 56.3409 296.861C56.75 296.6 57.2405 296.469 57.8125 296.469C58.4148 296.469 58.9091 296.611 59.2955 296.895C59.6856 297.176 59.9773 297.562 60.1705 298.054H60.2443C60.4413 297.57 60.7614 297.185 61.2045 296.901C61.6515 296.613 62.1932 296.469 62.8295 296.469C63.6402 296.469 64.2803 296.725 64.75 297.236C65.2197 297.744 65.4545 298.486 65.4545 299.463V305.31H64.4432V299.463C64.4432 298.774 64.267 298.257 63.9148 297.912C63.5625 297.568 63.0985 297.395 62.5227 297.395C61.8561 297.395 61.3428 297.6 60.983 298.009C60.6231 298.418 60.4432 298.937 60.4432 299.566V305.31H59.4091V299.373C59.4091 298.782 59.2443 298.304 58.9148 297.941C58.5852 297.577 58.1212 297.395 57.5227 297.395C57.1212 297.395 56.7595 297.494 56.4375 297.691C56.1193 297.888 55.8674 298.162 55.6818 298.515C55.5 298.863 55.4091 299.265 55.4091 299.719V305.31H54.3977ZM68.1435 305.31V296.583H69.1605V305.31H68.1435ZM68.6605 295.083C68.4522 295.083 68.2741 295.013 68.1264 294.873C67.9787 294.729 67.9048 294.556 67.9048 294.356C67.9048 294.155 67.9787 293.984 68.1264 293.844C68.2741 293.7 68.4522 293.628 68.6605 293.628C68.8688 293.628 69.0469 293.7 69.1946 293.844C69.3423 293.984 69.4162 294.155 69.4162 294.356C69.4162 294.556 69.3423 294.729 69.1946 294.873C69.0469 295.013 68.8688 295.083 68.6605 295.083ZM72.8466 299.856V305.31H71.8352V296.583H72.8182V297.952H72.9091C73.1136 297.505 73.4318 297.147 73.8636 296.878C74.2992 296.606 74.8371 296.469 75.4773 296.469C76.0644 296.469 76.5795 296.592 77.0227 296.838C77.4697 297.081 77.8163 297.439 78.0625 297.912C78.3125 298.386 78.4375 298.967 78.4375 299.657V305.31H77.4261V299.719C77.4261 299.003 77.2254 298.437 76.8239 298.02C76.4261 297.604 75.892 297.395 75.2216 297.395C74.7633 297.395 74.3561 297.494 74 297.691C73.6439 297.888 73.3617 298.172 73.1534 298.543C72.9489 298.91 72.8466 299.348 72.8466 299.856ZM84.4304 308.765C83.8357 308.765 83.3149 308.687 82.8679 308.532C82.4209 308.38 82.044 308.172 81.7372 307.907C81.4304 307.641 81.1918 307.344 81.0213 307.015L81.8509 306.469C81.9759 306.689 82.1425 306.905 82.3509 307.117C82.563 307.329 82.8376 307.505 83.1747 307.645C83.5156 307.785 83.9342 307.856 84.4304 307.856C85.2031 307.856 85.8262 307.662 86.2997 307.276C86.777 306.89 87.0156 306.289 87.0156 305.475V303.509H86.9247C86.8073 303.774 86.6387 304.039 86.419 304.304C86.1993 304.566 85.9115 304.784 85.5554 304.958C85.2031 305.132 84.7656 305.219 84.2429 305.219C83.5459 305.219 82.9266 305.047 82.3849 304.702C81.8471 304.357 81.4228 303.865 81.1122 303.225C80.8054 302.581 80.652 301.814 80.652 300.924C80.652 300.041 80.8016 299.265 81.1009 298.594C81.4039 297.924 81.8262 297.401 82.3679 297.026C82.9096 296.651 83.5402 296.463 84.2599 296.463C84.794 296.463 85.2372 296.558 85.5895 296.748C85.9418 296.933 86.224 297.164 86.4361 297.441C86.652 297.717 86.8205 297.986 86.9418 298.248H87.044V296.583H88.0327V305.537C88.0327 306.276 87.8755 306.884 87.5611 307.361C87.2467 307.838 86.8187 308.191 86.277 308.418C85.7353 308.649 85.1198 308.765 84.4304 308.765ZM84.3622 304.293C84.9228 304.293 85.402 304.159 85.7997 303.89C86.1974 303.617 86.5024 303.227 86.7145 302.719C86.9266 302.212 87.0327 301.607 87.0327 300.907C87.0327 300.225 86.9285 299.621 86.7202 299.094C86.5118 298.564 86.2088 298.147 85.8111 297.844C85.4171 297.537 84.9342 297.384 84.3622 297.384C83.7789 297.384 83.2865 297.541 82.8849 297.856C82.4834 298.17 82.1804 298.594 81.9759 299.128C81.7713 299.659 81.669 300.251 81.669 300.907C81.669 301.573 81.7732 302.162 81.9815 302.674C82.1899 303.181 82.4948 303.579 82.8963 303.867C83.2978 304.151 83.7865 304.293 84.3622 304.293ZM101.074 298.498L100.148 298.759C100.057 298.498 99.928 298.261 99.7614 298.049C99.5947 297.837 99.3769 297.668 99.108 297.543C98.8428 297.418 98.5133 297.356 98.1193 297.356C97.5284 297.356 97.0436 297.496 96.6648 297.776C96.286 298.056 96.0966 298.418 96.0966 298.861C96.0966 299.236 96.2254 299.541 96.483 299.776C96.7443 300.007 97.1458 300.191 97.6875 300.327L99.0057 300.651C99.7367 300.829 100.284 301.111 100.648 301.498C101.015 301.884 101.199 302.369 101.199 302.952C101.199 303.445 101.063 303.882 100.79 304.265C100.517 304.647 100.136 304.948 99.6477 305.168C99.1629 305.384 98.6004 305.492 97.9602 305.492C97.108 305.492 96.4053 305.301 95.8523 304.918C95.2992 304.532 94.9451 303.975 94.7898 303.248L95.7614 303.009C95.8864 303.528 96.1307 303.92 96.4943 304.185C96.8617 304.45 97.3447 304.583 97.9432 304.583C98.6136 304.583 99.1496 304.433 99.5511 304.134C99.9527 303.831 100.153 303.452 100.153 302.998C100.153 302.645 100.036 302.35 99.8011 302.111C99.5663 301.869 99.2102 301.691 98.733 301.577L97.3068 301.236C96.5492 301.054 95.9886 300.766 95.625 300.373C95.2614 299.979 95.0795 299.49 95.0795 298.907C95.0795 298.426 95.2102 298.003 95.4716 297.64C95.733 297.272 96.0928 296.984 96.5511 296.776C97.0095 296.568 97.5322 296.463 98.1193 296.463C98.9186 296.463 99.5568 296.645 100.034 297.009C100.515 297.369 100.862 297.865 101.074 298.498ZM106.805 305.492C106.052 305.492 105.385 305.301 104.805 304.918C104.23 304.535 103.779 304.007 103.453 303.333C103.127 302.655 102.964 301.873 102.964 300.986C102.964 300.092 103.127 299.306 103.453 298.628C103.779 297.946 104.23 297.416 104.805 297.037C105.385 296.655 106.052 296.463 106.805 296.463C107.559 296.463 108.224 296.655 108.8 297.037C109.375 297.42 109.826 297.95 110.152 298.628C110.482 299.306 110.646 300.092 110.646 300.986C110.646 301.873 110.483 302.655 110.158 303.333C109.832 304.007 109.379 304.535 108.8 304.918C108.224 305.301 107.559 305.492 106.805 305.492ZM106.805 304.566C107.411 304.566 107.925 304.403 108.345 304.077C108.766 303.751 109.084 303.318 109.3 302.776C109.519 302.234 109.629 301.638 109.629 300.986C109.629 300.335 109.519 299.736 109.3 299.191C109.084 298.645 108.766 298.208 108.345 297.878C107.925 297.549 107.411 297.384 106.805 297.384C106.203 297.384 105.69 297.549 105.266 297.878C104.845 298.208 104.525 298.645 104.305 299.191C104.089 299.736 103.982 300.335 103.982 300.986C103.982 301.638 104.089 302.234 104.305 302.776C104.525 303.318 104.845 303.751 105.266 304.077C105.686 304.403 106.199 304.566 106.805 304.566ZM116.259 305.492C115.505 305.492 114.838 305.301 114.259 304.918C113.683 304.535 113.232 304.007 112.906 303.333C112.58 302.655 112.418 301.873 112.418 300.986C112.418 300.092 112.58 299.306 112.906 298.628C113.232 297.946 113.683 297.416 114.259 297.037C114.838 296.655 115.505 296.463 116.259 296.463C117.012 296.463 117.677 296.655 118.253 297.037C118.829 297.42 119.279 297.95 119.605 298.628C119.935 299.306 120.099 300.092 120.099 300.986C120.099 301.873 119.937 302.655 119.611 303.333C119.285 304.007 118.832 304.535 118.253 304.918C117.677 305.301 117.012 305.492 116.259 305.492ZM116.259 304.566C116.865 304.566 117.378 304.403 117.798 304.077C118.219 303.751 118.537 303.318 118.753 302.776C118.973 302.234 119.082 301.638 119.082 300.986C119.082 300.335 118.973 299.736 118.753 299.191C118.537 298.645 118.219 298.208 117.798 297.878C117.378 297.549 116.865 297.384 116.259 297.384C115.656 297.384 115.143 297.549 114.719 297.878C114.298 298.208 113.978 298.645 113.759 299.191C113.543 299.736 113.435 300.335 113.435 300.986C113.435 301.638 113.543 302.234 113.759 302.776C113.978 303.318 114.298 303.751 114.719 304.077C115.139 304.403 115.652 304.566 116.259 304.566ZM123.331 299.856V305.31H122.32V296.583H123.303V297.952H123.393C123.598 297.505 123.916 297.147 124.348 296.878C124.784 296.606 125.321 296.469 125.962 296.469C126.549 296.469 127.064 296.592 127.507 296.838C127.954 297.081 128.301 297.439 128.547 297.912C128.797 298.386 128.922 298.967 128.922 299.657V305.31H127.911V299.719C127.911 299.003 127.71 298.437 127.308 298.02C126.911 297.604 126.376 297.395 125.706 297.395C125.248 297.395 124.84 297.494 124.484 297.691C124.128 297.888 123.846 298.172 123.638 298.543C123.433 298.91 123.331 299.348 123.331 299.856Z" fill="white" fill-opacity="0.5"/>
<path d="M42.0254 138.951V119.975H47.3068V138.951H42.0254ZM35.1714 132.11V126.816H54.1476V132.11H35.1714ZM64.4616 142.83V115.991H83.1757V121.259H70.9487V126.763H82.2191V132.044H70.9487V137.562H83.1757V142.83H64.4616ZM97.1836 122.701V127.418H84.4848V122.701H97.1836ZM87.1451 117.878H93.5535V136.5C93.5535 136.893 93.6147 137.212 93.737 137.457C93.868 137.693 94.0559 137.863 94.3005 137.968C94.5451 138.064 94.8378 138.112 95.1785 138.112C95.4232 138.112 95.6809 138.09 95.9517 138.047C96.2313 137.994 96.441 137.95 96.5808 137.916L97.5506 142.542C97.2448 142.629 96.8123 142.738 96.2532 142.869C95.7027 143 95.0431 143.083 94.2743 143.118C92.7716 143.188 91.4829 143.013 90.4083 142.594C89.3424 142.166 88.5255 141.502 87.9576 140.602C87.3985 139.702 87.1276 138.571 87.1451 137.208V117.878ZM105.877 131.35V142.83H99.469V115.991H105.668V126.396H105.89C106.345 125.156 107.087 124.186 108.118 123.487C109.158 122.788 110.429 122.438 111.932 122.438C113.347 122.438 114.579 122.753 115.628 123.382C116.676 124.002 117.488 124.88 118.065 126.016C118.65 127.152 118.939 128.48 118.93 130V142.83H112.522V131.258C112.53 130.14 112.251 129.266 111.683 128.637C111.115 128.008 110.316 127.694 109.285 127.694C108.612 127.694 108.018 127.842 107.502 128.139C106.996 128.427 106.598 128.842 106.31 129.384C106.03 129.926 105.886 130.581 105.877 131.35ZM130.923 143.21C128.817 143.21 127 142.795 125.471 141.965C123.951 141.126 122.78 139.934 121.959 138.387C121.147 136.832 120.74 134.984 120.74 132.844C120.74 130.765 121.151 128.947 121.972 127.392C122.793 125.828 123.951 124.614 125.445 123.749C126.939 122.875 128.7 122.438 130.726 122.438C132.159 122.438 133.47 122.661 134.658 123.107C135.846 123.552 136.873 124.212 137.738 125.086C138.603 125.959 139.275 127.038 139.756 128.323C140.236 129.598 140.477 131.062 140.477 132.713V134.312H122.981V130.59H134.514C134.505 129.908 134.343 129.301 134.029 128.768C133.714 128.235 133.282 127.82 132.732 127.523C132.19 127.217 131.565 127.065 130.857 127.065C130.141 127.065 129.499 127.226 128.931 127.549C128.363 127.864 127.913 128.296 127.581 128.847C127.249 129.388 127.074 130.004 127.057 130.695V134.482C127.057 135.303 127.219 136.024 127.542 136.644C127.865 137.256 128.324 137.732 128.918 138.073C129.512 138.414 130.22 138.584 131.041 138.584C131.609 138.584 132.124 138.505 132.587 138.348C133.05 138.191 133.448 137.959 133.78 137.653C134.112 137.348 134.361 136.972 134.527 136.526L140.411 136.697C140.166 138.016 139.629 139.165 138.799 140.143C137.978 141.113 136.899 141.869 135.562 142.411C134.225 142.944 132.679 143.21 130.923 143.21ZM142.333 142.83V122.701H148.558V126.37H148.767C149.134 125.042 149.733 124.055 150.563 123.408C151.393 122.753 152.358 122.425 153.459 122.425C153.756 122.425 154.062 122.447 154.376 122.491C154.691 122.526 154.984 122.583 155.254 122.661V128.231C154.949 128.126 154.547 128.043 154.049 127.982C153.56 127.921 153.123 127.89 152.738 127.89C151.978 127.89 151.292 128.06 150.681 128.401C150.078 128.733 149.602 129.201 149.252 129.803C148.912 130.398 148.741 131.097 148.741 131.9V142.83H142.333ZM164.813 143.21C162.708 143.21 160.89 142.795 159.361 141.965C157.841 141.126 156.67 139.934 155.849 138.387C155.037 136.832 154.63 134.984 154.63 132.844C154.63 130.765 155.041 128.947 155.862 127.392C156.684 125.828 157.841 124.614 159.335 123.749C160.829 122.875 162.59 122.438 164.617 122.438C166.049 122.438 167.36 122.661 168.548 123.107C169.736 123.552 170.763 124.212 171.628 125.086C172.493 125.959 173.165 127.038 173.646 128.323C174.126 129.598 174.367 131.062 174.367 132.713V134.312H156.871V130.59H168.404C168.395 129.908 168.234 129.301 167.919 128.768C167.605 128.235 167.172 127.82 166.622 127.523C166.08 127.217 165.455 127.065 164.748 127.065C164.031 127.065 163.389 127.226 162.821 127.549C162.253 127.864 161.803 128.296 161.471 128.847C161.139 129.388 160.965 130.004 160.947 130.695V134.482C160.947 135.303 161.109 136.024 161.432 136.644C161.755 137.256 162.214 137.732 162.808 138.073C163.402 138.414 164.11 138.584 164.931 138.584C165.499 138.584 166.014 138.505 166.477 138.348C166.941 138.191 167.338 137.959 167.67 137.653C168.002 137.348 168.251 136.972 168.417 136.526L174.301 136.697C174.057 138.016 173.519 139.165 172.689 140.143C171.868 141.113 170.789 141.869 169.452 142.411C168.116 142.944 166.569 143.21 164.813 143.21ZM189.21 134.141V122.701H195.605V142.83H189.498V139.082H189.289C188.843 140.314 188.083 141.292 187.008 142.017C185.943 142.734 184.654 143.092 183.142 143.092C181.771 143.092 180.565 142.778 179.525 142.148C178.486 141.519 177.678 140.641 177.101 139.514C176.524 138.379 176.232 137.051 176.223 135.53V122.701H182.631V134.272C182.64 135.364 182.928 136.225 183.496 136.854C184.064 137.483 184.837 137.798 185.816 137.798C186.454 137.798 187.026 137.658 187.533 137.378C188.048 137.09 188.454 136.675 188.751 136.133C189.057 135.583 189.21 134.919 189.21 134.141ZM198.267 142.83V122.701H204.361V126.396H204.584C205.004 125.173 205.711 124.208 206.707 123.5C207.703 122.792 208.891 122.438 210.272 122.438C211.67 122.438 212.867 122.797 213.863 123.513C214.859 124.229 215.492 125.19 215.763 126.396H215.972C216.348 125.199 217.082 124.243 218.174 123.526C219.266 122.801 220.555 122.438 222.04 122.438C223.945 122.438 225.491 123.05 226.679 124.273C227.868 125.488 228.462 127.156 228.462 129.279V142.83H222.053V130.747C222.053 129.742 221.796 128.978 221.28 128.454C220.765 127.921 220.096 127.654 219.275 127.654C218.393 127.654 217.698 127.943 217.191 128.519C216.693 129.087 216.444 129.852 216.444 130.813V142.83H210.285V130.682C210.285 129.747 210.032 129.008 209.525 128.467C209.018 127.925 208.35 127.654 207.52 127.654C206.961 127.654 206.467 127.79 206.039 128.06C205.611 128.323 205.274 128.698 205.03 129.188C204.794 129.677 204.676 130.253 204.676 130.917V142.83H198.267ZM234.62 143.21C233.676 143.21 232.868 142.878 232.195 142.214C231.531 141.55 231.203 140.746 231.212 139.803C231.203 138.877 231.531 138.086 232.195 137.431C232.868 136.767 233.676 136.435 234.62 136.435C235.511 136.435 236.297 136.767 236.978 137.431C237.669 138.086 238.018 138.877 238.027 139.803C238.018 140.432 237.852 141.004 237.529 141.519C237.214 142.035 236.799 142.446 236.284 142.751C235.777 143.057 235.222 143.21 234.62 143.21ZM42.0254 185.951V166.975H47.3068V185.951H42.0254ZM35.1714 179.11V173.816H54.1476V179.11H35.1714ZM64.4616 189.83V162.991H75.6534C77.6629 162.991 79.3447 163.275 80.6989 163.843C82.0618 164.41 83.084 165.205 83.7655 166.228C84.4557 167.25 84.8008 168.434 84.8008 169.779C84.8008 170.801 84.5867 171.714 84.1586 172.518C83.7305 173.313 83.1408 173.973 82.3894 174.497C81.6381 175.021 80.7688 175.388 79.7815 175.598V175.86C80.8649 175.912 81.8652 176.205 82.7826 176.738C83.7087 177.271 84.4513 178.014 85.0105 178.966C85.5696 179.909 85.8492 181.028 85.8492 182.321C85.8492 183.762 85.4822 185.051 84.7484 186.187C84.0145 187.314 82.953 188.205 81.5638 188.86C80.1747 189.507 78.4885 189.83 76.5052 189.83H64.4616ZM70.9487 184.601H74.9588C76.3655 184.601 77.4008 184.335 78.0648 183.802C78.7375 183.269 79.0738 182.526 79.0738 181.574C79.0738 180.884 78.9122 180.289 78.589 179.791C78.2657 179.285 77.807 178.896 77.2129 178.625C76.6188 178.346 75.9068 178.206 75.0768 178.206H70.9487V184.601ZM70.9487 174.025H74.5395C75.2472 174.025 75.8762 173.907 76.4266 173.671C76.977 173.435 77.4051 173.095 77.7109 172.649C78.0254 172.204 78.1827 171.666 78.1827 171.037C78.1827 170.137 77.8638 169.43 77.226 168.914C76.5882 168.399 75.7277 168.141 74.6443 168.141H70.9487V174.025ZM87.5514 189.83V169.701H93.9598V189.83H87.5514ZM90.7621 167.355C89.8622 167.355 89.089 167.058 88.4425 166.464C87.796 165.861 87.4727 165.136 87.4727 164.288C87.4727 163.449 87.796 162.733 88.4425 162.139C89.089 161.536 89.8622 161.235 90.7621 161.235C91.6707 161.235 92.4439 161.536 93.0817 162.139C93.7282 162.733 94.0515 163.449 94.0515 164.288C94.0515 165.136 93.7282 165.861 93.0817 166.464C92.4439 167.058 91.6707 167.355 90.7621 167.355ZM107.984 169.701V174.418H95.2852V169.701H107.984ZM97.9455 164.878H104.354V183.5C104.354 183.893 104.415 184.212 104.537 184.457C104.668 184.693 104.856 184.863 105.101 184.968C105.346 185.064 105.638 185.112 105.979 185.112C106.224 185.112 106.481 185.09 106.752 185.047C107.032 184.994 107.241 184.95 107.381 184.916L108.351 189.542C108.045 189.629 107.613 189.738 107.054 189.869C106.503 190 105.844 190.083 105.075 190.118C103.572 190.188 102.283 190.013 101.209 189.594C100.143 189.166 99.3259 188.502 98.758 187.602C98.1989 186.702 97.928 185.571 97.9455 184.208V164.878ZM119.017 190.21C116.894 190.21 115.072 189.773 113.552 188.899C112.041 188.026 110.879 186.811 110.066 185.256C109.254 183.692 108.847 181.884 108.847 179.831C108.847 177.769 109.254 175.96 110.066 174.405C110.887 172.841 112.054 171.623 113.565 170.749C115.085 169.875 116.898 169.438 119.004 169.438C120.865 169.438 122.486 169.775 123.866 170.447C125.255 171.12 126.338 172.073 127.116 173.304C127.902 174.528 128.317 175.965 128.361 177.616H122.372C122.25 176.585 121.9 175.777 121.324 175.192C120.756 174.606 120.013 174.314 119.096 174.314C118.353 174.314 117.702 174.523 117.143 174.943C116.584 175.353 116.147 175.965 115.832 176.777C115.527 177.581 115.374 178.577 115.374 179.765C115.374 180.953 115.527 181.958 115.832 182.779C116.147 183.592 116.584 184.208 117.143 184.627C117.702 185.038 118.353 185.243 119.096 185.243C119.69 185.243 120.214 185.116 120.668 184.863C121.131 184.61 121.511 184.238 121.808 183.749C122.105 183.251 122.293 182.648 122.372 181.941H128.361C128.3 183.601 127.885 185.051 127.116 186.292C126.356 187.532 125.286 188.498 123.905 189.188C122.534 189.869 120.904 190.21 119.017 190.21ZM139.62 190.21C137.506 190.21 135.689 189.778 134.168 188.913C132.657 188.039 131.49 186.825 130.669 185.269C129.857 183.705 129.45 181.893 129.45 179.831C129.45 177.76 129.857 175.947 130.669 174.392C131.49 172.828 132.657 171.614 134.168 170.749C135.689 169.875 137.506 169.438 139.62 169.438C141.734 169.438 143.547 169.875 145.059 170.749C146.579 171.614 147.745 172.828 148.558 174.392C149.379 175.947 149.79 177.76 149.79 179.831C149.79 181.893 149.379 183.705 148.558 185.269C147.745 186.825 146.579 188.039 145.059 188.913C143.547 189.778 141.734 190.21 139.62 190.21ZM139.659 185.374C140.428 185.374 141.079 185.138 141.612 184.667C142.145 184.195 142.551 183.54 142.831 182.701C143.119 181.862 143.263 180.892 143.263 179.791C143.263 178.673 143.119 177.695 142.831 176.856C142.551 176.017 142.145 175.362 141.612 174.89C141.079 174.418 140.428 174.182 139.659 174.182C138.864 174.182 138.192 174.418 137.641 174.89C137.099 175.362 136.684 176.017 136.396 176.856C136.117 177.695 135.977 178.673 135.977 179.791C135.977 180.892 136.117 181.862 136.396 182.701C136.684 183.54 137.099 184.195 137.641 184.667C138.192 185.138 138.864 185.374 139.659 185.374ZM151.656 189.83V169.701H158.064V189.83H151.656ZM154.866 167.355C153.966 167.355 153.193 167.058 152.547 166.464C151.9 165.861 151.577 165.136 151.577 164.288C151.577 163.449 151.9 162.733 152.547 162.139C153.193 161.536 153.966 161.235 154.866 161.235C155.775 161.235 156.548 161.536 157.186 162.139C157.832 162.733 158.156 163.449 158.156 164.288C158.156 165.136 157.832 165.861 157.186 166.464C156.548 167.058 155.775 167.355 154.866 167.355ZM167.135 178.35V189.83H160.726V169.701H166.82V173.396H167.043C167.488 172.164 168.248 171.199 169.323 170.5C170.398 169.792 171.678 169.438 173.163 169.438C174.578 169.438 175.806 169.757 176.845 170.395C177.894 171.024 178.706 171.907 179.283 173.042C179.868 174.169 180.157 175.489 180.148 177V189.83H173.739V178.258C173.748 177.14 173.464 176.266 172.888 175.637C172.32 175.008 171.529 174.694 170.516 174.694C169.843 174.694 169.249 174.842 168.733 175.139C168.227 175.427 167.833 175.842 167.554 176.384C167.283 176.926 167.143 177.581 167.135 178.35ZM186.303 190.21C185.359 190.21 184.551 189.878 183.878 189.214C183.214 188.55 182.886 187.746 182.895 186.803C182.886 185.877 183.214 185.086 183.878 184.431C184.551 183.767 185.359 183.435 186.303 183.435C187.194 183.435 187.98 183.767 188.661 184.431C189.352 185.086 189.701 185.877 189.71 186.803C189.701 187.432 189.535 188.004 189.212 188.519C188.897 189.035 188.482 189.446 187.967 189.751C187.46 190.057 186.905 190.21 186.303 190.21Z" fill="white"/>
<path d="M35.2623 54.3101L32.594 44.8555H34.436L36.1394 51.8033H36.2272L38.0461 44.8555H39.7218L41.5453 51.8079H41.6284L43.3319 44.8555H45.1739L42.5056 54.3101H40.8159L38.9232 47.6762H38.8493L36.9519 54.3101H35.2623ZM47.4015 54.3101V44.8555H50.9469C51.6733 44.8555 52.2826 44.9817 52.7751 45.2341C53.2706 45.4864 53.6445 45.8404 53.8969 46.2959C54.1523 46.7483 54.28 47.2761 54.28 47.8793C54.28 48.4856 54.1508 49.0119 53.8923 49.4581C53.6368 49.9013 53.2598 50.2445 52.7612 50.4876C52.2626 50.7277 51.6502 50.8477 50.9239 50.8477H48.3986V49.4258H50.693C51.1177 49.4258 51.4655 49.3674 51.7364 49.2504C52.0072 49.1304 52.2072 48.9565 52.3365 48.7287C52.4688 48.4979 52.535 48.2148 52.535 47.8793C52.535 47.5438 52.4688 47.2576 52.3365 47.0206C52.2042 46.7806 52.0026 46.599 51.7317 46.4759C51.4609 46.3497 51.1116 46.2866 50.6838 46.2866H49.1142V54.3101H47.4015ZM52.2857 50.026L54.6263 54.3101H52.715L50.416 50.026H52.2857ZM58.1107 54.3101H56.2826L59.6111 44.8555H61.7254L65.0585 54.3101H63.2304L60.7052 46.7944H60.6313L58.1107 54.3101ZM58.1707 50.603H63.1565V51.9787H58.1707V50.603ZM67.3438 54.3101V44.8555H70.8892C71.6156 44.8555 72.2249 44.9909 72.7174 45.2618C73.2129 45.5326 73.5868 45.905 73.8392 46.379C74.0946 46.8498 74.2223 47.3853 74.2223 47.9855C74.2223 48.5918 74.0946 49.1304 73.8392 49.6013C73.5837 50.0721 73.2067 50.443 72.7081 50.7138C72.2096 50.9816 71.5956 51.1155 70.8662 51.1155H68.5164V49.7074H70.6353C71.0601 49.7074 71.4078 49.6336 71.6787 49.4858C71.9495 49.3381 72.1495 49.135 72.2788 48.8765C72.4111 48.6179 72.4773 48.3209 72.4773 47.9855C72.4773 47.65 72.4111 47.3546 72.2788 47.0991C72.1495 46.8437 71.948 46.6452 71.674 46.5036C71.4032 46.3589 71.0539 46.2866 70.6261 46.2866H69.0565V54.3101H67.3438ZM76.75 54.3101V44.8555H80.2955C81.0218 44.8555 81.6312 44.9909 82.1236 45.2618C82.6191 45.5326 82.993 45.905 83.2454 46.379C83.5008 46.8498 83.6286 47.3853 83.6286 47.9855C83.6286 48.5918 83.5008 49.1304 83.2454 49.6013C82.9899 50.0721 82.6129 50.443 82.1143 50.7138C81.6158 50.9816 81.0018 51.1155 80.2724 51.1155H77.9226V49.7074H80.0415C80.4663 49.7074 80.814 49.6336 81.0849 49.4858C81.3557 49.3381 81.5558 49.135 81.685 48.8765C81.8174 48.6179 81.8835 48.3209 81.8835 47.9855C81.8835 47.65 81.8174 47.3546 81.685 47.0991C81.5558 46.8437 81.3542 46.6452 81.0803 46.5036C80.8094 46.3589 80.4601 46.2866 80.0323 46.2866H78.4627V54.3101H76.75ZM86.1562 54.3101V44.8555H92.3054V46.2912H87.8689V48.858H91.9868V50.2937H87.8689V52.8743H92.3423V54.3101H86.1562ZM98.2965 54.3101H95.0927V44.8555H98.3612C99.2998 44.8555 100.106 45.0448 100.78 45.4233C101.457 45.7988 101.977 46.3389 102.341 47.0437C102.704 47.7485 102.885 48.5918 102.885 49.5736C102.885 50.5584 102.702 51.4048 102.336 52.1126C101.973 52.8205 101.448 53.3637 100.762 53.7422C100.078 54.1208 99.2568 54.3101 98.2965 54.3101ZM96.8054 52.8282H98.2134C98.872 52.8282 99.4214 52.7081 99.8615 52.4681C100.302 52.2249 100.632 51.8633 100.854 51.3832C101.076 50.9 101.186 50.2968 101.186 49.5736C101.186 48.8503 101.076 48.2502 100.854 47.7731C100.632 47.293 100.305 46.9345 99.8707 46.6975C99.4399 46.4574 98.9044 46.3374 98.2642 46.3374H96.8054V52.8282ZM109.817 54.3101V44.8555H115.966V46.2912H111.53V48.858H115.648V50.2937H111.53V52.8743H116.003V54.3101H109.817ZM118.338 46.2912V44.8555H125.882V46.2912H122.959V54.3101H121.26V46.2912H118.338ZM128.376 54.3101V44.8555H130.088V48.858H134.469V44.8555H136.187V54.3101H134.469V50.2937H130.088V54.3101H128.376ZM147.14 44.4123L144.093 55.7319H142.629L145.676 44.4123H147.14ZM153.585 54.3101V44.8555H157.204C157.887 44.8555 158.455 44.9632 158.907 45.1787C159.363 45.391 159.703 45.6819 159.928 46.0512C160.155 46.4205 160.269 46.8391 160.269 47.3069C160.269 47.6916 160.195 48.0209 160.048 48.2948C159.9 48.5656 159.701 48.7857 159.452 48.9549C159.203 49.1242 158.924 49.2458 158.617 49.3196V49.412C158.952 49.4304 159.274 49.5335 159.581 49.7213C159.892 49.9059 160.146 50.1675 160.343 50.5061C160.54 50.8446 160.639 51.254 160.639 51.7341C160.639 52.2234 160.52 52.6635 160.283 53.0544C160.046 53.4422 159.689 53.7484 159.212 53.9731C158.735 54.1977 158.135 54.3101 157.412 54.3101H153.585ZM155.297 52.879H157.139C157.761 52.879 158.209 52.7605 158.483 52.5235C158.76 52.2834 158.898 51.9757 158.898 51.6002C158.898 51.3201 158.829 51.0678 158.69 50.8431C158.552 50.6153 158.355 50.4368 158.099 50.3076C157.844 50.1752 157.539 50.1091 157.185 50.1091H155.297V52.879ZM155.297 48.8765H156.992C157.287 48.8765 157.553 48.8226 157.79 48.7149C158.027 48.6041 158.213 48.4487 158.349 48.2486C158.487 48.0455 158.557 47.8054 158.557 47.5285C158.557 47.1622 158.427 46.8606 158.169 46.6236C157.913 46.3866 157.533 46.2682 157.028 46.2682H155.297V48.8765ZM162.753 46.2912V44.8555H170.296V46.2912H167.374V54.3101H165.675V46.2912H162.753ZM180.464 48.0455H178.738C178.688 47.7624 178.598 47.5115 178.465 47.293C178.333 47.0714 178.168 46.8837 177.971 46.7298C177.774 46.5759 177.55 46.4605 177.297 46.3836C177.048 46.3035 176.779 46.2635 176.489 46.2635C175.976 46.2635 175.52 46.3928 175.123 46.6513C174.726 46.9068 174.415 47.2822 174.19 47.7777C173.966 48.2702 173.853 48.8718 173.853 49.5828C173.853 50.306 173.966 50.9154 174.19 51.4109C174.418 51.9033 174.729 52.2757 175.123 52.5281C175.52 52.7774 175.974 52.902 176.485 52.902C176.768 52.902 177.033 52.8651 177.279 52.7912C177.528 52.7143 177.751 52.602 177.948 52.4542C178.148 52.3065 178.316 52.1249 178.452 51.9095C178.59 51.6941 178.685 51.4478 178.738 51.1709L180.464 51.1801C180.4 51.6294 180.26 52.0511 180.044 52.445C179.832 52.8389 179.553 53.1867 179.209 53.4883C178.864 53.7869 178.461 54.0208 177.999 54.19C177.537 54.3562 177.025 54.4393 176.462 54.4393C175.631 54.4393 174.889 54.247 174.237 53.8623C173.584 53.4776 173.07 52.922 172.695 52.1957C172.319 51.4694 172.132 50.5984 172.132 49.5828C172.132 48.5641 172.321 47.6931 172.699 46.9699C173.078 46.2435 173.593 45.688 174.246 45.3033C174.898 44.9186 175.637 44.7263 176.462 44.7263C176.988 44.7263 177.477 44.8001 177.93 44.9478C178.382 45.0956 178.785 45.3125 179.139 45.5988C179.493 45.8819 179.784 46.2297 180.012 46.6421C180.243 47.0514 180.393 47.5192 180.464 48.0455Z" fill="white" fill-opacity="0.5"/>
<rect x="0.52892" y="0.52892" width="321.942" height="356.942" rx="19.4711" stroke="url(#paint1_linear_36_612)" stroke-width="1.05784"/>
<defs>
<linearGradient id="paint0_linear_36_612" x1="311.809" y1="6.83024" x2="-65.5594" y2="125.349" gradientUnits="userSpaceOnUse">
<stop stop-color="white"/>
<stop offset="1" stop-color="white" stop-opacity="0.38"/>
</linearGradient>
<linearGradient id="paint1_linear_36_612" x1="3.17913" y1="355.174" x2="428.442" y2="220.095" gradientUnits="userSpaceOnUse">
<stop stop-color="white"/>
<stop offset="1" stop-color="white" stop-opacity="0"/>
</linearGradient>
</defs>
</svg>
