<svg width="32" height="27" viewBox="0 0 32 27" fill="none" xmlns="http://www.w3.org/2000/svg">
<path d="M0 3.08945C1.1773 3.61158 2.4427 3.96431 3.7706 4.12299C2.4152 3.31069 1.3741 2.02441 0.884001 0.491619C2.1526 1.24394 3.5576 1.79005 5.0531 2.08439C6.2506 0.808669 7.9568 0.0117188 9.8451 0.0117188C13.4707 0.0117188 16.4104 2.95044 16.4104 6.57526C16.4104 7.0897 16.3523 7.5907 16.2403 8.0711C21.6967 7.7974 26.5341 5.1842 29.7722 1.21306C30.3373 2.18245 30.6612 3.30989 30.6612 4.51283C30.6612 6.7901 29.5021 8.7991 27.7405 9.9761C28.8167 9.9421 29.829 9.6468 30.7141 9.1552C30.7149 9.1825 30.7149 9.2101 30.7149 9.2377C30.7149 12.4178 28.4518 15.0706 25.4485 15.6739C25.9994 15.824 26.5793 15.9041 27.1781 15.9041C27.6011 15.9041 28.0123 15.8629 28.4133 15.7864C27.5778 18.394 25.1533 20.2917 22.2803 20.3445C24.5272 22.105 27.3579 23.1544 30.4339 23.1544C30.9638 23.1544 31.4864 23.1232 32 23.0626C29.0945 24.9251 25.6437 26.0117 21.9361 26.0117C9.8604 26.0117 3.2568 16.0102 3.2568 7.3362C3.2568 7.0516 3.2632 6.76866 3.2758 6.48696C1.9932 5.56172 0.880199 4.40581 0 3.08945Z" fill="white"/>
</svg>
